<svg id="a8747bd6-2856-4b59-b2a8-fe73e2367218" data-name="Layer 1" xmlns="http://www.w3.org/2000/svg" viewBox="0 0 401 229"><path d="M329.51,132.29l-228.62-.51a5.68,5.68,0,0,1-5.67-5.66V60.66A5.68,5.68,0,0,1,100.89,55l228.62.5a5.68,5.68,0,0,1,5.66,5.67v65.46A5.68,5.68,0,0,1,329.51,132.29Z" fill="#7c7910" stroke="#7c7910" stroke-miterlimit="10"/><path d="M287.9,159.12h-187a5.68,5.68,0,0,1-5.67-5.67V88H293.56v65.46A5.68,5.68,0,0,1,287.9,159.12Z" fill="#bec766" stroke="#7c7910" stroke-miterlimit="10"/><path d="M329.53,206.17H100.83a5.51,5.51,0,0,1-5.67-5.3V85.4h240V200.87A5.51,5.51,0,0,1,329.53,206.17Z" fill="#e9eccc" stroke="#7c7910" stroke-miterlimit="10"/><polygon points="13.71 15.02 22.18 23.51 13.71 31.96 21.98 31.96 30.46 23.51 21.98 15.02 13.71 15.02" fill="#7c7910"/><path d="M46.25,31.27a8.31,8.31,0,0,1-3.39.61c-3.63,0-6.36-2.29-6.36-6.51a6.4,6.4,0,0,1,6.72-6.76,6.89,6.89,0,0,1,3.05.57l-.4,1.36A6,6,0,0,0,43.28,20c-3,0-5,1.93-5,5.31,0,3.15,1.81,5.17,4.94,5.17A6.74,6.74,0,0,0,45.91,30Z" fill="#7c7910"/><path d="M51.25,31.69V26.23l-4.06-7.41h1.89l1.81,3.55c.5,1,.88,1.76,1.28,2.65h0c.36-.84.8-1.68,1.29-2.65l1.86-3.55h1.89l-4.32,7.39v5.48Z" fill="#7c7910"/><path d="M67,31.27a8.37,8.37,0,0,1-3.4.61c-3.63,0-6.36-2.29-6.36-6.51A6.4,6.4,0,0,1,64,18.61a6.91,6.91,0,0,1,3.06.57l-.4,1.36A6,6,0,0,0,64,20c-3,0-5,1.93-5,5.31,0,3.15,1.81,5.17,4.94,5.17A6.7,6.7,0,0,0,66.67,30Z" fill="#7c7910"/><path d="M69.1,18.82h1.66V30.29h5.49v1.4H69.1Z" fill="#7c7910"/><path d="M84.77,25.65h-5v4.64h5.58v1.4H78.1V18.82h7v1.39H79.76v4.07h5Z" fill="#7c7910"/><path d="M93.62,27.64l-1.34,4.05H90.56l4.38-12.87h2l4.39,12.87H99.56l-1.38-4.05Zm4.22-1.3-1.26-3.7c-.29-.84-.48-1.61-.67-2.35h0c-.19.76-.4,1.55-.65,2.33L94,26.34Z" fill="#7c7910"/><path d="M103.22,31.69V18.82H105l4.12,6.51a35.4,35.4,0,0,1,2.31,4.18l0,0c-.15-1.72-.19-3.28-.19-5.29V18.82h1.57V31.69H111.2l-4.09-6.53a39.7,39.7,0,0,1-2.4-4.3l-.06,0c.1,1.62.13,3.17.13,5.31v5.5Z" fill="#7c7910"/><path d="M115.78,31.69V18.82h1.81l4.12,6.51A35.4,35.4,0,0,1,124,29.51l0,0c-.15-1.72-.19-3.28-.19-5.29V18.82h1.56V31.69h-1.68l-4.08-6.53a39.83,39.83,0,0,1-2.41-4.3l-.05,0c.09,1.62.13,3.17.13,5.31v5.5Z" fill="#7c7910"/><path d="M130,18.82v7.62c0,2.88,1.28,4.1,3,4.1,1.91,0,3.13-1.26,3.13-4.1V18.82h1.68v7.5c0,3.95-2.08,5.58-4.87,5.58-2.63,0-4.62-1.51-4.62-5.5V18.82Z" fill="#7c7910"/><path d="M147.34,25.65h-5v4.64h5.58v1.4h-7.24V18.82h6.95v1.39h-5.29v4.07h5Z" fill="#7c7910"/><path d="M150.07,18.82h1.66V30.29h5.5v1.4h-7.16Z" fill="#7c7910"/><path d="M163.12,19a24.28,24.28,0,0,1,3.53-.27,7.39,7.39,0,0,1,5.22,1.61A5.94,5.94,0,0,1,173.68,25a6.81,6.81,0,0,1-1.85,5c-1.2,1.2-3.19,1.85-5.69,1.85a28.37,28.37,0,0,1-3-.15Zm1.66,11.38a11.38,11.38,0,0,0,1.68.09c3.55,0,5.48-2,5.48-5.46,0-3-1.7-5-5.21-5a9.9,9.9,0,0,0-1.95.17Z" fill="#7c7910"/><path d="M182.5,25.65h-5v4.64h5.58v1.4h-7.24V18.82h6.95v1.39h-5.29v4.07h5Z" fill="#7c7910"/><path d="M199.06,31.11a11.85,11.85,0,0,1-3.95.71,6.62,6.62,0,0,1-4.81-1.7,6.61,6.61,0,0,1-1.79-4.79c0-3.84,2.65-6.64,7-6.64a7.91,7.91,0,0,1,3.21.59l-.4,1.35a6.79,6.79,0,0,0-2.85-.55,4.81,4.81,0,0,0-5.17,5.17c0,3.27,2,5.19,5,5.19a5.47,5.47,0,0,0,2.22-.34V26.26h-2.62V24.93h4.24Z" fill="#7c7910"/><path d="M208.26,25.65h-5v4.64h5.57v1.4H201.6V18.82h7v1.39h-5.29v4.07h5Z" fill="#7c7910"/><path d="M210.76,29.66a5.85,5.85,0,0,0,3,.84c1.69,0,2.69-.9,2.69-2.19s-.69-1.89-2.43-2.56c-2.1-.75-3.39-1.83-3.39-3.65,0-2,1.66-3.49,4.16-3.49a5.89,5.89,0,0,1,2.84.63l-.46,1.36a5.09,5.09,0,0,0-2.44-.62c-1.76,0-2.42,1.05-2.42,1.93,0,1.2.78,1.8,2.55,2.48,2.18.84,3.29,1.89,3.29,3.78s-1.47,3.71-4.51,3.71a6.73,6.73,0,0,1-3.28-.82Z" fill="#7c7910"/><path d="M222.84,20.23h-3.91V18.82h9.52v1.41h-3.93V31.69h-1.68Z" fill="#7c7910"/><path d="M231.54,18.82V31.69h-1.66V18.82Z" fill="#7c7910"/><path d="M245.44,25.12c0,4.43-2.69,6.78-6,6.78s-5.78-2.64-5.78-6.53c0-4.09,2.54-6.76,6-6.76S245.44,21.3,245.44,25.12Zm-10,.21c0,2.75,1.49,5.21,4.11,5.21s4.12-2.42,4.12-5.34c0-2.56-1.34-5.24-4.1-5.24S235.45,22.5,235.45,25.33Z" fill="#7c7910"/><path d="M247.59,31.69V18.82h1.82l4.12,6.51a36.9,36.9,0,0,1,2.31,4.18l0,0c-.16-1.72-.2-3.28-.2-5.29V18.82h1.57V31.69h-1.68l-4.08-6.53a39.83,39.83,0,0,1-2.41-4.3l-.06,0c.1,1.62.14,3.17.14,5.31v5.5Z" fill="#7c7910"/><path d="M264.2,19a24.06,24.06,0,0,1,3.53-.27,7.38,7.38,0,0,1,5.21,1.61A5.94,5.94,0,0,1,274.75,25a6.81,6.81,0,0,1-1.85,5c-1.2,1.2-3.19,1.85-5.69,1.85a28.17,28.17,0,0,1-3-.15Zm1.66,11.38a11.38,11.38,0,0,0,1.68.09c3.55,0,5.47-2,5.47-5.46,0-3-1.69-5-5.21-5a9.7,9.7,0,0,0-1.94.17Z" fill="#7c7910"/><path d="M278.57,18.82v7.62c0,2.88,1.27,4.1,3,4.1,1.91,0,3.13-1.26,3.13-4.1V18.82h1.68v7.5c0,3.95-2.08,5.58-4.87,5.58-2.63,0-4.61-1.51-4.61-5.5V18.82Z" fill="#7c7910"/><path d="M293.3,19a17.43,17.43,0,0,1,3.19-.27,5.29,5.29,0,0,1,3.72,1.05,3.23,3.23,0,0,1,1,2.45,3.38,3.38,0,0,1-2.42,3.28v.06a3.21,3.21,0,0,1,1.89,2.59,20.42,20.42,0,0,0,1,3.54H300a16.56,16.56,0,0,1-.86-3.08c-.38-1.77-1.07-2.44-2.58-2.5H295v5.58H293.3ZM295,24.85h1.7c1.77,0,2.9-1,2.9-2.44,0-1.66-1.2-2.39-3-2.41a6.55,6.55,0,0,0-1.64.16Z" fill="#7c7910"/><path d="M310.23,25.65h-5v4.64h5.57v1.4h-7.23V18.82h6.94v1.39h-5.28v4.07h5Z" fill="#7c7910"/><path d="M313,31.69V18.82h1.81l4.12,6.51a35.4,35.4,0,0,1,2.31,4.18l0,0c-.15-1.72-.19-3.28-.19-5.29V18.82h1.56V31.69h-1.68l-4.08-6.53a39.83,39.83,0,0,1-2.41-4.3l-.05,0c.09,1.62.13,3.17.13,5.31v5.5Z" fill="#7c7910"/><path d="M325.51,19a24.28,24.28,0,0,1,3.53-.27,7.39,7.39,0,0,1,5.22,1.61A5.94,5.94,0,0,1,336.07,25a6.81,6.81,0,0,1-1.85,5,8,8,0,0,1-5.69,1.85,28.37,28.37,0,0,1-3-.15Zm1.66,11.38a11.46,11.46,0,0,0,1.68.09c3.55,0,5.48-2,5.48-5.46,0-3-1.7-5-5.21-5a9.9,9.9,0,0,0-1.95.17Z" fill="#7c7910"/><path d="M344.88,25.65h-5v4.64h5.58v1.4h-7.24V18.82h6.95v1.39h-5.29v4.07h5Z" fill="#7c7910"/><path d="M358.46,26c-.1-1.8-.21-4-.2-5.56h-.05c-.44,1.51-1,3.11-1.63,4.89l-2.27,6.24h-1.26L351,25.48c-.61-1.81-1.12-3.47-1.49-5h0c0,1.6-.14,3.76-.25,5.69l-.35,5.52h-1.58l.9-12.87h2.12L352.48,25c.53,1.59,1,3,1.3,4.34h.06c.32-1.3.78-2.71,1.35-4.34l2.29-6.22h2.12l.8,12.87h-1.62Z" fill="#7c7910"/><path d="M369.62,25.65h-5v4.64h5.57v1.4H363V18.82h7v1.39h-5.29v4.07h5Z" fill="#7c7910"/><path d="M372.35,31.69V18.82h1.81l4.12,6.51a35.4,35.4,0,0,1,2.31,4.18l0,0c-.15-1.72-.19-3.28-.19-5.29V18.82H382V31.69h-1.68l-4.08-6.53a39.83,39.83,0,0,1-2.41-4.3l-.05,0c.09,1.62.13,3.17.13,5.31v5.5Z" fill="#7c7910"/><path d="M387.35,20.23h-3.92V18.82H393v1.41H389V31.69h-1.68Z" fill="#7c7910"/><path d="M133.1,74.88l-1.33,4h-1.72l4.37-12.86h2l4.39,12.86H139l-1.37-4Zm4.22-1.3-1.26-3.7c-.28-.84-.47-1.61-.66-2.35h0c-.19.76-.4,1.54-.65,2.33l-1.26,3.72Z" fill="#fff"/><path d="M150.15,76.4c0,1,0,1.8.08,2.52h-1.49l-.1-1.5h0a3.48,3.48,0,0,1-3,1.71c-1.45,0-3.19-.8-3.19-4v-5.4H144V74.8c0,1.76.54,2.94,2.06,2.94a2.43,2.43,0,0,0,2.22-1.53,2.54,2.54,0,0,0,.15-.86V69.69h1.68Z" fill="#fff"/><path d="M165,65.37V76.54c0,.82,0,1.75.08,2.38h-1.51l-.08-1.6h0a3.41,3.41,0,0,1-3.15,1.81c-2.23,0-3.95-1.89-3.95-4.69,0-3.08,1.89-5,4.14-5a3.07,3.07,0,0,1,2.79,1.41h0V65.37Zm-1.68,8.08a2.87,2.87,0,0,0-.08-.71,2.47,2.47,0,0,0-2.42-1.95c-1.74,0-2.77,1.53-2.77,3.57,0,1.87.92,3.42,2.73,3.42a2.52,2.52,0,0,0,2.46-2,2.69,2.69,0,0,0,.08-.72Z" fill="#fff"/><path d="M168.68,74.61a3,3,0,0,0,3.17,3.21,6,6,0,0,0,2.56-.48l.28,1.2a7.42,7.42,0,0,1-3.07.57,4.28,4.28,0,0,1-4.54-4.65c0-2.79,1.64-5,4.33-5,3,0,3.82,2.65,3.82,4.35a6,6,0,0,1-.06.78Zm4.92-1.2c0-1.07-.44-2.73-2.33-2.73a2.78,2.78,0,0,0-2.57,2.73Zm.4-7.71-2.32,2.73h-1.21l1.68-2.73Z" fill="#fff"/><path d="M177.23,78.92c0-.63.07-1.56.07-2.38V65.37H179v5.8h0a3.44,3.44,0,0,1,3.15-1.69c2.29,0,3.92,1.9,3.9,4.71,0,3.3-2.08,4.94-4.15,4.94a3.29,3.29,0,0,1-3.09-1.73h-.06l-.07,1.52Zm1.73-3.7a3,3,0,0,0,.08.61,2.6,2.6,0,0,0,2.52,2c1.76,0,2.81-1.43,2.81-3.55,0-1.85-1-3.44-2.75-3.44a2.67,2.67,0,0,0-2.56,2.06,3.16,3.16,0,0,0-.1.69Z" fill="#fff"/><path d="M195.89,76.4c0,1,0,1.8.08,2.52h-1.49l-.09-1.5h0a3.48,3.48,0,0,1-3.06,1.71c-1.45,0-3.18-.8-3.18-4v-5.4h1.68V74.8c0,1.76.53,2.94,2.06,2.94a2.42,2.42,0,0,0,2.21-1.53,2.31,2.31,0,0,0,.15-.86V69.69h1.68Z" fill="#fff"/><path d="M200.7,67v2.66h2.41V71H200.7v5c0,1.14.33,1.79,1.26,1.79a4.19,4.19,0,0,0,1-.11l.07,1.26a4.21,4.21,0,0,1-1.49.22,2.31,2.31,0,0,1-1.81-.7,3.43,3.43,0,0,1-.65-2.41V71h-1.43V69.69h1.43V67.47Z" fill="#fff"/><path d="M217,65.37V76.54c0,.82,0,1.75.08,2.38h-1.51l-.08-1.6h0a3.41,3.41,0,0,1-3.15,1.81c-2.23,0-3.95-1.89-3.95-4.69,0-3.08,1.89-5,4.15-5a3.07,3.07,0,0,1,2.78,1.41h0V65.37Zm-1.68,8.08a2.87,2.87,0,0,0-.08-.71,2.46,2.46,0,0,0-2.42-1.95c-1.74,0-2.77,1.53-2.77,3.57,0,1.87.92,3.42,2.73,3.42a2.52,2.52,0,0,0,2.46-2,2.69,2.69,0,0,0,.08-.72Z" fill="#fff"/><path d="M220.74,74.61a3,3,0,0,0,3.17,3.21,6,6,0,0,0,2.56-.48l.28,1.2a7.42,7.42,0,0,1-3.07.57,4.28,4.28,0,0,1-4.54-4.65c0-2.79,1.64-5,4.33-5,3,0,3.82,2.65,3.82,4.35a6,6,0,0,1-.06.78Zm4.93-1.2c0-1.07-.44-2.73-2.33-2.73a2.78,2.78,0,0,0-2.58,2.73Z" fill="#fff"/><path d="M233.41,65.37h1.68V78.92h-1.68Z" fill="#fff"/><path d="M239.16,65.85l-.33,4.58h-1l-.3-4.58Z" fill="#fff"/><path d="M242.29,74.61a3,3,0,0,0,3.17,3.21,6,6,0,0,0,2.55-.48l.29,1.2a7.42,7.42,0,0,1-3.07.57,4.29,4.29,0,0,1-4.55-4.65c0-2.79,1.65-5,4.34-5,3,0,3.81,2.65,3.81,4.35a6.44,6.44,0,0,1-.05.78Zm4.92-1.2c0-1.07-.44-2.73-2.33-2.73a2.77,2.77,0,0,0-2.57,2.73Z" fill="#fff"/><path d="M251.64,69.69l1.32,2c.34.52.62,1,.93,1.51H254c.3-.55.61-1,.91-1.53l1.3-2H258l-3.15,4.46,3.24,4.77h-1.91l-1.35-2.08c-.37-.53-.67-1-1-1.6h0c-.31.55-.63,1.05-1,1.6l-1.33,2.08h-1.86l3.29-4.71-3.13-4.52Z" fill="#fff"/><path d="M260.34,74.61a3,3,0,0,0,3.17,3.21,6,6,0,0,0,2.56-.48l.28,1.2a7.42,7.42,0,0,1-3.07.57,4.29,4.29,0,0,1-4.54-4.65c0-2.79,1.64-5,4.33-5,3,0,3.82,2.65,3.82,4.35a6,6,0,0,1-.06.78Zm4.93-1.2c0-1.07-.44-2.73-2.33-2.73a2.78,2.78,0,0,0-2.58,2.73Z" fill="#fff"/><path d="M269,72.57c0-1.09,0-2-.08-2.88h1.47l.06,1.81h.07a2.78,2.78,0,0,1,2.56-2,1.77,1.77,0,0,1,.48,0v1.59a2.31,2.31,0,0,0-2.83,2.1,5.79,5.79,0,0,0-.07.78v4.92H269Z" fill="#fff"/><path d="M281.6,78.58a6.18,6.18,0,0,1-2.65.53,4.38,4.38,0,0,1-4.6-4.71,4.7,4.7,0,0,1,5-4.91,5.62,5.62,0,0,1,2.33.48l-.38,1.3a3.88,3.88,0,0,0-1.95-.44,3.48,3.48,0,0,0-.06,7,4.8,4.8,0,0,0,2.07-.46Z" fill="#fff"/><path d="M285.44,67.09a1,1,0,0,1-2.08,0,1,1,0,0,1,1.05-1A1,1,0,0,1,285.44,67.09Zm-1.87,11.83V69.69h1.68v9.23Z" fill="#fff"/><path d="M294.62,78.58a6.19,6.19,0,0,1-2.66.53,4.39,4.39,0,0,1-4.6-4.71,4.7,4.7,0,0,1,5-4.91,5.62,5.62,0,0,1,2.33.48l-.39,1.3a3.87,3.87,0,0,0-1.94-.44,3.48,3.48,0,0,0-.06,7,4.79,4.79,0,0,0,2.06-.46Z" fill="#fff"/><path d="M297.4,74.61a3,3,0,0,0,3.17,3.21,6,6,0,0,0,2.56-.48l.29,1.2a7.51,7.51,0,0,1-3.08.57,4.29,4.29,0,0,1-4.54-4.65c0-2.79,1.64-5,4.33-5,3,0,3.82,2.65,3.82,4.35a6,6,0,0,1-.06.78Zm4.93-1.2c0-1.07-.44-2.73-2.33-2.73a2.79,2.79,0,0,0-2.58,2.73Z" fill="#fff"/><path d="M118.38,93.75h.92v6.36h3v.77h-4Z"/><path d="M123.72,98.49a1.64,1.64,0,0,0,1.75,1.78,3.33,3.33,0,0,0,1.42-.27l.16.67a4.11,4.11,0,0,1-1.7.32,2.38,2.38,0,0,1-2.52-2.59,2.49,2.49,0,0,1,2.4-2.76,2.18,2.18,0,0,1,2.12,2.42,3.73,3.73,0,0,1,0,.43Zm2.73-.67a1.33,1.33,0,0,0-1.29-1.51,1.54,1.54,0,0,0-1.43,1.51Z"/><path d="M128.38,99.93a2.41,2.41,0,0,0,1.22.37c.68,0,1-.34,1-.76s-.27-.69-.95-.94c-.92-.33-1.36-.84-1.36-1.46a1.58,1.58,0,0,1,1.77-1.5,2.56,2.56,0,0,1,1.26.32l-.23.68a2,2,0,0,0-1.05-.3c-.55,0-.86.32-.86.7s.31.61,1,.87c.89.34,1.35.78,1.35,1.54s-.7,1.54-1.92,1.54a3,3,0,0,1-1.44-.35Z"/><path d="M139.58,98.28A2.5,2.5,0,0,1,137,101a2.44,2.44,0,0,1-2.46-2.64,2.5,2.5,0,0,1,2.54-2.72A2.43,2.43,0,0,1,139.58,98.28Zm-4.07,0c0,1.12.65,2,1.56,2s1.56-.84,1.56-2c0-.87-.44-2-1.54-2S135.51,97.36,135.51,98.33Z"/><path d="M140.71,100.88c0-.35,0-.87,0-1.32v-6.2h.92v3.22h0a1.91,1.91,0,0,1,1.75-.94c1.27,0,2.17,1.06,2.16,2.62a2.44,2.44,0,0,1-2.3,2.74,1.84,1.84,0,0,1-1.72-1h0l0,.84Zm1-2a2,2,0,0,0,0,.34,1.44,1.44,0,0,0,1.4,1.09c1,0,1.55-.8,1.55-2s-.53-1.91-1.52-1.91a1.49,1.49,0,0,0-1.42,1.15,1.85,1.85,0,0,0,0,.38Z"/><path d="M145.53,102.37a1.51,1.51,0,0,0,1-.4c.25-.29.35-.7.35-1.92V95.76h.93v4.65a2.81,2.81,0,0,1-.61,2.1,2.35,2.35,0,0,1-1.59.59Zm2.41-8.05a.58.58,0,0,1-1.16,0,.57.57,0,0,1,.59-.59A.56.56,0,0,1,147.94,94.32Z"/><path d="M149.87,98.49a1.64,1.64,0,0,0,1.76,1.78,3.33,3.33,0,0,0,1.42-.27l.16.67a4.13,4.13,0,0,1-1.71.32A2.39,2.39,0,0,1,149,98.4a2.49,2.49,0,0,1,2.41-2.76,2.18,2.18,0,0,1,2.12,2.42,3.32,3.32,0,0,1,0,.43Zm2.74-.67a1.33,1.33,0,0,0-1.3-1.51,1.55,1.55,0,0,0-1.43,1.51Z"/><path d="M158.31,100.69a3.35,3.35,0,0,1-1.47.3,2.44,2.44,0,0,1-2.55-2.62A2.61,2.61,0,0,1,157,95.65a3,3,0,0,1,1.29.27l-.21.72a2.11,2.11,0,0,0-1.08-.25,1.78,1.78,0,0,0-1.81,1.94,1.76,1.76,0,0,0,1.78,1.92,2.55,2.55,0,0,0,1.14-.26Z"/><path d="M160.66,94.29v1.47H162v.71h-1.34v2.76c0,.64.18,1,.7,1a2,2,0,0,0,.54-.07l0,.7a2.17,2.17,0,0,1-.83.13,1.33,1.33,0,0,1-1-.39,1.94,1.94,0,0,1-.36-1.34V96.47H159v-.71h.79V94.53Z"/><path d="M164.09,94.32a.58.58,0,0,1-1.16,0,.57.57,0,0,1,.58-.59A.56.56,0,0,1,164.09,94.32Zm-1,6.56V95.76H164v5.12Z"/><path d="M165.62,100.88V96.47h-.72v-.71h.72v-.25a2.44,2.44,0,0,1,.59-1.79,1.83,1.83,0,0,1,1.25-.47,2.07,2.07,0,0,1,.8.15l-.13.72a1.3,1.3,0,0,0-.59-.12c-.8,0-1,.7-1,1.48v.28h1.24v.71h-1.24v4.41Z"/><path d="M168.4,99.93a2.41,2.41,0,0,0,1.22.37c.68,0,1-.34,1-.76s-.27-.69-1-.94c-.92-.33-1.36-.84-1.36-1.46a1.58,1.58,0,0,1,1.77-1.5,2.56,2.56,0,0,1,1.26.32l-.23.68a2,2,0,0,0-1.05-.3c-.55,0-.86.32-.86.7s.31.61,1,.87c.89.34,1.35.78,1.35,1.54s-.7,1.54-1.92,1.54a3,3,0,0,1-1.44-.35Z"/><path d="M179.39,93.36v6.2c0,.45,0,1,0,1.32h-.84l0-.89h0a1.91,1.91,0,0,1-1.75,1,2.34,2.34,0,0,1-2.19-2.61,2.45,2.45,0,0,1,2.3-2.75,1.74,1.74,0,0,1,1.55.78h0V93.36Zm-.93,4.48a1.46,1.46,0,0,0-1.39-1.47c-1,0-1.54.85-1.54,2s.51,1.9,1.52,1.9a1.41,1.41,0,0,0,1.36-1.11,1.36,1.36,0,0,0,.05-.41Z"/><path d="M181.45,98.49a1.64,1.64,0,0,0,1.76,1.78,3.33,3.33,0,0,0,1.42-.27l.16.67a4.13,4.13,0,0,1-1.71.32,2.39,2.39,0,0,1-2.52-2.59A2.49,2.49,0,0,1,183,95.64a2.18,2.18,0,0,1,2.12,2.42,3.32,3.32,0,0,1,0,.43Zm2.74-.67a1.33,1.33,0,0,0-1.3-1.51,1.55,1.55,0,0,0-1.43,1.51Z"/><path d="M189.61,94.29v1.47h1.33v.71h-1.33v2.76c0,.64.18,1,.7,1a2.14,2.14,0,0,0,.54-.07l0,.7a2.17,2.17,0,0,1-.83.13,1.29,1.29,0,0,1-1-.39,1.89,1.89,0,0,1-.36-1.34V96.47h-.8v-.71h.8V94.53Z"/><path d="M192,97.36c0-.61,0-1.13,0-1.6h.81l0,1h0a1.54,1.54,0,0,1,1.42-1.12,1,1,0,0,1,.26,0v.88a1.45,1.45,0,0,0-.32,0,1.32,1.32,0,0,0-1.25,1.2,2.63,2.63,0,0,0,0,.43v2.73H192Z"/><path d="M198.24,100.88l-.07-.64h0a1.89,1.89,0,0,1-1.56.76A1.46,1.46,0,0,1,195,99.53c0-1.24,1.1-1.92,3.08-1.91v-.1a1.06,1.06,0,0,0-1.16-1.19,2.59,2.59,0,0,0-1.34.38l-.21-.61a3.13,3.13,0,0,1,1.68-.46c1.57,0,1.95,1.07,1.95,2.1v1.91a6.57,6.57,0,0,0,.09,1.23Zm-.14-2.61c-1,0-2.17.16-2.17,1.15a.83.83,0,0,0,.88.89,1.27,1.27,0,0,0,1.24-.86,1,1,0,0,0,0-.29Z"/><path d="M200.78,95.76l1,2.88c.17.46.3.89.41,1.31h0c.12-.42.27-.85.44-1.31l1-2.88h1l-2,5.12h-.89l-1.94-5.12Z"/><path d="M208.31,100.88l-.07-.64h0a1.89,1.89,0,0,1-1.56.76,1.46,1.46,0,0,1-1.57-1.47c0-1.24,1.1-1.92,3.08-1.91v-.1A1.05,1.05,0,0,0,207,96.33a2.59,2.59,0,0,0-1.34.38l-.21-.61a3.13,3.13,0,0,1,1.68-.46c1.57,0,1.95,1.07,1.95,2.1v1.91a6.57,6.57,0,0,0,.09,1.23Zm-.14-2.61c-1,0-2.17.16-2.17,1.15a.83.83,0,0,0,.88.89,1.27,1.27,0,0,0,1.24-.86,1,1,0,0,0,0-.29Z"/><path d="M211.61,94.32a.55.55,0,0,1-.59.57.56.56,0,0,1-.56-.57.57.57,0,0,1,.58-.59A.56.56,0,0,1,211.61,94.32Zm-1,6.56V95.76h.93v5.12Z"/><path d="M213.05,93.36H214v7.52h-.94Z"/><path d="M214.84,102.19a15,15,0,0,0,.64-2.54l1-.1a13.1,13.1,0,0,1-1,2.57Z"/><path d="M224.31,93.36v6.2c0,.45,0,1,0,1.32h-.83l-.05-.89h0a1.89,1.89,0,0,1-1.74,1,2.34,2.34,0,0,1-2.2-2.61,2.45,2.45,0,0,1,2.3-2.75,1.71,1.71,0,0,1,1.55.78h0V93.36Zm-.93,4.48a1.78,1.78,0,0,0,0-.39A1.38,1.38,0,0,0,222,96.37c-1,0-1.53.85-1.53,2s.5,1.9,1.51,1.9a1.41,1.41,0,0,0,1.37-1.11,1.78,1.78,0,0,0,0-.41Z"/><path d="M226.55,93.63l-.18,2.54h-.58l-.16-2.54Z"/><path d="M230.69,100.88l-.08-.64h0A1.93,1.93,0,0,1,229,101a1.46,1.46,0,0,1-1.56-1.47c0-1.24,1.1-1.92,3.08-1.91v-.1a1.06,1.06,0,0,0-1.17-1.19,2.58,2.58,0,0,0-1.33.38l-.21-.61a3.11,3.11,0,0,1,1.68-.46c1.57,0,1.95,1.07,1.95,2.1v1.91a7.62,7.62,0,0,0,.08,1.23Zm-.14-2.61c-1,0-2.17.16-2.17,1.15a.83.83,0,0,0,.88.89,1.28,1.28,0,0,0,1.24-.86,1,1,0,0,0,.05-.29Z"/><path d="M233,97.43c0-.66,0-1.19,0-1.67h.84l0,.88h0a2,2,0,0,1,1.82-1,2.32,2.32,0,0,1,2.17,2.61c0,1.84-1.12,2.75-2.33,2.75a1.78,1.78,0,0,1-1.57-.81h0V103H233Zm.93,1.37a2.33,2.33,0,0,0,0,.38,1.44,1.44,0,0,0,1.39,1.09c1,0,1.56-.81,1.56-2s-.54-1.91-1.52-1.91a1.49,1.49,0,0,0-1.41,1.16,1.51,1.51,0,0,0-.06.38Z"/><path d="M239,97.43c0-.66,0-1.19,0-1.67h.83l0,.88h0a2,2,0,0,1,1.82-1,2.32,2.32,0,0,1,2.17,2.61c0,1.84-1.12,2.75-2.33,2.75a1.8,1.8,0,0,1-1.58-.81h0V103H239Zm.92,1.37a2.33,2.33,0,0,0,0,.38,1.44,1.44,0,0,0,1.4,1.09c1,0,1.56-.81,1.56-2s-.54-1.91-1.53-1.91a1.6,1.6,0,0,0-1.47,1.54Z"/><path d="M245,97.36c0-.61,0-1.13,0-1.6h.82l0,1h0a1.55,1.55,0,0,1,1.42-1.12,1.12,1.12,0,0,1,.27,0v.88a1.51,1.51,0,0,0-.32,0,1.31,1.31,0,0,0-1.25,1.2,2.63,2.63,0,0,0,0,.43v2.73H245Z"/><path d="M248.88,98.49a1.64,1.64,0,0,0,1.76,1.78,3.33,3.33,0,0,0,1.42-.27l.16.67a4.13,4.13,0,0,1-1.71.32A2.38,2.38,0,0,1,248,98.4a2.49,2.49,0,0,1,2.4-2.76,2.17,2.17,0,0,1,2.12,2.42,3.73,3.73,0,0,1,0,.43Zm2.73-.67a1.32,1.32,0,0,0-1.29-1.51,1.54,1.54,0,0,0-1.43,1.51Z"/><path d="M253.67,97.14c0-.52,0-1,0-1.38h.82l.05.84h0a1.88,1.88,0,0,1,1.69-1c.71,0,1.81.42,1.81,2.18v3.06h-.93V97.93c0-.83-.31-1.52-1.19-1.52a1.33,1.33,0,0,0-1.25,1,1.35,1.35,0,0,0-.06.43v3.08h-.93Z"/><path d="M260.63,94.29v1.47H262v.71h-1.33v2.76c0,.64.18,1,.69,1a2,2,0,0,0,.54-.07l.05.7a2.17,2.17,0,0,1-.83.13,1.33,1.33,0,0,1-1-.39,1.94,1.94,0,0,1-.36-1.34V96.47h-.79v-.71h.79V94.53Z"/><path d="M264.05,94.32a.58.58,0,0,1-1.16,0,.57.57,0,0,1,.58-.59A.56.56,0,0,1,264.05,94.32Zm-1,6.56V95.76h.93v5.12Z"/><path d="M265.36,99.93a2.42,2.42,0,0,0,1.23.37c.68,0,1-.34,1-.76s-.26-.69-.95-.94c-.92-.33-1.36-.84-1.36-1.46a1.58,1.58,0,0,1,1.77-1.5,2.53,2.53,0,0,1,1.26.32l-.23.68a2,2,0,0,0-1.05-.3c-.55,0-.86.32-.86.7s.31.61,1,.87c.89.34,1.34.78,1.34,1.54s-.7,1.54-1.91,1.54a3,3,0,0,1-1.44-.35Z"/><path d="M269.55,99.93a2.48,2.48,0,0,0,1.23.37c.68,0,1-.34,1-.76s-.27-.69-1-.94c-.92-.33-1.35-.84-1.35-1.46a1.58,1.58,0,0,1,1.77-1.5,2.56,2.56,0,0,1,1.26.32l-.24.68a2,2,0,0,0-1-.3c-.55,0-.86.32-.86.7s.31.61,1,.87c.89.34,1.35.78,1.35,1.54S272,101,270.76,101a3,3,0,0,1-1.44-.35Z"/><path d="M276.71,100.88l-.07-.64h0A1.93,1.93,0,0,1,275,101a1.46,1.46,0,0,1-1.57-1.47c0-1.24,1.1-1.92,3.08-1.91v-.1a1.05,1.05,0,0,0-1.16-1.19,2.59,2.59,0,0,0-1.34.38l-.21-.61a3.17,3.17,0,0,1,1.69-.46c1.56,0,1.94,1.07,1.94,2.1v1.91a7.54,7.54,0,0,0,.09,1.23Zm-.14-2.61c-1,0-2.17.16-2.17,1.15a.83.83,0,0,0,.88.89,1.27,1.27,0,0,0,1.24-.86,1,1,0,0,0,.05-.29Z"/><path d="M283.39,95.76c0,.37,0,.78,0,1.41v3a2.93,2.93,0,0,1-.73,2.34,2.71,2.71,0,0,1-1.86.62,3.29,3.29,0,0,1-1.71-.43l.24-.71a2.88,2.88,0,0,0,1.5.41c.95,0,1.65-.5,1.65-1.79V100h0a1.83,1.83,0,0,1-1.63.86,2.29,2.29,0,0,1-2.18-2.5,2.46,2.46,0,0,1,2.31-2.72,1.72,1.72,0,0,1,1.6.89h0l0-.77Zm-1,2a1.36,1.36,0,0,0-1.35-1.41c-.89,0-1.53.75-1.53,1.94,0,1,.51,1.84,1.51,1.84a1.36,1.36,0,0,0,1.3-1,1.73,1.73,0,0,0,.07-.5Z"/><path d="M285.42,98.49a1.64,1.64,0,0,0,1.76,1.78,3.31,3.31,0,0,0,1.41-.27l.16.67a4.11,4.11,0,0,1-1.7.32,2.38,2.38,0,0,1-2.52-2.59,2.49,2.49,0,0,1,2.4-2.76,2.17,2.17,0,0,1,2.12,2.42,3.73,3.73,0,0,1,0,.43Zm2.73-.67a1.32,1.32,0,0,0-1.29-1.51,1.54,1.54,0,0,0-1.43,1.51Z"/><path d="M293,98.49a1.64,1.64,0,0,0,1.76,1.78,3.31,3.31,0,0,0,1.41-.27l.16.67a4.08,4.08,0,0,1-1.7.32,2.38,2.38,0,0,1-2.52-2.59,2.49,2.49,0,0,1,2.4-2.76,2.17,2.17,0,0,1,2.12,2.42,3.73,3.73,0,0,1,0,.43Zm2.73-.67a1.32,1.32,0,0,0-1.29-1.51A1.54,1.54,0,0,0,293,97.82Z"/><path d="M298.88,94.29v1.47h1.33v.71h-1.33v2.76c0,.64.18,1,.7,1a2.14,2.14,0,0,0,.54-.07l0,.7a2.17,2.17,0,0,1-.83.13,1.29,1.29,0,0,1-1-.39,1.89,1.89,0,0,1-.36-1.34V96.47h-.8v-.71h.8V94.53Z"/><path d="M307.93,93.36v6.2c0,.45,0,1,0,1.32h-.83l0-.89h0a1.89,1.89,0,0,1-1.74,1,2.34,2.34,0,0,1-2.2-2.61,2.45,2.45,0,0,1,2.3-2.75,1.71,1.71,0,0,1,1.55.78h0V93.36ZM307,97.84a1.78,1.78,0,0,0,0-.39,1.38,1.38,0,0,0-1.35-1.08c-1,0-1.53.85-1.53,2s.51,1.9,1.51,1.9A1.41,1.41,0,0,0,307,99.14a1.78,1.78,0,0,0,0-.41Z"/><path d="M310,98.49a1.64,1.64,0,0,0,1.76,1.78,3.31,3.31,0,0,0,1.41-.27l.16.67a4.11,4.11,0,0,1-1.7.32,2.38,2.38,0,0,1-2.52-2.59,2.49,2.49,0,0,1,2.4-2.76,2.17,2.17,0,0,1,2.12,2.42,3.73,3.73,0,0,1,0,.43Zm2.73-.67a1.32,1.32,0,0,0-1.29-1.51A1.54,1.54,0,0,0,310,97.82Z"/><path d="M118.35,110.14c0-.66,0-1.19,0-1.67h.84l0,.87h0a2,2,0,0,1,1.83-1,2.33,2.33,0,0,1,2.17,2.6c0,1.85-1.13,2.76-2.33,2.76a1.8,1.8,0,0,1-1.58-.81h0v2.79h-.92Zm.92,1.36a2.34,2.34,0,0,0,0,.39,1.44,1.44,0,0,0,1.4,1.09c1,0,1.55-.81,1.55-2s-.54-1.91-1.52-1.91a1.49,1.49,0,0,0-1.41,1.15,1.67,1.67,0,0,0-.06.39Z"/><path d="M124.89,111.2a1.64,1.64,0,0,0,1.76,1.78,3.33,3.33,0,0,0,1.42-.27l.16.67a4.13,4.13,0,0,1-1.71.32,2.38,2.38,0,0,1-2.52-2.59,2.49,2.49,0,0,1,2.41-2.76,2.16,2.16,0,0,1,2.11,2.41,3.94,3.94,0,0,1,0,.44Zm2.73-.67a1.32,1.32,0,0,0-1.29-1.51,1.54,1.54,0,0,0-1.43,1.51Z"/><path d="M129.68,110.06c0-.6,0-1.12,0-1.59h.81l0,1h0a1.55,1.55,0,0,1,1.42-1.12,1.12,1.12,0,0,1,.27,0v.88a1.51,1.51,0,0,0-.32,0,1.31,1.31,0,0,0-1.25,1.19,2.87,2.87,0,0,0,0,.44v2.73h-.92Z"/><path d="M133.55,113.59v-4.42h-.72v-.7h.72v-.25a2.41,2.41,0,0,1,.6-1.79,1.76,1.76,0,0,1,1.25-.47,2.28,2.28,0,0,1,.79.14l-.13.72a1.4,1.4,0,0,0-.59-.11c-.79,0-1,.7-1,1.48v.28h1.23v.7h-1.23v4.42Z"/><path d="M136.93,111.2a1.64,1.64,0,0,0,1.76,1.78,3.33,3.33,0,0,0,1.42-.27l.16.67a4.13,4.13,0,0,1-1.71.32,2.38,2.38,0,0,1-2.52-2.59,2.49,2.49,0,0,1,2.41-2.76,2.16,2.16,0,0,1,2.11,2.41,3.94,3.94,0,0,1,0,.44Zm2.73-.67a1.32,1.32,0,0,0-1.29-1.51,1.54,1.54,0,0,0-1.43,1.51Z"/><path d="M145.37,113.4a3.35,3.35,0,0,1-1.47.3,2.43,2.43,0,0,1-2.55-2.62,2.6,2.6,0,0,1,2.75-2.72,3.22,3.22,0,0,1,1.29.26l-.21.72a2.23,2.23,0,0,0-1.08-.24,1.94,1.94,0,0,0,0,3.86,2.55,2.55,0,0,0,1.14-.26Z"/><path d="M147.72,107v1.48h1.34v.7h-1.34v2.77c0,.63.18,1,.7,1a2.11,2.11,0,0,0,.54-.06l0,.7a2.28,2.28,0,0,1-.82.13,1.29,1.29,0,0,1-1-.4,1.91,1.91,0,0,1-.36-1.33v-2.8H146v-.7h.79v-1.23Z"/><path d="M151.14,107a.58.58,0,0,1-1.15,0,.57.57,0,0,1,.58-.59A.56.56,0,0,1,151.14,107Zm-1,6.56v-5.12H151v5.12Z"/><path d="M157.22,111a2.5,2.5,0,0,1-2.55,2.72,2.44,2.44,0,0,1-2.46-2.64,2.5,2.5,0,0,1,2.55-2.72A2.42,2.42,0,0,1,157.22,111Zm-4.06.05c0,1.12.64,2,1.55,2s1.56-.84,1.56-2c0-.87-.43-2-1.54-2S153.16,110.06,153.16,111Z"/><path d="M158.4,109.85c0-.53,0-1,0-1.38h.82l.06.84h0a1.88,1.88,0,0,1,1.69-1c.71,0,1.81.42,1.81,2.18v3.06h-.93v-3c0-.83-.31-1.52-1.19-1.52a1.33,1.33,0,0,0-1.25,1,1.35,1.35,0,0,0-.06.43v3.08h-.93Z"/><path d="M164.28,109.85c0-.53,0-1-.05-1.38h.83l.05.84h0a1.91,1.91,0,0,1,1.7-1c.71,0,1.81.42,1.81,2.18v3.06h-.93v-3c0-.83-.31-1.52-1.19-1.52a1.33,1.33,0,0,0-1.25,1,1.35,1.35,0,0,0-.06.43v3.08h-.93Z"/><path d="M170.67,111.2a1.64,1.64,0,0,0,1.76,1.78,3.33,3.33,0,0,0,1.42-.27l.16.67a4.13,4.13,0,0,1-1.71.32,2.39,2.39,0,0,1-2.52-2.59,2.49,2.49,0,0,1,2.41-2.76,2.16,2.16,0,0,1,2.11,2.41,3.94,3.94,0,0,1,0,.44Zm2.73-.67a1.32,1.32,0,0,0-1.29-1.51,1.54,1.54,0,0,0-1.43,1.51Z"/><path d="M175.46,109.85c0-.53,0-1,0-1.38h.81l0,.82h0a1.75,1.75,0,0,1,1.61-.94,1.52,1.52,0,0,1,1.45,1h0a2.12,2.12,0,0,1,.57-.67,1.78,1.78,0,0,1,1.13-.36c.68,0,1.69.44,1.69,2.22v3h-.91v-2.9c0-1-.36-1.58-1.12-1.58a1.2,1.2,0,0,0-1.1.85,1.59,1.59,0,0,0-.07.46v3.17h-.91v-3.07c0-.82-.36-1.41-1.07-1.41a1.29,1.29,0,0,0-1.16.93,1.39,1.39,0,0,0-.07.46v3.09h-.91Z"/><path d="M184.81,111.2a1.64,1.64,0,0,0,1.76,1.78,3.33,3.33,0,0,0,1.42-.27l.16.67a4.13,4.13,0,0,1-1.71.32,2.38,2.38,0,0,1-2.52-2.59,2.49,2.49,0,0,1,2.4-2.76,2.17,2.17,0,0,1,2.12,2.41,3.94,3.94,0,0,1,0,.44Zm2.73-.67a1.32,1.32,0,0,0-1.29-1.51,1.54,1.54,0,0,0-1.43,1.51Z"/><path d="M189.6,109.85c0-.53,0-1,0-1.38h.83l.05.84h0a1.88,1.88,0,0,1,1.69-1c.71,0,1.81.42,1.81,2.18v3.06H193v-3c0-.83-.31-1.52-1.19-1.52a1.33,1.33,0,0,0-1.25,1,1.35,1.35,0,0,0-.06.43v3.08h-.93Z"/><path d="M196.55,107v1.48h1.34v.7h-1.34v2.77c0,.63.18,1,.7,1a2.11,2.11,0,0,0,.54-.06l.05.7a2.39,2.39,0,0,1-.83.13,1.3,1.3,0,0,1-1-.4,1.91,1.91,0,0,1-.36-1.33v-2.8h-.79v-.7h.79v-1.23Z"/><path d="M205.61,106.07v6.2c0,.45,0,1,0,1.32h-.84l0-.89h0a1.9,1.9,0,0,1-1.75,1,2.34,2.34,0,0,1-2.19-2.61,2.45,2.45,0,0,1,2.3-2.75,1.74,1.74,0,0,1,1.55.78h0v-3.06Zm-.93,4.48a1.46,1.46,0,0,0-1.39-1.47c-1,0-1.54.85-1.54,2s.51,1.9,1.52,1.9a1.4,1.4,0,0,0,1.36-1.12,1.25,1.25,0,0,0,.05-.4Z"/><path d="M207.67,111.2a1.65,1.65,0,0,0,1.76,1.78,3.33,3.33,0,0,0,1.42-.27l.16.67a4.11,4.11,0,0,1-1.7.32,2.38,2.38,0,0,1-2.52-2.59,2.49,2.49,0,0,1,2.4-2.76,2.17,2.17,0,0,1,2.12,2.41,3.94,3.94,0,0,1,0,.44Zm2.74-.67a1.33,1.33,0,0,0-1.3-1.51,1.53,1.53,0,0,0-1.42,1.51Z"/><path d="M214.71,106.07h.93v7.52h-.93Z"/><path d="M217.89,106.34l-.18,2.54h-.57l-.17-2.54Z"/><path d="M219.63,111.2a1.64,1.64,0,0,0,1.76,1.78,3.33,3.33,0,0,0,1.42-.27l.16.67a4.13,4.13,0,0,1-1.71.32,2.38,2.38,0,0,1-2.52-2.59,2.49,2.49,0,0,1,2.4-2.76,2.17,2.17,0,0,1,2.12,2.41,3.94,3.94,0,0,1,0,.44Zm2.73-.67a1.32,1.32,0,0,0-1.29-1.51,1.54,1.54,0,0,0-1.43,1.51Z"/><path d="M224.42,109.85c0-.53,0-1,0-1.38h.81l0,.82h0a1.78,1.78,0,0,1,1.62-.94,1.52,1.52,0,0,1,1.45,1h0a2.12,2.12,0,0,1,.57-.67,1.74,1.74,0,0,1,1.13-.36c.68,0,1.68.44,1.68,2.22v3h-.91v-2.9c0-1-.36-1.58-1.11-1.58a1.2,1.2,0,0,0-1.1.85,1.59,1.59,0,0,0-.07.46v3.17h-.91v-3.07c0-.82-.36-1.41-1.07-1.41a1.28,1.28,0,0,0-1.16.93,1.39,1.39,0,0,0-.07.46v3.09h-.91Z"/><path d="M233.25,110.14c0-.66,0-1.19,0-1.67H234l.05.87h0a2,2,0,0,1,1.82-1,2.32,2.32,0,0,1,2.17,2.6c0,1.85-1.12,2.76-2.33,2.76a1.8,1.8,0,0,1-1.58-.81h0v2.79h-.92Zm.92,1.36a2.34,2.34,0,0,0,0,.39,1.44,1.44,0,0,0,1.4,1.09c1,0,1.56-.81,1.56-2s-.54-1.91-1.53-1.91a1.51,1.51,0,0,0-1.41,1.15,1.67,1.67,0,0,0-.06.39Z"/><path d="M239.28,106.07h.93v7.52h-.93Z"/><path d="M246.41,111a2.5,2.5,0,0,1-2.55,2.72,2.44,2.44,0,0,1-2.46-2.64,2.5,2.5,0,0,1,2.55-2.72A2.42,2.42,0,0,1,246.41,111Zm-4.06.05c0,1.12.64,2,1.55,2s1.56-.84,1.56-2c0-.87-.43-2-1.54-2S242.35,110.06,242.35,111Z"/><path d="M247.85,108.47l1.13,3c.11.34.24.75.32,1.05h0c.09-.3.2-.7.32-1.07l1-3h1l-1.4,3.65a7.88,7.88,0,0,1-1.76,3.21,2.54,2.54,0,0,1-1.14.6l-.24-.78a2.65,2.65,0,0,0,.82-.46,2.82,2.82,0,0,0,.78-1,.66.66,0,0,0,.08-.22.64.64,0,0,0-.07-.24l-1.89-4.72Z"/><path d="M252.92,111.2a1.64,1.64,0,0,0,1.75,1.78,3.33,3.33,0,0,0,1.42-.27l.16.67a4.11,4.11,0,0,1-1.7.32,2.38,2.38,0,0,1-2.52-2.59,2.49,2.49,0,0,1,2.4-2.76,2.17,2.17,0,0,1,2.12,2.41,3.94,3.94,0,0,1,0,.44Zm2.73-.67a1.33,1.33,0,0,0-1.29-1.51,1.53,1.53,0,0,0-1.43,1.51Zm.22-4.28-1.29,1.52h-.67l.93-1.52Z"/><path d="M259.82,112.64a2.45,2.45,0,0,0,1.23.37c.68,0,1-.34,1-.76s-.26-.69-1-1c-.92-.32-1.35-.83-1.35-1.45a1.57,1.57,0,0,1,1.76-1.5,2.53,2.53,0,0,1,1.26.32l-.23.67a2.06,2.06,0,0,0-1-.29c-.55,0-.85.32-.85.7s.3.61,1,.87c.89.33,1.34.78,1.34,1.54s-.69,1.54-1.91,1.54a3,3,0,0,1-1.44-.35Z"/><path d="M268.78,111a2.5,2.5,0,0,1-2.55,2.72,2.44,2.44,0,0,1-2.46-2.64,2.5,2.5,0,0,1,2.54-2.72A2.43,2.43,0,0,1,268.78,111Zm-4.07.05c0,1.12.65,2,1.56,2s1.56-.84,1.56-2c0-.87-.44-2-1.54-2S264.71,110.06,264.71,111Z"/><path d="M270,109.85c0-.53,0-1,0-1.38h.83l.05.84h0a1.91,1.91,0,0,1,1.7-1c.71,0,1.81.42,1.81,2.18v3.06h-.93v-3c0-.83-.31-1.52-1.19-1.52a1.33,1.33,0,0,0-1.25,1,1.35,1.35,0,0,0-.06.43v3.08H270Z"/><path d="M276.91,107v1.48h1.34v.7h-1.34v2.77c0,.63.18,1,.7,1a2.11,2.11,0,0,0,.54-.06l0,.7a2.33,2.33,0,0,1-.82.13,1.27,1.27,0,0,1-1-.4A1.91,1.91,0,0,1,276,112v-2.8h-.79v-.7H276v-1.23Z"/><path d="M282.06,111.2a1.64,1.64,0,0,0,1.76,1.78,3.36,3.36,0,0,0,1.42-.27l.16.67a4.13,4.13,0,0,1-1.71.32,2.38,2.38,0,0,1-2.52-2.59,2.49,2.49,0,0,1,2.4-2.76,2.17,2.17,0,0,1,2.12,2.41,3.94,3.94,0,0,1,0,.44Zm2.73-.67A1.32,1.32,0,0,0,283.5,109a1.54,1.54,0,0,0-1.43,1.51Zm.22-4.28-1.29,1.52h-.66l.93-1.52Z"/><path d="M288,107v1.48h1.33v.7H288v2.77c0,.63.18,1,.7,1a2.23,2.23,0,0,0,.54-.06l0,.7a2.35,2.35,0,0,1-.83.13,1.27,1.27,0,0,1-1-.4,1.86,1.86,0,0,1-.36-1.33v-2.8h-.8v-.7h.8v-1.23Z"/><path d="M293.19,113.59l-.07-.64h0a1.89,1.89,0,0,1-1.56.76,1.46,1.46,0,0,1-1.57-1.47c0-1.24,1.1-1.92,3.08-1.91v-.11a1,1,0,0,0-1.16-1.18,2.59,2.59,0,0,0-1.34.38l-.21-.62a3.22,3.22,0,0,1,1.68-.45c1.57,0,1.95,1.07,1.95,2.1v1.91a6.57,6.57,0,0,0,.09,1.23Zm-.14-2.61c-1,0-2.17.15-2.17,1.15a.83.83,0,0,0,.88.89,1.27,1.27,0,0,0,1.24-.86,1,1,0,0,0,.05-.3Z"/><path d="M295.41,113.59c0-.35,0-.87,0-1.32v-6.2h.92v3.22h0a1.91,1.91,0,0,1,1.75-.94c1.27,0,2.17,1.06,2.16,2.61,0,1.84-1.16,2.75-2.3,2.75a1.83,1.83,0,0,1-1.72-1h0l0,.85Zm1-2a2,2,0,0,0,0,.34,1.44,1.44,0,0,0,1.4,1.09c1,0,1.56-.8,1.56-2s-.53-1.91-1.53-1.91a1.48,1.48,0,0,0-1.42,1.14,2.06,2.06,0,0,0-.05.39Z"/><path d="M301.48,106.07h.93v7.52h-.93Z"/><path d="M305,107a.58.58,0,0,1-1.15,0,.57.57,0,0,1,.58-.59A.56.56,0,0,1,305,107Zm-1,6.56v-5.12h.93v5.12Z"/><path d="M306.33,112.64a2.45,2.45,0,0,0,1.23.37c.68,0,1-.34,1-.76s-.27-.69-1-1c-.92-.32-1.35-.83-1.35-1.45a1.58,1.58,0,0,1,1.77-1.5,2.56,2.56,0,0,1,1.26.32l-.24.67a2.05,2.05,0,0,0-1-.29c-.56,0-.86.32-.86.7s.3.61,1,.87c.89.33,1.35.78,1.35,1.54s-.7,1.54-1.92,1.54a3,3,0,0,1-1.44-.35Z"/><path d="M317.54,111a2.51,2.51,0,0,1-2.56,2.72,2.44,2.44,0,0,1-2.45-2.64,2.5,2.5,0,0,1,2.54-2.72A2.43,2.43,0,0,1,317.54,111Zm-4.07.05c0,1.12.65,2,1.56,2s1.55-.84,1.55-2c0-.87-.43-2-1.53-2S313.47,110.06,313.47,111Z"/><path d="M323,112.19c0,.53,0,1,0,1.4h-.82l-.06-.84h0a1.91,1.91,0,0,1-1.69,1c-.81,0-1.77-.45-1.77-2.25v-3h.93v2.83c0,1,.3,1.63,1.15,1.63a1.33,1.33,0,0,0,1.22-.84,1.24,1.24,0,0,0,.09-.48v-3.14H323Z"/><path d="M118.35,122.56c0-.53,0-1,0-1.39h.82l0,.83h0a1.77,1.77,0,0,1,1.61-.94,1.51,1.51,0,0,1,1.45,1h0a2.22,2.22,0,0,1,.58-.66,1.68,1.68,0,0,1,1.13-.36c.68,0,1.68.44,1.68,2.22v3h-.91v-2.9c0-1-.36-1.58-1.11-1.58a1.2,1.2,0,0,0-1.1.85,1.53,1.53,0,0,0-.07.46v3.17h-.92v-3.07c0-.82-.36-1.41-1.06-1.41a1.28,1.28,0,0,0-1.16.93,1.39,1.39,0,0,0-.07.46v3.09h-.91Z"/><path d="M128.22,119.73a.58.58,0,1,1-1.16,0,.57.57,0,0,1,.58-.58A.56.56,0,0,1,128.22,119.73Zm-1,6.57v-5.13h.93v5.13Z"/><path d="M129.53,125.35a2.45,2.45,0,0,0,1.23.37c.68,0,1-.34,1-.76s-.26-.69-.95-.95c-.92-.33-1.36-.83-1.36-1.45a1.58,1.58,0,0,1,1.77-1.5,2.53,2.53,0,0,1,1.26.32l-.23.67a2.06,2.06,0,0,0-1.05-.29c-.55,0-.86.31-.86.7s.31.61,1,.86c.89.34,1.34.79,1.34,1.55s-.7,1.54-1.91,1.54a3,3,0,0,1-1.44-.35Z"/><path d="M138.93,126.3l-.07-.65h0a1.91,1.91,0,0,1-1.57.77,1.46,1.46,0,0,1-1.57-1.48c0-1.23,1.1-1.91,3.08-1.9v-.11a1,1,0,0,0-1.16-1.18,2.47,2.47,0,0,0-1.33.38l-.22-.62a3.26,3.26,0,0,1,1.69-.45c1.56,0,1.95,1.07,1.95,2.09v1.92a7.62,7.62,0,0,0,.08,1.23ZM137.36,119l.92,1.52h-.66L136.33,119Zm1.44,4.72c-1,0-2.17.16-2.17,1.16a.82.82,0,0,0,.87.89,1.28,1.28,0,0,0,1.24-.86,1,1,0,0,0,.06-.3Z"/><path d="M142.2,127.78a1.5,1.5,0,0,0,1-.39c.26-.3.35-.7.35-1.93v-4.29h.93v4.65a2.84,2.84,0,0,1-.61,2.11,2.37,2.37,0,0,1-1.59.58Zm2.4-8a.55.55,0,0,1-.58.58.56.56,0,0,1-.57-.58.57.57,0,0,1,.59-.58A.55.55,0,0,1,144.6,119.73Z"/><path d="M150.66,123.69a2.51,2.51,0,0,1-2.56,2.73,2.44,2.44,0,0,1-2.45-2.64,2.5,2.5,0,0,1,2.54-2.72A2.43,2.43,0,0,1,150.66,123.69Zm-4.07.06c0,1.12.65,2,1.56,2s1.55-.84,1.55-2c0-.87-.43-2-1.53-2S146.59,122.77,146.59,123.75Z"/><path d="M156.12,124.9c0,.53,0,1,0,1.4h-.82l-.06-.84h0a1.91,1.91,0,0,1-1.69,1c-.81,0-1.77-.45-1.77-2.25v-3h.93V124c0,1,.3,1.63,1.15,1.63a1.33,1.33,0,0,0,1.22-.84,1.24,1.24,0,0,0,.09-.48v-3.15h.93Z"/><path d="M157.67,122.77c0-.6,0-1.12,0-1.6h.81l0,1h.05a1.52,1.52,0,0,1,1.41-1.12,1.12,1.12,0,0,1,.27,0V122a1.51,1.51,0,0,0-.32,0,1.3,1.3,0,0,0-1.25,1.19,2.87,2.87,0,0,0,0,.44v2.73h-.92Z"/><path d="M163.38,122.85c0-.66,0-1.19,0-1.68h.84l0,.88h0a2,2,0,0,1,1.83-1,2.33,2.33,0,0,1,2.17,2.6c0,1.85-1.13,2.76-2.33,2.76a1.8,1.8,0,0,1-1.58-.81h0v2.79h-.92Zm.92,1.36a2.11,2.11,0,0,0,0,.38,1.44,1.44,0,0,0,1.4,1.1c1,0,1.55-.81,1.55-2s-.54-1.91-1.52-1.91a1.48,1.48,0,0,0-1.41,1.15,1.67,1.67,0,0,0-.06.38Z"/><path d="M174,123.69a2.51,2.51,0,0,1-2.55,2.73,2.44,2.44,0,0,1-2.46-2.64,2.5,2.5,0,0,1,2.54-2.72A2.43,2.43,0,0,1,174,123.69Zm-4.07.06c0,1.12.65,2,1.56,2s1.56-.84,1.56-2c0-.87-.44-2-1.54-2S170,122.77,170,123.75Z"/><path d="M179.5,124.9c0,.53,0,1,.05,1.4h-.83l-.05-.84h0a1.94,1.94,0,0,1-1.7,1c-.8,0-1.77-.45-1.77-2.25v-3h.94V124c0,1,.29,1.63,1.14,1.63a1.35,1.35,0,0,0,1.23-.84,1.46,1.46,0,0,0,.08-.48v-3.15h.93Z"/><path d="M181.05,122.77c0-.6,0-1.12,0-1.6h.81l0,1h0a1.53,1.53,0,0,1,1.42-1.12,1,1,0,0,1,.26,0V122a1.45,1.45,0,0,0-.32,0,1.29,1.29,0,0,0-1.24,1.19,2,2,0,0,0-.05.44v2.73h-.92Z"/><path d="M186.76,118.78h.93v7.52h-.93Z"/><path d="M189.78,123.91a1.64,1.64,0,0,0,1.76,1.78,3.31,3.31,0,0,0,1.41-.27l.16.67a4.11,4.11,0,0,1-1.7.32,2.38,2.38,0,0,1-2.52-2.59,2.49,2.49,0,0,1,2.4-2.76,2.17,2.17,0,0,1,2.12,2.41,3.94,3.94,0,0,1,0,.44Zm2.73-.67a1.33,1.33,0,0,0-1.29-1.52,1.54,1.54,0,0,0-1.43,1.52Z"/><path d="M196.81,122.85c0-.66,0-1.19,0-1.68h.83l.05.88h0a2,2,0,0,1,1.82-1,2.32,2.32,0,0,1,2.17,2.6c0,1.85-1.12,2.76-2.33,2.76a1.8,1.8,0,0,1-1.58-.81h0v2.79h-.92Zm.92,1.36a2.11,2.11,0,0,0,0,.38,1.44,1.44,0,0,0,1.4,1.1c1,0,1.56-.81,1.56-2s-.54-1.91-1.53-1.91a1.49,1.49,0,0,0-1.41,1.15,1.67,1.67,0,0,0-.06.38Z"/><path d="M202.83,122.77c0-.6,0-1.12,0-1.6h.82l0,1h0a1.55,1.55,0,0,1,1.42-1.12,1.12,1.12,0,0,1,.27,0V122a1.51,1.51,0,0,0-.32,0,1.3,1.3,0,0,0-1.25,1.19,2.87,2.87,0,0,0,0,.44v2.73h-.93Z"/><path d="M210.83,123.69a2.51,2.51,0,0,1-2.55,2.73,2.44,2.44,0,0,1-2.46-2.64,2.5,2.5,0,0,1,2.54-2.72A2.43,2.43,0,0,1,210.83,123.69Zm-4.07.06c0,1.12.65,2,1.56,2s1.56-.84,1.56-2c0-.87-.44-2-1.54-2S206.76,122.77,206.76,123.75Z"/><path d="M215.66,126.11a3.35,3.35,0,0,1-1.47.3,2.43,2.43,0,0,1-2.55-2.62,2.6,2.6,0,0,1,2.75-2.72,3.22,3.22,0,0,1,1.29.26l-.21.72a2.23,2.23,0,0,0-1.08-.24,1.77,1.77,0,0,0-1.81,1.94,1.75,1.75,0,0,0,1.78,1.91,2.57,2.57,0,0,0,1.14-.25Z"/><path d="M216.75,118.78h.93V122h0a1.7,1.7,0,0,1,.67-.66,1.9,1.9,0,0,1,.95-.26c.69,0,1.79.42,1.79,2.19v3h-.93v-2.94c0-.83-.3-1.53-1.18-1.53a1.33,1.33,0,0,0-1.25.93,1,1,0,0,0-.07.45v3.09h-.93Z"/><path d="M225.47,126.3l-.08-.65h0a1.91,1.91,0,0,1-1.57.77,1.45,1.45,0,0,1-1.56-1.48c0-1.23,1.1-1.91,3.08-1.9v-.11a1.06,1.06,0,0,0-1.17-1.18,2.49,2.49,0,0,0-1.33.38l-.21-.62a3.19,3.19,0,0,1,1.68-.45c1.57,0,1.95,1.07,1.95,2.09v1.92a7.62,7.62,0,0,0,.08,1.23Zm-.14-2.62c-1,0-2.17.16-2.17,1.16a.83.83,0,0,0,.88.89,1.29,1.29,0,0,0,1.24-.86,1,1,0,0,0,.05-.3Z"/><path d="M228.77,119.73a.58.58,0,1,1-1.15,0,.57.57,0,0,1,.58-.58A.55.55,0,0,1,228.77,119.73Zm-1,6.57v-5.13h.93v5.13Z"/><path d="M230.21,122.56c0-.53,0-1,0-1.39H231l.06.85h0a1.87,1.87,0,0,1,1.69-1c.71,0,1.81.42,1.81,2.18v3.06h-.93v-3c0-.83-.31-1.52-1.18-1.52a1.33,1.33,0,0,0-1.25,1,1.2,1.2,0,0,0-.07.44v3.08h-.93Z"/><path d="M238.85,123.91a1.64,1.64,0,0,0,1.76,1.78,3.33,3.33,0,0,0,1.42-.27l.16.67a4.13,4.13,0,0,1-1.71.32,2.38,2.38,0,0,1-2.52-2.59,2.49,2.49,0,0,1,2.41-2.76,2.16,2.16,0,0,1,2.11,2.41,3.94,3.94,0,0,1,0,.44Zm2.73-.67a1.33,1.33,0,0,0-1.29-1.52,1.55,1.55,0,0,0-1.43,1.52Z"/><path d="M244,121.17l.73,1.11c.19.28.35.55.52.83h0c.17-.3.34-.57.51-.84l.72-1.1h1l-1.75,2.48,1.8,2.65h-1.06l-.75-1.15c-.2-.3-.37-.59-.55-.89h0c-.17.3-.35.58-.54.89L244,126.3h-1l1.82-2.62L243,121.17Z"/><path d="M248.87,123.91a1.64,1.64,0,0,0,1.76,1.78,3.36,3.36,0,0,0,1.42-.27l.16.67a4.13,4.13,0,0,1-1.71.32,2.38,2.38,0,0,1-2.52-2.59,2.49,2.49,0,0,1,2.4-2.76,2.17,2.17,0,0,1,2.12,2.41,3.94,3.94,0,0,1,0,.44Zm2.73-.67a1.33,1.33,0,0,0-1.29-1.52,1.55,1.55,0,0,0-1.43,1.52Z"/><path d="M253.66,122.77c0-.6,0-1.12,0-1.6h.81l0,1h0a1.55,1.55,0,0,1,1.42-1.12,1.12,1.12,0,0,1,.27,0V122a1.51,1.51,0,0,0-.32,0,1.3,1.3,0,0,0-1.25,1.19,2.87,2.87,0,0,0,0,.44v2.73h-.92Z"/><path d="M260.67,126.11a3.42,3.42,0,0,1-1.47.3,2.44,2.44,0,0,1-2.56-2.62,2.6,2.6,0,0,1,2.76-2.72,3.26,3.26,0,0,1,1.29.26l-.21.72a2.26,2.26,0,0,0-1.08-.24,1.77,1.77,0,0,0-1.81,1.94,1.75,1.75,0,0,0,1.78,1.91,2.64,2.64,0,0,0,1.14-.25Z"/><path d="M262.8,119.73a.58.58,0,1,1-1.16,0,.57.57,0,0,1,.58-.58A.56.56,0,0,1,262.8,119.73Zm-1,6.57v-5.13h.93v5.13Z"/><path d="M267.89,126.11a3.35,3.35,0,0,1-1.47.3,2.43,2.43,0,0,1-2.55-2.62,2.6,2.6,0,0,1,2.75-2.72,3.22,3.22,0,0,1,1.29.26l-.21.72a2.23,2.23,0,0,0-1.08-.24,1.77,1.77,0,0,0-1.81,1.94,1.75,1.75,0,0,0,1.78,1.91,2.57,2.57,0,0,0,1.14-.25Z"/><path d="M269.44,123.91a1.64,1.64,0,0,0,1.76,1.78,3.31,3.31,0,0,0,1.41-.27l.16.67a4.11,4.11,0,0,1-1.7.32,2.38,2.38,0,0,1-2.52-2.59,2.49,2.49,0,0,1,2.4-2.76,2.17,2.17,0,0,1,2.12,2.41,3.94,3.94,0,0,1,0,.44Zm2.73-.67a1.33,1.33,0,0,0-1.29-1.52,1.54,1.54,0,0,0-1.43,1.52Z"/><path d="M273.49,127.6a14.84,14.84,0,0,0,.64-2.53l1-.1a13.1,13.1,0,0,1-1,2.57Z"/><path d="M279.05,123.91a1.64,1.64,0,0,0,1.76,1.78,3.33,3.33,0,0,0,1.42-.27l.16.67a4.13,4.13,0,0,1-1.71.32,2.39,2.39,0,0,1-2.52-2.59,2.49,2.49,0,0,1,2.41-2.76,2.17,2.17,0,0,1,2.12,2.41,3.52,3.52,0,0,1,0,.44Zm2.74-.67a1.34,1.34,0,0,0-1.3-1.52,1.55,1.55,0,0,0-1.43,1.52Z"/><path d="M285,119.7v1.47h1.34v.71H285v2.77c0,.63.18,1,.7,1a2.23,2.23,0,0,0,.54-.06l0,.7a2.33,2.33,0,0,1-.82.13,1.27,1.27,0,0,1-1-.4,1.91,1.91,0,0,1-.36-1.33v-2.8h-.79v-.71h.79V120Z"/><path d="M118.35,131.49h.93V139h-.93Z"/><path d="M121.53,131.75l-.18,2.55h-.57l-.17-2.55Z"/><path d="M123.27,136.61a1.64,1.64,0,0,0,1.76,1.78,3.35,3.35,0,0,0,1.42-.26l.16.67a4.34,4.34,0,0,1-1.71.31,2.37,2.37,0,0,1-2.52-2.58,2.48,2.48,0,0,1,2.4-2.76,2.17,2.17,0,0,1,2.12,2.41,3.55,3.55,0,0,1,0,.43ZM126,136a1.33,1.33,0,0,0-1.29-1.52,1.55,1.55,0,0,0-1.43,1.52Z"/><path d="M128.06,135.27c0-.53,0-1-.05-1.39h.83l0,.85h0a1.86,1.86,0,0,1,1.69-1c.71,0,1.81.42,1.81,2.18V139h-.93v-3c0-.82-.31-1.51-1.19-1.51a1.33,1.33,0,0,0-1.25,1,1.46,1.46,0,0,0-.06.44V139h-.93Z"/><path d="M135,132.41v1.47h1.34v.71H135v2.77c0,.63.18,1,.7,1a2.11,2.11,0,0,0,.54-.06l.05.7a2.43,2.43,0,0,1-.83.12,1.3,1.3,0,0,1-1-.39,1.91,1.91,0,0,1-.36-1.33v-2.8h-.79v-.71h.79v-1.23Z"/><path d="M137.85,136.61a1.64,1.64,0,0,0,1.76,1.78,3.35,3.35,0,0,0,1.42-.26l.16.67a4.34,4.34,0,0,1-1.71.31,2.38,2.38,0,0,1-2.52-2.58,2.48,2.48,0,0,1,2.41-2.76,2.17,2.17,0,0,1,2.12,2.41,3.14,3.14,0,0,1,0,.43Zm2.73-.66a1.32,1.32,0,0,0-1.29-1.52,1.55,1.55,0,0,0-1.43,1.52Z"/><path d="M142.64,135.27c0-.53,0-1,0-1.39h.82l.06.85h0a1.86,1.86,0,0,1,1.69-1c.71,0,1.81.42,1.81,2.18V139h-.93v-3c0-.82-.31-1.51-1.19-1.51a1.3,1.3,0,0,0-1.24,1,1.2,1.2,0,0,0-.07.44V139h-.93Z"/><path d="M149.6,132.41v1.47h1.33v.71H149.6v2.77c0,.63.18,1,.7,1a2.23,2.23,0,0,0,.54-.06l0,.7a2.43,2.43,0,0,1-.83.12,1.26,1.26,0,0,1-1-.39,1.86,1.86,0,0,1-.36-1.33v-2.8h-.8v-.71h.8v-1.23Z"/><path d="M152.44,136.61a1.63,1.63,0,0,0,1.75,1.78,3.35,3.35,0,0,0,1.42-.26l.16.67a4.32,4.32,0,0,1-1.7.31,2.37,2.37,0,0,1-2.52-2.58,2.48,2.48,0,0,1,2.4-2.76,2.17,2.17,0,0,1,2.12,2.41,3.55,3.55,0,0,1,0,.43Zm2.73-.66a1.33,1.33,0,0,0-1.29-1.52,1.54,1.54,0,0,0-1.43,1.52Z"/><path d="M163.89,131.49v6.19c0,.46,0,1,.05,1.33h-.84l0-.89h0a1.9,1.9,0,0,1-1.75,1,2.33,2.33,0,0,1-2.19-2.6,2.45,2.45,0,0,1,2.29-2.75,1.71,1.71,0,0,1,1.55.78h0v-3.06ZM163,136a1.67,1.67,0,0,0,0-.39,1.37,1.37,0,0,0-1.35-1.08c-1,0-1.53.84-1.53,2s.51,1.89,1.51,1.89a1.4,1.4,0,0,0,1.37-1.11,1.7,1.7,0,0,0,0-.4Z"/><path d="M166,136.61a1.64,1.64,0,0,0,1.76,1.78,3.38,3.38,0,0,0,1.42-.26l.15.67a4.24,4.24,0,0,1-1.7.31,2.37,2.37,0,0,1-2.52-2.58,2.48,2.48,0,0,1,2.4-2.76,2.17,2.17,0,0,1,2.12,2.41,3.55,3.55,0,0,1,0,.43Zm2.73-.66a1.33,1.33,0,0,0-1.29-1.52A1.55,1.55,0,0,0,166,136Z"/><path d="M173,135.48c0-.6,0-1.12,0-1.6h.81l0,1h0a1.53,1.53,0,0,1,1.42-1.12,1,1,0,0,1,.26,0v.88a1.39,1.39,0,0,0-.32,0,1.3,1.3,0,0,0-1.24,1.2,2,2,0,0,0-.05.44V139H173Z"/><path d="M176.87,136.61a1.63,1.63,0,0,0,1.76,1.78,3.33,3.33,0,0,0,1.41-.26l.16.67a4.32,4.32,0,0,1-1.7.31,2.37,2.37,0,0,1-2.52-2.58,2.48,2.48,0,0,1,2.4-2.76,2.17,2.17,0,0,1,2.12,2.41,3.55,3.55,0,0,1,0,.43Zm2.73-.66a1.33,1.33,0,0,0-1.29-1.52,1.54,1.54,0,0,0-1.43,1.52Z"/><path d="M181.65,135.27c0-.53,0-1,0-1.39h.83l.05.85h0a1.89,1.89,0,0,1,1.7-1c.71,0,1.81.42,1.81,2.18V139h-.94v-3c0-.82-.3-1.51-1.18-1.51a1.32,1.32,0,0,0-1.25,1,1.46,1.46,0,0,0-.06.44V139h-.94Z"/><path d="M192,131.49v6.19c0,.46,0,1,0,1.33h-.84l0-.89h0a1.9,1.9,0,0,1-1.75,1,2.33,2.33,0,0,1-2.19-2.6,2.45,2.45,0,0,1,2.3-2.75,1.71,1.71,0,0,1,1.54.78h0v-3.06ZM191,136a1.27,1.27,0,0,0-.05-.39,1.35,1.35,0,0,0-1.34-1.08c-1,0-1.54.84-1.54,2s.51,1.89,1.52,1.89a1.4,1.4,0,0,0,1.36-1.11,1.29,1.29,0,0,0,.05-.4Z"/><path d="M194,136.61a1.64,1.64,0,0,0,1.76,1.78,3.35,3.35,0,0,0,1.42-.26l.16.67a4.34,4.34,0,0,1-1.71.31,2.38,2.38,0,0,1-2.52-2.58,2.48,2.48,0,0,1,2.41-2.76,2.17,2.17,0,0,1,2.12,2.41,3.14,3.14,0,0,1,0,.43Zm2.74-.66a1.33,1.33,0,0,0-1.3-1.52A1.55,1.55,0,0,0,194,136Z"/><path d="M198.81,135.27c0-.53,0-1,0-1.39h.81l0,.83h0a1.75,1.75,0,0,1,1.61-.94,1.51,1.51,0,0,1,1.45,1h0a2.2,2.2,0,0,1,.57-.66,1.72,1.72,0,0,1,1.13-.36c.68,0,1.69.44,1.69,2.22v3h-.91v-2.9c0-1-.36-1.58-1.12-1.58a1.21,1.21,0,0,0-1.1.85,1.53,1.53,0,0,0-.07.46V139H202v-3.07c0-.82-.36-1.41-1.07-1.41a1.28,1.28,0,0,0-1.16.93,1.39,1.39,0,0,0-.07.46V139h-.91Z"/><path d="M208.16,136.61a1.64,1.64,0,0,0,1.76,1.78,3.35,3.35,0,0,0,1.42-.26l.16.67a4.34,4.34,0,0,1-1.71.31,2.37,2.37,0,0,1-2.52-2.58,2.48,2.48,0,0,1,2.41-2.76,2.16,2.16,0,0,1,2.11,2.41,3.55,3.55,0,0,1,0,.43Zm2.73-.66a1.33,1.33,0,0,0-1.29-1.52,1.55,1.55,0,0,0-1.43,1.52Z"/><path d="M213,135.27c0-.53,0-1,0-1.39h.82l.06.85h0a1.86,1.86,0,0,1,1.69-1c.71,0,1.81.42,1.81,2.18V139h-.93v-3c0-.82-.31-1.51-1.19-1.51a1.33,1.33,0,0,0-1.25,1,1.46,1.46,0,0,0-.06.44V139H213Z"/><path d="M219.91,132.41v1.47h1.33v.71h-1.33v2.77c0,.63.18,1,.7,1a2.23,2.23,0,0,0,.54-.06l0,.7a2.43,2.43,0,0,1-.83.12,1.26,1.26,0,0,1-1-.39,1.86,1.86,0,0,1-.36-1.33v-2.8h-.8v-.71h.8v-1.23Z"/><path d="M225.05,136.61a1.64,1.64,0,0,0,1.76,1.78,3.35,3.35,0,0,0,1.42-.26l.16.67a4.34,4.34,0,0,1-1.71.31,2.38,2.38,0,0,1-2.52-2.58,2.48,2.48,0,0,1,2.41-2.76,2.17,2.17,0,0,1,2.12,2.41,3.14,3.14,0,0,1,0,.43Zm2.74-.66a1.33,1.33,0,0,0-1.3-1.52,1.55,1.55,0,0,0-1.43,1.52Z"/><path d="M229.71,138.05a2.45,2.45,0,0,0,1.23.38c.68,0,1-.34,1-.77s-.27-.69-1-.94c-.92-.33-1.35-.84-1.35-1.45a1.57,1.57,0,0,1,1.77-1.5,2.56,2.56,0,0,1,1.26.31l-.24.68a2,2,0,0,0-1-.3c-.56,0-.86.32-.86.7s.3.62,1,.87c.89.34,1.35.79,1.35,1.55s-.7,1.53-1.92,1.53a2.84,2.84,0,0,1-1.44-.35Z"/><path d="M235.16,132.41v1.47h1.33v.71h-1.33v2.77c0,.63.18,1,.7,1a2.23,2.23,0,0,0,.54-.06l0,.7a2.43,2.43,0,0,1-.83.12,1.26,1.26,0,0,1-1-.39,1.86,1.86,0,0,1-.36-1.33v-2.8h-.8v-.71h.8v-1.23Z"/><path d="M239.66,138.05a2.42,2.42,0,0,0,1.23.38c.67,0,1-.34,1-.77s-.26-.69-.95-.94c-.92-.33-1.36-.84-1.36-1.45a1.58,1.58,0,0,1,1.77-1.5,2.53,2.53,0,0,1,1.26.31l-.23.68a2,2,0,0,0-1.05-.3c-.55,0-.86.32-.86.7s.31.62,1,.87c.89.34,1.34.79,1.34,1.55s-.7,1.53-1.92,1.53a2.84,2.84,0,0,1-1.44-.35Z"/><path d="M245,132.44a.58.58,0,0,1-1.16,0,.57.57,0,0,1,.58-.58A.56.56,0,0,1,245,132.44ZM244,139v-5.13h.93V139Z"/><path d="M250.87,133.88c0,.37,0,.79,0,1.41v3a3,3,0,0,1-.73,2.34,2.75,2.75,0,0,1-1.86.61,3.36,3.36,0,0,1-1.71-.42l.23-.71a2.92,2.92,0,0,0,1.51.4c.95,0,1.65-.5,1.65-1.79v-.57h0a1.83,1.83,0,0,1-1.63.86,2.29,2.29,0,0,1-2.18-2.5,2.45,2.45,0,0,1,2.3-2.72,1.69,1.69,0,0,1,1.6.89h0l.05-.78Zm-1,2a1.45,1.45,0,0,0,0-.43,1.35,1.35,0,0,0-1.31-1c-.89,0-1.52.75-1.52,1.93,0,1,.51,1.85,1.51,1.85a1.43,1.43,0,0,0,1.37-1.45Z"/><path d="M252.31,135.27c0-.53,0-1,0-1.39h.83l.05.85h0a1.88,1.88,0,0,1,1.7-1c.7,0,1.81.42,1.81,2.18V139h-.94v-3c0-.82-.3-1.51-1.18-1.51a1.32,1.32,0,0,0-1.25,1,1.45,1.45,0,0,0-.07.44V139h-.93Z"/><path d="M258.71,136.61a1.64,1.64,0,0,0,1.76,1.78,3.38,3.38,0,0,0,1.42-.26l.15.67a4.24,4.24,0,0,1-1.7.31,2.37,2.37,0,0,1-2.52-2.58,2.48,2.48,0,0,1,2.4-2.76,2.17,2.17,0,0,1,2.12,2.41,3.55,3.55,0,0,1,0,.43Zm2.73-.66a1.33,1.33,0,0,0-1.29-1.52,1.55,1.55,0,0,0-1.43,1.52Zm.22-4.28-1.29,1.51h-.67l.94-1.51Z"/><path d="M264,136.61a1.64,1.64,0,0,0,1.76,1.78,3.35,3.35,0,0,0,1.42-.26l.16.67a4.32,4.32,0,0,1-1.7.31,2.37,2.37,0,0,1-2.52-2.58,2.48,2.48,0,0,1,2.4-2.76,2.17,2.17,0,0,1,2.12,2.41,3.55,3.55,0,0,1,0,.43Zm2.74-.66a1.33,1.33,0,0,0-1.29-1.52A1.54,1.54,0,0,0,264,136Z"/><path d="M268.45,138.46a.63.63,0,0,1,.64-.67.62.62,0,0,1,.62.67.61.61,0,0,1-.63.66A.62.62,0,0,1,268.45,138.46Z"/><path d="M118.38,157.29h.92v6.36h3v.77h-4Z"/><path d="M123.72,162a1.64,1.64,0,0,0,1.75,1.78,3.51,3.51,0,0,0,1.42-.26l.16.66a4.11,4.11,0,0,1-1.7.32,2.38,2.38,0,0,1-2.52-2.58,2.49,2.49,0,0,1,2.4-2.77,2.18,2.18,0,0,1,2.12,2.42,3.55,3.55,0,0,1,0,.43Zm2.73-.67a1.33,1.33,0,0,0-1.29-1.51,1.54,1.54,0,0,0-1.43,1.51Z"/><path d="M135.16,159.3c0,.37,0,.78,0,1.41v3a2.93,2.93,0,0,1-.73,2.34,2.71,2.71,0,0,1-1.86.62,3.26,3.26,0,0,1-1.71-.43l.23-.71a2.83,2.83,0,0,0,1.51.41c.95,0,1.65-.5,1.65-1.79v-.57h0a1.85,1.85,0,0,1-1.63.85,2.29,2.29,0,0,1-2.18-2.5,2.46,2.46,0,0,1,2.31-2.72,1.69,1.69,0,0,1,1.59.89h0l0-.77Zm-1,2a1.38,1.38,0,0,0,0-.42,1.35,1.35,0,0,0-1.31-1c-.88,0-1.52.76-1.52,1.94,0,1,.51,1.84,1.51,1.84a1.37,1.37,0,0,0,1.3-.95,1.73,1.73,0,0,0,.07-.5Z"/><path d="M137.19,162a1.64,1.64,0,0,0,1.75,1.78,3.51,3.51,0,0,0,1.42-.26l.16.66a4.11,4.11,0,0,1-1.7.32A2.38,2.38,0,0,1,136.3,162a2.49,2.49,0,0,1,2.4-2.77,2.18,2.18,0,0,1,2.12,2.42,3.55,3.55,0,0,1,0,.43Zm2.73-.67a1.33,1.33,0,0,0-1.29-1.51,1.54,1.54,0,0,0-1.43,1.51Z"/><path d="M141.85,163.47a2.41,2.41,0,0,0,1.22.37c.68,0,1-.34,1-.76s-.26-.69-.95-.94c-.92-.33-1.36-.84-1.36-1.45a1.58,1.58,0,0,1,1.77-1.51,2.56,2.56,0,0,1,1.26.32l-.23.68a2,2,0,0,0-1.05-.3c-.55,0-.86.32-.86.7s.31.62,1,.87c.88.34,1.34.78,1.34,1.55s-.7,1.53-1.92,1.53a3,3,0,0,1-1.44-.35Z"/><path d="M147.29,157.83v1.47h1.33V160h-1.33v2.76c0,.64.18,1,.7,1a2.23,2.23,0,0,0,.54-.06l0,.69a2.15,2.15,0,0,1-.82.13,1.3,1.3,0,0,1-1-.39,1.89,1.89,0,0,1-.36-1.34V160h-.8v-.71h.8v-1.23Z"/><path d="M150.71,157.86a.58.58,0,0,1-1.15,0,.56.56,0,0,1,.58-.58A.55.55,0,0,1,150.71,157.86Zm-1,6.56V159.3h.93v5.12Z"/><path d="M156.79,161.82a2.5,2.5,0,0,1-2.55,2.72,2.44,2.44,0,0,1-2.46-2.64,2.5,2.5,0,0,1,2.54-2.72A2.43,2.43,0,0,1,156.79,161.82Zm-4.07.05c0,1.13.65,2,1.56,2s1.56-.83,1.56-2c0-.87-.44-2-1.54-2S152.72,160.9,152.72,161.87Z"/><path d="M158,160.69c0-.53,0-1,0-1.39h.83l.05.85h0a1.9,1.9,0,0,1,1.7-1c.71,0,1.81.43,1.81,2.18v3.06h-.93v-2.95c0-.83-.31-1.51-1.19-1.51a1.33,1.33,0,0,0-1.25.95,1.4,1.4,0,0,0-.06.43v3.08H158Z"/><path d="M163.84,160.69c0-.53,0-1,0-1.39h.83l.05.85h0a1.88,1.88,0,0,1,1.69-1c.71,0,1.81.43,1.81,2.18v3.06h-.93v-2.95c0-.83-.3-1.51-1.18-1.51a1.32,1.32,0,0,0-1.25.95,1.14,1.14,0,0,0-.07.43v3.08h-.93Z"/><path d="M172.56,164.42l-.08-.64h0a1.91,1.91,0,0,1-1.57.76,1.46,1.46,0,0,1-1.56-1.47c0-1.24,1.1-1.92,3.08-1.91v-.1a1.06,1.06,0,0,0-1.17-1.19,2.58,2.58,0,0,0-1.33.38l-.21-.61a3.13,3.13,0,0,1,1.68-.46c1.57,0,1.95,1.07,1.95,2.1v1.92a7.49,7.49,0,0,0,.08,1.22Zm-.14-2.61c-1,0-2.17.16-2.17,1.15a.82.82,0,0,0,.88.89,1.28,1.28,0,0,0,1.24-.85,1.11,1.11,0,0,0,0-.3Z"/><path d="M175.86,157.86a.58.58,0,0,1-1.15,0,.56.56,0,0,1,.58-.58A.55.55,0,0,1,175.86,157.86Zm-1,6.56V159.3h.94v5.12Z"/><path d="M177.3,160.9c0-.61,0-1.12,0-1.6h.81l0,1h0a1.54,1.54,0,0,1,1.42-1.13,1,1,0,0,1,.26,0v.88a1.42,1.42,0,0,0-.31,0,1.3,1.3,0,0,0-1.25,1.2,1.88,1.88,0,0,0-.05.43v2.73h-.92Z"/><path d="M181.18,162a1.64,1.64,0,0,0,1.76,1.78,3.5,3.5,0,0,0,1.41-.26l.16.66a4.08,4.08,0,0,1-1.7.32,2.38,2.38,0,0,1-2.52-2.58,2.49,2.49,0,0,1,2.4-2.77,2.17,2.17,0,0,1,2.12,2.42,3.55,3.55,0,0,1,0,.43Zm2.73-.67a1.32,1.32,0,0,0-1.29-1.51,1.54,1.54,0,0,0-1.43,1.51Z"/><path d="M192.64,156.91v6.19c0,.46,0,1,0,1.32h-.84l0-.88h0a1.9,1.9,0,0,1-1.75,1,2.33,2.33,0,0,1-2.19-2.6,2.46,2.46,0,0,1,2.3-2.76,1.69,1.69,0,0,1,1.54.79h0v-3.06Zm-.94,4.48a1.81,1.81,0,0,0,0-.4,1.37,1.37,0,0,0-1.34-1.08c-1,0-1.54.85-1.54,2s.51,1.9,1.52,1.9a1.4,1.4,0,0,0,1.36-1.11,1.75,1.75,0,0,0,0-.4Z"/><path d="M194.7,162a1.64,1.64,0,0,0,1.76,1.78,3.51,3.51,0,0,0,1.42-.26l.16.66a4.13,4.13,0,0,1-1.71.32,2.38,2.38,0,0,1-2.52-2.58,2.49,2.49,0,0,1,2.41-2.77,2.17,2.17,0,0,1,2.11,2.42,3.55,3.55,0,0,1,0,.43Zm2.73-.67a1.32,1.32,0,0,0-1.29-1.51,1.55,1.55,0,0,0-1.43,1.51Zm.23-4.27-1.3,1.51h-.66l.93-1.51Z"/><path d="M199.85,159.3l1,2.88c.17.47.31.89.42,1.31h0c.12-.42.26-.84.43-1.31l1-2.88h1l-2,5.12h-.89l-2-5.12Z"/><path d="M205,162a1.64,1.64,0,0,0,1.75,1.78,3.51,3.51,0,0,0,1.42-.26l.16.66a4.11,4.11,0,0,1-1.7.32,2.38,2.38,0,0,1-2.52-2.58,2.49,2.49,0,0,1,2.4-2.77,2.18,2.18,0,0,1,2.12,2.42,3.55,3.55,0,0,1,0,.43Zm2.73-.67a1.33,1.33,0,0,0-1.29-1.51,1.54,1.54,0,0,0-1.43,1.51Z"/><path d="M209.78,156.91h.93v7.51h-.93Z"/><path d="M216.92,161.82a2.5,2.5,0,0,1-2.55,2.72,2.44,2.44,0,0,1-2.46-2.64,2.5,2.5,0,0,1,2.54-2.72A2.43,2.43,0,0,1,216.92,161.82Zm-4.07.05c0,1.13.65,2,1.56,2s1.56-.83,1.56-2c0-.87-.44-2-1.54-2S212.85,160.9,212.85,161.87Z"/><path d="M218.09,161c0-.65,0-1.18,0-1.67h.84l0,.88h0a2,2,0,0,1,1.82-1,2.33,2.33,0,0,1,2.18,2.61c0,1.84-1.13,2.75-2.33,2.75a1.78,1.78,0,0,1-1.58-.8h0v2.78h-.93Zm.93,1.37a2.22,2.22,0,0,0,0,.38,1.43,1.43,0,0,0,1.4,1.09c1,0,1.55-.8,1.55-2s-.54-1.91-1.52-1.91a1.49,1.49,0,0,0-1.41,1.16,1.59,1.59,0,0,0-.06.38Z"/><path d="M224.12,161c0-.65,0-1.18,0-1.67h.84l0,.88h0a2,2,0,0,1,1.82-1,2.32,2.32,0,0,1,2.17,2.61c0,1.84-1.12,2.75-2.33,2.75a1.79,1.79,0,0,1-1.58-.8h0v2.78h-.92Zm.92,1.37a2.22,2.22,0,0,0,0,.38,1.43,1.43,0,0,0,1.4,1.09c1,0,1.56-.8,1.56-2s-.54-1.91-1.53-1.91a1.49,1.49,0,0,0-1.4,1.16,1.22,1.22,0,0,0-.07.38Z"/><path d="M230.67,162a1.64,1.64,0,0,0,1.75,1.78,3.51,3.51,0,0,0,1.42-.26l.16.66a4.11,4.11,0,0,1-1.7.32,2.38,2.38,0,0,1-2.52-2.58,2.49,2.49,0,0,1,2.4-2.77,2.18,2.18,0,0,1,2.12,2.42,3.55,3.55,0,0,1,0,.43Zm2.73-.67a1.33,1.33,0,0,0-1.29-1.51,1.54,1.54,0,0,0-1.43,1.51Z"/><path d="M240.54,164.42l-.08-.64h0a1.93,1.93,0,0,1-1.57.76,1.46,1.46,0,0,1-1.57-1.47c0-1.24,1.11-1.92,3.09-1.91v-.1a1.06,1.06,0,0,0-1.17-1.19,2.58,2.58,0,0,0-1.33.38l-.21-.61a3.11,3.11,0,0,1,1.68-.46c1.57,0,2,1.07,2,2.1v1.92a7.49,7.49,0,0,0,.08,1.22Zm-.14-2.61c-1,0-2.17.16-2.17,1.15a.82.82,0,0,0,.88.89,1.26,1.26,0,0,0,1.23-.85.84.84,0,0,0,.06-.3Z"/><path d="M243.08,159.3l1,2.88c.17.47.31.89.42,1.31h0c.11-.42.26-.84.43-1.31l1-2.88h1l-2,5.12H244l-1.95-5.12Z"/><path d="M248.22,162a1.65,1.65,0,0,0,1.76,1.78,3.51,3.51,0,0,0,1.42-.26l.16.66a4.11,4.11,0,0,1-1.7.32,2.39,2.39,0,0,1-2.53-2.58,2.5,2.5,0,0,1,2.41-2.77,2.18,2.18,0,0,1,2.12,2.42,3.14,3.14,0,0,1,0,.43Zm2.74-.67a1.33,1.33,0,0,0-1.3-1.51,1.55,1.55,0,0,0-1.43,1.51Z"/><path d="M256.66,164.23a3.35,3.35,0,0,1-1.47.3,2.44,2.44,0,0,1-2.55-2.61,2.61,2.61,0,0,1,2.75-2.73,3.12,3.12,0,0,1,1.3.27l-.22.72a2.11,2.11,0,0,0-1.08-.25,1.94,1.94,0,0,0,0,3.86,2.81,2.81,0,0,0,1.15-.25Z"/><path d="M260,156.91h.93v7.51H260Z"/><path d="M263.74,157.17a11.87,11.87,0,0,1-1,2.51l-.59.07a15.48,15.48,0,0,0,.63-2.48Z"/><path d="M264.46,162a1.64,1.64,0,0,0,1.76,1.78,3.46,3.46,0,0,0,1.41-.26l.16.66a4.08,4.08,0,0,1-1.7.32,2.38,2.38,0,0,1-2.52-2.58,2.49,2.49,0,0,1,2.4-2.77,2.17,2.17,0,0,1,2.12,2.42,3.55,3.55,0,0,1,0,.43Zm2.73-.67a1.32,1.32,0,0,0-1.29-1.51,1.54,1.54,0,0,0-1.43,1.51Z"/><path d="M269.25,160.69c0-.53,0-1-.05-1.39H270l0,.83h0a1.78,1.78,0,0,1,1.61-.95,1.52,1.52,0,0,1,1.45,1h0a2,2,0,0,1,.58-.67,1.74,1.74,0,0,1,1.13-.36c.68,0,1.68.45,1.68,2.23v3h-.91v-2.9c0-1-.36-1.57-1.11-1.57a1.21,1.21,0,0,0-1.1.84,1.66,1.66,0,0,0-.07.47v3.16h-.92v-3.07c0-.81-.36-1.4-1.07-1.4a1.27,1.27,0,0,0-1.15.93,1.29,1.29,0,0,0-.07.45v3.09h-.91Z"/><path d="M278.08,161c0-.65,0-1.18,0-1.67h.83l0,.88h0a2,2,0,0,1,1.82-1,2.32,2.32,0,0,1,2.17,2.61c0,1.84-1.13,2.75-2.33,2.75a1.79,1.79,0,0,1-1.58-.8h0v2.78h-.92Zm.92,1.37a2.22,2.22,0,0,0,0,.38,1.43,1.43,0,0,0,1.4,1.09c1,0,1.56-.8,1.56-2s-.54-1.91-1.53-1.91a1.5,1.5,0,0,0-1.41,1.16,1.59,1.59,0,0,0-.06.38Z"/><path d="M284.1,156.91H285v7.51h-.94Z"/><path d="M291.24,161.82a2.5,2.5,0,0,1-2.55,2.72,2.44,2.44,0,0,1-2.46-2.64,2.5,2.5,0,0,1,2.54-2.72A2.43,2.43,0,0,1,291.24,161.82Zm-4.07.05c0,1.13.65,2,1.56,2s1.56-.83,1.56-2c0-.87-.44-2-1.54-2S287.17,160.9,287.17,161.87Z"/><path d="M292.68,159.3l1.12,3c.12.34.25.74.33,1h0c.1-.31.2-.7.33-1.07l1-3h1l-1.4,3.65a7.78,7.78,0,0,1-1.75,3.21,2.51,2.51,0,0,1-1.15.6L292,166a2.51,2.51,0,0,0,.82-.45,2.91,2.91,0,0,0,.78-1,.75.75,0,0,0,.07-.22.86.86,0,0,0-.06-.25l-1.9-4.72Z"/><path d="M297.74,162a1.64,1.64,0,0,0,1.76,1.78,3.51,3.51,0,0,0,1.42-.26l.16.66a4.11,4.11,0,0,1-1.7.32,2.39,2.39,0,0,1-2.53-2.58,2.49,2.49,0,0,1,2.41-2.77,2.18,2.18,0,0,1,2.12,2.42,3.14,3.14,0,0,1,0,.43Zm2.74-.67a1.33,1.33,0,0,0-1.3-1.51,1.55,1.55,0,0,0-1.43,1.51Zm.22-4.27-1.29,1.51h-.67l.93-1.51Z"/><path d="M309.06,163c0,.53,0,1,.05,1.39h-.83l0-.83h0a2,2,0,0,1-1.7.95c-.8,0-1.77-.44-1.77-2.24v-3h.94v2.84c0,1,.29,1.63,1.14,1.63a1.36,1.36,0,0,0,1.23-.85,1.46,1.46,0,0,0,.08-.48V159.3h.93Z"/><path d="M310.61,160.69c0-.53,0-1,0-1.39h.82l.06.85h0a1.88,1.88,0,0,1,1.69-1c.71,0,1.81.43,1.81,2.18v3.06H314v-2.95c0-.83-.31-1.51-1.18-1.51a1.32,1.32,0,0,0-1.25.95,1.14,1.14,0,0,0-.07.43v3.08h-.93Z"/><path d="M118.35,173.68c0-.65,0-1.18,0-1.67h.84l0,.88h0a2,2,0,0,1,1.83-1,2.33,2.33,0,0,1,2.17,2.61c0,1.84-1.13,2.75-2.33,2.75a1.82,1.82,0,0,1-1.58-.8h0v2.78h-.92Zm.92,1.37a2.22,2.22,0,0,0,0,.38,1.43,1.43,0,0,0,1.4,1.09c1,0,1.55-.81,1.55-2s-.54-1.91-1.52-1.91a1.49,1.49,0,0,0-1.41,1.16,1.51,1.51,0,0,0-.06.38Z"/><path d="M124.37,169.62h.93v7.51h-.93Z"/><path d="M129.71,177.13l-.07-.64h0a1.89,1.89,0,0,1-1.56.76,1.46,1.46,0,0,1-1.57-1.47c0-1.24,1.1-1.92,3.08-1.91v-.1a1.06,1.06,0,0,0-1.16-1.19,2.59,2.59,0,0,0-1.34.38l-.21-.61a3.13,3.13,0,0,1,1.68-.46c1.57,0,1.95,1.07,1.95,2.1v1.92a6.52,6.52,0,0,0,.09,1.22Zm-.14-2.61c-1,0-2.17.16-2.17,1.15a.82.82,0,0,0,.88.89,1.27,1.27,0,0,0,1.24-.86,1,1,0,0,0,0-.29Z"/><path d="M132,173.4c0-.53,0-1,0-1.39h.83l.05.85h0a1.9,1.9,0,0,1,1.7-1c.71,0,1.81.43,1.81,2.18v3.06h-.93v-2.95c0-.83-.31-1.51-1.19-1.51a1.33,1.33,0,0,0-1.25,1,1.35,1.35,0,0,0-.06.43v3.08H132Z"/><path d="M144.52,169.62v6.19c0,.46,0,1,0,1.32h-.84l0-.89h0a1.89,1.89,0,0,1-1.75,1,2.33,2.33,0,0,1-2.19-2.6,2.46,2.46,0,0,1,2.3-2.76,1.69,1.69,0,0,1,1.54.79h0v-3.06Zm-.93,4.47a1.78,1.78,0,0,0,0-.39,1.38,1.38,0,0,0-1.34-1.08c-1,0-1.54.85-1.54,2s.51,1.9,1.51,1.9a1.41,1.41,0,0,0,1.37-1.11,1.78,1.78,0,0,0,0-.41Z"/><path d="M146.59,174.74a1.64,1.64,0,0,0,1.76,1.78,3.33,3.33,0,0,0,1.42-.27l.16.67a4.13,4.13,0,0,1-1.71.32,2.38,2.38,0,0,1-2.52-2.58,2.49,2.49,0,0,1,2.4-2.77,2.17,2.17,0,0,1,2.12,2.42,3.55,3.55,0,0,1,0,.43Zm2.73-.67a1.32,1.32,0,0,0-1.29-1.51,1.54,1.54,0,0,0-1.43,1.51Z"/><path d="M158,172c0,.37,0,.78,0,1.41v3a3,3,0,0,1-.73,2.34,2.72,2.72,0,0,1-1.87.62,3.25,3.25,0,0,1-1.7-.43l.23-.71a2.82,2.82,0,0,0,1.5.41c1,0,1.65-.5,1.65-1.79v-.58h0a1.81,1.81,0,0,1-1.63.86,2.29,2.29,0,0,1-2.18-2.5,2.46,2.46,0,0,1,2.31-2.72,1.71,1.71,0,0,1,1.6.89h0l0-.77Zm-1,2a1.36,1.36,0,0,0-1.35-1.41c-.89,0-1.53.75-1.53,1.94,0,1,.51,1.84,1.52,1.84a1.36,1.36,0,0,0,1.29-1,1.73,1.73,0,0,0,.07-.5Z"/><path d="M160.06,174.74a1.64,1.64,0,0,0,1.76,1.78,3.33,3.33,0,0,0,1.42-.27l.16.67a4.13,4.13,0,0,1-1.71.32,2.38,2.38,0,0,1-2.52-2.58,2.49,2.49,0,0,1,2.41-2.77,2.17,2.17,0,0,1,2.11,2.42,3.55,3.55,0,0,1,0,.43Zm2.73-.67a1.32,1.32,0,0,0-1.29-1.51,1.55,1.55,0,0,0-1.43,1.51Z"/><path d="M164.72,176.18a2.45,2.45,0,0,0,1.23.37c.68,0,1-.34,1-.76s-.26-.69-.95-.94c-.92-.33-1.35-.84-1.35-1.45a1.58,1.58,0,0,1,1.76-1.51,2.53,2.53,0,0,1,1.26.32l-.23.68a2,2,0,0,0-1.05-.3c-.55,0-.85.32-.85.7s.3.61,1,.87c.89.34,1.34.78,1.34,1.54s-.69,1.54-1.91,1.54a3,3,0,0,1-1.44-.35Z"/><path d="M170.16,170.54V172h1.34v.71h-1.34v2.76c0,.64.18,1,.7,1a1.67,1.67,0,0,0,.54-.07l0,.7a2.17,2.17,0,0,1-.83.13,1.33,1.33,0,0,1-1-.39,1.94,1.94,0,0,1-.36-1.34v-2.79h-.79V172h.79v-1.23Z"/><path d="M173.58,170.57a.54.54,0,0,1-.59.57.55.55,0,0,1-.56-.57A.56.56,0,0,1,173,170,.55.55,0,0,1,173.58,170.57Zm-1,6.56V172h.93v5.12Z"/><path d="M179.66,174.53a2.5,2.5,0,0,1-2.55,2.72,2.44,2.44,0,0,1-2.46-2.64,2.51,2.51,0,0,1,2.55-2.72A2.42,2.42,0,0,1,179.66,174.53Zm-4.06.05c0,1.12.64,2,1.55,2s1.56-.84,1.56-2c0-.87-.43-2-1.54-2S175.6,173.61,175.6,174.58Z"/><path d="M180.84,173.4c0-.53,0-1,0-1.39h.82l.06.85h0a1.87,1.87,0,0,1,1.69-1c.71,0,1.81.43,1.81,2.18v3.06h-.93v-2.95c0-.83-.31-1.51-1.19-1.51a1.33,1.33,0,0,0-1.25,1,1.35,1.35,0,0,0-.06.43v3.08h-.93Z"/><path d="M193.39,169.62v6.19c0,.46,0,1,0,1.32h-.84l0-.89h0a1.89,1.89,0,0,1-1.75,1,2.33,2.33,0,0,1-2.19-2.6,2.46,2.46,0,0,1,2.3-2.76,1.72,1.72,0,0,1,1.55.79h0v-3.06Zm-.93,4.47a1.46,1.46,0,0,0-1.39-1.47c-1,0-1.54.85-1.54,2s.51,1.9,1.52,1.9a1.41,1.41,0,0,0,1.36-1.11,1.36,1.36,0,0,0,.05-.41Z"/><path d="M195.45,174.74a1.64,1.64,0,0,0,1.76,1.78,3.33,3.33,0,0,0,1.42-.27l.16.67a4.13,4.13,0,0,1-1.71.32,2.38,2.38,0,0,1-2.52-2.58,2.49,2.49,0,0,1,2.41-2.77,2.18,2.18,0,0,1,2.12,2.42,3.14,3.14,0,0,1,0,.43Zm2.74-.67a1.33,1.33,0,0,0-1.3-1.51,1.55,1.55,0,0,0-1.43,1.51Z"/><path d="M200.11,176.18a2.48,2.48,0,0,0,1.23.37c.68,0,1-.34,1-.76s-.27-.69-1-.94c-.92-.33-1.35-.84-1.35-1.45a1.58,1.58,0,0,1,1.77-1.51,2.56,2.56,0,0,1,1.26.32l-.24.68a2,2,0,0,0-1-.3c-.55,0-.86.32-.86.7s.31.61,1,.87c.89.34,1.35.78,1.35,1.54s-.7,1.54-1.92,1.54a3,3,0,0,1-1.44-.35Z"/><path d="M207.8,170.54V172h1.34v.71H207.8v2.76c0,.64.18,1,.7,1a1.76,1.76,0,0,0,.54-.07l0,.7a2.12,2.12,0,0,1-.82.13,1.3,1.3,0,0,1-1-.39,1.94,1.94,0,0,1-.36-1.34v-2.79h-.79V172h.79v-1.23Z"/><path d="M213,177.13l-.07-.64h0a1.93,1.93,0,0,1-1.57.76,1.46,1.46,0,0,1-1.57-1.47c0-1.24,1.1-1.92,3.08-1.91v-.1a1.05,1.05,0,0,0-1.16-1.19,2.59,2.59,0,0,0-1.34.38l-.21-.61a3.17,3.17,0,0,1,1.69-.46c1.56,0,1.95,1.07,1.95,2.1v1.92a7.57,7.57,0,0,0,.08,1.22Zm-.14-2.61c-1,0-2.17.16-2.17,1.15a.83.83,0,0,0,.88.89,1.27,1.27,0,0,0,1.24-.86,1,1,0,0,0,0-.29Z"/><path d="M215.29,169.62h.93v7.51h-.93Z"/><path d="M218.31,174.74a1.64,1.64,0,0,0,1.75,1.78,3.33,3.33,0,0,0,1.42-.27l.16.67a4.11,4.11,0,0,1-1.7.32,2.38,2.38,0,0,1-2.52-2.58,2.49,2.49,0,0,1,2.4-2.77,2.18,2.18,0,0,1,2.12,2.42,3.55,3.55,0,0,1,0,.43Zm2.73-.67a1.33,1.33,0,0,0-1.29-1.51,1.54,1.54,0,0,0-1.43,1.51Z"/><path d="M223.09,173.4c0-.53,0-1,0-1.39h.83l.05.85h0a1.9,1.9,0,0,1,1.7-1c.71,0,1.81.43,1.81,2.18v3.06h-.93v-2.95c0-.83-.31-1.51-1.19-1.51a1.32,1.32,0,0,0-1.25,1,1.35,1.35,0,0,0-.06.43v3.08h-.94Z"/><path d="M230.05,170.54V172h1.34v.71h-1.34v2.76c0,.64.18,1,.7,1a1.76,1.76,0,0,0,.54-.07l0,.7a2.12,2.12,0,0,1-.82.13,1.3,1.3,0,0,1-1-.39,1.94,1.94,0,0,1-.36-1.34v-2.79h-.79V172h.79v-1.23Z"/><path d="M232.31,176.18a2.42,2.42,0,0,0,1.23.37c.67,0,1-.34,1-.76s-.26-.69-.95-.94c-.92-.33-1.36-.84-1.36-1.45a1.58,1.58,0,0,1,1.77-1.51,2.56,2.56,0,0,1,1.26.32l-.23.68a2,2,0,0,0-1.05-.3c-.55,0-.86.32-.86.7s.31.61,1,.87c.89.34,1.34.78,1.34,1.54s-.7,1.54-1.92,1.54a3,3,0,0,1-1.44-.35Z"/><path d="M243.51,174.53a2.5,2.5,0,0,1-2.55,2.72,2.44,2.44,0,0,1-2.46-2.64,2.51,2.51,0,0,1,2.54-2.72A2.43,2.43,0,0,1,243.51,174.53Zm-4.06.05c0,1.12.64,2,1.55,2s1.56-.84,1.56-2c0-.87-.44-2-1.54-2S239.45,173.61,239.45,174.58Z"/><path d="M249,175.74c0,.53,0,1,0,1.39h-.83l-.05-.83h0a1.94,1.94,0,0,1-1.7.95c-.8,0-1.76-.44-1.76-2.25v-3h.93v2.84c0,1,.29,1.63,1.14,1.63a1.35,1.35,0,0,0,1.23-.85,1.46,1.46,0,0,0,.08-.48V172H249Z"/><path d="M252.77,173.68c0-.65,0-1.18-.05-1.67h.84l0,.88h0a2,2,0,0,1,1.82-1,2.32,2.32,0,0,1,2.17,2.61c0,1.84-1.12,2.75-2.33,2.75a1.82,1.82,0,0,1-1.58-.8h0v2.78h-.92Zm.92,1.37a2.22,2.22,0,0,0,0,.38,1.43,1.43,0,0,0,1.4,1.09c1,0,1.56-.81,1.56-2s-.54-1.91-1.53-1.91a1.6,1.6,0,0,0-1.47,1.54Z"/><path d="M258.79,169.62h.94v7.51h-.94Z"/><path d="M264.13,177.13l-.07-.64h0a1.93,1.93,0,0,1-1.57.76,1.46,1.46,0,0,1-1.57-1.47c0-1.24,1.1-1.92,3.08-1.91v-.1a1.05,1.05,0,0,0-1.16-1.19,2.59,2.59,0,0,0-1.34.38l-.21-.61a3.13,3.13,0,0,1,1.68-.46c1.57,0,1.95,1.07,1.95,2.1v1.92a6.52,6.52,0,0,0,.09,1.22Zm-.14-2.61c-1,0-2.17.16-2.17,1.15a.82.82,0,0,0,.88.89,1.27,1.27,0,0,0,1.24-.86,1,1,0,0,0,.05-.29Z"/><path d="M266.4,173.4c0-.53,0-1,0-1.39h.83l.05.85h0a1.9,1.9,0,0,1,1.7-1c.71,0,1.81.43,1.81,2.18v3.06h-.93v-2.95c0-.83-.31-1.51-1.19-1.51a1.33,1.33,0,0,0-1.25,1,1.35,1.35,0,0,0-.06.43v3.08h-.93Z"/><path d="M279,169.62v6.19c0,.46,0,1,0,1.32h-.84l0-.89h0a1.89,1.89,0,0,1-1.75,1,2.33,2.33,0,0,1-2.19-2.6,2.46,2.46,0,0,1,2.3-2.76,1.69,1.69,0,0,1,1.54.79h0v-3.06Zm-.94,4.47a1.78,1.78,0,0,0,0-.39,1.37,1.37,0,0,0-1.34-1.08c-1,0-1.54.85-1.54,2s.51,1.9,1.52,1.9a1.41,1.41,0,0,0,1.36-1.11,1.78,1.78,0,0,0,0-.41Z"/><path d="M281.73,169.88a12.47,12.47,0,0,1-1,2.51l-.6.07a14.49,14.49,0,0,0,.63-2.48Z"/><path d="M285.4,177.13l-.08-.64h0a1.93,1.93,0,0,1-1.57.76,1.45,1.45,0,0,1-1.56-1.47c0-1.24,1.1-1.92,3.08-1.91v-.1a1.06,1.06,0,0,0-1.17-1.19,2.58,2.58,0,0,0-1.33.38l-.21-.61a3.11,3.11,0,0,1,1.68-.46c1.57,0,2,1.07,2,2.1v1.92a7.57,7.57,0,0,0,.08,1.22Zm-.14-2.61c-1,0-2.17.16-2.17,1.15a.82.82,0,0,0,.88.89,1.28,1.28,0,0,0,1.24-.86,1,1,0,0,0,.05-.29Z"/><path d="M287.66,173.4c0-.53,0-1,0-1.39h.82l0,.82h0a1.77,1.77,0,0,1,1.61-.94,1.52,1.52,0,0,1,1.45,1h0a2.12,2.12,0,0,1,.57-.67,1.79,1.79,0,0,1,1.14-.36c.67,0,1.68.45,1.68,2.23v3h-.91v-2.9c0-1-.36-1.58-1.11-1.58a1.2,1.2,0,0,0-1.1.85,1.36,1.36,0,0,0-.08.47v3.16h-.91v-3.07c0-.81-.36-1.41-1.07-1.41a1.26,1.26,0,0,0-1.15.94,1.09,1.09,0,0,0-.08.45v3.09h-.91Z"/><path d="M297,174.74a1.65,1.65,0,0,0,1.76,1.78,3.33,3.33,0,0,0,1.42-.27l.16.67a4.13,4.13,0,0,1-1.71.32,2.38,2.38,0,0,1-2.52-2.58,2.5,2.5,0,0,1,2.41-2.77,2.18,2.18,0,0,1,2.12,2.42,2.08,2.08,0,0,1,0,.43Zm2.74-.67a1.33,1.33,0,0,0-1.3-1.51,1.55,1.55,0,0,0-1.43,1.51Zm.22-4.28-1.29,1.52H298l.93-1.52Z"/><path d="M301.8,169.62h.93v7.51h-.93Z"/><path d="M305.34,170.57a.55.55,0,0,1-.6.57.56.56,0,0,1-.56-.57.57.57,0,0,1,.59-.58A.55.55,0,0,1,305.34,170.57Zm-1,6.56V172h.93v5.12Z"/><path d="M311.42,174.53a2.51,2.51,0,0,1-2.56,2.72,2.44,2.44,0,0,1-2.45-2.64,2.5,2.5,0,0,1,2.54-2.72A2.43,2.43,0,0,1,311.42,174.53Zm-4.07.05c0,1.12.65,2,1.56,2s1.55-.84,1.55-2c0-.87-.43-2-1.53-2S307.35,173.61,307.35,174.58Z"/><path d="M312.59,173.61c0-.61,0-1.12,0-1.6h.81l0,1h0a1.54,1.54,0,0,1,1.42-1.12,1,1,0,0,1,.26,0v.88a1.45,1.45,0,0,0-.32,0,1.32,1.32,0,0,0-1.25,1.2,2.63,2.63,0,0,0,0,.43v2.73h-.92Z"/><path d="M318.84,177.13l-.07-.64h0a1.89,1.89,0,0,1-1.56.76,1.46,1.46,0,0,1-1.57-1.47c0-1.24,1.1-1.92,3.08-1.91v-.1a1.06,1.06,0,0,0-1.16-1.19,2.59,2.59,0,0,0-1.34.38l-.21-.61a3.13,3.13,0,0,1,1.68-.46c1.57,0,2,1.07,2,2.1v1.92a6.52,6.52,0,0,0,.09,1.22Zm-.14-2.61c-1,0-2.17.16-2.17,1.15a.82.82,0,0,0,.88.89,1.27,1.27,0,0,0,1.24-.86,1,1,0,0,0,.05-.29Z"/><path d="M323.27,173.92v.69h-2.62v-.69Z"/><path d="M119.47,183.24v1.48h1.33v.71h-1.33v2.76c0,.64.18,1,.7,1a2.14,2.14,0,0,0,.54-.07l0,.7a2.39,2.39,0,0,1-.83.13,1.29,1.29,0,0,1-1-.39,1.89,1.89,0,0,1-.36-1.34v-2.79h-.8v-.71h.8v-1.23Z"/><path d="M122.89,183.28a.58.58,0,0,1-1.15,0,.57.57,0,0,1,.58-.59A.56.56,0,0,1,122.89,183.28Zm-1,6.56v-5.12h.93v5.12Z"/><path d="M129,187.24a2.51,2.51,0,0,1-2.55,2.72,2.44,2.44,0,0,1-2.46-2.64,2.5,2.5,0,0,1,2.54-2.72A2.43,2.43,0,0,1,129,187.24Zm-4.07,0c0,1.12.65,2,1.56,2s1.55-.84,1.55-2c0-.87-.43-2-1.53-2S124.9,186.32,124.9,187.29Z"/><path d="M130.14,186.1c0-.53,0-1,0-1.38h.83l0,.84h0a1.91,1.91,0,0,1,1.7-1c.71,0,1.81.42,1.81,2.18v3.06h-.94v-3c0-.83-.3-1.52-1.18-1.52a1.32,1.32,0,0,0-1.25,1,1.35,1.35,0,0,0-.06.43v3.08h-.94Z"/><path d="M142.69,182.32v6.2c0,.45,0,1,0,1.32h-.83l0-.89h0a1.89,1.89,0,0,1-1.74,1,2.34,2.34,0,0,1-2.19-2.61,2.44,2.44,0,0,1,2.29-2.75,1.71,1.71,0,0,1,1.55.78h0v-3.06Zm-.93,4.48a1.78,1.78,0,0,0,0-.39,1.38,1.38,0,0,0-1.35-1.08c-1,0-1.53.85-1.53,2s.51,1.9,1.51,1.9a1.41,1.41,0,0,0,1.37-1.12,1.64,1.64,0,0,0,0-.4Z"/><path d="M148.53,188.44c0,.53,0,1,0,1.4h-.83l-.05-.84h0a1.91,1.91,0,0,1-1.69,1c-.81,0-1.77-.45-1.77-2.25v-3h.93v2.83c0,1,.3,1.64,1.14,1.64a1.35,1.35,0,0,0,1.23-.85,1.46,1.46,0,0,0,.09-.48v-3.14h.93Z"/><path d="M152.32,186.32c0-.61,0-1.13,0-1.6h.81l0,1h0a1.53,1.53,0,0,1,1.42-1.12,1,1,0,0,1,.26,0v.88a1.45,1.45,0,0,0-.32,0,1.32,1.32,0,0,0-1.25,1.2,2.63,2.63,0,0,0,0,.43v2.73h-.92Z"/><path d="M156.2,187.45a1.64,1.64,0,0,0,1.75,1.78,3.33,3.33,0,0,0,1.42-.27l.16.67a4.11,4.11,0,0,1-1.7.32,2.38,2.38,0,0,1-2.52-2.59,2.49,2.49,0,0,1,2.4-2.76,2.17,2.17,0,0,1,2.12,2.41,3.76,3.76,0,0,1,0,.44Zm2.73-.67a1.33,1.33,0,0,0-1.29-1.51,1.54,1.54,0,0,0-1.43,1.51Z"/><path d="M161,186.1c0-.53,0-1,0-1.38h.83l0,.84h0a1.89,1.89,0,0,1,1.69-1c.71,0,1.82.42,1.82,2.18v3.06h-.94v-3c0-.83-.3-1.52-1.18-1.52a1.4,1.4,0,0,0-1.32,1.39v3.08H161Z"/><path d="M171.29,182.32v6.2c0,.45,0,1,0,1.32h-.84l0-.89h0a1.91,1.91,0,0,1-1.75,1,2.34,2.34,0,0,1-2.19-2.61,2.45,2.45,0,0,1,2.3-2.75,1.71,1.71,0,0,1,1.54.78h0v-3.06Zm-.94,4.48a1.78,1.78,0,0,0,0-.39,1.37,1.37,0,0,0-1.34-1.08c-1,0-1.54.85-1.54,2s.51,1.9,1.52,1.9a1.41,1.41,0,0,0,1.36-1.12,1.64,1.64,0,0,0,0-.4Z"/><path d="M173.35,187.45a1.64,1.64,0,0,0,1.76,1.78,3.33,3.33,0,0,0,1.42-.27l.16.67A4.13,4.13,0,0,1,175,190a2.38,2.38,0,0,1-2.52-2.59,2.49,2.49,0,0,1,2.41-2.76A2.16,2.16,0,0,1,177,187a3.76,3.76,0,0,1,0,.44Zm2.73-.67a1.32,1.32,0,0,0-1.29-1.51,1.55,1.55,0,0,0-1.43,1.51Z"/><path d="M178.14,186.1c0-.53,0-1,0-1.38h.81l0,.82h0a1.77,1.77,0,0,1,1.61-.94,1.52,1.52,0,0,1,1.45,1h0a2.12,2.12,0,0,1,.57-.67,1.78,1.78,0,0,1,1.13-.36c.68,0,1.69.44,1.69,2.22v3h-.91v-2.9c0-1-.36-1.58-1.12-1.58a1.2,1.2,0,0,0-1.1.85,1.66,1.66,0,0,0-.07.47v3.16h-.91v-3.07c0-.81-.36-1.41-1.07-1.41a1.29,1.29,0,0,0-1.16.93,1.39,1.39,0,0,0-.07.46v3.09h-.91Z"/><path d="M187.49,187.45a1.64,1.64,0,0,0,1.76,1.78,3.33,3.33,0,0,0,1.42-.27l.16.67a4.13,4.13,0,0,1-1.71.32,2.38,2.38,0,0,1-2.52-2.59,2.49,2.49,0,0,1,2.4-2.76,2.17,2.17,0,0,1,2.12,2.41,3.76,3.76,0,0,1,0,.44Zm2.73-.67a1.32,1.32,0,0,0-1.29-1.51,1.54,1.54,0,0,0-1.43,1.51Z"/><path d="M192.28,186.1c0-.53,0-1-.05-1.38h.83l.05.84h0a1.91,1.91,0,0,1,1.7-1c.71,0,1.81.42,1.81,2.18v3.06h-.93v-3c0-.83-.31-1.52-1.19-1.52a1.33,1.33,0,0,0-1.25,1,1.35,1.35,0,0,0-.06.43v3.08h-.93Z"/><path d="M199.23,183.24v1.48h1.34v.71h-1.34v2.76c0,.64.19,1,.7,1a2,2,0,0,0,.54-.07l.05.7a2.39,2.39,0,0,1-.83.13,1.33,1.33,0,0,1-1-.39,1.94,1.94,0,0,1-.36-1.34v-2.79h-.79v-.71h.79v-1.23Z"/><path d="M206.7,189.84l-.07-.64h0A1.93,1.93,0,0,1,205,190a1.46,1.46,0,0,1-1.57-1.47c0-1.24,1.1-1.92,3.08-1.91v-.11a1,1,0,0,0-1.16-1.18,2.59,2.59,0,0,0-1.34.38l-.21-.61a3.13,3.13,0,0,1,1.68-.46c1.57,0,2,1.07,2,2.1v1.91a6.57,6.57,0,0,0,.09,1.23Zm-.14-2.61c-1,0-2.17.15-2.17,1.15a.83.83,0,0,0,.88.89,1.27,1.27,0,0,0,1.24-.86,1,1,0,0,0,.05-.29Z"/><path d="M213.26,188.44c0,.53,0,1,0,1.4h-.83l-.05-.84h0a1.94,1.94,0,0,1-1.7,1c-.8,0-1.76-.45-1.76-2.25v-3h.93v2.83c0,1,.29,1.64,1.14,1.64a1.35,1.35,0,0,0,1.23-.85,1.46,1.46,0,0,0,.08-.48v-3.14h.94Z"/><path d="M217,189.84c0-.35,0-.87,0-1.32v-6.2H218v3.22h0a1.91,1.91,0,0,1,1.75-.94c1.27,0,2.17,1.06,2.16,2.62a2.44,2.44,0,0,1-2.3,2.74,1.84,1.84,0,0,1-1.72-1h0l0,.85Zm1-2.05a2,2,0,0,0,0,.34,1.44,1.44,0,0,0,1.4,1.09c1,0,1.56-.8,1.56-2s-.53-1.91-1.53-1.91a1.5,1.5,0,0,0-1.42,1.15,1.85,1.85,0,0,0-.05.38Z"/><path d="M223.59,187.45a1.64,1.64,0,0,0,1.76,1.78,3.33,3.33,0,0,0,1.42-.27l.16.67a4.13,4.13,0,0,1-1.71.32,2.39,2.39,0,0,1-2.52-2.59,2.49,2.49,0,0,1,2.41-2.76,2.16,2.16,0,0,1,2.11,2.41,3.76,3.76,0,0,1,0,.44Zm2.73-.67a1.32,1.32,0,0,0-1.29-1.51,1.55,1.55,0,0,0-1.43,1.51Z"/><path d="M228.25,188.89a2.45,2.45,0,0,0,1.23.37c.68,0,1-.34,1-.76s-.27-.69-1-.95c-.92-.32-1.35-.83-1.35-1.45a1.58,1.58,0,0,1,1.77-1.5,2.56,2.56,0,0,1,1.26.32l-.24.68a2,2,0,0,0-1-.3c-.56,0-.86.32-.86.7s.3.61,1,.87c.89.34,1.35.78,1.35,1.54s-.7,1.54-1.92,1.54a3,3,0,0,1-1.44-.35Z"/><path d="M237.21,187.24a2.5,2.5,0,0,1-2.55,2.72,2.44,2.44,0,0,1-2.46-2.64,2.51,2.51,0,0,1,2.54-2.72A2.43,2.43,0,0,1,237.21,187.24Zm-4.07,0c0,1.12.65,2,1.56,2s1.56-.84,1.56-2c0-.87-.44-2-1.54-2S233.14,186.32,233.14,187.29Z"/><path d="M239.43,183.28a.58.58,0,0,1-1.16,0,.57.57,0,0,1,.58-.59A.56.56,0,0,1,239.43,183.28Zm-1,6.56v-5.12h.93v5.12Z"/><path d="M240.87,186.1c0-.53,0-1-.05-1.38h.83l0,.84h0a1.91,1.91,0,0,1,1.7-1c.71,0,1.81.42,1.81,2.18v3.06h-.93v-3c0-.83-.31-1.52-1.19-1.52a1.33,1.33,0,0,0-1.25,1,1.35,1.35,0,0,0-.06.43v3.08h-.93Z"/><path d="M246.52,189.29a.63.63,0,0,1,.64-.67.67.67,0,1,1-.64.67Z"/><rect x="103.53" y="93.86" width="7.19" height="7.19" fill="#7c7910"/><rect x="103.53" y="157.44" width="7.19" height="7.19" fill="#7c7910"/></svg>