<svg id="fcbf2c5e-d613-443e-a42c-99ce5603c248" data-name="Layer 1" xmlns="http://www.w3.org/2000/svg" viewBox="0 0 414.3 226.15"><path d="M324.8,126.27l-228.62-.51a5.68,5.68,0,0,1-5.67-5.67V54.63A5.68,5.68,0,0,1,96.18,49l228.62.5a5.68,5.68,0,0,1,5.67,5.67V120.6A5.68,5.68,0,0,1,324.8,126.27Z" fill="#7c7910" stroke="#7c7910" stroke-miterlimit="10"/><path d="M283.19,153.09h-187a5.68,5.68,0,0,1-5.67-5.66V82H288.86v65.46A5.68,5.68,0,0,1,283.19,153.09Z" fill="#bec766" stroke="#7c7910" stroke-miterlimit="10"/><path d="M324.82,208.65H96.12A5.68,5.68,0,0,1,90.45,203V79.38H330.5V203A5.69,5.69,0,0,1,324.82,208.65Z" fill="#e9eccc" stroke="#7c7910" stroke-miterlimit="10"/><polygon points="9 9 17.47 17.48 9 25.94 17.27 25.94 25.75 17.48 17.27 9 9 9" fill="#7c7910"/><path d="M32.56,13a19.56,19.56,0,0,1,3.18-.25,5.26,5.26,0,0,1,3.61,1.07,3.45,3.45,0,0,1,1.13,2.69,3.82,3.82,0,0,1-1,2.75,5.32,5.32,0,0,1-3.94,1.41,5.46,5.46,0,0,1-1.33-.11v5.15H32.56Zm1.66,6.21a5.83,5.83,0,0,0,1.37.13c2,0,3.23-1,3.23-2.75s-1.2-2.52-3-2.52a7.38,7.38,0,0,0-1.56.13Z" fill="#7c7910"/><path d="M49.37,19.63h-5v4.64h5.57v1.39H42.71V12.8h6.95v1.39H44.37v4.07h5Z" fill="#7c7910"/><path d="M52.1,13a17.43,17.43,0,0,1,3.19-.27A5.29,5.29,0,0,1,59,13.75a3.21,3.21,0,0,1,1,2.45,3.38,3.38,0,0,1-2.42,3.28v.06a3.21,3.21,0,0,1,1.89,2.59,19.93,19.93,0,0,0,1,3.53H58.76a16.37,16.37,0,0,1-.86-3.07c-.38-1.77-1.07-2.44-2.57-2.5H53.76v5.57H52.1Zm1.66,5.86h1.7c1.77,0,2.9-1,2.9-2.44,0-1.66-1.2-2.39-3-2.41a7.26,7.26,0,0,0-1.64.15Z" fill="#7c7910"/><path d="M62.37,12.8H69.3v1.39H64v4.28H68.9v1.37H64v5.82H62.37Z" fill="#7c7910"/><path d="M82.66,19.1c0,4.43-2.7,6.77-6,6.77s-5.78-2.63-5.78-6.52c0-4.09,2.54-6.76,6-6.76S82.66,15.28,82.66,19.1Zm-10,.21c0,2.75,1.49,5.21,4.11,5.21s4.12-2.43,4.12-5.35c0-2.55-1.34-5.23-4.1-5.23S72.67,16.48,72.67,19.31Z" fill="#7c7910"/><path d="M84.81,13A17.43,17.43,0,0,1,88,12.7a5.29,5.29,0,0,1,3.72,1.05,3.21,3.21,0,0,1,1,2.45,3.38,3.38,0,0,1-2.42,3.28v.06a3.21,3.21,0,0,1,1.89,2.59,19.93,19.93,0,0,0,1,3.53H91.47a17.23,17.23,0,0,1-.86-3.07c-.38-1.77-1.07-2.44-2.57-2.5H86.47v5.57H84.81Zm1.66,5.86h1.7c1.78,0,2.9-1,2.9-2.44,0-1.66-1.2-2.39-3-2.41a7.26,7.26,0,0,0-1.64.15Z" fill="#7c7910"/><path d="M105.92,20c-.1-1.79-.21-4-.19-5.55h-.06c-.44,1.51-1,3.11-1.62,4.89l-2.27,6.24h-1.26l-2.08-6.13c-.61-1.81-1.13-3.47-1.49-5h0c0,1.6-.13,3.76-.25,5.69l-.34,5.51H94.73l.9-12.86h2.12L100,19c.53,1.59,1,3,1.29,4.33h.06c.33-1.29.78-2.71,1.36-4.33L105,12.8h2.12l.8,12.86h-1.63Z" fill="#7c7910"/><path d="M112.31,21.62l-1.33,4h-1.72l4.37-12.86h2L120,25.66h-1.77l-1.38-4Zm4.22-1.3-1.26-3.7c-.29-.84-.48-1.61-.67-2.35h0c-.19.76-.4,1.54-.64,2.33l-1.26,3.72Z" fill="#7c7910"/><path d="M121.91,25.66V12.8h1.81l4.13,6.51a36.9,36.9,0,0,1,2.31,4.18l0,0c-.16-1.72-.2-3.28-.2-5.29V12.8h1.57V25.66h-1.68l-4.09-6.52a43.66,43.66,0,0,1-2.4-4.3l-.06,0c.1,1.62.14,3.17.14,5.31v5.49Z" fill="#7c7910"/><path d="M143.46,25.24a8.13,8.13,0,0,1-3.4.62c-3.63,0-6.36-2.3-6.36-6.51a6.4,6.4,0,0,1,6.72-6.76,6.91,6.91,0,0,1,3.06.57l-.4,1.36a6,6,0,0,0-2.6-.54c-3,0-5,1.93-5,5.31,0,3.15,1.81,5.17,4.95,5.17a6.74,6.74,0,0,0,2.71-.53Z" fill="#7c7910"/><path d="M152.2,19.63h-5v4.64h5.57v1.39h-7.23V12.8h7v1.39H147.2v4.07h5Z" fill="#7c7910"/><path d="M169.81,20c-.09-1.79-.21-4-.19-5.55h-.05c-.44,1.51-1,3.11-1.63,4.89l-2.27,6.24h-1.26l-2.08-6.13c-.61-1.81-1.12-3.47-1.49-5h0c0,1.6-.13,3.76-.24,5.69l-.35,5.51h-1.58l.9-12.86h2.11l2.2,6.22c.53,1.59,1,3,1.3,4.33h.06c.32-1.29.78-2.71,1.35-4.33l2.29-6.22H171l.8,12.86h-1.62Z" fill="#7c7910"/><path d="M176.21,21.62l-1.34,4h-1.72l4.37-12.86h2l4.39,12.86h-1.78l-1.37-4Zm4.22-1.3-1.26-3.7c-.29-.84-.48-1.61-.67-2.35h0c-.19.76-.4,1.54-.65,2.33l-1.26,3.72Z" fill="#7c7910"/><path d="M185.81,25.66V12.8h1.81l4.12,6.51a35.4,35.4,0,0,1,2.31,4.18l0,0c-.15-1.72-.19-3.28-.19-5.29V12.8h1.56V25.66h-1.68l-4.08-6.52a41.84,41.84,0,0,1-2.41-4.3l0,0c.09,1.62.13,3.17.13,5.31v5.49Z" fill="#7c7910"/><path d="M200.44,21.62l-1.33,4h-1.72l4.37-12.86h2l4.4,12.86h-1.78l-1.37-4Zm4.22-1.3-1.26-3.7c-.28-.84-.47-1.61-.67-2.35h0c-.19.76-.4,1.54-.65,2.33l-1.26,3.72Z" fill="#7c7910"/><path d="M219.55,25.09a11.9,11.9,0,0,1-4,.71,6.62,6.62,0,0,1-4.81-1.7,6.62,6.62,0,0,1-1.8-4.79c0-3.84,2.66-6.65,7-6.65a7.92,7.92,0,0,1,3.21.6l-.4,1.35a6.79,6.79,0,0,0-2.85-.55,4.81,4.81,0,0,0-5.17,5.17c0,3.27,2,5.19,5,5.19a5.47,5.47,0,0,0,2.22-.34V20.24h-2.62V18.91h4.24Z" fill="#7c7910"/><path d="M228.75,19.63h-5v4.64h5.57v1.39h-7.23V12.8H229v1.39h-5.28v4.07h5Z" fill="#7c7910"/><path d="M242.32,20c-.1-1.79-.21-4-.19-5.55h-.06c-.44,1.51-1,3.11-1.62,4.89l-2.27,6.24h-1.26l-2.08-6.13c-.62-1.81-1.13-3.47-1.49-5h0c0,1.6-.14,3.76-.25,5.69l-.34,5.51h-1.59L232,12.8h2.12L236.34,19c.54,1.59,1,3,1.3,4.33h.06c.32-1.29.78-2.71,1.35-4.33l2.29-6.22h2.12l.8,12.86h-1.62Z" fill="#7c7910"/><path d="M253.48,19.63h-5v4.64h5.57v1.39h-7.23V12.8h7v1.39h-5.29v4.07h5Z" fill="#7c7910"/><path d="M256.21,25.66V12.8H258l4.12,6.51a35.4,35.4,0,0,1,2.31,4.18l0,0c-.15-1.72-.19-3.28-.19-5.29V12.8h1.57V25.66h-1.68l-4.09-6.52a41.69,41.69,0,0,1-2.4-4.3l-.06,0c.09,1.62.13,3.17.13,5.31v5.49Z" fill="#7c7910"/><path d="M271.21,14.21H267.3V12.8h9.52v1.41h-3.93V25.66h-1.68Z" fill="#7c7910"/><path d="M284.38,21.62l-1.34,4h-1.72l4.37-12.86h2l4.39,12.86h-1.78l-1.37-4Zm4.22-1.3-1.26-3.7c-.29-.84-.48-1.61-.67-2.35h0c-.19.76-.4,1.54-.65,2.33l-1.26,3.72Z" fill="#7c7910"/><path d="M294,25.66V12.8h1.81l4.12,6.51a35.4,35.4,0,0,1,2.31,4.18l0,0c-.15-1.72-.19-3.28-.19-5.29V12.8h1.56V25.66H302l-4.09-6.52a39.9,39.9,0,0,1-2.4-4.3l-.06,0c.09,1.62.13,3.17.13,5.31v5.49Z" fill="#7c7910"/><path d="M306.53,25.66V12.8h1.82l4.12,6.51a35.4,35.4,0,0,1,2.31,4.18l0,0c-.15-1.72-.19-3.28-.19-5.29V12.8h1.56V25.66h-1.68l-4.08-6.52a41.84,41.84,0,0,1-2.41-4.3l0,0c.09,1.62.13,3.17.13,5.31v5.49Z" fill="#7c7910"/><path d="M320.75,12.8v7.61c0,2.89,1.28,4.11,3,4.11,1.91,0,3.13-1.26,3.13-4.11V12.8h1.68v7.5c0,3.95-2.08,5.57-4.87,5.57-2.63,0-4.62-1.5-4.62-5.49V12.8Z" fill="#7c7910"/><path d="M332.87,21.62l-1.34,4h-1.71l4.37-12.86h2l4.39,12.86h-1.77l-1.38-4Zm4.22-1.3-1.26-3.7c-.29-.84-.48-1.61-.67-2.35h0c-.19.76-.4,1.54-.65,2.33l-1.26,3.72Z" fill="#7c7910"/><path d="M342.47,12.8h1.66V24.27h5.5v1.39h-7.16Z" fill="#7c7910"/><path d="M364.51,25.24a8.11,8.11,0,0,1-3.39.62c-3.63,0-6.36-2.3-6.36-6.51a6.4,6.4,0,0,1,6.72-6.76,6.89,6.89,0,0,1,3,.57l-.4,1.36a6,6,0,0,0-2.59-.54c-3,0-5,1.93-5,5.31,0,3.15,1.81,5.17,4.94,5.17a6.74,6.74,0,0,0,2.71-.53Z" fill="#7c7910"/><path d="M369.51,25.66V20.2l-4.06-7.4h1.89l1.81,3.55c.5,1,.88,1.76,1.28,2.65h0c.36-.84.8-1.68,1.29-2.65l1.86-3.55h1.89l-4.32,7.39v5.47Z" fill="#7c7910"/><path d="M385.28,25.24a8.13,8.13,0,0,1-3.4.62c-3.63,0-6.36-2.3-6.36-6.51a6.4,6.4,0,0,1,6.72-6.76,6.91,6.91,0,0,1,3.06.57l-.4,1.36a6,6,0,0,0-2.6-.54c-3,0-5,1.93-5,5.31,0,3.15,1.81,5.17,4.94,5.17a6.66,6.66,0,0,0,2.71-.53Z" fill="#7c7910"/><path d="M387.36,12.8H389V24.27h5.49v1.39h-7.15Z" fill="#7c7910"/><path d="M403,19.63h-5v4.64h5.58v1.39h-7.24V12.8h6.95v1.39H398v4.07h5Z" fill="#7c7910"/><path d="M131.4,68.86l-1.34,4h-1.71L132.72,60h2l4.39,12.86h-1.77l-1.38-4Zm4.22-1.3-1.26-3.7c-.29-.84-.48-1.61-.67-2.35h0c-.19.76-.4,1.54-.65,2.33l-1.26,3.72Z" fill="#fff"/><path d="M142.77,61v2.65h2.41v1.28h-2.41v5c0,1.14.33,1.79,1.26,1.79a4.19,4.19,0,0,0,1-.11l.07,1.25a4,4,0,0,1-1.49.23,2.31,2.31,0,0,1-1.81-.7,3.43,3.43,0,0,1-.65-2.41v-5H139.7V63.66h1.43V61.45Z" fill="#fff"/><path d="M151,72.9c0-.63.07-1.56.07-2.38V59.35h1.66v5.8h0a3.44,3.44,0,0,1,3.15-1.7c2.29,0,3.91,1.91,3.9,4.72,0,3.3-2.08,4.94-4.15,4.94a3.29,3.29,0,0,1-3.09-1.73h-.06l-.07,1.52Zm1.73-3.7a3,3,0,0,0,.08.61,2.59,2.59,0,0,0,2.52,2c1.76,0,2.81-1.43,2.81-3.55,0-1.86-1-3.44-2.75-3.44a2.67,2.67,0,0,0-2.56,2.06,3.16,3.16,0,0,0-.1.69Z" fill="#fff"/><path d="M162.91,68.59a3,3,0,0,0,3.17,3.21,6,6,0,0,0,2.55-.48l.29,1.2a7.42,7.42,0,0,1-3.07.57,4.29,4.29,0,0,1-4.55-4.65c0-2.79,1.65-5,4.34-5,3,0,3.81,2.66,3.81,4.36a6.44,6.44,0,0,1,0,.78Zm4.92-1.2c0-1.07-.44-2.73-2.33-2.73a2.77,2.77,0,0,0-2.57,2.73Z" fill="#fff"/><path d="M179.49,63.66c0,.67-.07,1.42-.07,2.54v5.37c0,2.12-.42,3.41-1.32,4.22a4.89,4.89,0,0,1-3.36,1.1,5.9,5.9,0,0,1-3.07-.76l.42-1.28a5.21,5.21,0,0,0,2.71.73c1.72,0,3-.9,3-3.23v-1h0a3.3,3.3,0,0,1-2.94,1.54c-2.29,0-3.93-1.94-3.93-4.5,0-3.13,2-4.91,4.16-4.91a3.06,3.06,0,0,1,2.88,1.61h0l.07-1.4Zm-1.73,3.65a2.26,2.26,0,0,0-.1-.76,2.42,2.42,0,0,0-2.35-1.78c-1.6,0-2.75,1.36-2.75,3.49,0,1.82.92,3.33,2.73,3.33a2.46,2.46,0,0,0,2.33-1.72,2.82,2.82,0,0,0,.14-.9Z" fill="#fff"/><path d="M184,61.07a1,1,0,0,1-2.08,0,1,1,0,0,1,1.05-1A1,1,0,0,1,184,61.07ZM182.09,72.9V63.66h1.68V72.9Z" fill="#fff"/><path d="M186.55,66.16c0-1,0-1.73-.07-2.5H188l.1,1.53h0a3.4,3.4,0,0,1,3.05-1.74c1.28,0,3.27.77,3.27,3.94V72.9h-1.68V67.58c0-1.49-.56-2.73-2.14-2.73a2.37,2.37,0,0,0-2.25,1.72,2.28,2.28,0,0,0-.12.78V72.9h-1.68Z" fill="#fff"/><path d="M197.15,66.16c0-1,0-1.73-.08-2.5h1.49l.09,1.53h0a3.4,3.4,0,0,1,3.06-1.74c1.27,0,3.26.77,3.26,3.94V72.9h-1.68V67.58c0-1.49-.55-2.73-2.14-2.73a2.38,2.38,0,0,0-2.25,1.72,2.28,2.28,0,0,0-.12.78V72.9h-1.67Z" fill="#fff"/><path d="M209.61,61.07a1,1,0,0,1-2.08,0,1,1,0,0,1,1.05-1A1,1,0,0,1,209.61,61.07ZM207.74,72.9V63.66h1.68V72.9Z" fill="#fff"/><path d="M212.2,66.16c0-1,0-1.73-.07-2.5h1.48l.1,1.53h0a3.4,3.4,0,0,1,3.05-1.74c1.28,0,3.27.77,3.27,3.94V72.9h-1.68V67.58c0-1.49-.56-2.73-2.14-2.73A2.37,2.37,0,0,0,214,66.57a2.28,2.28,0,0,0-.12.78V72.9H212.2Z" fill="#fff"/><path d="M230.75,63.66c0,.67-.07,1.42-.07,2.54v5.37c0,2.12-.42,3.41-1.32,4.22a4.89,4.89,0,0,1-3.36,1.1,5.9,5.9,0,0,1-3.07-.76l.42-1.28a5.21,5.21,0,0,0,2.71.73c1.72,0,3-.9,3-3.23v-1h0a3.3,3.3,0,0,1-2.94,1.54c-2.29,0-3.93-1.94-3.93-4.5,0-3.13,2-4.91,4.16-4.91a3.06,3.06,0,0,1,2.88,1.61h0l.07-1.4ZM229,67.31a2.26,2.26,0,0,0-.1-.76,2.41,2.41,0,0,0-2.35-1.78c-1.6,0-2.75,1.36-2.75,3.49,0,1.82.92,3.33,2.73,3.33a2.45,2.45,0,0,0,2.33-1.72A2.82,2.82,0,0,0,229,69Z" fill="#fff"/><path d="M245.87,68.21a4.52,4.52,0,0,1-4.6,4.9,4.39,4.39,0,0,1-4.43-4.75c0-3.09,2-4.91,4.58-4.91S245.87,65.38,245.87,68.21Zm-7.33.09c0,2,1.16,3.55,2.8,3.55s2.81-1.5,2.81-3.59c0-1.56-.78-3.55-2.77-3.55S238.54,66.55,238.54,68.3Z" fill="#fff"/><path d="M248.16,72.9v-8h-1.3V63.66h1.3v-.43A4.33,4.33,0,0,1,249.23,60a3.22,3.22,0,0,1,2.25-.86,3.74,3.74,0,0,1,1.43.27l-.23,1.3a2.43,2.43,0,0,0-1.07-.21c-1.43,0-1.79,1.26-1.79,2.67v.49h2.23v1.28h-2.23v8Z" fill="#fff"/><path d="M258.21,63.66l2,5.46c.21.61.44,1.34.59,1.89h0c.17-.55.36-1.26.59-1.92l1.83-5.43h1.78l-2.52,6.59c-1.21,3.17-2,4.79-3.17,5.78a4.44,4.44,0,0,1-2.06,1.09l-.42-1.41a4.41,4.41,0,0,0,1.47-.82A5,5,0,0,0,259.78,73a1.12,1.12,0,0,0,.13-.4,1.3,1.3,0,0,0-.11-.44l-3.42-8.52Z" fill="#fff"/><path d="M267.34,68.59a3,3,0,0,0,3.17,3.21,6,6,0,0,0,2.55-.48l.29,1.2a7.42,7.42,0,0,1-3.07.57,4.29,4.29,0,0,1-4.55-4.65c0-2.79,1.65-5,4.34-5,3,0,3.81,2.66,3.81,4.36a6.44,6.44,0,0,1-.05.78Zm4.92-1.2c0-1.07-.44-2.73-2.33-2.73a2.77,2.77,0,0,0-2.57,2.73Z" fill="#fff"/><path d="M281.08,72.9,281,71.74h-.06a3.47,3.47,0,0,1-2.83,1.37,2.62,2.62,0,0,1-2.82-2.65c0-2.23,2-3.46,5.55-3.44v-.19a1.9,1.9,0,0,0-2.1-2.13,4.58,4.58,0,0,0-2.4.68l-.38-1.1a5.69,5.69,0,0,1,3-.83c2.83,0,3.51,1.93,3.51,3.78v3.46a12.39,12.39,0,0,0,.16,2.21Zm-.25-4.71c-1.83,0-3.91.28-3.91,2.08a1.48,1.48,0,0,0,1.58,1.6,2.31,2.31,0,0,0,2.24-1.54,2.1,2.1,0,0,0,.09-.54Z" fill="#fff"/><path d="M285.16,66.55c0-1.09,0-2-.07-2.89h1.46l.06,1.82h.08a2.78,2.78,0,0,1,2.56-2,1.68,1.68,0,0,1,.47.06V65.1a2.3,2.3,0,0,0-2.82,2.1,4.36,4.36,0,0,0-.08.78V72.9h-1.66Z" fill="#fff"/><path d="M117.37,91.51h-2.78v2.58h3.1v.77h-4V87.72h3.86v.78h-2.94v2.25h2.78Z"/><path d="M118.85,91.12c0-.53,0-1,0-1.38h.81l0,.82h0a1.75,1.75,0,0,1,1.61-.94,1.51,1.51,0,0,1,1.45,1h0a2.12,2.12,0,0,1,.57-.67,1.78,1.78,0,0,1,1.13-.36c.68,0,1.69.44,1.69,2.22v3h-.91V92c0-1-.36-1.58-1.11-1.58a1.21,1.21,0,0,0-1.11.85,1.64,1.64,0,0,0-.07.46v3.17h-.91V91.79c0-.82-.36-1.41-1.07-1.41a1.27,1.27,0,0,0-1.15.93,1.17,1.17,0,0,0-.08.46v3.09h-.91Z"/><path d="M127.68,91.41c0-.66,0-1.19,0-1.67h.84l0,.87h0a2,2,0,0,1,1.82-1,2.32,2.32,0,0,1,2.17,2.6c0,1.85-1.12,2.76-2.33,2.76a1.78,1.78,0,0,1-1.57-.81h0V97h-.92Zm.92,1.37a2.32,2.32,0,0,0,.05.38A1.44,1.44,0,0,0,130,94.25c1,0,1.56-.81,1.56-2s-.54-1.91-1.52-1.91a1.49,1.49,0,0,0-1.41,1.15,1.68,1.68,0,0,0-.07.39Z"/><path d="M133.71,87.34h.93v7.52h-.93Z"/><path d="M140.85,92.26A2.51,2.51,0,0,1,138.29,95a2.44,2.44,0,0,1-2.45-2.64,2.5,2.5,0,0,1,2.54-2.72A2.43,2.43,0,0,1,140.85,92.26Zm-4.07,0c0,1.12.65,2,1.56,2s1.55-.84,1.55-2c0-.87-.43-2-1.53-2S136.78,91.33,136.78,92.31Z"/><path d="M142.29,89.74l1.12,3c.12.34.24.75.33,1h0c.09-.3.2-.7.33-1.07l1-3h1l-1.4,3.65a7.77,7.77,0,0,1-1.76,3.21,2.49,2.49,0,0,1-1.14.6l-.23-.78a2.43,2.43,0,0,0,.81-.46,2.83,2.83,0,0,0,.79-1,.61.61,0,0,0,.07-.22.81.81,0,0,0-.06-.24l-1.9-4.72Z"/><path d="M147.35,92.47a1.64,1.64,0,0,0,1.76,1.78,3.36,3.36,0,0,0,1.42-.27l.15.67A4,4,0,0,1,149,95a2.38,2.38,0,0,1-2.52-2.59,2.49,2.49,0,0,1,2.4-2.76A2.17,2.17,0,0,1,151,92a3.94,3.94,0,0,1,0,.44Zm2.73-.67a1.32,1.32,0,0,0-1.29-1.51,1.54,1.54,0,0,0-1.43,1.51Z"/><path d="M152.65,92.47a1.65,1.65,0,0,0,1.76,1.78,3.33,3.33,0,0,0,1.42-.27l.16.67a4.11,4.11,0,0,1-1.7.32,2.39,2.39,0,0,1-2.53-2.59,2.49,2.49,0,0,1,2.41-2.76A2.17,2.17,0,0,1,156.29,92a3.94,3.94,0,0,1,0,.44Zm2.74-.67a1.33,1.33,0,0,0-1.3-1.51,1.53,1.53,0,0,0-1.42,1.51Z"/><path d="M157.31,93.91a2.48,2.48,0,0,0,1.23.37c.68,0,1-.34,1-.76s-.27-.69-1-1c-.92-.32-1.35-.83-1.35-1.45a1.58,1.58,0,0,1,1.77-1.5,2.56,2.56,0,0,1,1.26.32l-.23.67a2.13,2.13,0,0,0-1.05-.29c-.55,0-.86.32-.86.7s.31.61,1,.87c.89.33,1.35.78,1.35,1.54s-.7,1.54-1.92,1.54a3,3,0,0,1-1.44-.35Z"/><path d="M162.32,87.61l-.18,2.54h-.57l-.17-2.54Z"/><path d="M166.24,89.74l.68,2.6c.15.57.29,1.1.38,1.63h0c.12-.52.29-1.07.46-1.62l.83-2.61h.79l.79,2.56c.19.61.34,1.15.46,1.67h0a14,14,0,0,1,.39-1.66l.73-2.57h.92l-1.65,5.12h-.85l-.78-2.45c-.18-.57-.33-1.08-.46-1.68h0a14.06,14.06,0,0,1-.46,1.7l-.83,2.43h-.85l-1.54-5.12Z"/><path d="M178.2,92.26A2.51,2.51,0,0,1,175.65,95a2.44,2.44,0,0,1-2.46-2.64,2.5,2.5,0,0,1,2.54-2.72A2.43,2.43,0,0,1,178.2,92.26Zm-4.07,0c0,1.12.65,2,1.56,2s1.55-.84,1.55-2c0-.87-.43-2-1.53-2S174.13,91.33,174.13,92.31Z"/><path d="M179.37,91.33c0-.6,0-1.12,0-1.59h.82l0,1h0a1.53,1.53,0,0,1,1.42-1.12,1,1,0,0,1,.26,0v.88a1.42,1.42,0,0,0-.31,0,1.3,1.3,0,0,0-1.25,1.19,2.81,2.81,0,0,0-.05.44v2.73h-.92Z"/><path d="M183.8,92.09h0c.13-.18.31-.41.46-.59l1.5-1.76h1.12l-2,2.1,2.26,3h-1.13l-1.77-2.46-.48.53v1.93h-.92V87.34h.92Z"/><path d="M194.73,92.26A2.5,2.5,0,0,1,192.18,95a2.44,2.44,0,0,1-2.46-2.64,2.5,2.5,0,0,1,2.54-2.72A2.43,2.43,0,0,1,194.73,92.26Zm-4.07,0c0,1.12.65,2,1.56,2s1.56-.84,1.56-2c0-.87-.44-2-1.54-2S190.66,91.33,190.66,92.31Z"/><path d="M195.86,94.86c0-.35,0-.87,0-1.32v-6.2h.93v3.22h0a1.91,1.91,0,0,1,1.74-.94,2.29,2.29,0,0,1,2.16,2.61c0,1.84-1.15,2.75-2.29,2.75a1.83,1.83,0,0,1-1.72-1h0l0,.85Zm1-2a2,2,0,0,0,0,.34,1.44,1.44,0,0,0,1.4,1.09c1,0,1.55-.8,1.55-2s-.53-1.91-1.52-1.91a1.48,1.48,0,0,0-1.42,1.14,2.06,2.06,0,0,0,0,.39Z"/><path d="M200.68,96.34a1.48,1.48,0,0,0,1-.39c.25-.29.35-.7.35-1.93V89.74H203v4.64a2.78,2.78,0,0,1-.62,2.11,2.32,2.32,0,0,1-1.58.58Zm2.4-8a.54.54,0,0,1-.58.57.56.56,0,0,1-.57-.57.57.57,0,0,1,.59-.59A.55.55,0,0,1,203.08,88.3Z"/><path d="M205,92.47a1.64,1.64,0,0,0,1.76,1.78A3.33,3.33,0,0,0,208.2,94l.16.67a4.13,4.13,0,0,1-1.71.32,2.39,2.39,0,0,1-2.52-2.59,2.49,2.49,0,0,1,2.41-2.76A2.17,2.17,0,0,1,208.66,92a3.52,3.52,0,0,1,0,.44Zm2.73-.67a1.32,1.32,0,0,0-1.29-1.51A1.54,1.54,0,0,0,205,91.8Z"/><path d="M213.46,94.67A3.35,3.35,0,0,1,212,95a2.43,2.43,0,0,1-2.55-2.62,2.6,2.6,0,0,1,2.75-2.72,3.22,3.22,0,0,1,1.29.26l-.21.72a2.23,2.23,0,0,0-1.08-.24,1.94,1.94,0,0,0,0,3.86A2.55,2.55,0,0,0,213.3,94Z"/><path d="M215.81,88.26v1.48h1.34v.71h-1.34v2.76c0,.63.18,1,.7,1a2.11,2.11,0,0,0,.54-.06l0,.7a2.28,2.28,0,0,1-.82.13,1.3,1.3,0,0,1-1-.4,1.91,1.91,0,0,1-.36-1.33V90.45h-.79v-.71h.79V88.51Z"/><path d="M219.23,88.3a.55.55,0,0,1-.59.57.56.56,0,0,1-.56-.57.57.57,0,0,1,.58-.59A.56.56,0,0,1,219.23,88.3Zm-1,6.56V89.74h.93v5.12Z"/><path d="M221,89.74l1,2.88a11.45,11.45,0,0,1,.41,1.31h0c.11-.42.26-.85.43-1.31l1-2.88h1l-2,5.12H222l-2-5.12Z"/><path d="M226.18,92.47a1.64,1.64,0,0,0,1.76,1.78,3.33,3.33,0,0,0,1.42-.27l.16.67a4.13,4.13,0,0,1-1.71.32,2.38,2.38,0,0,1-2.52-2.59,2.49,2.49,0,0,1,2.41-2.76A2.16,2.16,0,0,1,229.81,92a3.94,3.94,0,0,1,0,.44Zm2.73-.67a1.32,1.32,0,0,0-1.29-1.51,1.54,1.54,0,0,0-1.43,1.51Z"/><path d="M230.84,93.91a2.45,2.45,0,0,0,1.23.37c.68,0,1-.34,1-.76s-.27-.69-1-1c-.92-.32-1.35-.83-1.35-1.45a1.57,1.57,0,0,1,1.76-1.5,2.6,2.6,0,0,1,1.27.32l-.24.67a2.06,2.06,0,0,0-1.05-.29c-.55,0-.85.32-.85.7s.3.61,1,.87c.89.33,1.35.78,1.35,1.54s-.7,1.54-1.92,1.54a3,3,0,0,1-1.44-.35Z"/><path d="M240.25,94.86l-.08-.64h0a1.93,1.93,0,0,1-1.57.76A1.45,1.45,0,0,1,237,93.51c0-1.24,1.1-1.92,3.08-1.91v-.11a1.06,1.06,0,0,0-1.17-1.18,2.56,2.56,0,0,0-1.33.38l-.21-.62a3.19,3.19,0,0,1,1.68-.45c1.57,0,1.95,1.07,1.95,2.1v1.91a7.62,7.62,0,0,0,.08,1.23Zm-.14-2.61c-1,0-2.17.15-2.17,1.15a.83.83,0,0,0,.88.89,1.26,1.26,0,0,0,1.23-.86.75.75,0,0,0,.06-.29Z"/><path d="M242.51,91.12c0-.53,0-1,0-1.38h.83l0,.84h0a1.89,1.89,0,0,1,1.69-1c.71,0,1.81.42,1.81,2.18v3.06h-.93v-3c0-.83-.3-1.52-1.18-1.52a1.32,1.32,0,0,0-1.25,1,1.11,1.11,0,0,0-.07.43v3.08h-.93Z"/><path d="M252.82,87.34v6.2c0,.45,0,1,0,1.32H252l0-.89h0a1.91,1.91,0,0,1-1.75,1A2.34,2.34,0,0,1,248,92.37a2.45,2.45,0,0,1,2.3-2.75,1.71,1.71,0,0,1,1.54.78h0V87.34Zm-.94,4.48a1.78,1.78,0,0,0,0-.39,1.37,1.37,0,0,0-1.34-1.08c-1,0-1.54.85-1.54,2s.51,1.9,1.52,1.9a1.41,1.41,0,0,0,1.36-1.12,1.64,1.64,0,0,0,0-.4Z"/><path d="M256.61,87.34h.93v7.52h-.93Z"/><path d="M259.63,92.47a1.64,1.64,0,0,0,1.75,1.78A3.33,3.33,0,0,0,262.8,94l.16.67a4.11,4.11,0,0,1-1.7.32,2.38,2.38,0,0,1-2.52-2.59,2.49,2.49,0,0,1,2.4-2.76A2.17,2.17,0,0,1,263.26,92a3.94,3.94,0,0,1,0,.44Zm2.73-.67a1.33,1.33,0,0,0-1.29-1.51,1.53,1.53,0,0,0-1.43,1.51Z"/><path d="M267.25,94.86l-.07-.64h0a1.89,1.89,0,0,1-1.56.76A1.46,1.46,0,0,1,264,93.51c0-1.24,1.1-1.92,3.08-1.91v-.11a1.05,1.05,0,0,0-1.16-1.18,2.59,2.59,0,0,0-1.34.38l-.21-.62a3.22,3.22,0,0,1,1.68-.45c1.57,0,1.95,1.07,1.95,2.1v1.91a6.57,6.57,0,0,0,.09,1.23Zm-.14-2.61c-1,0-2.17.15-2.17,1.15a.83.83,0,0,0,.88.89,1.27,1.27,0,0,0,1.24-.86,1,1,0,0,0,.05-.29Z"/><path d="M269.52,91.33c0-.6,0-1.12,0-1.59h.82l0,1h0a1.55,1.55,0,0,1,1.42-1.12,1.12,1.12,0,0,1,.27,0v.88a1.51,1.51,0,0,0-.32,0,1.31,1.31,0,0,0-1.25,1.19,2.87,2.87,0,0,0,0,.44v2.73h-.92Z"/><path d="M273,91.12c0-.53,0-1,0-1.38h.83l.05.84h0a1.89,1.89,0,0,1,1.69-1c.71,0,1.81.42,1.81,2.18v3.06h-.93v-3c0-.83-.3-1.52-1.18-1.52a1.32,1.32,0,0,0-1.25,1,1.11,1.11,0,0,0-.07.43v3.08H273Z"/><path d="M279.94,88.3a.58.58,0,0,1-1.16,0,.58.58,0,0,1,.58-.59A.56.56,0,0,1,279.94,88.3Zm-1,6.56V89.74h.93v5.12Z"/><path d="M281.38,91.12c0-.53,0-1,0-1.38h.82l0,.84h0a1.88,1.88,0,0,1,1.69-1c.71,0,1.81.42,1.81,2.18v3.06h-.93v-3c0-.83-.31-1.52-1.19-1.52a1.33,1.33,0,0,0-1.25,1,1.35,1.35,0,0,0-.06.43v3.08h-.93Z"/><path d="M291.67,89.74c0,.37,0,.78,0,1.4v3a2.93,2.93,0,0,1-.73,2.34,2.71,2.71,0,0,1-1.87.61,3.25,3.25,0,0,1-1.7-.42l.23-.71a2.92,2.92,0,0,0,1.51.4c.95,0,1.65-.49,1.65-1.79V94h0a1.83,1.83,0,0,1-1.63.86,2.29,2.29,0,0,1-2.19-2.5,2.46,2.46,0,0,1,2.31-2.72,1.71,1.71,0,0,1,1.6.89h0l0-.77Zm-1,2a1.18,1.18,0,0,0-.06-.43,1.33,1.33,0,0,0-1.3-1c-.89,0-1.52.75-1.52,1.94,0,1,.51,1.84,1.51,1.84a1.36,1.36,0,0,0,1.29-.95,1.45,1.45,0,0,0,.08-.5Z"/><path d="M116.48,107.57l-.08-.65h0a1.88,1.88,0,0,1-1.57.77,1.46,1.46,0,0,1-1.56-1.48c0-1.23,1.1-1.91,3.08-1.9v-.11a1.06,1.06,0,0,0-1.17-1.18,2.49,2.49,0,0,0-1.33.38l-.21-.62a3.22,3.22,0,0,1,1.68-.45c1.57,0,1.95,1.07,1.95,2.09v1.92a7.62,7.62,0,0,0,.08,1.23Zm-.14-2.62c-1,0-2.17.16-2.17,1.16a.83.83,0,0,0,.88.89,1.28,1.28,0,0,0,1.24-.86,1,1,0,0,0,0-.3Z"/><path d="M118.74,103.83c0-.53,0-1,0-1.39h.83l0,.85h0a1.89,1.89,0,0,1,1.7-1c.71,0,1.81.42,1.81,2.18v3.06h-.93v-3c0-.82-.31-1.51-1.19-1.51a1.33,1.33,0,0,0-1.25,1,1.46,1.46,0,0,0-.06.44v3.08h-.94Z"/><path d="M129.05,100.05v6.2c0,.45,0,1,0,1.32h-.84l0-.89h0a1.91,1.91,0,0,1-1.75,1,2.34,2.34,0,0,1-2.19-2.61,2.45,2.45,0,0,1,2.3-2.75,1.74,1.74,0,0,1,1.55.78h0v-3.06Zm-.93,4.48a1.31,1.31,0,0,0-.05-.39,1.36,1.36,0,0,0-1.34-1.08c-1,0-1.54.85-1.54,2s.51,1.89,1.52,1.89a1.4,1.4,0,0,0,1.36-1.11,1.25,1.25,0,0,0,.05-.4Z"/><path d="M137.27,100.05v6.2c0,.45,0,1,0,1.32h-.84l0-.89h0a1.91,1.91,0,0,1-1.75,1,2.34,2.34,0,0,1-2.19-2.61,2.45,2.45,0,0,1,2.3-2.75,1.71,1.71,0,0,1,1.54.78h0v-3.06Zm-.94,4.48a1.72,1.72,0,0,0,0-.39,1.37,1.37,0,0,0-1.34-1.08c-1,0-1.54.85-1.54,2s.51,1.89,1.52,1.89a1.4,1.4,0,0,0,1.36-1.11,1.64,1.64,0,0,0,0-.4Z"/><path d="M139.33,105.18a1.64,1.64,0,0,0,1.76,1.78,3.33,3.33,0,0,0,1.42-.27l.16.67a4.13,4.13,0,0,1-1.71.32,2.38,2.38,0,0,1-2.52-2.59,2.49,2.49,0,0,1,2.41-2.76,2.16,2.16,0,0,1,2.11,2.41,3.94,3.94,0,0,1,0,.44Zm2.73-.67a1.33,1.33,0,0,0-1.29-1.52,1.55,1.55,0,0,0-1.43,1.52Z"/><path d="M144.48,102.44l1,2.88c.16.47.3.89.41,1.32h0c.12-.43.26-.85.43-1.32l1-2.88h1l-2,5.13h-.89l-2-5.13Z"/><path d="M149.63,105.18a1.64,1.64,0,0,0,1.75,1.78,3.33,3.33,0,0,0,1.42-.27l.16.67a4.11,4.11,0,0,1-1.7.32,2.38,2.38,0,0,1-2.52-2.59,2.49,2.49,0,0,1,2.4-2.76,2.17,2.17,0,0,1,2.12,2.41,3.94,3.94,0,0,1,0,.44Zm2.73-.67a1.34,1.34,0,0,0-1.29-1.52,1.54,1.54,0,0,0-1.43,1.52Z"/><path d="M154.41,100.05h.93v7.52h-.93Z"/><path d="M161.55,105a2.51,2.51,0,0,1-2.55,2.73,2.44,2.44,0,0,1-2.46-2.64,2.5,2.5,0,0,1,2.54-2.72A2.43,2.43,0,0,1,161.55,105Zm-4.07.06c0,1.12.65,2,1.56,2s1.56-.84,1.56-2c0-.87-.44-2-1.54-2S157.48,104,157.48,105Z"/><path d="M162.73,104.12c0-.66,0-1.19,0-1.68h.84l0,.88h0a2,2,0,0,1,1.82-1,2.33,2.33,0,0,1,2.18,2.6c0,1.85-1.13,2.76-2.33,2.76a1.79,1.79,0,0,1-1.58-.81h0v2.79h-.92Zm.92,1.36a2.11,2.11,0,0,0,0,.38,1.44,1.44,0,0,0,1.4,1.1c1,0,1.55-.81,1.55-2s-.54-1.91-1.52-1.91a1.48,1.48,0,0,0-1.41,1.15,1.67,1.67,0,0,0-.06.38Z"/><path d="M168.75,103.83c0-.53,0-1,0-1.39h.81l0,.83h0a1.75,1.75,0,0,1,1.61-.94,1.51,1.51,0,0,1,1.45,1h0a2.2,2.2,0,0,1,.57-.66,1.72,1.72,0,0,1,1.13-.36c.68,0,1.69.44,1.69,2.22v3h-.91v-2.9c0-1-.36-1.58-1.11-1.58a1.21,1.21,0,0,0-1.11.85,1.53,1.53,0,0,0-.07.46v3.17H172V104.5c0-.82-.36-1.41-1.07-1.41a1.27,1.27,0,0,0-1.15.93,1.17,1.17,0,0,0-.08.46v3.09h-.91Z"/><path d="M178.1,105.18a1.64,1.64,0,0,0,1.76,1.78,3.33,3.33,0,0,0,1.42-.27l.16.67a4.13,4.13,0,0,1-1.71.32,2.39,2.39,0,0,1-2.52-2.59,2.49,2.49,0,0,1,2.41-2.76,2.17,2.17,0,0,1,2.12,2.41,3.52,3.52,0,0,1,0,.44Zm2.73-.67a1.32,1.32,0,0,0-1.29-1.52,1.55,1.55,0,0,0-1.43,1.52Z"/><path d="M182.89,103.83c0-.53,0-1,0-1.39h.82l.06.85h0a1.86,1.86,0,0,1,1.69-1c.71,0,1.81.42,1.81,2.18v3.06h-.93v-3c0-.82-.31-1.51-1.19-1.51a1.33,1.33,0,0,0-1.25,1,1.46,1.46,0,0,0-.06.44v3.08h-.93Z"/><path d="M189.85,101v1.47h1.33v.71h-1.33v2.77c0,.63.18,1,.7,1a2.23,2.23,0,0,0,.54-.06l0,.7a2.39,2.39,0,0,1-.83.13,1.27,1.27,0,0,1-1-.4,1.86,1.86,0,0,1-.36-1.33v-2.8h-.8v-.71h.8v-1.22Z"/><path d="M194.48,104.12c0-.66,0-1.19,0-1.68h.84l0,.88h0a2,2,0,0,1,1.82-1,2.33,2.33,0,0,1,2.18,2.6c0,1.85-1.13,2.76-2.33,2.76a1.79,1.79,0,0,1-1.58-.81h0v2.79h-.92Zm.92,1.36a2.11,2.11,0,0,0,0,.38,1.44,1.44,0,0,0,1.4,1.1c1,0,1.55-.81,1.55-2s-.54-1.91-1.52-1.91a1.48,1.48,0,0,0-1.41,1.15,1.67,1.67,0,0,0-.06.38Z"/><path d="M200.5,100.05h.93v7.52h-.93Z"/><path d="M205.84,107.57l-.08-.65h0a1.87,1.87,0,0,1-1.56.77,1.46,1.46,0,0,1-1.57-1.48c0-1.23,1.1-1.91,3.08-1.9v-.11a1.06,1.06,0,0,0-1.17-1.18,2.49,2.49,0,0,0-1.33.38l-.21-.62a3.22,3.22,0,0,1,1.68-.45c1.57,0,1.95,1.07,1.95,2.09v1.92a6.57,6.57,0,0,0,.09,1.23ZM205.7,105c-1,0-2.17.16-2.17,1.16a.83.83,0,0,0,.88.89,1.28,1.28,0,0,0,1.24-.86,1,1,0,0,0,0-.3Z"/><path d="M208.1,103.83c0-.53,0-1,0-1.39h.83l.05.85h0a1.89,1.89,0,0,1,1.7-1c.71,0,1.81.42,1.81,2.18v3.06h-.93v-3c0-.82-.31-1.51-1.19-1.51a1.33,1.33,0,0,0-1.25,1,1.46,1.46,0,0,0-.06.44v3.08h-.94Z"/><path d="M219.07,107.57l-.08-.65h0a1.91,1.91,0,0,1-1.57.77,1.45,1.45,0,0,1-1.56-1.48c0-1.23,1.1-1.91,3.08-1.9v-.11a1.06,1.06,0,0,0-1.17-1.18,2.47,2.47,0,0,0-1.33.38l-.21-.62a3.19,3.19,0,0,1,1.68-.45c1.57,0,2,1.07,2,2.09v1.92a7.62,7.62,0,0,0,.08,1.23Zm-.14-2.62c-1,0-2.17.16-2.17,1.16a.83.83,0,0,0,.88.89,1.27,1.27,0,0,0,1.23-.86.77.77,0,0,0,.06-.3Z"/><path d="M221.33,104c0-.6,0-1.12,0-1.6h.81l0,1h0a1.53,1.53,0,0,1,1.42-1.12,1,1,0,0,1,.26,0v.88a1.42,1.42,0,0,0-.31,0,1.29,1.29,0,0,0-1.25,1.19,2,2,0,0,0-.05.44v2.73h-.92Z"/><path d="M225.21,105.18A1.64,1.64,0,0,0,227,107a3.31,3.31,0,0,0,1.41-.27l.16.67a4.08,4.08,0,0,1-1.7.32,2.38,2.38,0,0,1-2.52-2.59,2.49,2.49,0,0,1,2.4-2.76,2.17,2.17,0,0,1,2.12,2.41,3.94,3.94,0,0,1,0,.44Zm2.73-.67a1.33,1.33,0,0,0-1.29-1.52,1.55,1.55,0,0,0-1.43,1.52Z"/><path d="M232.11,106.62a2.45,2.45,0,0,0,1.23.37c.68,0,1-.34,1-.77s-.27-.68-1-.94c-.92-.33-1.35-.83-1.35-1.45a1.58,1.58,0,0,1,1.77-1.5,2.56,2.56,0,0,1,1.26.32l-.24.67a2.06,2.06,0,0,0-1-.29c-.55,0-.85.31-.85.7s.3.61,1,.86c.89.34,1.35.79,1.35,1.55s-.7,1.54-1.92,1.54a3,3,0,0,1-1.44-.35Z"/><path d="M237,105.18a1.64,1.64,0,0,0,1.76,1.78,3.33,3.33,0,0,0,1.42-.27l.16.67a4.13,4.13,0,0,1-1.71.32,2.39,2.39,0,0,1-2.52-2.59,2.49,2.49,0,0,1,2.41-2.76,2.17,2.17,0,0,1,2.12,2.41,3.52,3.52,0,0,1,0,.44Zm2.73-.67a1.33,1.33,0,0,0-1.29-1.52,1.55,1.55,0,0,0-1.43,1.52Z"/><path d="M242.86,101v1.47h1.34v.71h-1.34v2.77c0,.63.18,1,.7,1a2.23,2.23,0,0,0,.54-.06l0,.7a2.33,2.33,0,0,1-.82.13,1.27,1.27,0,0,1-1-.4A1.91,1.91,0,0,1,242,106v-2.8h-.79v-.71H242v-1.22Z"/><path d="M252.13,105a2.51,2.51,0,0,1-2.55,2.73,2.44,2.44,0,0,1-2.46-2.64,2.5,2.5,0,0,1,2.54-2.72A2.43,2.43,0,0,1,252.13,105Zm-4.07.06c0,1.12.65,2,1.56,2s1.56-.84,1.56-2c0-.87-.44-2-1.54-2S248.06,104,248.06,105Z"/><path d="M253.3,104c0-.6,0-1.12,0-1.6h.82l0,1h0a1.53,1.53,0,0,1,1.42-1.12,1,1,0,0,1,.26,0v.88a1.42,1.42,0,0,0-.31,0,1.29,1.29,0,0,0-1.25,1.19,2.81,2.81,0,0,0-.05.44v2.73h-.92Z"/><path d="M263.3,106.17c0,.53,0,1,0,1.4h-.82l-.06-.84h0a1.91,1.91,0,0,1-1.69,1c-.81,0-1.77-.45-1.77-2.25v-3h.93v2.84c0,1,.3,1.63,1.15,1.63a1.34,1.34,0,0,0,1.22-.84,1.24,1.24,0,0,0,.09-.48v-3.15h.93Z"/><path d="M264.85,104.12c0-.66,0-1.19-.05-1.68h.84l0,.88h0a2,2,0,0,1,1.83-1,2.33,2.33,0,0,1,2.17,2.6c0,1.85-1.13,2.76-2.33,2.76a1.8,1.8,0,0,1-1.58-.81h0v2.79h-.92Zm.92,1.36a2.11,2.11,0,0,0,0,.38,1.44,1.44,0,0,0,1.4,1.1c1,0,1.55-.81,1.55-2s-.54-1.91-1.52-1.91a1.48,1.48,0,0,0-1.41,1.15,1.67,1.67,0,0,0-.06.38Z"/><path d="M275.3,100.05v6.2c0,.45,0,1,0,1.32h-.83l-.05-.89h0a1.9,1.9,0,0,1-1.75,1,2.34,2.34,0,0,1-2.19-2.61,2.45,2.45,0,0,1,2.3-2.75,1.74,1.74,0,0,1,1.55.78h0v-3.06Zm-.93,4.48a1.72,1.72,0,0,0,0-.39,1.38,1.38,0,0,0-1.35-1.08c-1,0-1.54.85-1.54,2s.51,1.89,1.52,1.89a1.41,1.41,0,0,0,1.37-1.11,1.64,1.64,0,0,0,0-.4Z"/><path d="M279.68,107.57l-.07-.65h0a1.91,1.91,0,0,1-1.57.77,1.46,1.46,0,0,1-1.57-1.48c0-1.23,1.11-1.91,3.08-1.9v-.11a1,1,0,0,0-1.16-1.18,2.47,2.47,0,0,0-1.33.38l-.22-.62a3.26,3.26,0,0,1,1.69-.45c1.57,0,1.95,1.07,1.95,2.09v1.92a7.62,7.62,0,0,0,.08,1.23Zm-.13-2.62c-1,0-2.17.16-2.17,1.16a.83.83,0,0,0,.88.89,1.28,1.28,0,0,0,1.23-.86,1,1,0,0,0,.06-.3Z"/><path d="M283,101v1.47h1.33v.71H283v2.77c0,.63.18,1,.7,1a2.23,2.23,0,0,0,.54-.06l0,.7a2.33,2.33,0,0,1-.82.13,1.27,1.27,0,0,1-1-.4,1.91,1.91,0,0,1-.36-1.33v-2.8h-.79v-.71h.79v-1.22Z"/><path d="M285.87,105.18a1.64,1.64,0,0,0,1.76,1.78,3.36,3.36,0,0,0,1.42-.27l.15.67a4,4,0,0,1-1.7.32,2.38,2.38,0,0,1-2.52-2.59,2.49,2.49,0,0,1,2.4-2.76,2.17,2.17,0,0,1,2.12,2.41,3.94,3.94,0,0,1,0,.44Zm2.73-.67a1.33,1.33,0,0,0-1.29-1.52,1.55,1.55,0,0,0-1.43,1.52Z"/><path d="M295.08,100.05v6.2c0,.45,0,1,0,1.32h-.83l0-.89h0a1.89,1.89,0,0,1-1.74,1,2.34,2.34,0,0,1-2.2-2.61,2.45,2.45,0,0,1,2.3-2.75,1.71,1.71,0,0,1,1.55.78h0v-3.06Zm-.93,4.48a1.72,1.72,0,0,0,0-.39,1.38,1.38,0,0,0-1.35-1.08c-1,0-1.53.85-1.53,2s.51,1.89,1.51,1.89a1.4,1.4,0,0,0,1.37-1.11,1.64,1.64,0,0,0,0-.4Z"/><path d="M113.74,120.28v-4.42H113v-.71h.72v-.24a2.39,2.39,0,0,1,.59-1.79,1.77,1.77,0,0,1,1.25-.48,2.21,2.21,0,0,1,.79.15l-.13.72a1.38,1.38,0,0,0-.59-.12c-.79,0-1,.7-1,1.49v.27h1.24v.71h-1.24v4.42Z"/><path d="M121.23,117.67a2.5,2.5,0,0,1-2.55,2.72,2.43,2.43,0,0,1-2.46-2.63,2.5,2.5,0,0,1,2.55-2.72A2.42,2.42,0,0,1,121.23,117.67Zm-4.06.06c0,1.12.64,2,1.55,2s1.56-.84,1.56-2c0-.86-.43-2-1.54-2S117.17,116.75,117.17,117.73Z"/><path d="M122.41,116.75c0-.6,0-1.12,0-1.6h.81l0,1h.05a1.52,1.52,0,0,1,1.41-1.12,1.12,1.12,0,0,1,.27,0V116a1.47,1.47,0,0,0-.32,0,1.32,1.32,0,0,0-1.25,1.2,2.87,2.87,0,0,0,0,.44v2.73h-.92Z"/><path d="M129.24,113.68v1.47h1.33v.71h-1.33v2.77c0,.63.18,1,.7,1a2.23,2.23,0,0,0,.54-.06l0,.7a2.43,2.43,0,0,1-.83.12,1.26,1.26,0,0,1-1-.39,1.86,1.86,0,0,1-.36-1.33v-2.8h-.8v-.71h.8v-1.23Z"/><path d="M131.62,112.76h.93V116h0a1.77,1.77,0,0,1,.67-.66,1.94,1.94,0,0,1,1-.26c.68,0,1.78.42,1.78,2.19v3h-.93v-3c0-.82-.3-1.52-1.18-1.52a1.33,1.33,0,0,0-1.25.93,1,1,0,0,0-.07.45v3.09h-.93Z"/><path d="M138,117.88a1.64,1.64,0,0,0,1.76,1.78,3.38,3.38,0,0,0,1.42-.26l.15.67a4.28,4.28,0,0,1-1.7.31,2.37,2.37,0,0,1-2.52-2.58,2.48,2.48,0,0,1,2.4-2.76,2.17,2.17,0,0,1,2.12,2.41,3.55,3.55,0,0,1,0,.43Zm2.73-.66a1.33,1.33,0,0,0-1.29-1.52,1.55,1.55,0,0,0-1.43,1.52Z"/><path d="M145.15,120.28v-4.42h-.72v-.71h.72v-.24a2.39,2.39,0,0,1,.59-1.79,1.77,1.77,0,0,1,1.25-.48,2.21,2.21,0,0,1,.79.15l-.12.72a1.47,1.47,0,0,0-.6-.12c-.79,0-1,.7-1,1.49v.27h1.24v.71h-1.24v4.42Z"/><path d="M152.64,117.67a2.5,2.5,0,0,1-2.55,2.72,2.43,2.43,0,0,1-2.46-2.63,2.5,2.5,0,0,1,2.55-2.72A2.42,2.42,0,0,1,152.64,117.67Zm-4.06.06c0,1.12.64,2,1.55,2s1.56-.84,1.56-2c0-.86-.43-2-1.53-2S148.58,116.75,148.58,117.73Z"/><path d="M153.82,116.75c0-.6,0-1.12,0-1.6h.81l0,1h0a1.53,1.53,0,0,1,1.42-1.12,1,1,0,0,1,.26,0V116a1.47,1.47,0,0,0-.32,0,1.32,1.32,0,0,0-1.25,1.2,2.87,2.87,0,0,0,0,.44v2.73h-.92Z"/><path d="M158.66,113.68v1.47H160v.71h-1.33v2.77c0,.63.18,1,.7,1a2.23,2.23,0,0,0,.54-.06l0,.7a2.43,2.43,0,0,1-.83.12,1.26,1.26,0,0,1-1-.39,1.86,1.86,0,0,1-.36-1.33v-2.8H157v-.71h.8v-1.23Z"/><path d="M161,112.76H162V116h0a1.77,1.77,0,0,1,.67-.66,1.93,1.93,0,0,1,1-.26c.69,0,1.79.42,1.79,2.19v3h-.93v-3c0-.82-.3-1.52-1.18-1.52a1.33,1.33,0,0,0-1.25.93,1,1,0,0,0-.07.45v3.09H161Z"/><path d="M170.57,120.09a3.54,3.54,0,0,1-1.47.29,2.43,2.43,0,0,1-2.55-2.61,2.6,2.6,0,0,1,2.75-2.72,3.06,3.06,0,0,1,1.29.26l-.21.72a2.12,2.12,0,0,0-1.08-.24,1.78,1.78,0,0,0-1.81,1.94,1.75,1.75,0,0,0,1.78,1.91,2.71,2.71,0,0,0,1.14-.25Z"/><path d="M176.24,117.67a2.5,2.5,0,0,1-2.55,2.72,2.43,2.43,0,0,1-2.46-2.63,2.5,2.5,0,0,1,2.54-2.72A2.43,2.43,0,0,1,176.24,117.67Zm-4.07.06c0,1.12.65,2,1.56,2s1.55-.84,1.55-2c0-.86-.43-2-1.53-2S172.17,116.75,172.17,117.73Z"/><path d="M177.41,116.54c0-.53,0-1,0-1.39h.82l0,.83h0a1.76,1.76,0,0,1,1.61-.94,1.51,1.51,0,0,1,1.45,1h0a2.08,2.08,0,0,1,.57-.66,1.73,1.73,0,0,1,1.14-.36c.68,0,1.68.44,1.68,2.22v3h-.91v-2.9c0-1-.36-1.58-1.11-1.58a1.2,1.2,0,0,0-1.1.85,1.52,1.52,0,0,0-.08.46v3.17h-.91v-3.07c0-.82-.36-1.41-1.07-1.41a1.27,1.27,0,0,0-1.15.93,1.39,1.39,0,0,0-.08.46v3.09h-.91Z"/><path d="M187.28,113.71a.58.58,0,0,1-1.15,0,.56.56,0,0,1,.58-.58A.55.55,0,0,1,187.28,113.71Zm-1,6.57v-5.13h.93v5.13Z"/><path d="M188.72,116.54c0-.53,0-1,0-1.39h.83l.05.85h0a1.89,1.89,0,0,1,1.7-1c.71,0,1.81.42,1.81,2.18v3.06h-.93v-3c0-.82-.31-1.51-1.19-1.51a1.33,1.33,0,0,0-1.25,1,1.46,1.46,0,0,0-.06.44v3.08h-.94Z"/><path d="M199,115.15c0,.37,0,.79,0,1.41v3a3,3,0,0,1-.74,2.34,2.71,2.71,0,0,1-1.86.61,3.34,3.34,0,0,1-1.7-.42l.23-.71a2.91,2.91,0,0,0,1.5.4c1,0,1.65-.5,1.65-1.79v-.57h0a1.81,1.81,0,0,1-1.63.86,2.29,2.29,0,0,1-2.18-2.5,2.46,2.46,0,0,1,2.31-2.72,1.69,1.69,0,0,1,1.6.89h0l0-.78Zm-1,2a1.45,1.45,0,0,0-.05-.43,1.33,1.33,0,0,0-1.3-1c-.89,0-1.53.75-1.53,1.93,0,1,.51,1.85,1.52,1.85a1.36,1.36,0,0,0,1.29-1,1.66,1.66,0,0,0,.07-.49Z"/><path d="M202.86,120.28v-4.42h-.72v-.71h.72v-.27a2.06,2.06,0,0,1,2.24-2.24,2.6,2.6,0,0,1,1.3.34l-.27.71a1.93,1.93,0,0,0-1.08-.3c-1,0-1.27.69-1.27,1.51v.25h3v5.13h-.92v-4.42h-2.06v4.42Z"/><path d="M208.18,119.32a2.42,2.42,0,0,0,1.23.38c.67,0,1-.34,1-.77s-.26-.69-1-.94c-.92-.33-1.36-.84-1.36-1.45a1.58,1.58,0,0,1,1.77-1.5,2.53,2.53,0,0,1,1.26.31l-.23.68a2,2,0,0,0-1-.3c-.55,0-.86.32-.86.7s.31.62,1,.87c.89.34,1.34.79,1.34,1.55s-.7,1.53-1.91,1.53A2.81,2.81,0,0,1,208,120Z"/><path d="M216.15,120.09a3.54,3.54,0,0,1-1.47.29,2.43,2.43,0,0,1-2.55-2.61,2.6,2.6,0,0,1,2.75-2.72,3.06,3.06,0,0,1,1.29.26L216,116a2.12,2.12,0,0,0-1.08-.24,1.78,1.78,0,0,0-1.81,1.94,1.75,1.75,0,0,0,1.78,1.91,2.71,2.71,0,0,0,1.14-.25Z"/><path d="M220.08,120.28l-.07-.65h0a1.93,1.93,0,0,1-1.57.76,1.46,1.46,0,0,1-1.57-1.47c0-1.24,1.1-1.91,3.08-1.9v-.11a1.06,1.06,0,0,0-1.16-1.19,2.51,2.51,0,0,0-1.34.39l-.21-.62a3.26,3.26,0,0,1,1.69-.45c1.56,0,1.94,1.07,1.94,2.09v1.92a7.63,7.63,0,0,0,.09,1.23Zm-.14-2.62c-1,0-2.17.16-2.17,1.16a.83.83,0,0,0,.88.89,1.28,1.28,0,0,0,1.24-.86,1,1,0,0,0,.05-.3Z"/><path d="M222.35,112.76h.93v7.52h-.93Z"/><path d="M227.43,115.15l1.12,3c.12.34.25.74.33,1h0c.1-.31.2-.7.33-1.07l1-3h1l-1.39,3.66a7.9,7.9,0,0,1-1.76,3.2,2.46,2.46,0,0,1-1.15.61l-.23-.79a2.51,2.51,0,0,0,.82-.45,2.82,2.82,0,0,0,.78-1,.67.67,0,0,0,.07-.22.81.81,0,0,0-.06-.24l-1.89-4.73Z"/><path d="M232.49,117.88a1.64,1.64,0,0,0,1.76,1.78,3.35,3.35,0,0,0,1.42-.26l.16.67a4.34,4.34,0,0,1-1.71.31,2.38,2.38,0,0,1-2.52-2.58A2.48,2.48,0,0,1,234,115a2.17,2.17,0,0,1,2.12,2.41,3.14,3.14,0,0,1,0,.43Zm2.74-.66a1.33,1.33,0,0,0-1.3-1.52,1.55,1.55,0,0,0-1.43,1.52Z"/><path d="M240.12,120.28l-.08-.65h0a1.9,1.9,0,0,1-1.57.76,1.46,1.46,0,0,1-1.56-1.47c0-1.24,1.1-1.91,3.08-1.9v-.11a1.06,1.06,0,0,0-1.17-1.19,2.5,2.5,0,0,0-1.33.39l-.21-.62a3.22,3.22,0,0,1,1.68-.45c1.57,0,1.95,1.07,1.95,2.09v1.92a6.63,6.63,0,0,0,.09,1.23Zm-.14-2.62c-1,0-2.17.16-2.17,1.16a.83.83,0,0,0,.88.89,1.28,1.28,0,0,0,1.24-.86,1,1,0,0,0,0-.3Z"/><path d="M242.38,116.75c0-.6,0-1.12,0-1.6h.82l0,1h0a1.54,1.54,0,0,1,1.42-1.12,1.12,1.12,0,0,1,.27,0V116a1.55,1.55,0,0,0-.32,0,1.31,1.31,0,0,0-1.25,1.2,2.87,2.87,0,0,0,0,.44v2.73h-.93Z"/><path d="M244.68,121.58a14.84,14.84,0,0,0,.64-2.53l1-.11a13.22,13.22,0,0,1-1,2.58Z"/><path d="M252.56,120.28l-.07-.65h0a1.93,1.93,0,0,1-1.57.76,1.46,1.46,0,0,1-1.57-1.47c0-1.24,1.1-1.91,3.08-1.9v-.11a1.06,1.06,0,0,0-1.16-1.19,2.51,2.51,0,0,0-1.34.39l-.21-.62a3.26,3.26,0,0,1,1.69-.45c1.56,0,1.94,1.07,1.94,2.09v1.92a6.63,6.63,0,0,0,.09,1.23Zm-.14-2.62c-1,0-2.17.16-2.17,1.16a.83.83,0,0,0,.88.89,1.28,1.28,0,0,0,1.24-.86,1,1,0,0,0,0-.3Z"/><path d="M254.83,116.54c0-.53,0-1,0-1.39h.82l0,.85h0a1.86,1.86,0,0,1,1.69-1c.71,0,1.81.42,1.81,2.18v3.06h-.93v-3c0-.82-.31-1.51-1.19-1.51a1.33,1.33,0,0,0-1.25,1,1.46,1.46,0,0,0-.06.44v3.08h-.93Z"/><path d="M265.13,112.76V119c0,.46,0,1,0,1.33h-.83l0-.89h0a1.88,1.88,0,0,1-1.74,1,2.33,2.33,0,0,1-2.19-2.6,2.43,2.43,0,0,1,2.29-2.75,1.71,1.71,0,0,1,1.55.78h0v-3.06Zm-.93,4.48a1.67,1.67,0,0,0,0-.39,1.37,1.37,0,0,0-1.35-1.08c-1,0-1.53.84-1.53,2s.51,1.89,1.51,1.89a1.4,1.4,0,0,0,1.37-1.11,1.7,1.7,0,0,0,0-.4Z"/><path d="M113.64,129.53c0-.65,0-1.18,0-1.67h.83l0,.88h0a2,2,0,0,1,1.82-1,2.32,2.32,0,0,1,2.17,2.61c0,1.84-1.12,2.75-2.33,2.75a1.79,1.79,0,0,1-1.58-.8h0v2.78h-.92Zm.92,1.37a2.11,2.11,0,0,0,0,.38,1.43,1.43,0,0,0,1.4,1.09c1,0,1.56-.8,1.56-2,0-1-.54-1.9-1.53-1.9a1.49,1.49,0,0,0-1.41,1.15,1.59,1.59,0,0,0-.06.38Z"/><path d="M120.18,130.59a1.65,1.65,0,0,0,1.76,1.78,3.35,3.35,0,0,0,1.42-.26l.16.66a4.11,4.11,0,0,1-1.7.32,2.38,2.38,0,0,1-2.52-2.58,2.49,2.49,0,0,1,2.4-2.77,2.18,2.18,0,0,1,2.12,2.42,3.55,3.55,0,0,1,0,.43Zm2.74-.66a1.33,1.33,0,0,0-1.3-1.52,1.54,1.54,0,0,0-1.42,1.52Z"/><path d="M125,129.46c0-.6,0-1.12,0-1.6h.81l0,1h0a1.54,1.54,0,0,1,1.42-1.13,1,1,0,0,1,.26,0v.88a1,1,0,0,0-.32,0,1.3,1.3,0,0,0-1.24,1.2,2,2,0,0,0,0,.43V133H125Z"/><path d="M128.85,133v-4.42h-.72v-.71h.72v-.24a2.43,2.43,0,0,1,.59-1.79,1.79,1.79,0,0,1,1.25-.48,2.21,2.21,0,0,1,.79.15l-.12.72a1.47,1.47,0,0,0-.6-.12c-.79,0-1,.7-1,1.49v.27H131v.71h-1.24V133Z"/><path d="M136.34,130.38a2.5,2.5,0,0,1-2.55,2.72,2.43,2.43,0,0,1-2.45-2.63,2.51,2.51,0,0,1,2.54-2.73A2.42,2.42,0,0,1,136.34,130.38Zm-4.06.05c0,1.13.64,2,1.56,2s1.55-.83,1.55-2c0-.86-.43-2-1.53-2S132.28,129.46,132.28,130.43Z"/><path d="M137.52,129.46c0-.6,0-1.12,0-1.6h.81l0,1h0a1.54,1.54,0,0,1,1.42-1.13,1,1,0,0,1,.26,0v.88a1,1,0,0,0-.32,0,1.32,1.32,0,0,0-1.25,1.2,2.86,2.86,0,0,0,0,.43V133h-.92Z"/><path d="M141,129.25c0-.53,0-1-.05-1.39h.82l0,.83h0a1.78,1.78,0,0,1,1.61-1,1.52,1.52,0,0,1,1.45,1h0a2.27,2.27,0,0,1,.58-.67,1.74,1.74,0,0,1,1.13-.36c.68,0,1.68.45,1.68,2.23v3h-.91v-2.9c0-1-.36-1.58-1.11-1.58a1.21,1.21,0,0,0-1.1.84,1.66,1.66,0,0,0-.07.47V133h-.92v-3.07c0-.82-.36-1.41-1.06-1.41a1.27,1.27,0,0,0-1.16.93,1.37,1.37,0,0,0-.07.45V133H141Z"/><path d="M152.7,133l-.08-.65h0a1.93,1.93,0,0,1-1.57.76,1.46,1.46,0,0,1-1.56-1.47c0-1.24,1.1-1.92,3.08-1.91v-.1a1.06,1.06,0,0,0-1.17-1.19,2.58,2.58,0,0,0-1.33.38l-.21-.61a3.2,3.2,0,0,1,1.68-.46c1.57,0,2,1.07,2,2.1v1.92a7.7,7.7,0,0,0,.08,1.23Zm-.14-2.62c-1,0-2.17.16-2.17,1.16a.82.82,0,0,0,.88.88,1.28,1.28,0,0,0,1.24-.85,1,1,0,0,0,.05-.3Z"/><path d="M155,129.25c0-.53,0-1,0-1.39h.83l.05.85h0a1.88,1.88,0,0,1,1.7-1c.7,0,1.81.43,1.81,2.19V133h-.94v-3c0-.82-.3-1.51-1.18-1.51a1.32,1.32,0,0,0-1.25.95,1.44,1.44,0,0,0-.06.43V133H155Z"/><path d="M164.49,132.8a3.54,3.54,0,0,1-1.47.29,2.44,2.44,0,0,1-2.55-2.61,2.6,2.6,0,0,1,2.75-2.72,3.15,3.15,0,0,1,1.3.26l-.22.72a2.12,2.12,0,0,0-1.08-.24,1.93,1.93,0,0,0,0,3.85,2.81,2.81,0,0,0,1.15-.25Z"/><path d="M166,130.59a1.64,1.64,0,0,0,1.76,1.78,3.35,3.35,0,0,0,1.42-.26l.16.66a4.13,4.13,0,0,1-1.71.32,2.38,2.38,0,0,1-2.52-2.58,2.49,2.49,0,0,1,2.4-2.77,2.17,2.17,0,0,1,2.12,2.42,3.55,3.55,0,0,1,0,.43Zm2.73-.66a1.33,1.33,0,0,0-1.29-1.52,1.55,1.55,0,0,0-1.43,1.52Z"/><path d="M175.91,133l-.07-.65h0a1.89,1.89,0,0,1-1.56.76,1.46,1.46,0,0,1-1.57-1.47c0-1.24,1.1-1.92,3.08-1.91v-.1a1.06,1.06,0,0,0-1.16-1.19,2.59,2.59,0,0,0-1.34.38l-.21-.61a3.22,3.22,0,0,1,1.68-.46c1.57,0,1.95,1.07,1.95,2.1v1.92a6.63,6.63,0,0,0,.09,1.23Zm-.14-2.62c-1,0-2.17.16-2.17,1.16a.82.82,0,0,0,.88.88,1.27,1.27,0,0,0,1.24-.85,1,1,0,0,0,.05-.3Z"/><path d="M182.59,127.86c0,.37,0,.78,0,1.41v3a3,3,0,0,1-.73,2.34,2.75,2.75,0,0,1-1.86.61,3.36,3.36,0,0,1-1.71-.42l.23-.71a2.92,2.92,0,0,0,1.51.4c.95,0,1.65-.5,1.65-1.79v-.57h0A1.85,1.85,0,0,1,180,133a2.29,2.29,0,0,1-2.18-2.5,2.46,2.46,0,0,1,2.3-2.73,1.71,1.71,0,0,1,1.6.89h0l0-.77Zm-1,2a1.38,1.38,0,0,0,0-.42,1.35,1.35,0,0,0-1.31-1c-.89,0-1.52.75-1.52,1.93,0,1,.51,1.85,1.51,1.85a1.35,1.35,0,0,0,1.29-1,1.45,1.45,0,0,0,.08-.5Z"/><path d="M184,129.46c0-.6,0-1.12,0-1.6h.82l0,1h0a1.55,1.55,0,0,1,1.42-1.13,1,1,0,0,1,.26,0v.88a1,1,0,0,0-.31,0,1.3,1.3,0,0,0-1.25,1.2,2.82,2.82,0,0,0-.05.43V133H184Z"/><path d="M187.91,130.59a1.64,1.64,0,0,0,1.76,1.78,3.38,3.38,0,0,0,1.42-.26l.15.66a4,4,0,0,1-1.7.32,2.38,2.38,0,0,1-2.52-2.58,2.49,2.49,0,0,1,2.4-2.77,2.17,2.17,0,0,1,2.12,2.42,3.55,3.55,0,0,1,0,.43Zm2.73-.66a1.33,1.33,0,0,0-1.29-1.52,1.55,1.55,0,0,0-1.43,1.52Z"/><path d="M193.22,130.59a1.64,1.64,0,0,0,1.75,1.78,3.35,3.35,0,0,0,1.42-.26l.16.66a4.11,4.11,0,0,1-1.7.32,2.38,2.38,0,0,1-2.52-2.58,2.49,2.49,0,0,1,2.4-2.77,2.18,2.18,0,0,1,2.12,2.42,3.55,3.55,0,0,1,0,.43Zm2.73-.66a1.33,1.33,0,0,0-1.29-1.52,1.54,1.54,0,0,0-1.43,1.52Z"/><path d="M198,129.25c0-.53,0-1,0-1.39h.81l0,.83h0a1.76,1.76,0,0,1,1.61-1,1.52,1.52,0,0,1,1.45,1h0a2.24,2.24,0,0,1,.57-.67,1.79,1.79,0,0,1,1.14-.36c.67,0,1.68.45,1.68,2.23v3h-.91v-2.9c0-1-.36-1.58-1.11-1.58a1.2,1.2,0,0,0-1.1.84,1.36,1.36,0,0,0-.08.47V133h-.91v-3.07c0-.82-.36-1.41-1.07-1.41a1.26,1.26,0,0,0-1.15.93,1.16,1.16,0,0,0-.08.45V133H198Z"/><path d="M207.35,130.59a1.64,1.64,0,0,0,1.76,1.78,3.35,3.35,0,0,0,1.42-.26l.16.66a4.13,4.13,0,0,1-1.71.32,2.38,2.38,0,0,1-2.52-2.58,2.49,2.49,0,0,1,2.41-2.77,2.18,2.18,0,0,1,2.12,2.42,3.14,3.14,0,0,1,0,.43Zm2.74-.66a1.33,1.33,0,0,0-1.3-1.52,1.55,1.55,0,0,0-1.43,1.52Z"/><path d="M212.14,129.25c0-.53,0-1,0-1.39h.82l.06.85h0a1.87,1.87,0,0,1,1.69-1c.71,0,1.81.43,1.81,2.19V133h-.93v-3c0-.82-.31-1.51-1.19-1.51a1.3,1.3,0,0,0-1.24.95,1.18,1.18,0,0,0-.07.43V133h-.93Z"/><path d="M219.1,126.39v1.47h1.33v.71H219.1v2.76c0,.64.18,1,.7,1a2.23,2.23,0,0,0,.54-.06l0,.7a2.43,2.43,0,0,1-.83.12,1.29,1.29,0,0,1-1-.39,1.86,1.86,0,0,1-.36-1.33v-2.8h-.8v-.71h.8v-1.23Z"/><path d="M224.76,126.42a.58.58,0,0,1-1.15,0,.56.56,0,0,1,.58-.58A.55.55,0,0,1,224.76,126.42Zm-1,6.57v-5.13h.93V133Z"/><path d="M226.08,132a2.41,2.41,0,0,0,1.22.37c.68,0,1-.33,1-.76s-.26-.69-1-.94c-.92-.33-1.36-.84-1.36-1.45a1.58,1.58,0,0,1,1.77-1.51,2.56,2.56,0,0,1,1.26.32l-.23.68a2,2,0,0,0-1-.3c-.55,0-.86.32-.86.7s.31.62,1,.87c.9.34,1.35.78,1.35,1.55s-.7,1.53-1.92,1.53a3,3,0,0,1-1.44-.35Z"/><path d="M232.51,132a2.48,2.48,0,0,0,1.23.37c.68,0,1-.33,1-.76s-.27-.69-1-.94c-.93-.33-1.36-.84-1.36-1.45a1.58,1.58,0,0,1,1.77-1.51,2.56,2.56,0,0,1,1.26.32l-.23.68a2,2,0,0,0-1-.3c-.55,0-.86.32-.86.7s.31.62,1,.87c.89.34,1.35.78,1.35,1.55s-.7,1.53-1.92,1.53a3,3,0,0,1-1.44-.35Z"/><path d="M237.87,126.42a.58.58,0,0,1-1.15,0,.56.56,0,0,1,.58-.58A.55.55,0,0,1,237.87,126.42Zm-1,6.57v-5.13h.93V133Z"/><path d="M243.73,127.86c0,.37,0,.78,0,1.41v3a3,3,0,0,1-.73,2.34,2.76,2.76,0,0,1-1.87.61,3.34,3.34,0,0,1-1.7-.42l.23-.71a2.92,2.92,0,0,0,1.51.4c1,0,1.65-.5,1.65-1.79v-.57h0a1.85,1.85,0,0,1-1.63.86,2.29,2.29,0,0,1-2.19-2.5,2.47,2.47,0,0,1,2.31-2.73,1.71,1.71,0,0,1,1.6.89h0l0-.77Zm-1,2a1.12,1.12,0,0,0-.06-.42,1.33,1.33,0,0,0-1.3-1c-.89,0-1.52.75-1.52,1.93,0,1,.5,1.85,1.51,1.85a1.36,1.36,0,0,0,1.29-1,1.45,1.45,0,0,0,.08-.5Z"/><path d="M245.17,129.25c0-.53,0-1,0-1.39H246l.06.85h0a1.88,1.88,0,0,1,1.69-1c.71,0,1.81.43,1.81,2.19V133h-.93v-3c0-.82-.31-1.51-1.18-1.51a1.32,1.32,0,0,0-1.25.95,1.18,1.18,0,0,0-.07.43V133h-.93Z"/><path d="M251.57,130.59a1.64,1.64,0,0,0,1.76,1.78,3.33,3.33,0,0,0,1.41-.26l.16.66a4.11,4.11,0,0,1-1.7.32,2.38,2.38,0,0,1-2.52-2.58,2.49,2.49,0,0,1,2.4-2.77,2.17,2.17,0,0,1,2.12,2.42,3.55,3.55,0,0,1,0,.43Zm2.73-.66a1.33,1.33,0,0,0-1.29-1.52,1.54,1.54,0,0,0-1.43,1.52Z"/><path d="M260.78,125.47v6.19c0,.46,0,1,0,1.33H260l-.05-.89h0a1.88,1.88,0,0,1-1.74,1,2.34,2.34,0,0,1-2.2-2.6,2.46,2.46,0,0,1,2.3-2.76,1.74,1.74,0,0,1,1.55.79h0v-3.06Zm-.93,4.48a1.67,1.67,0,0,0,0-.39,1.37,1.37,0,0,0-1.35-1.08c-1,0-1.53.84-1.53,2s.5,1.89,1.51,1.89a1.41,1.41,0,0,0,1.37-1.11,1.7,1.7,0,0,0,0-.4Z"/><path d="M263,125.73l-.17,2.54h-.58l-.17-2.54Zm1.58,0-.18,2.54h-.56l-.18-2.54Z"/><path d="M265.3,134.29a15.08,15.08,0,0,0,.64-2.53l1-.11a13.83,13.83,0,0,1-1,2.58Zm.46-5.58a.63.63,0,1,1,1.25,0,.63.63,0,1,1-1.25,0Z"/><path d="M273.17,133l-.07-.65h0a1.93,1.93,0,0,1-1.57.76,1.46,1.46,0,0,1-1.57-1.47c0-1.24,1.1-1.92,3.08-1.91v-.1a1.06,1.06,0,0,0-1.16-1.19,2.59,2.59,0,0,0-1.34.38l-.21-.61a3.22,3.22,0,0,1,1.68-.46c1.57,0,1.95,1.07,1.95,2.1v1.92A6.63,6.63,0,0,0,274,133Zm-.14-2.62c-1,0-2.17.16-2.17,1.16a.82.82,0,0,0,.88.88,1.27,1.27,0,0,0,1.24-.85,1,1,0,0,0,0-.3Z"/><path d="M275.44,129.25c0-.53,0-1-.05-1.39h.83l0,.85h0a1.87,1.87,0,0,1,1.69-1c.71,0,1.81.43,1.81,2.19V133h-.93v-3c0-.82-.31-1.51-1.19-1.51a1.33,1.33,0,0,0-1.25.95,1.44,1.44,0,0,0-.06.43V133h-.93Z"/><path d="M285.74,125.47v6.19c0,.46,0,1,0,1.33H285l-.05-.89h0a1.88,1.88,0,0,1-1.74,1,2.34,2.34,0,0,1-2.2-2.6,2.46,2.46,0,0,1,2.3-2.76,1.72,1.72,0,0,1,1.55.79h0v-3.06Zm-.93,4.48a1.67,1.67,0,0,0,0-.39,1.37,1.37,0,0,0-1.35-1.08c-1,0-1.53.84-1.53,2s.5,1.89,1.51,1.89a1.4,1.4,0,0,0,1.37-1.11,1.7,1.7,0,0,0,0-.4Z"/><path d="M119.69,155.27c-.06-1-.12-2.19-.11-3.08h0c-.24.83-.54,1.72-.9,2.71l-1.26,3.46h-.7l-1.15-3.4c-.34-1-.63-1.93-.83-2.77h0c0,.89-.08,2.08-.14,3.15l-.19,3.06h-.88l.5-7.13h1.17l1.22,3.45c.3.88.54,1.66.72,2.4h0c.18-.72.44-1.5.76-2.4l1.27-3.45h1.17l.45,7.13h-.9Z"/><path d="M125.06,158.4l-.08-.64h0a1.93,1.93,0,0,1-1.57.76,1.45,1.45,0,0,1-1.56-1.47c0-1.24,1.1-1.92,3.08-1.91V155a1.06,1.06,0,0,0-1.17-1.19,2.58,2.58,0,0,0-1.33.38l-.21-.61a3.11,3.11,0,0,1,1.68-.46c1.57,0,1.95,1.07,1.95,2.1v1.92a7.57,7.57,0,0,0,.08,1.22Zm-.14-2.61c-1,0-2.17.16-2.17,1.15a.82.82,0,0,0,.88.89,1.28,1.28,0,0,0,1.24-.86,1,1,0,0,0,0-.29Z"/><path d="M127.32,154.67c0-.53,0-1,0-1.39h.83l0,.85h0a1.88,1.88,0,0,1,1.69-1c.71,0,1.82.43,1.82,2.18v3.06h-.94v-3c0-.83-.3-1.52-1.18-1.52a1.4,1.4,0,0,0-1.32,1.39v3.08h-.93Z"/><path d="M136,158.4l-.08-.64h0a1.9,1.9,0,0,1-1.57.76,1.46,1.46,0,0,1-1.56-1.47c0-1.24,1.1-1.92,3.08-1.91V155a1.06,1.06,0,0,0-1.17-1.19,2.58,2.58,0,0,0-1.33.38l-.21-.61a3.13,3.13,0,0,1,1.68-.46c1.57,0,2,1.07,2,2.1v1.92a7.57,7.57,0,0,0,.08,1.22Zm-.14-2.61c-1,0-2.17.16-2.17,1.15a.82.82,0,0,0,.88.89,1.27,1.27,0,0,0,1.24-.86,1,1,0,0,0,.05-.29Z"/><path d="M142.72,153.28c0,.37,0,.78,0,1.41v3A2.93,2.93,0,0,1,142,160a2.72,2.72,0,0,1-1.87.62,3.25,3.25,0,0,1-1.7-.43l.23-.71a2.83,2.83,0,0,0,1.51.41c.95,0,1.65-.5,1.65-1.79v-.58h0a1.83,1.83,0,0,1-1.63.86,2.29,2.29,0,0,1-2.19-2.5,2.47,2.47,0,0,1,2.31-2.72,1.71,1.71,0,0,1,1.6.89h0l0-.77Zm-1,2a1.09,1.09,0,0,0-.06-.42,1.34,1.34,0,0,0-1.3-1c-.89,0-1.52.75-1.52,1.94,0,1,.5,1.84,1.51,1.84a1.36,1.36,0,0,0,1.29-.95,1.45,1.45,0,0,0,.08-.5Z"/><path d="M144.74,156a1.64,1.64,0,0,0,1.76,1.78,3.33,3.33,0,0,0,1.42-.27l.16.67a4.13,4.13,0,0,1-1.71.32,2.38,2.38,0,0,1-2.52-2.58,2.49,2.49,0,0,1,2.41-2.77,2.18,2.18,0,0,1,2.12,2.42,3.14,3.14,0,0,1,0,.43Zm2.74-.67a1.33,1.33,0,0,0-1.3-1.51,1.55,1.55,0,0,0-1.43,1.51Z"/><path d="M149.53,154.88c0-.61,0-1.12,0-1.6h.81l0,1h0a1.54,1.54,0,0,1,1.42-1.12,1,1,0,0,1,.26,0v.88a1.45,1.45,0,0,0-.32,0,1.32,1.32,0,0,0-1.25,1.2,2.63,2.63,0,0,0,0,.43v2.73h-.92Z"/><path d="M152.21,158.83l2.95-7.68h.72l-3,7.68Z"/><path d="M156.5,157.45a2.42,2.42,0,0,0,1.23.37c.67,0,1-.34,1-.76s-.26-.69-.95-.94c-.92-.33-1.36-.84-1.36-1.45a1.58,1.58,0,0,1,1.77-1.51,2.53,2.53,0,0,1,1.26.32l-.23.68a2,2,0,0,0-1.05-.3c-.55,0-.86.32-.86.7s.31.61,1,.87c.89.34,1.34.78,1.34,1.54s-.7,1.54-1.91,1.54a2.92,2.92,0,0,1-1.44-.35Z"/><path d="M165.11,157c0,.53,0,1,0,1.39h-.83l0-.83h0a1.92,1.92,0,0,1-1.69,1c-.81,0-1.77-.44-1.77-2.25v-3h.93v2.84c0,1,.3,1.63,1.14,1.63a1.35,1.35,0,0,0,1.23-.85,1.46,1.46,0,0,0,.09-.48v-3.14h.93Z"/><path d="M166.65,155c0-.65,0-1.19,0-1.67h.84l0,.88h0a2,2,0,0,1,1.82-1,2.32,2.32,0,0,1,2.17,2.61c0,1.84-1.12,2.75-2.32,2.75a1.8,1.8,0,0,1-1.58-.8h0v2.78h-.93Zm.93,1.37a2.22,2.22,0,0,0,0,.38,1.44,1.44,0,0,0,1.4,1.09c1,0,1.55-.81,1.55-2s-.54-1.91-1.52-1.91a1.49,1.49,0,0,0-1.41,1.16,1.51,1.51,0,0,0-.06.38Z"/><path d="M173.2,156a1.64,1.64,0,0,0,1.76,1.78,3.36,3.36,0,0,0,1.42-.27l.15.67a4,4,0,0,1-1.7.32,2.38,2.38,0,0,1-2.52-2.58,2.49,2.49,0,0,1,2.4-2.77,2.17,2.17,0,0,1,2.12,2.42,3.55,3.55,0,0,1,0,.43Zm2.73-.67a1.32,1.32,0,0,0-1.29-1.51,1.54,1.54,0,0,0-1.43,1.51Z"/><path d="M178,154.88c0-.61,0-1.12-.05-1.6h.82l0,1h0a1.56,1.56,0,0,1,1.42-1.12,1.12,1.12,0,0,1,.27,0v.88a1.51,1.51,0,0,0-.32,0,1.31,1.31,0,0,0-1.25,1.2,2.63,2.63,0,0,0,0,.43v2.73H178Z"/><path d="M182.07,153.28l1,2.88a11.45,11.45,0,0,1,.41,1.31h0c.12-.42.27-.85.44-1.31l1-2.88h1l-2,5.12H183l-1.95-5.12Z"/><path d="M187.85,151.84a.58.58,0,0,1-1.16,0,.56.56,0,0,1,.58-.58A.56.56,0,0,1,187.85,151.84Zm-1,6.56v-5.12h.93v5.12Z"/><path d="M189.16,157.45a2.42,2.42,0,0,0,1.23.37c.67,0,1-.34,1-.76s-.26-.69-.95-.94c-.92-.33-1.36-.84-1.36-1.45a1.58,1.58,0,0,1,1.77-1.51,2.53,2.53,0,0,1,1.26.32l-.23.68a2,2,0,0,0-1.05-.3c-.55,0-.86.32-.86.7s.31.61,1,.87c.89.34,1.34.78,1.34,1.54s-.7,1.54-1.91,1.54a2.92,2.92,0,0,1-1.44-.35Z"/><path d="M198.12,155.8a2.51,2.51,0,0,1-2.55,2.72,2.44,2.44,0,0,1-2.46-2.64,2.5,2.5,0,0,1,2.54-2.72A2.43,2.43,0,0,1,198.12,155.8Zm-4.07,0c0,1.12.65,2,1.56,2s1.55-.84,1.55-2c0-.87-.43-2-1.53-2S194.05,154.88,194.05,155.85Z"/><path d="M199.29,154.88c0-.61,0-1.12,0-1.6h.82l0,1h0a1.54,1.54,0,0,1,1.42-1.12,1,1,0,0,1,.26,0v.88a1.42,1.42,0,0,0-.31,0,1.3,1.3,0,0,0-1.25,1.2,2.55,2.55,0,0,0,0,.43v2.73h-.92Z"/><path d="M209.43,150.89v6.19c0,.46,0,1,0,1.32h-.84l0-.89h0a1.89,1.89,0,0,1-1.75,1,2.33,2.33,0,0,1-2.19-2.6,2.46,2.46,0,0,1,2.3-2.76,1.69,1.69,0,0,1,1.54.79h0v-3.06Zm-.93,4.47a1.46,1.46,0,0,0-1.39-1.47c-1,0-1.54.85-1.54,2s.51,1.9,1.52,1.9a1.41,1.41,0,0,0,1.36-1.11,1.36,1.36,0,0,0,.05-.41Z"/><path d="M211.49,156a1.64,1.64,0,0,0,1.76,1.78,3.33,3.33,0,0,0,1.42-.27l.16.67a4.13,4.13,0,0,1-1.71.32,2.38,2.38,0,0,1-2.52-2.58,2.49,2.49,0,0,1,2.41-2.77,2.18,2.18,0,0,1,2.12,2.42,3.14,3.14,0,0,1,0,.43Zm2.74-.67a1.33,1.33,0,0,0-1.3-1.51,1.55,1.55,0,0,0-1.43,1.51Z"/><path d="M216.64,153.28l1,2.88c.17.46.3.89.41,1.31h0c.12-.42.27-.85.43-1.31l1-2.88h1l-2,5.12h-.89l-2-5.12Z"/><path d="M221.79,156a1.64,1.64,0,0,0,1.75,1.78,3.33,3.33,0,0,0,1.42-.27l.16.67a4.11,4.11,0,0,1-1.7.32,2.38,2.38,0,0,1-2.52-2.58,2.49,2.49,0,0,1,2.4-2.77,2.18,2.18,0,0,1,2.12,2.42,3.55,3.55,0,0,1,0,.43Zm2.73-.67a1.33,1.33,0,0,0-1.29-1.51,1.54,1.54,0,0,0-1.43,1.51Z"/><path d="M226.57,150.89h.94v7.51h-.94Z"/><path d="M233.71,155.8a2.5,2.5,0,0,1-2.55,2.72,2.44,2.44,0,0,1-2.46-2.64,2.5,2.5,0,0,1,2.54-2.72A2.43,2.43,0,0,1,233.71,155.8Zm-4.07,0c0,1.12.65,2,1.56,2s1.56-.84,1.56-2c0-.87-.44-2-1.54-2S229.64,154.88,229.64,155.85Z"/><path d="M234.89,155c0-.65,0-1.19,0-1.67h.84l0,.88h0a2,2,0,0,1,1.83-1,2.33,2.33,0,0,1,2.17,2.61c0,1.84-1.13,2.75-2.33,2.75a1.82,1.82,0,0,1-1.58-.8h0v2.78h-.92Zm.92,1.37a2.22,2.22,0,0,0,0,.38,1.44,1.44,0,0,0,1.4,1.09c1,0,1.55-.81,1.55-2s-.54-1.91-1.52-1.91a1.49,1.49,0,0,0-1.41,1.16,1.51,1.51,0,0,0-.06.38Z"/><path d="M240.79,157.45a2.41,2.41,0,0,0,1.22.37c.68,0,1-.34,1-.76s-.27-.69-.95-.94c-.93-.33-1.36-.84-1.36-1.45a1.58,1.58,0,0,1,1.77-1.51,2.56,2.56,0,0,1,1.26.32l-.23.68a2,2,0,0,0-1.05-.3c-.55,0-.86.32-.86.7s.31.61,1,.87c.89.34,1.35.78,1.35,1.54s-.7,1.54-1.92,1.54a3,3,0,0,1-1.44-.35Z"/><path d="M248.47,151.81v1.47h1.34V154h-1.34v2.76c0,.64.18,1,.7,1a1.67,1.67,0,0,0,.54-.07l0,.7a2.17,2.17,0,0,1-.83.13,1.33,1.33,0,0,1-1-.39,1.94,1.94,0,0,1-.36-1.34V154h-.79v-.71h.79v-1.23Z"/><path d="M253.69,158.4l-.07-.64h0a1.93,1.93,0,0,1-1.57.76,1.46,1.46,0,0,1-1.57-1.47c0-1.24,1.11-1.92,3.09-1.91V155a1.06,1.06,0,0,0-1.17-1.19,2.56,2.56,0,0,0-1.33.38l-.21-.61a3.11,3.11,0,0,1,1.68-.46c1.57,0,2,1.07,2,2.1v1.92a7.57,7.57,0,0,0,.08,1.22Zm-.13-2.61c-1,0-2.17.16-2.17,1.15a.82.82,0,0,0,.87.89,1.26,1.26,0,0,0,1.24-.86.75.75,0,0,0,.06-.29Z"/><path d="M256,150.89h.93v7.51H256Z"/><path d="M259,156a1.64,1.64,0,0,0,1.76,1.78,3.36,3.36,0,0,0,1.42-.27l.15.67a4,4,0,0,1-1.7.32,2.38,2.38,0,0,1-2.52-2.58,2.49,2.49,0,0,1,2.4-2.77,2.17,2.17,0,0,1,2.12,2.42,3.55,3.55,0,0,1,0,.43Zm2.73-.67a1.32,1.32,0,0,0-1.29-1.51,1.54,1.54,0,0,0-1.43,1.51Z"/><path d="M263.77,154.67c0-.53,0-1,0-1.39h.83l.05.85h0a1.9,1.9,0,0,1,1.7-1c.71,0,1.81.43,1.81,2.18v3.06h-.93v-3c0-.83-.31-1.52-1.19-1.52a1.33,1.33,0,0,0-1.25,1,1.35,1.35,0,0,0-.06.43v3.08h-.93Z"/><path d="M270.72,151.81v1.47h1.34V154h-1.34v2.76c0,.64.18,1,.7,1a1.67,1.67,0,0,0,.54-.07l.05.7a2.17,2.17,0,0,1-.83.13,1.33,1.33,0,0,1-1-.39,1.94,1.94,0,0,1-.36-1.34V154H269v-.71h.79v-1.23Z"/><path d="M113.64,167.37c0-.53,0-1,0-1.38h.81l0,.82h0a1.77,1.77,0,0,1,1.61-.94,1.51,1.51,0,0,1,1.45,1h0a2.12,2.12,0,0,1,.57-.67,1.78,1.78,0,0,1,1.13-.36c.68,0,1.69.44,1.69,2.22v3h-.91v-2.9c0-1-.36-1.58-1.12-1.58a1.21,1.21,0,0,0-1.1.85,1.66,1.66,0,0,0-.07.47v3.16h-.91V168c0-.82-.36-1.41-1.07-1.41a1.29,1.29,0,0,0-1.16.93,1.39,1.39,0,0,0-.07.46v3.09h-.91Z"/><path d="M125.31,171.11l-.07-.64h0a1.89,1.89,0,0,1-1.56.76,1.46,1.46,0,0,1-1.57-1.47c0-1.24,1.1-1.92,3.08-1.91v-.11a1,1,0,0,0-1.16-1.18,2.59,2.59,0,0,0-1.34.38l-.21-.61a3.13,3.13,0,0,1,1.68-.46c1.57,0,1.95,1.07,1.95,2.1v1.91a6.57,6.57,0,0,0,.09,1.23Zm-.14-2.61c-1,0-2.17.15-2.17,1.15a.83.83,0,0,0,.88.89,1.27,1.27,0,0,0,1.24-.86,1,1,0,0,0,0-.29Z"/><path d="M127.58,167.37c0-.53,0-1,0-1.38h.83l0,.84h0a1.91,1.91,0,0,1,1.7-1c.71,0,1.81.42,1.81,2.18v3.06H131v-3c0-.83-.31-1.52-1.19-1.52a1.33,1.33,0,0,0-1.25,1,1.35,1.35,0,0,0-.06.43v3.08h-.93Z"/><path d="M136.29,171.11l-.07-.64h0a1.93,1.93,0,0,1-1.57.76,1.46,1.46,0,0,1-1.57-1.47c0-1.24,1.1-1.92,3.08-1.91v-.11a1,1,0,0,0-1.16-1.18,2.59,2.59,0,0,0-1.34.38l-.21-.61a3.17,3.17,0,0,1,1.69-.46c1.56,0,1.94,1.07,1.94,2.1v1.91a7.54,7.54,0,0,0,.09,1.23Zm-.14-2.61c-1,0-2.17.15-2.17,1.15a.83.83,0,0,0,.88.89,1.27,1.27,0,0,0,1.24-.86,1,1,0,0,0,.05-.29Z"/><path d="M143,166c0,.37,0,.78,0,1.4v3a2.93,2.93,0,0,1-.73,2.34,2.7,2.7,0,0,1-1.86.61,3.28,3.28,0,0,1-1.71-.42l.24-.71a2.86,2.86,0,0,0,1.5.4c.95,0,1.65-.49,1.65-1.79v-.57h0a1.83,1.83,0,0,1-1.63.86,2.29,2.29,0,0,1-2.18-2.5,2.46,2.46,0,0,1,2.31-2.72,1.72,1.72,0,0,1,1.6.89h0l0-.77Zm-1,2a1.36,1.36,0,0,0-1.35-1.41c-.89,0-1.53.75-1.53,1.94,0,1,.51,1.84,1.52,1.84a1.36,1.36,0,0,0,1.29-.95,1.73,1.73,0,0,0,.07-.5Z"/><path d="M145,168.72a1.64,1.64,0,0,0,1.76,1.78,3.31,3.31,0,0,0,1.41-.27l.16.67a4.08,4.08,0,0,1-1.7.32,2.38,2.38,0,0,1-2.52-2.59,2.49,2.49,0,0,1,2.4-2.76,2.17,2.17,0,0,1,2.12,2.41,3.94,3.94,0,0,1,0,.44Zm2.73-.67a1.32,1.32,0,0,0-1.29-1.51,1.54,1.54,0,0,0-1.43,1.51Z"/><path d="M149.78,167.37c0-.53,0-1,0-1.38h.82l0,.82h0a1.78,1.78,0,0,1,1.61-.94,1.51,1.51,0,0,1,1.45,1h0a2.12,2.12,0,0,1,.57-.67,1.79,1.79,0,0,1,1.14-.36c.68,0,1.68.44,1.68,2.22v3h-.91v-2.9c0-1-.36-1.58-1.11-1.58a1.2,1.2,0,0,0-1.1.85,1.65,1.65,0,0,0-.08.47v3.16H153V168c0-.82-.36-1.41-1.07-1.41a1.28,1.28,0,0,0-1.15.93,1.39,1.39,0,0,0-.07.46v3.09h-.92Z"/><path d="M159.14,168.72a1.64,1.64,0,0,0,1.75,1.78,3.33,3.33,0,0,0,1.42-.27l.16.67a4.11,4.11,0,0,1-1.7.32,2.38,2.38,0,0,1-2.52-2.59,2.49,2.49,0,0,1,2.4-2.76,2.17,2.17,0,0,1,2.12,2.41,3.94,3.94,0,0,1,0,.44Zm2.73-.67a1.33,1.33,0,0,0-1.29-1.51,1.54,1.54,0,0,0-1.43,1.51Z"/><path d="M163.92,167.37c0-.53,0-1,0-1.38h.83l0,.84h0a1.89,1.89,0,0,1,1.69-1c.71,0,1.82.42,1.82,2.18v3.06h-.94v-3c0-.83-.3-1.52-1.18-1.52a1.4,1.4,0,0,0-1.32,1.39v3.08h-.93Z"/><path d="M170.88,164.51V166h1.33v.71h-1.33v2.76c0,.63.18,1,.7,1a2.14,2.14,0,0,0,.54-.07l0,.7a2.33,2.33,0,0,1-.82.13,1.3,1.3,0,0,1-1-.39,1.9,1.9,0,0,1-.36-1.34V166.7h-.79V166H170v-1.23Z"/><path d="M175.51,167.66c0-.66,0-1.19,0-1.67h.83l0,.88h0a2,2,0,0,1,1.82-1,2.32,2.32,0,0,1,2.17,2.6c0,1.85-1.12,2.76-2.33,2.76a1.8,1.8,0,0,1-1.58-.81h0v2.79h-.92Zm.92,1.37a2.33,2.33,0,0,0,0,.38,1.44,1.44,0,0,0,1.4,1.09c1,0,1.56-.81,1.56-2s-.54-1.91-1.53-1.91a1.5,1.5,0,0,0-1.41,1.15,1.67,1.67,0,0,0-.06.39Z"/><path d="M181.53,163.59h.94v7.52h-.94Z"/><path d="M186.87,171.11l-.07-.64h0a1.93,1.93,0,0,1-1.57.76,1.46,1.46,0,0,1-1.57-1.47c0-1.24,1.1-1.92,3.08-1.91v-.11a1,1,0,0,0-1.16-1.18,2.59,2.59,0,0,0-1.34.38l-.21-.61a3.16,3.16,0,0,1,1.68-.46c1.57,0,1.95,1.07,1.95,2.1v1.91a6.57,6.57,0,0,0,.09,1.23Zm-.14-2.61c-1,0-2.17.15-2.17,1.15a.83.83,0,0,0,.88.89,1.27,1.27,0,0,0,1.24-.86,1,1,0,0,0,0-.29Z"/><path d="M189.14,167.37c0-.53,0-1,0-1.38h.83l.05.84h0a1.88,1.88,0,0,1,1.69-1c.71,0,1.81.42,1.81,2.18v3.06h-.93v-3c0-.83-.31-1.52-1.19-1.52a1.33,1.33,0,0,0-1.25,1,1.35,1.35,0,0,0-.06.43v3.08h-.93Z"/><path d="M201.9,168.51a2.5,2.5,0,0,1-2.55,2.72,2.44,2.44,0,0,1-2.46-2.64,2.5,2.5,0,0,1,2.54-2.72A2.43,2.43,0,0,1,201.9,168.51Zm-4.07.05c0,1.12.65,2,1.56,2s1.56-.84,1.56-2c0-.87-.44-2-1.54-2S197.83,167.59,197.83,168.56Z"/><path d="M203.07,167.59c0-.61,0-1.13,0-1.6h.82l0,1h0a1.54,1.54,0,0,1,1.42-1.12,1,1,0,0,1,.26,0v.88a1.42,1.42,0,0,0-.31,0A1.3,1.3,0,0,0,204,168a2.63,2.63,0,0,0,0,.43v2.73h-.93Z"/><path d="M208.78,167.66c0-.66,0-1.19,0-1.67h.84l0,.88h0a2,2,0,0,1,1.82-1,2.32,2.32,0,0,1,2.17,2.6c0,1.85-1.12,2.76-2.33,2.76a1.8,1.8,0,0,1-1.58-.81h0v2.79h-.92Zm.92,1.37a1.58,1.58,0,0,0,.05.38,1.44,1.44,0,0,0,1.39,1.09c1,0,1.56-.81,1.56-2s-.54-1.91-1.52-1.91a1.49,1.49,0,0,0-1.41,1.15,1.68,1.68,0,0,0-.07.39Z"/><path d="M215.33,168.72a1.64,1.64,0,0,0,1.76,1.78,3.31,3.31,0,0,0,1.41-.27l.16.67a4.11,4.11,0,0,1-1.7.32,2.38,2.38,0,0,1-2.52-2.59,2.49,2.49,0,0,1,2.4-2.76,2.17,2.17,0,0,1,2.12,2.41,3.94,3.94,0,0,1,0,.44Zm2.73-.67a1.32,1.32,0,0,0-1.29-1.51,1.54,1.54,0,0,0-1.43,1.51Z"/><path d="M220.11,167.59c0-.61,0-1.13,0-1.6h.82l0,1h0a1.54,1.54,0,0,1,1.42-1.12,1,1,0,0,1,.26,0v.88a1.42,1.42,0,0,0-.31,0,1.3,1.3,0,0,0-1.25,1.2,2.55,2.55,0,0,0-.05.43v2.73h-.92Z"/><path d="M224,171.11V166.7h-.72V166H224v-.25a2.44,2.44,0,0,1,.59-1.79,1.78,1.78,0,0,1,1.25-.47,2.3,2.3,0,0,1,.8.14l-.13.72a1.47,1.47,0,0,0-.59-.11c-.8,0-1,.7-1,1.48V166h1.24v.71h-1.24v4.41Z"/><path d="M231.49,168.51a2.51,2.51,0,0,1-2.56,2.72,2.44,2.44,0,0,1-2.45-2.64,2.5,2.5,0,0,1,2.54-2.72A2.43,2.43,0,0,1,231.49,168.51Zm-4.07.05c0,1.12.65,2,1.56,2s1.55-.84,1.55-2c0-.87-.43-2-1.53-2S227.42,167.59,227.42,168.56Z"/><path d="M232.66,167.59c0-.61,0-1.13,0-1.6h.82l0,1h0a1.53,1.53,0,0,1,1.42-1.12,1,1,0,0,1,.26,0v.88a1.42,1.42,0,0,0-.31,0,1.3,1.3,0,0,0-1.25,1.2,1.81,1.81,0,0,0,0,.43v2.73h-.92Z"/><path d="M236.17,167.37c0-.53,0-1,0-1.38h.81l0,.82h0a1.8,1.8,0,0,1,1.62-.94,1.52,1.52,0,0,1,1.45,1h0a2.12,2.12,0,0,1,.57-.67,1.76,1.76,0,0,1,1.13-.36c.68,0,1.69.44,1.69,2.22v3h-.91v-2.9c0-1-.36-1.58-1.12-1.58a1.2,1.2,0,0,0-1.1.85,1.66,1.66,0,0,0-.07.47v3.16h-.91V168c0-.82-.36-1.41-1.07-1.41a1.28,1.28,0,0,0-1.16.93,1.39,1.39,0,0,0-.07.46v3.09h-.91Z"/><path d="M247.84,171.11l-.08-.64h0a1.89,1.89,0,0,1-1.56.76,1.46,1.46,0,0,1-1.57-1.47c0-1.24,1.1-1.92,3.08-1.91v-.11a1.06,1.06,0,0,0-1.17-1.18,2.58,2.58,0,0,0-1.33.38l-.21-.61a3.13,3.13,0,0,1,1.68-.46c1.57,0,1.95,1.07,1.95,2.1v1.91a6.57,6.57,0,0,0,.09,1.23Zm-.14-2.61c-1,0-2.17.15-2.17,1.15a.83.83,0,0,0,.88.89,1.27,1.27,0,0,0,1.24-.86,1,1,0,0,0,0-.29Z"/><path d="M250.1,167.37c0-.53,0-1,0-1.38h.83l.05.84h0a1.91,1.91,0,0,1,1.7-1c.71,0,1.81.42,1.81,2.18v3.06h-.93v-3c0-.83-.31-1.52-1.19-1.52a1.33,1.33,0,0,0-1.25,1,1.35,1.35,0,0,0-.06.43v3.08h-.94Z"/><path d="M259.64,170.92a3.44,3.44,0,0,1-1.48.3,2.44,2.44,0,0,1-2.55-2.62,2.6,2.6,0,0,1,2.76-2.72,3.26,3.26,0,0,1,1.29.26l-.21.73a2.17,2.17,0,0,0-1.08-.25,1.93,1.93,0,0,0,0,3.86,2.64,2.64,0,0,0,1.15-.26Z"/><path d="M261.18,168.72a1.64,1.64,0,0,0,1.76,1.78,3.33,3.33,0,0,0,1.42-.27l.16.67a4.13,4.13,0,0,1-1.71.32,2.39,2.39,0,0,1-2.52-2.59,2.49,2.49,0,0,1,2.41-2.76,2.17,2.17,0,0,1,2.12,2.41,3.52,3.52,0,0,1,0,.44Zm2.74-.67a1.33,1.33,0,0,0-1.3-1.51,1.55,1.55,0,0,0-1.43,1.51Z"/><path d="M114.68,177.26a.55.55,0,0,1-.6.57.56.56,0,0,1-.56-.57.58.58,0,0,1,.59-.59A.56.56,0,0,1,114.68,177.26Zm-1,6.56V178.7h.93v5.12Z"/><path d="M116.12,180.08c0-.53,0-1,0-1.38h.81l0,.82h0a1.75,1.75,0,0,1,1.6-.94,1.53,1.53,0,0,1,1.46,1h0a2.12,2.12,0,0,1,.57-.67,1.76,1.76,0,0,1,1.13-.36c.68,0,1.69.44,1.69,2.22v3h-.92v-2.9c0-1-.36-1.58-1.11-1.58a1.2,1.2,0,0,0-1.1.85,1.59,1.59,0,0,0-.07.46v3.17h-.91v-3.07c0-.82-.36-1.41-1.07-1.41a1.28,1.28,0,0,0-1.16.93,1.39,1.39,0,0,0-.07.46v3.09h-.91Z"/><path d="M125,180.37c0-.66,0-1.19,0-1.67h.83l.05.87h0a2,2,0,0,1,1.82-1,2.32,2.32,0,0,1,2.17,2.6c0,1.85-1.12,2.76-2.33,2.76a1.8,1.8,0,0,1-1.58-.81h0v2.79H125Zm.92,1.36a2.34,2.34,0,0,0,0,.39,1.44,1.44,0,0,0,1.4,1.09c1,0,1.56-.81,1.56-2s-.54-1.91-1.53-1.91a1.49,1.49,0,0,0-1.4,1.15,1.28,1.28,0,0,0-.07.39Z"/><path d="M131,180.29c0-.6,0-1.12,0-1.59h.82l0,1h0a1.55,1.55,0,0,1,1.42-1.12,1.12,1.12,0,0,1,.27,0v.88a1.51,1.51,0,0,0-.32,0,1.31,1.31,0,0,0-1.25,1.19,2.87,2.87,0,0,0,0,.44v2.73H131Z"/><path d="M139,181.22a2.5,2.5,0,0,1-2.55,2.72A2.44,2.44,0,0,1,134,181.3a2.5,2.5,0,0,1,2.54-2.72A2.43,2.43,0,0,1,139,181.22Zm-4.06.05c0,1.12.64,2,1.55,2s1.56-.84,1.56-2c0-.87-.44-2-1.54-2S134.91,180.29,134.91,181.27Z"/><path d="M140.43,178.7l1,2.88a11.45,11.45,0,0,1,.41,1.31h0c.12-.42.27-.85.44-1.31l1-2.88h1l-2,5.12h-.89l-1.95-5.12Z"/><path d="M145.58,181.43a1.64,1.64,0,0,0,1.76,1.78,3.33,3.33,0,0,0,1.42-.27l.16.67a4.13,4.13,0,0,1-1.71.32,2.38,2.38,0,0,1-2.52-2.59,2.49,2.49,0,0,1,2.4-2.76,2.17,2.17,0,0,1,2.12,2.41,3.94,3.94,0,0,1,0,.44Zm2.73-.67a1.32,1.32,0,0,0-1.29-1.51,1.54,1.54,0,0,0-1.43,1.51Z"/><path d="M150.37,180.08c0-.53,0-1-.05-1.38h.82l0,.82h0a1.77,1.77,0,0,1,1.61-.94,1.51,1.51,0,0,1,1.45,1h0a2,2,0,0,1,.57-.67,1.74,1.74,0,0,1,1.13-.36c.68,0,1.68.44,1.68,2.22v3h-.91v-2.9c0-1-.36-1.58-1.11-1.58a1.2,1.2,0,0,0-1.1.85,1.59,1.59,0,0,0-.07.46v3.17h-.91v-3.07c0-.82-.36-1.41-1.07-1.41a1.28,1.28,0,0,0-1.16.93,1.39,1.39,0,0,0-.07.46v3.09h-.91Z"/><path d="M159.72,181.43a1.64,1.64,0,0,0,1.76,1.78,3.36,3.36,0,0,0,1.42-.27l.15.67a4.08,4.08,0,0,1-1.7.32,2.38,2.38,0,0,1-2.52-2.59,2.49,2.49,0,0,1,2.4-2.76,2.17,2.17,0,0,1,2.12,2.41,3.94,3.94,0,0,1,0,.44Zm2.73-.67a1.32,1.32,0,0,0-1.29-1.51,1.54,1.54,0,0,0-1.43,1.51Z"/><path d="M164.51,180.08c0-.53,0-1,0-1.38h.83l.05.84h0a1.89,1.89,0,0,1,1.7-1c.71,0,1.81.42,1.81,2.18v3.06h-.93v-2.95c0-.83-.31-1.52-1.19-1.52a1.34,1.34,0,0,0-1.25,1,1.46,1.46,0,0,0-.06.44v3.08h-.93Z"/><path d="M171.46,177.22v1.48h1.34v.7h-1.34v2.77c0,.63.18,1,.7,1a2.11,2.11,0,0,0,.54-.06l0,.7a2.33,2.33,0,0,1-.82.13,1.27,1.27,0,0,1-1-.4,1.91,1.91,0,0,1-.36-1.33v-2.8h-.79v-.7h.79v-1.23Z"/><path d="M176.09,180.37c0-.66,0-1.19,0-1.67h.83l.05.87h0a2,2,0,0,1,1.82-1,2.32,2.32,0,0,1,2.17,2.6c0,1.85-1.12,2.76-2.33,2.76a1.8,1.8,0,0,1-1.58-.81h0v2.79h-.92Zm.92,1.36a2.34,2.34,0,0,0,0,.39,1.44,1.44,0,0,0,1.4,1.09c1,0,1.56-.81,1.56-2s-.54-1.91-1.53-1.91a1.49,1.49,0,0,0-1.4,1.15,1.28,1.28,0,0,0-.07.39Z"/><path d="M182.12,176.3h.93v7.52h-.93Z"/><path d="M187.45,183.82l-.07-.64h0a1.93,1.93,0,0,1-1.57.76,1.46,1.46,0,0,1-1.57-1.47c0-1.24,1.1-1.92,3.08-1.91v-.11a1,1,0,0,0-1.16-1.18,2.56,2.56,0,0,0-1.33.38l-.22-.62a3.26,3.26,0,0,1,1.69-.45c1.56,0,1.95,1.07,1.95,2.1v1.91a7.62,7.62,0,0,0,.08,1.23Zm-.13-2.61c-1,0-2.17.15-2.17,1.15a.82.82,0,0,0,.87.89,1.27,1.27,0,0,0,1.24-.86,1,1,0,0,0,.06-.3Z"/><path d="M189.72,180.08c0-.53,0-1,0-1.38h.82l.06.84h0a1.87,1.87,0,0,1,1.69-1c.71,0,1.81.42,1.81,2.18v3.06h-.93v-2.95c0-.83-.31-1.52-1.18-1.52a1.32,1.32,0,0,0-1.25,1,1.2,1.2,0,0,0-.07.44v3.08h-.93Z"/><path d="M199.87,176.47a7,7,0,0,0-1.34,4.33,7.08,7.08,0,0,0,1.34,4.3h-.74a6.88,6.88,0,0,1-1.38-4.3,7,7,0,0,1,1.38-4.33Z"/><path d="M203.69,183.82l-.08-.64h0a1.89,1.89,0,0,1-1.56.76,1.46,1.46,0,0,1-1.57-1.47c0-1.24,1.1-1.92,3.08-1.91v-.11a1.06,1.06,0,0,0-1.17-1.18,2.58,2.58,0,0,0-1.33.38l-.21-.62a3.22,3.22,0,0,1,1.68-.45c1.57,0,1.95,1.07,1.95,2.1v1.91a6.57,6.57,0,0,0,.09,1.23Zm-.14-2.61c-1,0-2.17.15-2.17,1.15a.83.83,0,0,0,.88.89,1.27,1.27,0,0,0,1.24-.86,1,1,0,0,0,.05-.3Z"/><path d="M209.61,183.63a3.42,3.42,0,0,1-1.47.3,2.44,2.44,0,0,1-2.56-2.62,2.6,2.6,0,0,1,2.76-2.72,3.22,3.22,0,0,1,1.29.26l-.21.72a2.23,2.23,0,0,0-1.08-.24,1.77,1.77,0,0,0-1.81,1.94,1.75,1.75,0,0,0,1.78,1.91,2.6,2.6,0,0,0,1.14-.25Z"/><path d="M212,177.22v1.48h1.33v.7H212v2.77c0,.63.18,1,.7,1a2.23,2.23,0,0,0,.54-.06l0,.7a2.33,2.33,0,0,1-.82.13,1.27,1.27,0,0,1-1-.4,1.86,1.86,0,0,1-.36-1.33v-2.8h-.8v-.7h.8v-1.23Z"/><path d="M215.38,177.26a.58.58,0,0,1-1.15,0,.57.57,0,0,1,.58-.59A.56.56,0,0,1,215.38,177.26Zm-1,6.56V178.7h.93v5.12Z"/><path d="M221.46,181.22a2.5,2.5,0,0,1-2.55,2.72,2.44,2.44,0,0,1-2.46-2.64,2.5,2.5,0,0,1,2.54-2.72A2.43,2.43,0,0,1,221.46,181.22Zm-4.07.05c0,1.12.65,2,1.56,2s1.56-.84,1.56-2c0-.87-.44-2-1.54-2S217.39,180.29,217.39,181.27Z"/><path d="M222.63,180.08c0-.53,0-1,0-1.38h.83l.05.84h0a1.89,1.89,0,0,1,1.7-1c.71,0,1.81.42,1.81,2.18v3.06h-.93v-2.95c0-.83-.31-1.52-1.19-1.52a1.33,1.33,0,0,0-1.25,1,1.46,1.46,0,0,0-.06.44v3.08h-.94Z"/><path d="M230.76,180.37c0-.66,0-1.19,0-1.67h.84l0,.87h0a2,2,0,0,1,1.83-1,2.32,2.32,0,0,1,2.17,2.6c0,1.85-1.13,2.76-2.33,2.76a1.8,1.8,0,0,1-1.58-.81h0v2.79h-.92Zm.92,1.36a2.34,2.34,0,0,0,0,.39,1.44,1.44,0,0,0,1.4,1.09c1,0,1.56-.81,1.56-2s-.55-1.91-1.53-1.91a1.49,1.49,0,0,0-1.41,1.15,1.67,1.67,0,0,0-.06.39Z"/><path d="M236.78,176.3h.94v7.52h-.94Z"/><path d="M242.12,183.82l-.07-.64h0a1.89,1.89,0,0,1-1.56.76,1.46,1.46,0,0,1-1.57-1.47c0-1.24,1.1-1.92,3.08-1.91v-.11a1.05,1.05,0,0,0-1.16-1.18,2.59,2.59,0,0,0-1.34.38l-.21-.62a3.22,3.22,0,0,1,1.68-.45c1.57,0,1.95,1.07,1.95,2.1v1.91a6.57,6.57,0,0,0,.09,1.23Zm-.14-2.61c-1,0-2.17.15-2.17,1.15a.83.83,0,0,0,.88.89,1.27,1.27,0,0,0,1.24-.86,1,1,0,0,0,0-.3Z"/><path d="M244.39,180.08c0-.53,0-1,0-1.38h.83l.05.84h0a1.89,1.89,0,0,1,1.7-1c.71,0,1.81.42,1.81,2.18v3.06h-.93v-2.95c0-.83-.31-1.52-1.19-1.52a1.34,1.34,0,0,0-1.25,1,1.46,1.46,0,0,0-.06.44v3.08h-.93Z"/><path d="M252,185.1a7.17,7.17,0,0,0,1.33-4.33,7.05,7.05,0,0,0-1.33-4.3h.72a6.75,6.75,0,0,1,1.39,4.31,6.85,6.85,0,0,1-1.39,4.32Z"/><path d="M260.38,178.7l.68,2.6c.14.57.28,1.1.38,1.63h0c.12-.52.29-1.07.45-1.62l.84-2.61h.78l.8,2.56c.19.61.34,1.15.45,1.67h0a14,14,0,0,1,.39-1.66l.73-2.57h.92l-1.65,5.12h-.85l-.78-2.45c-.18-.57-.33-1.08-.46-1.68h0a16.86,16.86,0,0,1-.47,1.7l-.82,2.43H261l-1.54-5.12Z"/><path d="M268.84,177.26a.55.55,0,0,1-.59.57.56.56,0,0,1-.57-.57.58.58,0,0,1,.59-.59A.56.56,0,0,1,268.84,177.26Zm-1,6.56V178.7h.93v5.12Z"/><path d="M271.4,177.22v1.48h1.34v.7H271.4v2.77c0,.63.18,1,.7,1a2.23,2.23,0,0,0,.54-.06l0,.7a2.33,2.33,0,0,1-.82.13,1.27,1.27,0,0,1-1-.4,1.91,1.91,0,0,1-.36-1.33v-2.8h-.79v-.7h.79v-1.23Z"/><path d="M273.78,176.3h.94v3.2h0a1.77,1.77,0,0,1,.67-.66,1.87,1.87,0,0,1,.95-.26c.69,0,1.79.42,1.79,2.19v3h-.93v-2.94c0-.83-.31-1.53-1.19-1.53a1.35,1.35,0,0,0-1.25.93,1.23,1.23,0,0,0-.06.45v3.09h-.94Z"/><path d="M114.16,194.14a1.63,1.63,0,0,0,1.76,1.77,3.38,3.38,0,0,0,1.42-.26l.15.67a4.07,4.07,0,0,1-1.7.31,2.37,2.37,0,0,1-2.52-2.58,2.48,2.48,0,0,1,2.4-2.76,2.17,2.17,0,0,1,2.12,2.41,3.94,3.94,0,0,1,0,.44Zm2.73-.67A1.33,1.33,0,0,0,115.6,192a1.55,1.55,0,0,0-1.43,1.52Z"/><path d="M119,192.79c0-.53,0-1,0-1.39h.82l0,.83h0a1.77,1.77,0,0,1,1.61-.94,1.51,1.51,0,0,1,1.45,1h0a2.09,2.09,0,0,1,.58-.66,1.68,1.68,0,0,1,1.13-.36c.68,0,1.68.44,1.68,2.22v3h-.91v-2.9c0-1-.36-1.58-1.11-1.58a1.2,1.2,0,0,0-1.1.85,1.53,1.53,0,0,0-.07.46v3.17h-.92v-3.07c0-.82-.36-1.41-1.07-1.41a1.27,1.27,0,0,0-1.15.93,1.39,1.39,0,0,0-.07.46v3.09H119Z"/><path d="M127.78,193.08c0-.66,0-1.19,0-1.68h.83l0,.88h0a2,2,0,0,1,1.82-1,2.32,2.32,0,0,1,2.17,2.6c0,1.84-1.12,2.75-2.33,2.75a1.79,1.79,0,0,1-1.58-.8h0v2.79h-.92Zm.92,1.36a2.11,2.11,0,0,0,0,.38,1.43,1.43,0,0,0,1.4,1.09c1,0,1.56-.8,1.56-2,0-1-.54-1.9-1.53-1.9a1.49,1.49,0,0,0-1.41,1.15,1.67,1.67,0,0,0-.06.38Z"/><path d="M133.8,189h.94v7.52h-.94Z"/><path d="M140.94,193.92a2.5,2.5,0,0,1-2.55,2.72,2.43,2.43,0,0,1-2.46-2.63,2.5,2.5,0,0,1,2.54-2.72A2.42,2.42,0,0,1,140.94,193.92Zm-4.07.06c0,1.12.65,2,1.56,2s1.56-.84,1.56-2c0-.87-.44-2-1.54-2S136.87,193,136.87,194Z"/><path d="M142.38,191.4l1.12,3c.12.34.25.74.33,1h0c.1-.31.2-.7.33-1.07l1-3h1l-1.39,3.66a7.83,7.83,0,0,1-1.76,3.2,2.46,2.46,0,0,1-1.15.61l-.23-.78a2.77,2.77,0,0,0,.82-.46,2.82,2.82,0,0,0,.78-1,.67.67,0,0,0,.07-.22.81.81,0,0,0-.06-.24l-1.9-4.73Z"/><path d="M147.44,194.14a1.64,1.64,0,0,0,1.76,1.77,3.35,3.35,0,0,0,1.42-.26l.16.67a4.17,4.17,0,0,1-1.71.31,2.38,2.38,0,0,1-2.52-2.58,2.49,2.49,0,0,1,2.41-2.76,2.17,2.17,0,0,1,2.12,2.41,3.52,3.52,0,0,1,0,.44Zm2.74-.67a1.34,1.34,0,0,0-1.3-1.52,1.55,1.55,0,0,0-1.43,1.52Z"/><path d="M152.75,194.14a1.64,1.64,0,0,0,1.76,1.77,3.38,3.38,0,0,0,1.42-.26l.16.67a4.17,4.17,0,0,1-1.71.31,2.37,2.37,0,0,1-2.52-2.58,2.48,2.48,0,0,1,2.4-2.76,2.17,2.17,0,0,1,2.12,2.41,3.94,3.94,0,0,1,0,.44Zm2.73-.67a1.33,1.33,0,0,0-1.29-1.52,1.55,1.55,0,0,0-1.43,1.52Z"/><path d="M160.82,190a.58.58,0,0,1-1.15,0,.57.57,0,0,1,.58-.58A.55.55,0,0,1,160.82,190Zm-1,6.57V191.4h.93v5.13Z"/><path d="M162.35,196.53v-4.42h-.72v-.71h.72v-.24a2.39,2.39,0,0,1,.6-1.79,1.77,1.77,0,0,1,1.25-.48,2.21,2.21,0,0,1,.79.15l-.13.72a1.4,1.4,0,0,0-.59-.11c-.79,0-1,.69-1,1.48v.27h1.24v.71h-1.24v4.42Z"/><path d="M170.43,196.53l-.07-.65h0a1.9,1.9,0,0,1-1.57.76,1.46,1.46,0,0,1-1.57-1.47c0-1.24,1.11-1.91,3.09-1.9v-.11a1.06,1.06,0,0,0-1.17-1.19,2.47,2.47,0,0,0-1.33.39l-.21-.62a3.19,3.19,0,0,1,1.68-.45c1.57,0,1.95,1.07,1.95,2.09v1.92a7.62,7.62,0,0,0,.08,1.23Zm-.13-2.62c-1,0-2.17.16-2.17,1.16a.83.83,0,0,0,.88.89,1.27,1.27,0,0,0,1.23-.86.8.8,0,0,0,.06-.3Z"/><path d="M172.7,193.08c0-.66,0-1.19,0-1.68h.84l0,.88h0a2,2,0,0,1,1.82-1,2.32,2.32,0,0,1,2.17,2.6c0,1.84-1.12,2.75-2.33,2.75a1.79,1.79,0,0,1-1.58-.8h0v2.79h-.92Zm.92,1.36a1.46,1.46,0,0,0,0,.38,1.42,1.42,0,0,0,1.39,1.09c1,0,1.56-.8,1.56-2,0-1-.54-1.9-1.53-1.9a1.48,1.48,0,0,0-1.4,1.15,1.27,1.27,0,0,0-.07.38Z"/><path d="M178.73,193.08c0-.66,0-1.19,0-1.68h.84l0,.88h0a2,2,0,0,1,1.82-1,2.32,2.32,0,0,1,2.17,2.6c0,1.84-1.13,2.75-2.33,2.75a1.79,1.79,0,0,1-1.58-.8h0v2.79h-.92Zm.92,1.36a2.11,2.11,0,0,0,0,.38,1.43,1.43,0,0,0,1.4,1.09c1,0,1.56-.8,1.56-2,0-1-.54-1.9-1.53-1.9a1.49,1.49,0,0,0-1.41,1.15,1.67,1.67,0,0,0-.06.38Z"/><path d="M184.75,189h.94v7.52h-.94Z"/><path d="M188.29,190a.58.58,0,0,1-1.15,0,.57.57,0,0,1,.58-.58A.55.55,0,0,1,188.29,190Zm-1,6.57V191.4h.93v5.13Z"/><path d="M193.38,196.34a3.38,3.38,0,0,1-1.47.29,2.43,2.43,0,0,1-2.55-2.61,2.6,2.6,0,0,1,2.75-2.72,3.15,3.15,0,0,1,1.3.26l-.22.72a2.23,2.23,0,0,0-1.08-.24A1.78,1.78,0,0,0,190.3,194a1.75,1.75,0,0,0,1.78,1.91,2.57,2.57,0,0,0,1.14-.25Z"/><path d="M197.31,196.53l-.07-.65h0a1.9,1.9,0,0,1-1.57.76,1.46,1.46,0,0,1-1.57-1.47c0-1.24,1.1-1.91,3.08-1.9v-.11A1.06,1.06,0,0,0,196,192a2.45,2.45,0,0,0-1.33.39l-.22-.62a3.26,3.26,0,0,1,1.69-.45c1.56,0,2,1.07,2,2.09v1.92a7.62,7.62,0,0,0,.08,1.23Zm-.13-2.62c-1,0-2.18.16-2.18,1.16a.83.83,0,0,0,.88.89,1.28,1.28,0,0,0,1.24-.86,1.07,1.07,0,0,0,.06-.3Z"/><path d="M199.54,196.53c0-.35,0-.87,0-1.32V189h.92v3.22h0a1.91,1.91,0,0,1,1.75-.94c1.27,0,2.17,1.06,2.16,2.61,0,1.83-1.15,2.74-2.3,2.74a1.81,1.81,0,0,1-1.71-1h0l0,.85Zm1-2.06a1.76,1.76,0,0,0,0,.34,1.43,1.43,0,0,0,1.4,1.09c1,0,1.56-.79,1.56-2,0-1-.53-1.9-1.53-1.9a1.49,1.49,0,0,0-1.42,1.14,2,2,0,0,0-.05.38Z"/><path d="M205.61,189h.93v7.52h-.93Z"/><path d="M208.62,194.14a1.64,1.64,0,0,0,1.76,1.77,3.35,3.35,0,0,0,1.42-.26l.16.67a4.17,4.17,0,0,1-1.71.31,2.38,2.38,0,0,1-2.52-2.58,2.48,2.48,0,0,1,2.41-2.76,2.17,2.17,0,0,1,2.12,2.41,3.52,3.52,0,0,1,0,.44Zm2.74-.67a1.34,1.34,0,0,0-1.3-1.52,1.55,1.55,0,0,0-1.43,1.52Z"/><path d="M213.06,196a.63.63,0,0,1,.64-.67.67.67,0,1,1-.64.67Z"/><rect x="98.83" y="87.84" width="7.19" height="7.19" fill="#7c7910"/><rect x="98.83" y="151.42" width="7.19" height="7.19" fill="#7c7910"/></svg>