<svg id="Layer_1" data-name="Layer 1" xmlns="http://www.w3.org/2000/svg" viewBox="0 0 423.3 263.7"><path d="M346.18,127.89l-245.57-.51a5.89,5.89,0,0,1-6.09-5.64V56.62A5.9,5.9,0,0,1,100.61,51l245.57.5a5.89,5.89,0,0,1,6.08,5.64v65.13A5.89,5.89,0,0,1,346.18,127.89Z" fill="#7c7910" stroke="#7c7910" stroke-miterlimit="10"/><path d="M287.19,154.09h-187a5.68,5.68,0,0,1-5.67-5.66V83H292.86v65.46A5.68,5.68,0,0,1,287.19,154.09Z" fill="#bec766" stroke="#7c7910" stroke-miterlimit="10"/><path d="M346.2,249.2H100.54a5.9,5.9,0,0,1-6.09-5.64V81.23H352.29V243.56A5.9,5.9,0,0,1,346.2,249.2Z" fill="#d4da99" stroke="#7c7910" stroke-miterlimit="10"/><path d="M124,93.16c-.05-1-.12-2.19-.11-3.08h0c-.24.83-.54,1.72-.9,2.71l-1.26,3.46H121l-1.15-3.4c-.34-1-.63-1.93-.83-2.77h0c0,.89-.07,2.08-.14,3.15l-.19,3.06h-.88l.5-7.13h1.18l1.22,3.45c.29.88.54,1.66.71,2.4h0c.18-.72.43-1.5.75-2.4l1.27-3.45h1.17l.45,7.13h-.9Z"/><path d="M129.38,96.29l-.08-.64h0a1.89,1.89,0,0,1-1.56.76,1.46,1.46,0,0,1-1.57-1.47c0-1.24,1.1-1.92,3.08-1.91v-.11a1.06,1.06,0,0,0-1.17-1.18,2.58,2.58,0,0,0-1.33.38l-.21-.61a3.13,3.13,0,0,1,1.68-.46c1.57,0,1.95,1.07,1.95,2.1v1.91a6.57,6.57,0,0,0,.09,1.23Zm-.14-2.61c-1,0-2.17.16-2.17,1.15a.83.83,0,0,0,.88.89,1.27,1.27,0,0,0,1.24-.86,1,1,0,0,0,.05-.29Z"/><path d="M131.65,92.55c0-.53,0-1-.05-1.38h.83l0,.84h0a1.91,1.91,0,0,1,1.7-1c.71,0,1.81.42,1.81,2.18v3.06h-.93v-3c0-.83-.31-1.52-1.19-1.52a1.33,1.33,0,0,0-1.25,1,1.35,1.35,0,0,0-.06.43v3.08h-.93Z"/><path d="M140.36,96.29l-.07-.64h0a1.93,1.93,0,0,1-1.57.76,1.46,1.46,0,0,1-1.57-1.47c0-1.24,1.1-1.92,3.08-1.91v-.11A1,1,0,0,0,139,91.74a2.59,2.59,0,0,0-1.34.38l-.21-.61a3.13,3.13,0,0,1,1.68-.46c1.57,0,2,1.07,2,2.1v1.91a6.57,6.57,0,0,0,.09,1.23Zm-.14-2.61c-1,0-2.17.16-2.17,1.15a.83.83,0,0,0,.88.89,1.27,1.27,0,0,0,1.24-.86,1,1,0,0,0,.05-.29Z"/><path d="M147,91.17c0,.37,0,.78,0,1.41v3a2.93,2.93,0,0,1-.73,2.34,2.71,2.71,0,0,1-1.86.62,3.26,3.26,0,0,1-1.71-.43l.23-.71a2.92,2.92,0,0,0,1.51.4c.95,0,1.65-.49,1.65-1.78v-.58h0a1.83,1.83,0,0,1-1.63.86,2.29,2.29,0,0,1-2.18-2.5,2.46,2.46,0,0,1,2.31-2.72,1.7,1.7,0,0,1,1.59.89h0l0-.77Zm-1,2a1.36,1.36,0,0,0-1.36-1.41c-.89,0-1.52.75-1.52,1.94,0,1,.51,1.84,1.51,1.84a1.37,1.37,0,0,0,1.3-1,1.73,1.73,0,0,0,.07-.5Z"/><path d="M149.07,93.9a1.64,1.64,0,0,0,1.75,1.78,3.33,3.33,0,0,0,1.42-.27l.16.67a4.11,4.11,0,0,1-1.7.32,2.38,2.38,0,0,1-2.52-2.59,2.49,2.49,0,0,1,2.4-2.76,2.17,2.17,0,0,1,2.12,2.41,3.76,3.76,0,0,1,0,.44Zm2.73-.67a1.33,1.33,0,0,0-1.29-1.51,1.54,1.54,0,0,0-1.43,1.51Z"/><path d="M153.85,92.77c0-.61,0-1.13,0-1.6h.82l0,1h0a1.53,1.53,0,0,1,1.42-1.12,1,1,0,0,1,.26,0V92a1.42,1.42,0,0,0-.31,0,1.3,1.3,0,0,0-1.25,1.2,2.55,2.55,0,0,0,0,.43v2.73h-.92Z"/><path d="M156.53,96.72l3-7.68h.72l-3,7.68Z"/><path d="M160.82,95.34a2.45,2.45,0,0,0,1.23.37c.68,0,1-.34,1-.76s-.26-.69-.95-1c-.92-.32-1.35-.83-1.35-1.45a1.57,1.57,0,0,1,1.76-1.5,2.53,2.53,0,0,1,1.26.32l-.23.68a2,2,0,0,0-1.05-.3c-.55,0-.85.32-.85.7s.3.61,1,.87c.89.34,1.35.78,1.35,1.54s-.7,1.54-1.92,1.54a3,3,0,0,1-1.44-.35Z"/><path d="M169.43,94.89c0,.53,0,1,0,1.4h-.82l-.06-.83h0a1.92,1.92,0,0,1-1.69,1c-.81,0-1.77-.45-1.77-2.25v-3H166V94c0,1,.3,1.64,1.15,1.64a1.35,1.35,0,0,0,1.22-.85,1.24,1.24,0,0,0,.09-.48V91.17h.93Z"/><path d="M171,92.84c0-.66,0-1.19,0-1.67h.84l0,.88h0a2,2,0,0,1,1.82-1,2.32,2.32,0,0,1,2.17,2.61c0,1.84-1.13,2.75-2.33,2.75a1.8,1.8,0,0,1-1.58-.81h0v2.79H171Zm.92,1.37a2.33,2.33,0,0,0,0,.38,1.44,1.44,0,0,0,1.4,1.09c1,0,1.56-.81,1.56-2s-.54-1.91-1.53-1.91a1.6,1.6,0,0,0-1.47,1.54Z"/><path d="M177.52,93.9a1.64,1.64,0,0,0,1.76,1.78,3.33,3.33,0,0,0,1.42-.27l.16.67a4.13,4.13,0,0,1-1.71.32,2.38,2.38,0,0,1-2.52-2.59A2.49,2.49,0,0,1,179,91.05a2.16,2.16,0,0,1,2.11,2.41,3.76,3.76,0,0,1,0,.44Zm2.73-.67A1.32,1.32,0,0,0,179,91.72a1.55,1.55,0,0,0-1.43,1.51Z"/><path d="M182.31,92.77c0-.61,0-1.13,0-1.6h.81l0,1h0a1.52,1.52,0,0,1,1.41-1.12,1.06,1.06,0,0,1,.27,0V92a1.51,1.51,0,0,0-.32,0,1.32,1.32,0,0,0-1.25,1.2,2.63,2.63,0,0,0,0,.43v2.73h-.92Z"/><path d="M186.4,91.17l1,2.88c.17.46.31.89.42,1.31h0c.11-.42.26-.85.43-1.31l1-2.88h1l-2,5.12h-.89l-1.95-5.12Z"/><path d="M192.17,89.73a.55.55,0,0,1-.6.57.56.56,0,0,1-.56-.57.58.58,0,0,1,.59-.59A.56.56,0,0,1,192.17,89.73Zm-1,6.56V91.17h.93v5.12Z"/><path d="M193.48,95.34a2.45,2.45,0,0,0,1.23.37c.68,0,1-.34,1-.76s-.26-.69-.95-1c-.92-.32-1.35-.83-1.35-1.45a1.57,1.57,0,0,1,1.76-1.5,2.6,2.6,0,0,1,1.27.32l-.24.68a2,2,0,0,0-1.05-.3c-.55,0-.85.32-.85.7s.3.61,1,.87c.89.34,1.35.78,1.35,1.54s-.7,1.54-1.92,1.54a3,3,0,0,1-1.44-.35Z"/><path d="M202.44,93.69a2.5,2.5,0,0,1-2.55,2.72,2.44,2.44,0,0,1-2.46-2.64A2.5,2.5,0,0,1,200,91.05,2.43,2.43,0,0,1,202.44,93.69Zm-4.07,0c0,1.12.65,2,1.56,2s1.56-.84,1.56-2c0-.87-.44-2-1.54-2S198.37,92.77,198.37,93.74Z"/><path d="M203.62,92.77c0-.61,0-1.13-.05-1.6h.82l0,1h0a1.55,1.55,0,0,1,1.42-1.12,1.12,1.12,0,0,1,.27,0V92a1.51,1.51,0,0,0-.32,0,1.31,1.31,0,0,0-1.25,1.2,2.63,2.63,0,0,0,0,.43v2.73h-.92Z"/><path d="M209.32,92.77c0-.61,0-1.13,0-1.6h.82l0,1h0a1.54,1.54,0,0,1,1.42-1.12,1,1,0,0,1,.26,0V92a1.42,1.42,0,0,0-.31,0,1.31,1.31,0,0,0-1.25,1.2,2.63,2.63,0,0,0,0,.43v2.73h-.93Z"/><path d="M213.2,93.9A1.64,1.64,0,0,0,215,95.68a3.33,3.33,0,0,0,1.42-.27l.16.67a4.13,4.13,0,0,1-1.71.32,2.38,2.38,0,0,1-2.52-2.59,2.49,2.49,0,0,1,2.41-2.76,2.16,2.16,0,0,1,2.11,2.41,3.76,3.76,0,0,1,0,.44Zm2.73-.67a1.32,1.32,0,0,0-1.29-1.51,1.55,1.55,0,0,0-1.43,1.51Z"/><path d="M218.35,91.17l1,2.88c.17.46.31.89.42,1.31h0c.11-.42.26-.85.43-1.31l1-2.88h1l-2,5.12h-.89l-2-5.12Z"/><path d="M224.12,89.73a.55.55,0,0,1-.59.57.56.56,0,0,1-.57-.57.58.58,0,0,1,.59-.59A.56.56,0,0,1,224.12,89.73Zm-1,6.56V91.17H224v5.12Z"/><path d="M226.08,93.9a1.64,1.64,0,0,0,1.76,1.78,3.36,3.36,0,0,0,1.42-.27l.15.67a4.08,4.08,0,0,1-1.7.32,2.38,2.38,0,0,1-2.52-2.59,2.49,2.49,0,0,1,2.4-2.76,2.17,2.17,0,0,1,2.12,2.41,3.76,3.76,0,0,1,0,.44Zm2.73-.67a1.32,1.32,0,0,0-1.29-1.51,1.54,1.54,0,0,0-1.43,1.51Z"/><path d="M231.24,91.17l.67,2.6c.15.57.29,1.1.38,1.63h0c.11-.52.28-1.07.45-1.62l.84-2.61h.78l.8,2.56c.19.61.34,1.15.45,1.67h0a16.44,16.44,0,0,1,.4-1.66l.73-2.57h.92l-1.65,5.12h-.85l-.79-2.44c-.18-.58-.32-1.08-.45-1.69h0a15.52,15.52,0,0,1-.47,1.7l-.82,2.43h-.85l-1.55-5.12Z"/><path d="M238.47,95.34a2.42,2.42,0,0,0,1.23.37c.67,0,1-.34,1-.76s-.26-.69-.95-1c-.92-.32-1.36-.83-1.36-1.45a1.58,1.58,0,0,1,1.77-1.5,2.53,2.53,0,0,1,1.26.32l-.23.68a2,2,0,0,0-1.05-.3c-.55,0-.86.32-.86.7s.31.61,1,.87c.89.34,1.34.78,1.34,1.54s-.7,1.54-1.91,1.54a2.92,2.92,0,0,1-1.44-.35Z"/><path d="M245.55,93.9a1.64,1.64,0,0,0,1.76,1.78,3.33,3.33,0,0,0,1.42-.27l.16.67a4.13,4.13,0,0,1-1.71.32,2.39,2.39,0,0,1-2.52-2.59,2.49,2.49,0,0,1,2.41-2.76,2.16,2.16,0,0,1,2.11,2.41,3.76,3.76,0,0,1,0,.44Zm2.74-.67a1.33,1.33,0,0,0-1.3-1.51,1.55,1.55,0,0,0-1.43,1.51Z"/><path d="M250.34,92.55c0-.53,0-1,0-1.38h.81l0,.82h0a1.77,1.77,0,0,1,1.61-.94,1.51,1.51,0,0,1,1.45,1h0a2.12,2.12,0,0,1,.57-.67,1.78,1.78,0,0,1,1.13-.36c.68,0,1.69.45,1.69,2.22v3h-.91v-2.9c0-1-.36-1.58-1.12-1.58a1.2,1.2,0,0,0-1.1.85,1.66,1.66,0,0,0-.07.47v3.16h-.91V93.22c0-.81-.36-1.41-1.07-1.41a1.29,1.29,0,0,0-1.16.93,1.39,1.39,0,0,0-.07.46v3.09h-.91Z"/><path d="M259.17,92.84c0-.66,0-1.19,0-1.67H260l0,.88h0a2,2,0,0,1,1.82-1A2.32,2.32,0,0,1,264,93.66c0,1.84-1.12,2.75-2.33,2.75a1.8,1.8,0,0,1-1.58-.81h0v2.79h-.92Zm.92,1.37a2.33,2.33,0,0,0,0,.38,1.45,1.45,0,0,0,1.4,1.09c1,0,1.56-.81,1.56-2s-.54-1.91-1.53-1.91a1.49,1.49,0,0,0-1.4,1.16,1.51,1.51,0,0,0-.07.38Z"/><path d="M265.2,88.77h.93v7.52h-.93Z"/><path d="M272.33,93.69a2.5,2.5,0,0,1-2.55,2.72,2.43,2.43,0,0,1-2.45-2.64,2.5,2.5,0,0,1,2.54-2.72A2.42,2.42,0,0,1,272.33,93.69Zm-4.06,0c0,1.12.64,2,1.55,2s1.56-.84,1.56-2c0-.87-.43-2-1.53-2S268.27,92.77,268.27,93.74Z"/><path d="M273.78,91.17l1.12,3c.11.33.24.74.33,1h0c.09-.3.2-.69.33-1.07l1-3h1l-1.4,3.65A7.77,7.77,0,0,1,274.42,98a2.49,2.49,0,0,1-1.14.6l-.24-.78a2.46,2.46,0,0,0,.82-.46,2.86,2.86,0,0,0,.78-1,.57.57,0,0,0,.08-.23.7.7,0,0,0-.07-.24l-1.89-4.72Z"/><path d="M278.84,93.9a1.64,1.64,0,0,0,1.76,1.78,3.28,3.28,0,0,0,1.41-.27l.16.67a4.08,4.08,0,0,1-1.7.32A2.38,2.38,0,0,1,278,93.81a2.49,2.49,0,0,1,2.4-2.76,2.17,2.17,0,0,1,2.12,2.41,3.76,3.76,0,0,1,0,.44Zm2.73-.67a1.32,1.32,0,0,0-1.29-1.51,1.54,1.54,0,0,0-1.43,1.51Z"/><path d="M284.14,93.9a1.65,1.65,0,0,0,1.76,1.78,3.33,3.33,0,0,0,1.42-.27l.16.67a4.13,4.13,0,0,1-1.71.32,2.39,2.39,0,0,1-2.52-2.59,2.49,2.49,0,0,1,2.41-2.76,2.43,2.43,0,0,1,2.08,2.85Zm2.74-.67a1.33,1.33,0,0,0-1.3-1.51,1.55,1.55,0,0,0-1.43,1.51Z"/><path d="M289.62,89l-.18,2.54h-.57L288.7,89Z"/><path d="M290.79,95.34a2.48,2.48,0,0,0,1.23.37c.68,0,1-.34,1-.76s-.27-.69-.95-1c-.93-.32-1.36-.83-1.36-1.45a1.58,1.58,0,0,1,1.77-1.5,2.56,2.56,0,0,1,1.26.32l-.23.68a2,2,0,0,0-1.05-.3c-.55,0-.86.32-.86.7s.31.61,1,.87c.89.34,1.35.78,1.35,1.54s-.7,1.54-1.92,1.54a3,3,0,0,1-1.44-.35Z"/><path d="M118,105.55c0-.66,0-1.19,0-1.67h.84l0,.87h0a2,2,0,0,1,1.82-1,2.32,2.32,0,0,1,2.17,2.6c0,1.85-1.12,2.76-2.33,2.76a1.78,1.78,0,0,1-1.57-.81h0v2.79H118Zm.92,1.36a2.3,2.3,0,0,0,.05.39,1.44,1.44,0,0,0,1.39,1.09c1,0,1.56-.81,1.56-2s-.54-1.91-1.52-1.91a1.49,1.49,0,0,0-1.41,1.15,1.68,1.68,0,0,0-.07.39Z"/><path d="M124,105.47c0-.6,0-1.12,0-1.59h.81l0,1h0a1.52,1.52,0,0,1,1.41-1.12,1.12,1.12,0,0,1,.27,0v.88a1.51,1.51,0,0,0-.32,0,1.32,1.32,0,0,0-1.25,1.19,2.87,2.87,0,0,0,0,.44V109H124Z"/><path d="M132,106.4a2.5,2.5,0,0,1-2.55,2.72,2.44,2.44,0,0,1-2.46-2.64,2.5,2.5,0,0,1,2.55-2.72A2.42,2.42,0,0,1,132,106.4Zm-4.06,0c0,1.12.64,2,1.55,2s1.56-.84,1.56-2c0-.87-.43-2-1.53-2S127.92,105.47,127.92,106.45Z"/><path d="M137.58,103.88c0,.37-.05.78-.05,1.4v3a2.94,2.94,0,0,1-.73,2.34,2.7,2.7,0,0,1-1.86.61,3.28,3.28,0,0,1-1.71-.42l.24-.71a2.91,2.91,0,0,0,1.5.4c.95,0,1.65-.49,1.65-1.79v-.57h0A1.82,1.82,0,0,1,135,109a2.29,2.29,0,0,1-2.18-2.5,2.46,2.46,0,0,1,2.31-2.72,1.7,1.7,0,0,1,1.6.89h0l0-.77Zm-1,2a1.45,1.45,0,0,0-.05-.43,1.34,1.34,0,0,0-1.3-1c-.89,0-1.53.75-1.53,1.94,0,1,.51,1.84,1.52,1.84a1.36,1.36,0,0,0,1.29-1,1.73,1.73,0,0,0,.07-.5Z"/><path d="M139,105.47c0-.6,0-1.12-.05-1.59h.82l0,1h0a1.55,1.55,0,0,1,1.42-1.12,1.12,1.12,0,0,1,.27,0v.88a1.51,1.51,0,0,0-.32,0,1.31,1.31,0,0,0-1.25,1.19,2.87,2.87,0,0,0,0,.44V109H139Z"/><path d="M142.89,106.61a1.64,1.64,0,0,0,1.76,1.78,3.33,3.33,0,0,0,1.42-.27l.16.67a4.13,4.13,0,0,1-1.71.32,2.38,2.38,0,0,1-2.52-2.59,2.49,2.49,0,0,1,2.41-2.76,2.16,2.16,0,0,1,2.11,2.41,3.94,3.94,0,0,1,0,.44Zm2.73-.67a1.32,1.32,0,0,0-1.29-1.51,1.54,1.54,0,0,0-1.43,1.51Z"/><path d="M147.55,108.05a2.45,2.45,0,0,0,1.23.37c.68,0,1-.34,1-.76s-.27-.69-1-1c-.92-.32-1.35-.83-1.35-1.45a1.58,1.58,0,0,1,1.77-1.5,2.59,2.59,0,0,1,1.26.32l-.24.67a2.06,2.06,0,0,0-1-.29c-.55,0-.85.32-.85.7s.3.61,1,.87c.89.33,1.35.78,1.35,1.54s-.7,1.54-1.92,1.54a3,3,0,0,1-1.44-.35Z"/><path d="M151.75,108.05a2.41,2.41,0,0,0,1.22.37c.68,0,1-.34,1-.76s-.27-.69-.95-1c-.93-.32-1.36-.83-1.36-1.45a1.58,1.58,0,0,1,1.77-1.5,2.56,2.56,0,0,1,1.26.32l-.23.67a2.09,2.09,0,0,0-1.05-.29c-.55,0-.86.32-.86.7s.31.61,1,.87c.89.33,1.35.78,1.35,1.54s-.7,1.54-1.92,1.54a3,3,0,0,1-1.44-.35Z"/><path d="M159.35,102.44a.58.58,0,0,1-1.15,0,.57.57,0,0,1,.58-.59A.56.56,0,0,1,159.35,102.44Zm-1,6.56v-5.12h.93V109Z"/><path d="M160.79,105.26c0-.53,0-1,0-1.38h.82l.06.84h0a1.88,1.88,0,0,1,1.69-1c.71,0,1.81.42,1.81,2.18V109h-.93v-3c0-.83-.31-1.52-1.19-1.52a1.33,1.33,0,0,0-1.25,1,1.35,1.35,0,0,0-.06.43V109h-.93Z"/><path d="M171.75,109l-.07-.65h0a1.87,1.87,0,0,1-1.56.77,1.46,1.46,0,0,1-1.57-1.47c0-1.24,1.1-1.92,3.08-1.91v-.11a1.05,1.05,0,0,0-1.16-1.18,2.59,2.59,0,0,0-1.34.38l-.21-.62a3.22,3.22,0,0,1,1.68-.45c1.57,0,1.95,1.07,1.95,2.1v1.91a6.57,6.57,0,0,0,.09,1.23Zm-.14-2.61c-1,0-2.17.15-2.17,1.15a.83.83,0,0,0,.88.89,1.27,1.27,0,0,0,1.24-.86,1,1,0,0,0,.05-.3Z"/><path d="M177.67,108.81a3.35,3.35,0,0,1-1.47.3,2.43,2.43,0,0,1-2.55-2.62,2.6,2.6,0,0,1,2.75-2.72,3.22,3.22,0,0,1,1.29.26l-.21.72a2.23,2.23,0,0,0-1.08-.24,1.94,1.94,0,0,0,0,3.86,2.55,2.55,0,0,0,1.14-.26Z"/><path d="M178.76,101.48h.93v3.2h0a1.84,1.84,0,0,1,.67-.66,1.93,1.93,0,0,1,1-.26c.69,0,1.79.42,1.79,2.19v3h-.93v-2.94c0-.83-.31-1.53-1.18-1.53a1.34,1.34,0,0,0-1.25.93,1,1,0,0,0-.07.45V109h-.93Z"/><path d="M185.68,102.44a.58.58,0,0,1-1.16,0,.58.58,0,0,1,.58-.59A.56.56,0,0,1,185.68,102.44Zm-1,6.56v-5.12h.93V109Z"/><path d="M187.64,106.61a1.64,1.64,0,0,0,1.75,1.78,3.33,3.33,0,0,0,1.42-.27l.16.67a4.11,4.11,0,0,1-1.7.32,2.38,2.38,0,0,1-2.52-2.59,2.49,2.49,0,0,1,2.4-2.76,2.17,2.17,0,0,1,2.12,2.41,3.94,3.94,0,0,1,0,.44Zm2.73-.67a1.33,1.33,0,0,0-1.29-1.51,1.53,1.53,0,0,0-1.43,1.51Z"/><path d="M192.78,103.88l1,2.88a11.45,11.45,0,0,1,.41,1.31h0c.12-.42.27-.85.44-1.31l1-2.88h1l-2,5.12h-.88l-2-5.12Z"/><path d="M198.55,102.44a.58.58,0,0,1-1.15,0,.57.57,0,0,1,.58-.59A.56.56,0,0,1,198.55,102.44Zm-1,6.56v-5.12h.93V109Z"/><path d="M200,105.26c0-.53,0-1,0-1.38h.83l.05.84h0a1.91,1.91,0,0,1,1.7-1c.71,0,1.81.42,1.81,2.18V109h-.93v-3c0-.83-.31-1.52-1.19-1.52a1.33,1.33,0,0,0-1.25,1,1.35,1.35,0,0,0-.06.43V109H200Z"/><path d="M210.29,103.88c0,.37,0,.78,0,1.4v3a2.94,2.94,0,0,1-.74,2.34,2.67,2.67,0,0,1-1.86.61,3.25,3.25,0,0,1-1.7-.42l.23-.71a2.91,2.91,0,0,0,1.5.4c1,0,1.66-.49,1.66-1.79v-.57h0a1.81,1.81,0,0,1-1.63.86,2.29,2.29,0,0,1-2.18-2.5,2.46,2.46,0,0,1,2.31-2.72,1.69,1.69,0,0,1,1.6.89h0l0-.77Zm-1,2a1.45,1.45,0,0,0,0-.43,1.33,1.33,0,0,0-1.3-1c-.89,0-1.53.75-1.53,1.94,0,1,.51,1.84,1.52,1.84a1.36,1.36,0,0,0,1.29-1,1.73,1.73,0,0,0,.07-.5Z"/><path d="M214.41,103.88l.68,2.6c.14.57.28,1.1.38,1.63h0c.11-.52.28-1.07.45-1.62l.84-2.61h.78l.8,2.56c.19.61.34,1.15.45,1.67h0a16.44,16.44,0,0,1,.4-1.66l.73-2.57h.92L219.25,109h-.85l-.78-2.45c-.18-.57-.33-1.08-.46-1.68h0a16.16,16.16,0,0,1-.47,1.7l-.82,2.43H215l-1.55-5.12Z"/><path d="M226.36,106.4a2.5,2.5,0,0,1-2.55,2.72,2.44,2.44,0,0,1-2.46-2.64,2.5,2.5,0,0,1,2.55-2.72A2.42,2.42,0,0,1,226.36,106.4Zm-4.06,0c0,1.12.64,2,1.55,2s1.56-.84,1.56-2c0-.87-.43-2-1.53-2S222.3,105.47,222.3,106.45Z"/><path d="M227.54,105.47c0-.6,0-1.12,0-1.59h.81l0,1h0a1.53,1.53,0,0,1,1.42-1.12,1,1,0,0,1,.26,0v.88a1.45,1.45,0,0,0-.32,0,1.32,1.32,0,0,0-1.25,1.19,2.87,2.87,0,0,0,0,.44V109h-.92Z"/><path d="M232,106.23h0c.12-.18.3-.41.45-.59l1.51-1.76h1.12l-2,2.1,2.25,3h-1.13l-1.77-2.46-.47.53V109h-.92v-7.52H232Z"/><path d="M242.89,106.4a2.5,2.5,0,0,1-2.55,2.72,2.44,2.44,0,0,1-2.45-2.64,2.5,2.5,0,0,1,2.54-2.72A2.42,2.42,0,0,1,242.89,106.4Zm-4.06,0c0,1.12.64,2,1.55,2s1.56-.84,1.56-2c0-.87-.43-2-1.53-2S238.83,105.47,238.83,106.45Z"/><path d="M244,109c0-.35,0-.87,0-1.32v-6.2H245v3.22h0a1.91,1.91,0,0,1,1.75-.94c1.27,0,2.17,1.06,2.16,2.61,0,1.84-1.15,2.75-2.3,2.75a1.82,1.82,0,0,1-1.71-1h0l0,.85Zm1-2a2,2,0,0,0,0,.34,1.46,1.46,0,0,0,1.4,1.09c1,0,1.56-.8,1.56-2s-.53-1.91-1.53-1.91a1.48,1.48,0,0,0-1.41,1.14,1.45,1.45,0,0,0-.06.39Z"/><path d="M248.85,110.48a1.45,1.45,0,0,0,1-.39c.26-.29.35-.7.35-1.93v-4.28h.93v4.64a2.78,2.78,0,0,1-.61,2.11,2.37,2.37,0,0,1-1.59.58Zm2.4-8a.55.55,0,0,1-.58.57.56.56,0,0,1-.57-.57.57.57,0,0,1,.59-.59A.55.55,0,0,1,251.25,102.44Z"/><path d="M253.19,106.61a1.64,1.64,0,0,0,1.76,1.78,3.36,3.36,0,0,0,1.42-.27l.15.67a4.08,4.08,0,0,1-1.7.32,2.38,2.38,0,0,1-2.52-2.59,2.49,2.49,0,0,1,2.4-2.76,2.17,2.17,0,0,1,2.12,2.41,3.94,3.94,0,0,1,0,.44Zm2.73-.67a1.32,1.32,0,0,0-1.29-1.51,1.54,1.54,0,0,0-1.43,1.51Z"/><path d="M261.63,108.81a3.42,3.42,0,0,1-1.47.3,2.44,2.44,0,0,1-2.56-2.62,2.6,2.6,0,0,1,2.76-2.72,3.22,3.22,0,0,1,1.29.26l-.21.72a2.23,2.23,0,0,0-1.08-.24,1.94,1.94,0,0,0,0,3.86,2.55,2.55,0,0,0,1.14-.26Z"/><path d="M264,102.4v1.48h1.33v.7H264v2.77c0,.63.18,1,.7,1a2.23,2.23,0,0,0,.54-.06l0,.7a2.35,2.35,0,0,1-.83.13,1.27,1.27,0,0,1-1-.4,1.86,1.86,0,0,1-.36-1.33v-2.8h-.8v-.7h.8v-1.23Z"/><path d="M267.4,102.44a.58.58,0,0,1-1.15,0,.57.57,0,0,1,.58-.59A.56.56,0,0,1,267.4,102.44Zm-1,6.56v-5.12h.93V109Z"/><path d="M269.2,103.88l1,2.88c.17.46.3.89.41,1.31h0c.12-.42.27-.85.44-1.31l1-2.88h1L271,109h-.89l-1.94-5.12Z"/><path d="M274.35,106.61a1.64,1.64,0,0,0,1.76,1.78,3.28,3.28,0,0,0,1.41-.27l.16.67a4.08,4.08,0,0,1-1.7.32,2.38,2.38,0,0,1-2.52-2.59,2.49,2.49,0,0,1,2.4-2.76,2.17,2.17,0,0,1,2.12,2.41,3.94,3.94,0,0,1,0,.44Zm2.73-.67a1.32,1.32,0,0,0-1.29-1.51,1.54,1.54,0,0,0-1.43,1.51Z"/><path d="M279,108.05a2.42,2.42,0,0,0,1.23.37c.67,0,1-.34,1-.76s-.26-.69-1-1c-.92-.32-1.36-.83-1.36-1.45a1.58,1.58,0,0,1,1.77-1.5,2.53,2.53,0,0,1,1.26.32l-.23.67a2.06,2.06,0,0,0-1.05-.29c-.55,0-.86.32-.86.7s.31.61,1,.87c.89.33,1.34.78,1.34,1.54s-.7,1.54-1.91,1.54a3,3,0,0,1-1.45-.35Z"/><path d="M288.41,109l-.07-.65h0a1.87,1.87,0,0,1-1.56.77,1.46,1.46,0,0,1-1.57-1.47c0-1.24,1.1-1.92,3.08-1.91v-.11a1,1,0,0,0-1.16-1.18,2.59,2.59,0,0,0-1.34.38l-.21-.62a3.25,3.25,0,0,1,1.68-.45c1.57,0,1.95,1.07,1.95,2.1v1.91a6.57,6.57,0,0,0,.09,1.23Zm-.14-2.61c-1,0-2.17.15-2.17,1.15a.83.83,0,0,0,.88.89,1.27,1.27,0,0,0,1.24-.86,1,1,0,0,0,0-.3Z"/><path d="M290.68,105.26c0-.53,0-1-.05-1.38h.83l.05.84h0a1.88,1.88,0,0,1,1.69-1c.71,0,1.81.42,1.81,2.18V109h-.93v-3c0-.83-.31-1.52-1.19-1.52a1.33,1.33,0,0,0-1.25,1,1.35,1.35,0,0,0-.06.43V109h-.93Z"/><path d="M301,101.48v6.2c0,.45,0,1,0,1.32h-.83l0-.89h0a1.89,1.89,0,0,1-1.74,1,2.34,2.34,0,0,1-2.2-2.61,2.45,2.45,0,0,1,2.3-2.75,1.71,1.71,0,0,1,1.55.78h0v-3.06Zm-.93,4.48a1.72,1.72,0,0,0,0-.39,1.38,1.38,0,0,0-1.35-1.08c-1,0-1.53.85-1.53,2s.51,1.9,1.51,1.9a1.41,1.41,0,0,0,1.37-1.12,1.64,1.64,0,0,0,0-.4Z"/><path d="M121.62,121.52a3.44,3.44,0,0,1-1.48.3,2.44,2.44,0,0,1-2.55-2.62,2.6,2.6,0,0,1,2.76-2.72,3.26,3.26,0,0,1,1.29.26l-.21.72a2.3,2.3,0,0,0-1.08-.24,1.78,1.78,0,0,0-1.82,1.94,1.76,1.76,0,0,0,1.78,1.91,2.65,2.65,0,0,0,1.15-.25Z"/><path d="M127.28,119.1a2.51,2.51,0,0,1-2.55,2.73,2.44,2.44,0,0,1-2.46-2.64,2.5,2.5,0,0,1,2.54-2.72A2.42,2.42,0,0,1,127.28,119.1Zm-4.06.06c0,1.12.64,2,1.55,2s1.56-.84,1.56-2c0-.87-.44-2-1.54-2S123.22,118.18,123.22,119.16Z"/><path d="M128.46,118c0-.53,0-1,0-1.39h.81l0,.83h0a1.77,1.77,0,0,1,1.61-.94,1.53,1.53,0,0,1,1.46,1h0a2.2,2.2,0,0,1,.57-.66,1.7,1.7,0,0,1,1.13-.36c.68,0,1.69.44,1.69,2.22v3h-.92v-2.9c0-1-.36-1.58-1.11-1.58a1.2,1.2,0,0,0-1.1.85,1.53,1.53,0,0,0-.07.46v3.17h-.91v-3.07c0-.82-.36-1.41-1.07-1.41a1.28,1.28,0,0,0-1.16.93,1.39,1.39,0,0,0-.07.46v3.09h-.91Z"/><path d="M137.29,118.26c0-.66,0-1.19,0-1.68h.83l0,.88h0a2,2,0,0,1,1.82-1,2.32,2.32,0,0,1,2.17,2.6c0,1.84-1.12,2.76-2.33,2.76a1.8,1.8,0,0,1-1.58-.81h0v2.79h-.92Zm.92,1.36a2.11,2.11,0,0,0,0,.38,1.43,1.43,0,0,0,1.4,1.09c1,0,1.56-.8,1.56-2,0-1-.54-1.9-1.53-1.9a1.48,1.48,0,0,0-1.4,1.15,1.27,1.27,0,0,0-.07.38Z"/><path d="M143.84,119.32a1.63,1.63,0,0,0,1.75,1.77,3.35,3.35,0,0,0,1.42-.26l.16.67a4.11,4.11,0,0,1-1.7.32,2.38,2.38,0,0,1-2.52-2.59,2.49,2.49,0,0,1,2.4-2.76,2.17,2.17,0,0,1,2.12,2.41,3.94,3.94,0,0,1,0,.44Zm2.73-.67a1.34,1.34,0,0,0-1.29-1.52,1.54,1.54,0,0,0-1.43,1.52Z"/><path d="M149.74,115.11v1.47h1.34v.71h-1.34v2.77c0,.63.18,1,.7,1A2.11,2.11,0,0,0,151,121l.05.7a2.39,2.39,0,0,1-.83.13,1.3,1.3,0,0,1-1-.4,1.91,1.91,0,0,1-.36-1.33v-2.8H148v-.71h.79v-1.22Z"/><path d="M152.58,119.32a1.64,1.64,0,0,0,1.76,1.77,3.35,3.35,0,0,0,1.42-.26l.16.67a4.13,4.13,0,0,1-1.71.32,2.39,2.39,0,0,1-2.52-2.59,2.49,2.49,0,0,1,2.41-2.76,2.17,2.17,0,0,1,2.12,2.41,3.52,3.52,0,0,1,0,.44Zm2.73-.67a1.32,1.32,0,0,0-1.29-1.52,1.55,1.55,0,0,0-1.43,1.52Z"/><path d="M157.37,118c0-.53,0-1,0-1.39h.82l.06.85h0a1.86,1.86,0,0,1,1.69-1c.71,0,1.81.42,1.81,2.18v3.06h-.93v-3c0-.82-.31-1.51-1.19-1.51a1.33,1.33,0,0,0-1.25,1,1.46,1.46,0,0,0-.06.44v3.08h-.93Z"/><path d="M166.9,121.52a3.35,3.35,0,0,1-1.47.3,2.43,2.43,0,0,1-2.55-2.62,2.6,2.6,0,0,1,2.75-2.72,3.22,3.22,0,0,1,1.29.26l-.21.72a2.23,2.23,0,0,0-1.08-.24,1.77,1.77,0,0,0-1.81,1.94,1.75,1.75,0,0,0,1.78,1.91,2.57,2.57,0,0,0,1.14-.25Z"/><path d="M169,115.14a.58.58,0,1,1-1.15,0,.57.57,0,0,1,.58-.58A.55.55,0,0,1,169,115.14Zm-1,6.57v-5.13h.93v5.13Z"/><path d="M171,119.32a1.63,1.63,0,0,0,1.76,1.77,3.38,3.38,0,0,0,1.42-.26l.15.67a4.08,4.08,0,0,1-1.7.32,2.38,2.38,0,0,1-2.52-2.59,2.49,2.49,0,0,1,2.4-2.76,2.17,2.17,0,0,1,2.12,2.41,3.94,3.94,0,0,1,0,.44Zm2.73-.67a1.33,1.33,0,0,0-1.29-1.52,1.55,1.55,0,0,0-1.43,1.52Z"/><path d="M175.65,120.76a2.42,2.42,0,0,0,1.23.37c.67,0,1-.34,1-.77s-.26-.68-1-.94c-.92-.33-1.36-.83-1.36-1.45a1.58,1.58,0,0,1,1.77-1.5,2.65,2.65,0,0,1,1.26.31l-.23.68a2.06,2.06,0,0,0-1.05-.29c-.55,0-.86.31-.86.69s.31.62,1,.87c.89.34,1.34.79,1.34,1.55s-.7,1.54-1.91,1.54a2.92,2.92,0,0,1-1.44-.35Z"/><path d="M179.25,123a14.85,14.85,0,0,0,.63-2.53l1-.11a13,13,0,0,1-1,2.58Z"/><path d="M184.29,118.26c0-.66,0-1.19,0-1.68h.83l0,.88h0a2,2,0,0,1,1.82-1,2.32,2.32,0,0,1,2.17,2.6c0,1.84-1.12,2.76-2.33,2.76a1.8,1.8,0,0,1-1.58-.81h0v2.79h-.92Zm.92,1.36a2.11,2.11,0,0,0,0,.38,1.43,1.43,0,0,0,1.4,1.09c1,0,1.56-.8,1.56-2,0-1-.54-1.9-1.53-1.9a1.49,1.49,0,0,0-1.41,1.15,1.67,1.67,0,0,0-.06.38Z"/><path d="M190.32,118.18c0-.6,0-1.12,0-1.6h.82l0,1h0a1.55,1.55,0,0,1,1.42-1.12,1.12,1.12,0,0,1,.27,0v.88a1.51,1.51,0,0,0-.32,0,1.3,1.3,0,0,0-1.25,1.19,2.87,2.87,0,0,0,0,.44v2.73h-.92Z"/><path d="M198.31,119.1a2.51,2.51,0,0,1-2.55,2.73,2.44,2.44,0,0,1-2.46-2.64,2.5,2.5,0,0,1,2.54-2.72A2.42,2.42,0,0,1,198.31,119.1Zm-4.07.06c0,1.12.65,2,1.56,2s1.56-.84,1.56-2c0-.87-.44-2-1.54-2S194.24,118.18,194.24,119.16Z"/><path d="M199.77,116.58l1,2.88a11.58,11.58,0,0,1,.41,1.32h0c.12-.43.27-.85.44-1.32l1-2.88h1l-2,5.13h-.89l-1.95-5.13Z"/><path d="M205.54,115.14a.58.58,0,1,1-1.15,0,.57.57,0,0,1,.58-.58A.55.55,0,0,1,205.54,115.14Zm-1,6.57v-5.13h.93v5.13Z"/><path d="M211.41,114.19v6.2c0,.45,0,1,0,1.32h-.83l0-.89h0a1.89,1.89,0,0,1-1.74,1,2.34,2.34,0,0,1-2.2-2.61,2.45,2.45,0,0,1,2.3-2.75,1.71,1.71,0,0,1,1.55.78h0v-3.06Zm-.93,4.48a1.67,1.67,0,0,0,0-.39,1.38,1.38,0,0,0-1.35-1.08c-1,0-1.53.85-1.53,2s.51,1.89,1.51,1.89a1.4,1.4,0,0,0,1.37-1.11,1.7,1.7,0,0,0,0-.4Z"/><path d="M213.48,119.32a1.63,1.63,0,0,0,1.75,1.77,3.35,3.35,0,0,0,1.42-.26l.16.67a4.11,4.11,0,0,1-1.7.32,2.38,2.38,0,0,1-2.52-2.59,2.49,2.49,0,0,1,2.4-2.76,2.17,2.17,0,0,1,2.12,2.41,3.94,3.94,0,0,1,0,.44Zm2.73-.67a1.33,1.33,0,0,0-1.29-1.52,1.54,1.54,0,0,0-1.43,1.52Z"/><path d="M218.14,120.76a2.41,2.41,0,0,0,1.22.37c.68,0,1-.34,1-.77s-.26-.68-1-.94c-.92-.33-1.36-.83-1.36-1.45a1.58,1.58,0,0,1,1.77-1.5,2.68,2.68,0,0,1,1.26.31l-.23.68a2.06,2.06,0,0,0-1-.29c-.55,0-.86.31-.86.69s.31.62,1,.87c.88.34,1.34.79,1.34,1.55s-.7,1.54-1.92,1.54a3,3,0,0,1-1.44-.35Z"/><path d="M224.8,121.71v-4.42h-.72v-.71h.72v-.24a2.43,2.43,0,0,1,.59-1.79,1.79,1.79,0,0,1,1.25-.48,2.21,2.21,0,0,1,.79.15l-.12.72a1.49,1.49,0,0,0-.6-.11c-.79,0-1,.7-1,1.48v.27H227v.71h-1.24v4.42Z"/><path d="M228.18,119.32a1.63,1.63,0,0,0,1.75,1.77,3.35,3.35,0,0,0,1.42-.26l.16.67a4.11,4.11,0,0,1-1.7.32,2.38,2.38,0,0,1-2.52-2.59,2.49,2.49,0,0,1,2.4-2.76,2.17,2.17,0,0,1,2.12,2.41,3.94,3.94,0,0,1,0,.44Zm2.73-.67a1.34,1.34,0,0,0-1.29-1.52,1.54,1.54,0,0,0-1.43,1.52Z"/><path d="M233.48,119.32a1.64,1.64,0,0,0,1.76,1.77,3.35,3.35,0,0,0,1.42-.26l.16.67a4.13,4.13,0,0,1-1.71.32,2.38,2.38,0,0,1-2.52-2.59,2.49,2.49,0,0,1,2.41-2.76,2.16,2.16,0,0,1,2.11,2.41,3.94,3.94,0,0,1,0,.44Zm2.73-.67a1.33,1.33,0,0,0-1.29-1.52,1.55,1.55,0,0,0-1.43,1.52Z"/><path d="M242.69,114.19v6.2c0,.45,0,1,.05,1.32h-.84l0-.89h0a1.91,1.91,0,0,1-1.75,1,2.34,2.34,0,0,1-2.19-2.61,2.45,2.45,0,0,1,2.3-2.75,1.71,1.71,0,0,1,1.54.78h0v-3.06Zm-.93,4.48a1.67,1.67,0,0,0,0-.39,1.38,1.38,0,0,0-1.34-1.08c-1,0-1.54.85-1.54,2s.51,1.89,1.51,1.89a1.4,1.4,0,0,0,1.37-1.11,1.7,1.7,0,0,0,0-.4Z"/><path d="M244.2,121.71c0-.35,0-.87,0-1.32v-6.2h.92v3.22h0a1.91,1.91,0,0,1,1.75-.94c1.27,0,2.17,1.06,2.16,2.61,0,1.83-1.15,2.75-2.3,2.75a1.82,1.82,0,0,1-1.71-1h0l-.05.85Zm1-2a1.75,1.75,0,0,0,0,.33,1.44,1.44,0,0,0,1.4,1.09c1,0,1.56-.79,1.56-2,0-1-.53-1.9-1.53-1.9a1.48,1.48,0,0,0-1.41,1.14,1.44,1.44,0,0,0-.06.38Z"/><path d="M253.1,121.71l-.07-.65h0a1.91,1.91,0,0,1-1.57.77,1.47,1.47,0,0,1-1.57-1.48c0-1.24,1.11-1.91,3.09-1.9v-.11a1.06,1.06,0,0,0-1.17-1.18,2.47,2.47,0,0,0-1.33.38l-.22-.62a3.26,3.26,0,0,1,1.69-.45c1.57,0,2,1.07,2,2.09v1.92a7.62,7.62,0,0,0,.08,1.23Zm-.13-2.62c-1,0-2.17.16-2.17,1.16a.83.83,0,0,0,.88.89,1.27,1.27,0,0,0,1.23-.86.8.8,0,0,0,.06-.3Z"/><path d="M259,121.52a3.35,3.35,0,0,1-1.47.3A2.44,2.44,0,0,1,255,119.2a2.6,2.6,0,0,1,2.75-2.72,3.32,3.32,0,0,1,1.3.26l-.22.72a2.23,2.23,0,0,0-1.08-.24,1.78,1.78,0,0,0-1.81,1.94,1.76,1.76,0,0,0,1.78,1.91,2.65,2.65,0,0,0,1.15-.25Z"/><path d="M261,118.93h0c.12-.18.3-.4.45-.58l1.51-1.77h1.12l-2,2.11,2.25,3h-1.13l-1.77-2.46-.47.53v1.93h-.92v-7.52H261Z"/><path d="M264.63,123a14.85,14.85,0,0,0,.63-2.53l1-.11a12.38,12.38,0,0,1-1,2.58Z"/><path d="M272.51,121.71l-.08-.65h0a1.91,1.91,0,0,1-1.57.77,1.47,1.47,0,0,1-1.56-1.48c0-1.24,1.1-1.91,3.08-1.9v-.11a1.06,1.06,0,0,0-1.17-1.18,2.49,2.49,0,0,0-1.33.38l-.21-.62a3.19,3.19,0,0,1,1.68-.45c1.57,0,1.95,1.07,1.95,2.09v1.92a7.62,7.62,0,0,0,.08,1.23Zm-.14-2.62c-1,0-2.17.16-2.17,1.16a.83.83,0,0,0,.88.89,1.29,1.29,0,0,0,1.24-.86,1,1,0,0,0,.05-.3Z"/><path d="M274.77,118c0-.53,0-1,0-1.39h.83l.05.85h0a1.87,1.87,0,0,1,1.69-1c.71,0,1.81.42,1.81,2.18v3.06h-.93v-3c0-.82-.3-1.51-1.18-1.51a1.32,1.32,0,0,0-1.25,1,1.45,1.45,0,0,0-.07.44v3.08h-.93Z"/><path d="M285.08,114.19v6.2c0,.45,0,1,0,1.32h-.84l0-.89h0a1.91,1.91,0,0,1-1.75,1,2.34,2.34,0,0,1-2.19-2.61,2.45,2.45,0,0,1,2.3-2.75,1.71,1.71,0,0,1,1.54.78h0v-3.06Zm-.94,4.48a1.67,1.67,0,0,0,0-.39,1.36,1.36,0,0,0-1.34-1.08c-1,0-1.54.85-1.54,2s.51,1.89,1.52,1.89A1.4,1.4,0,0,0,284.1,120a1.7,1.7,0,0,0,0-.4Z"/><path d="M291.71,121.71l-.08-.65h0a1.91,1.91,0,0,1-1.57.77,1.47,1.47,0,0,1-1.56-1.48c0-1.24,1.1-1.91,3.08-1.9v-.11a1.06,1.06,0,0,0-1.17-1.18,2.49,2.49,0,0,0-1.33.38l-.21-.62a3.19,3.19,0,0,1,1.68-.45c1.57,0,2,1.07,2,2.09v1.92a7.62,7.62,0,0,0,.08,1.23Zm-.14-2.62c-1,0-2.17.16-2.17,1.16a.83.83,0,0,0,.88.89,1.29,1.29,0,0,0,1.24-.86,1,1,0,0,0,.05-.3Z"/><path d="M298.4,114.19v6.2c0,.45,0,1,0,1.32h-.84l0-.89h0a1.9,1.9,0,0,1-1.75,1,2.34,2.34,0,0,1-2.19-2.61,2.45,2.45,0,0,1,2.3-2.75,1.74,1.74,0,0,1,1.55.78h0v-3.06Zm-.93,4.48a1.67,1.67,0,0,0,0-.39,1.38,1.38,0,0,0-1.35-1.08c-1,0-1.54.85-1.54,2s.51,1.89,1.52,1.89a1.41,1.41,0,0,0,1.37-1.11,1.7,1.7,0,0,0,0-.4Z"/><path d="M298.7,123.19a1.5,1.5,0,0,0,1-.39c.26-.3.35-.7.35-1.93v-4.29H301v4.65a2.84,2.84,0,0,1-.61,2.11,2.37,2.37,0,0,1-1.59.58Zm2.4-8a.55.55,0,0,1-.58.58.56.56,0,0,1-.57-.58.57.57,0,0,1,.59-.58A.55.55,0,0,1,301.1,115.14Z"/><path d="M306.81,120.31c0,.53,0,1,0,1.4H306l0-.84h0a1.91,1.91,0,0,1-1.69,1c-.81,0-1.77-.45-1.77-2.25v-3h.93v2.84c0,1,.3,1.63,1.14,1.63a1.34,1.34,0,0,0,1.23-.84,1.46,1.46,0,0,0,.09-.48v-3.15h.93Z"/><path d="M308.23,120.76a2.41,2.41,0,0,0,1.22.37c.68,0,1-.34,1-.77s-.26-.68-.95-.94c-.92-.33-1.36-.83-1.36-1.45a1.58,1.58,0,0,1,1.77-1.5,2.68,2.68,0,0,1,1.26.31l-.23.68a2.06,2.06,0,0,0-1.05-.29c-.55,0-.86.31-.86.69s.31.62,1,.87c.88.34,1.34.79,1.34,1.55s-.7,1.54-1.92,1.54a3,3,0,0,1-1.44-.35Z"/><path d="M313.67,115.11v1.47H315v.71h-1.33v2.77c0,.63.18,1,.7,1a2.23,2.23,0,0,0,.54-.06l0,.7a2.39,2.39,0,0,1-.83.13,1.27,1.27,0,0,1-1-.4,1.86,1.86,0,0,1-.36-1.33v-2.8H312v-.71h.8v-1.22Z"/><path d="M315.92,120.76a2.48,2.48,0,0,0,1.23.37c.68,0,1-.34,1-.77s-.27-.68-.95-.94c-.93-.33-1.36-.83-1.36-1.45a1.58,1.58,0,0,1,1.77-1.5,2.68,2.68,0,0,1,1.26.31l-.24.68a2.05,2.05,0,0,0-1-.29c-.55,0-.86.31-.86.69s.31.62,1,.87c.89.34,1.35.79,1.35,1.55s-.7,1.54-1.92,1.54a3,3,0,0,1-1.44-.35Z"/><path d="M118,131c0-.66,0-1.19,0-1.68h.84l0,.88h0a2,2,0,0,1,1.82-1,2.31,2.31,0,0,1,2.17,2.6c0,1.84-1.12,2.75-2.33,2.75a1.78,1.78,0,0,1-1.57-.8h0v2.78H118Zm.92,1.36a2.06,2.06,0,0,0,.05.38,1.43,1.43,0,0,0,1.39,1.09c1,0,1.56-.8,1.56-2,0-1-.54-1.9-1.52-1.9a1.48,1.48,0,0,0-1.41,1.15,1.69,1.69,0,0,0-.07.38Z"/><path d="M124.51,132a1.64,1.64,0,0,0,1.76,1.78,3.33,3.33,0,0,0,1.41-.26l.16.67a4.32,4.32,0,0,1-1.7.31,2.37,2.37,0,0,1-2.52-2.58,2.48,2.48,0,0,1,2.4-2.76,2.17,2.17,0,0,1,2.12,2.41,3.55,3.55,0,0,1,0,.43Zm2.73-.66a1.33,1.33,0,0,0-1.29-1.52,1.55,1.55,0,0,0-1.43,1.52Z"/><path d="M129.29,130.89c0-.6,0-1.12,0-1.6h.82l0,1h0a1.54,1.54,0,0,1,1.42-1.12,1.12,1.12,0,0,1,.27,0v.88a1.55,1.55,0,0,0-.32,0,1.3,1.3,0,0,0-1.25,1.2,2.87,2.87,0,0,0,0,.44v2.73h-.93Z"/><path d="M133.17,134.42V130h-.72v-.71h.72v-.24a2.43,2.43,0,0,1,.59-1.79,1.79,1.79,0,0,1,1.25-.48,2.27,2.27,0,0,1,.8.15l-.13.72a1.45,1.45,0,0,0-.59-.12c-.8,0-1,.7-1,1.49v.27h1.24V130h-1.24v4.42Z"/><path d="M140.67,131.81a2.5,2.5,0,0,1-2.55,2.72,2.43,2.43,0,0,1-2.46-2.63,2.5,2.5,0,0,1,2.54-2.72A2.43,2.43,0,0,1,140.67,131.81Zm-4.07.06c0,1.12.65,2,1.56,2s1.55-.84,1.55-2c0-.86-.43-2-1.53-2S136.6,130.89,136.6,131.87Z"/><path d="M141.84,130.89c0-.6,0-1.12,0-1.6h.82l0,1h0a1.54,1.54,0,0,1,1.42-1.12,1,1,0,0,1,.26,0v.88a1.37,1.37,0,0,0-.31,0,1.3,1.3,0,0,0-1.25,1.2,2.81,2.81,0,0,0-.05.44v2.73h-.92Z"/><path d="M145.35,130.68c0-.53,0-1,0-1.39h.81l0,.83h0a1.75,1.75,0,0,1,1.61-.94,1.53,1.53,0,0,1,1.45,1h0a2.2,2.2,0,0,1,.57-.66,1.72,1.72,0,0,1,1.13-.36c.68,0,1.69.44,1.69,2.22v3h-.91v-2.9c0-1-.36-1.58-1.12-1.58a1.2,1.2,0,0,0-1.1.85,1.53,1.53,0,0,0-.07.46v3.17h-.91v-3.07c0-.82-.36-1.41-1.07-1.41a1.28,1.28,0,0,0-1.16.93,1.39,1.39,0,0,0-.07.46v3.09h-.91Z"/><path d="M157,134.42l-.07-.65h0a1.89,1.89,0,0,1-1.56.76,1.46,1.46,0,0,1-1.57-1.47c0-1.24,1.1-1.91,3.08-1.9v-.11a1.06,1.06,0,0,0-1.16-1.19,2.51,2.51,0,0,0-1.34.39l-.21-.62a3.22,3.22,0,0,1,1.68-.45c1.57,0,1.95,1.07,1.95,2.09v1.92a6.63,6.63,0,0,0,.09,1.23Zm-.14-2.62c-1,0-2.17.16-2.17,1.16a.83.83,0,0,0,.88.89,1.28,1.28,0,0,0,1.24-.86,1,1,0,0,0,0-.3Z"/><path d="M159.29,130.68c0-.53,0-1,0-1.39h.83l.05.85h0a1.89,1.89,0,0,1,1.7-1c.71,0,1.81.42,1.81,2.18v3.06h-.93v-3c0-.82-.31-1.51-1.19-1.51a1.33,1.33,0,0,0-1.25,1,1.46,1.46,0,0,0-.06.44v3.08h-.93Z"/><path d="M168.82,134.23a3.63,3.63,0,0,1-1.48.29,2.43,2.43,0,0,1-2.55-2.61,2.6,2.6,0,0,1,2.76-2.72,3.09,3.09,0,0,1,1.29.26l-.21.72a2.18,2.18,0,0,0-1.08-.24,1.77,1.77,0,0,0-1.81,1.94,1.75,1.75,0,0,0,1.77,1.91,2.81,2.81,0,0,0,1.15-.25Z"/><path d="M170.36,132a1.64,1.64,0,0,0,1.76,1.78,3.35,3.35,0,0,0,1.42-.26l.16.67a4.34,4.34,0,0,1-1.71.31,2.38,2.38,0,0,1-2.52-2.58,2.48,2.48,0,0,1,2.41-2.76,2.17,2.17,0,0,1,2.12,2.41,3.14,3.14,0,0,1,0,.43Zm2.74-.66a1.33,1.33,0,0,0-1.3-1.52,1.55,1.55,0,0,0-1.43,1.52Z"/><path d="M180.23,134.42l-.07-.65h0a1.93,1.93,0,0,1-1.57.76,1.46,1.46,0,0,1-1.57-1.47c0-1.24,1.1-1.91,3.08-1.9v-.11a1.06,1.06,0,0,0-1.16-1.19,2.47,2.47,0,0,0-1.33.39l-.22-.62a3.26,3.26,0,0,1,1.69-.45c1.56,0,1.95,1.07,1.95,2.09v1.92a7.7,7.7,0,0,0,.08,1.23Zm-.13-2.62c-1,0-2.17.16-2.17,1.16a.82.82,0,0,0,.87.89A1.28,1.28,0,0,0,180,133a1.07,1.07,0,0,0,.06-.3Z"/><path d="M186.92,129.29c0,.37,0,.79,0,1.41v3a3,3,0,0,1-.73,2.34,2.73,2.73,0,0,1-1.86.61,3.38,3.38,0,0,1-1.71-.42l.24-.71a2.91,2.91,0,0,0,1.5.4c.95,0,1.65-.5,1.65-1.79v-.57h0a1.82,1.82,0,0,1-1.63.86,2.29,2.29,0,0,1-2.18-2.5,2.46,2.46,0,0,1,2.31-2.72,1.7,1.7,0,0,1,1.6.89h0l0-.78Zm-1,2a1.45,1.45,0,0,0,0-.43,1.34,1.34,0,0,0-1.3-1c-.89,0-1.53.75-1.53,1.93,0,1,.51,1.85,1.52,1.85a1.36,1.36,0,0,0,1.29-1,1.66,1.66,0,0,0,.07-.49Z"/><path d="M188.36,130.89c0-.6,0-1.12-.05-1.6h.82l0,1h0a1.55,1.55,0,0,1,1.42-1.12,1.12,1.12,0,0,1,.27,0v.88a1.47,1.47,0,0,0-.32,0,1.31,1.31,0,0,0-1.25,1.2,2.87,2.87,0,0,0,0,.44v2.73h-.92Z"/><path d="M192.23,132A1.64,1.64,0,0,0,194,133.8a3.35,3.35,0,0,0,1.42-.26l.16.67a4.34,4.34,0,0,1-1.71.31,2.37,2.37,0,0,1-2.52-2.58,2.48,2.48,0,0,1,2.41-2.76,2.16,2.16,0,0,1,2.11,2.41,3.55,3.55,0,0,1,0,.43Zm2.73-.66a1.33,1.33,0,0,0-1.29-1.52,1.55,1.55,0,0,0-1.43,1.52Z"/><path d="M197.54,132a1.64,1.64,0,0,0,1.76,1.78,3.33,3.33,0,0,0,1.41-.26l.16.67a4.28,4.28,0,0,1-1.7.31,2.37,2.37,0,0,1-2.52-2.58,2.48,2.48,0,0,1,2.4-2.76,2.17,2.17,0,0,1,2.12,2.41,3.55,3.55,0,0,1,0,.43Zm2.73-.66a1.33,1.33,0,0,0-1.29-1.52,1.55,1.55,0,0,0-1.43,1.52Z"/><path d="M202.32,130.68c0-.53,0-1,0-1.39h.82l0,.83h0a1.76,1.76,0,0,1,1.61-.94,1.51,1.51,0,0,1,1.45,1h0a2.2,2.2,0,0,1,.57-.66,1.73,1.73,0,0,1,1.14-.36c.67,0,1.68.44,1.68,2.22v3h-.91v-2.9c0-1-.36-1.58-1.11-1.58a1.2,1.2,0,0,0-1.1.85,1.26,1.26,0,0,0-.08.46v3.17h-.91v-3.07c0-.82-.36-1.41-1.07-1.41a1.27,1.27,0,0,0-1.15.93,1.39,1.39,0,0,0-.08.46v3.09h-.91Z"/><path d="M211.68,132a1.64,1.64,0,0,0,1.75,1.78,3.35,3.35,0,0,0,1.42-.26l.16.67a4.32,4.32,0,0,1-1.7.31,2.37,2.37,0,0,1-2.52-2.58,2.48,2.48,0,0,1,2.4-2.76,2.17,2.17,0,0,1,2.12,2.41,3.55,3.55,0,0,1,0,.43Zm2.73-.66a1.33,1.33,0,0,0-1.29-1.52,1.54,1.54,0,0,0-1.43,1.52Z"/><path d="M216.46,130.68c0-.53,0-1,0-1.39h.83l.05.85h0a1.87,1.87,0,0,1,1.69-1c.71,0,1.81.42,1.81,2.18v3.06h-.93v-3c0-.82-.3-1.51-1.18-1.51a1.32,1.32,0,0,0-1.25,1,1.45,1.45,0,0,0-.07.44v3.08h-.93Z"/><path d="M223.42,127.82v1.47h1.33V130h-1.33v2.77c0,.63.18,1,.7,1a2.23,2.23,0,0,0,.54-.06l0,.7a2.36,2.36,0,0,1-.82.12,1.27,1.27,0,0,1-1-.39,1.86,1.86,0,0,1-.36-1.33V130h-.79v-.71h.79v-1.23Z"/><path d="M229.09,127.85a.58.58,0,0,1-1.16,0,.57.57,0,0,1,.58-.58A.56.56,0,0,1,229.09,127.85Zm-1,6.57v-5.13H229v5.13Z"/><path d="M230.62,134.42V130h-.72v-.71h.72v-.24a2.43,2.43,0,0,1,.59-1.79,1.79,1.79,0,0,1,1.25-.48,2.27,2.27,0,0,1,.8.15l-.13.72a1.45,1.45,0,0,0-.59-.12c-.8,0-1,.7-1,1.49v.27h1.24V130h-1.24v4.42Z"/><path d="M235.86,130.89c0-.6,0-1.12,0-1.6h.82l0,1h0a1.54,1.54,0,0,1,1.42-1.12,1,1,0,0,1,.26,0v.88a1.37,1.37,0,0,0-.31,0,1.3,1.3,0,0,0-1.25,1.2,2.87,2.87,0,0,0,0,.44v2.73h-.93Z"/><path d="M239.74,132a1.64,1.64,0,0,0,1.76,1.78,3.35,3.35,0,0,0,1.42-.26l.16.67a4.34,4.34,0,0,1-1.71.31,2.37,2.37,0,0,1-2.52-2.58,2.48,2.48,0,0,1,2.41-2.76,2.16,2.16,0,0,1,2.11,2.41,3.55,3.55,0,0,1,0,.43Zm2.73-.66a1.33,1.33,0,0,0-1.29-1.52,1.55,1.55,0,0,0-1.43,1.52Z"/><path d="M248,133.62h0a1.83,1.83,0,0,1-1.67.91,2.33,2.33,0,0,1-2.17-2.59,2.45,2.45,0,0,1,2.32-2.76,1.67,1.67,0,0,1,1.57.89h0l0-.78H249c0,.44,0,.88,0,1.41v5.81H248Zm0-2.25a1.61,1.61,0,0,0,0-.39,1.36,1.36,0,0,0-1.34-1.06c-1,0-1.54.81-1.54,2s.49,1.9,1.51,1.9a1.39,1.39,0,0,0,1.34-1,1.69,1.69,0,0,0,.07-.45Z"/><path d="M254.78,133c0,.53,0,1,0,1.4H254l-.05-.84h0a1.92,1.92,0,0,1-1.69.95c-.81,0-1.77-.44-1.77-2.24v-3h.93v2.84c0,1,.3,1.63,1.14,1.63a1.34,1.34,0,0,0,1.23-.85,1.36,1.36,0,0,0,.09-.47v-3.15h.93Z"/><path d="M257.36,127.85a.58.58,0,0,1-1.15,0,.56.56,0,0,1,.58-.58A.55.55,0,0,1,257.36,127.85Zm-1,6.57v-5.13h.94v5.13Z"/><path d="M258.8,130.89c0-.6,0-1.12,0-1.6h.82l0,1h0a1.53,1.53,0,0,1,1.42-1.12,1,1,0,0,1,.26,0v.88a1.37,1.37,0,0,0-.31,0,1.3,1.3,0,0,0-1.25,1.2,2.81,2.81,0,0,0,0,.44v2.73h-.92Z"/><path d="M262.68,132a1.64,1.64,0,0,0,1.76,1.78,3.3,3.3,0,0,0,1.41-.26l.16.67a4.28,4.28,0,0,1-1.7.31,2.37,2.37,0,0,1-2.52-2.58,2.48,2.48,0,0,1,2.4-2.76,2.17,2.17,0,0,1,2.12,2.41,3.55,3.55,0,0,1,0,.43Zm2.73-.66a1.33,1.33,0,0,0-1.29-1.52,1.55,1.55,0,0,0-1.43,1.52Z"/><path d="M271.89,126.9v6.19c0,.46,0,1,0,1.33h-.83l-.05-.89h0a1.88,1.88,0,0,1-1.74,1,2.33,2.33,0,0,1-2.2-2.6,2.45,2.45,0,0,1,2.3-2.75,1.71,1.71,0,0,1,1.55.78h0V126.9Zm-.93,4.48a1.67,1.67,0,0,0,0-.39,1.37,1.37,0,0,0-1.35-1.08c-1,0-1.53.84-1.53,2s.51,1.89,1.51,1.89a1.4,1.4,0,0,0,1.37-1.11,1.7,1.7,0,0,0,0-.4Z"/><path d="M280.32,131.81a2.5,2.5,0,0,1-2.55,2.72,2.43,2.43,0,0,1-2.46-2.63,2.5,2.5,0,0,1,2.54-2.72A2.42,2.42,0,0,1,280.32,131.81Zm-4.07.06c0,1.12.65,2,1.56,2s1.56-.84,1.56-2c0-.86-.44-2-1.54-2S276.25,130.89,276.25,131.87Z"/><path d="M281.5,130.89c0-.6,0-1.12-.05-1.6h.82l0,1h0a1.55,1.55,0,0,1,1.42-1.12,1.12,1.12,0,0,1,.27,0v.88a1.47,1.47,0,0,0-.32,0,1.31,1.31,0,0,0-1.25,1.2,2.87,2.87,0,0,0,0,.44v2.73h-.92Z"/><path d="M287.21,131c0-.66,0-1.19,0-1.68H288l0,.88h0a2,2,0,0,1,1.82-1,2.31,2.31,0,0,1,2.17,2.6c0,1.84-1.12,2.75-2.33,2.75a1.78,1.78,0,0,1-1.57-.8h0v2.78h-.92Zm.92,1.36a2.11,2.11,0,0,0,0,.38,1.43,1.43,0,0,0,1.4,1.09c1,0,1.55-.8,1.55-2,0-1-.54-1.9-1.52-1.9a1.48,1.48,0,0,0-1.41,1.15,1.67,1.67,0,0,0-.06.38Z"/><path d="M293.75,132a1.64,1.64,0,0,0,1.76,1.78,3.38,3.38,0,0,0,1.42-.26l.16.67a4.34,4.34,0,0,1-1.71.31,2.37,2.37,0,0,1-2.52-2.58,2.48,2.48,0,0,1,2.4-2.76,2.17,2.17,0,0,1,2.12,2.41,3.55,3.55,0,0,1,0,.43Zm2.73-.66a1.33,1.33,0,0,0-1.29-1.52,1.55,1.55,0,0,0-1.43,1.52Z"/><path d="M298.54,130.89c0-.6,0-1.12-.05-1.6h.82l0,1h0a1.55,1.55,0,0,1,1.42-1.12,1.12,1.12,0,0,1,.27,0v.88a1.47,1.47,0,0,0-.32,0,1.31,1.31,0,0,0-1.25,1.2,2.87,2.87,0,0,0,0,.44v2.73h-.92Z"/><path d="M302.41,134.42V130h-.72v-.71h.72v-.24a2.39,2.39,0,0,1,.6-1.79,1.76,1.76,0,0,1,1.25-.48,2.26,2.26,0,0,1,.79.15l-.13.72a1.45,1.45,0,0,0-.59-.12c-.79,0-1,.7-1,1.49v.27h1.24V130h-1.24v4.42Z"/><path d="M309.91,131.81a2.5,2.5,0,0,1-2.55,2.72,2.43,2.43,0,0,1-2.46-2.63,2.5,2.5,0,0,1,2.54-2.72A2.42,2.42,0,0,1,309.91,131.81Zm-4.07.06c0,1.12.65,2,1.56,2s1.56-.84,1.56-2c0-.86-.44-2-1.54-2S305.84,130.89,305.84,131.87Z"/><path d="M311.09,130.89c0-.6,0-1.12,0-1.6h.82l0,1h0a1.55,1.55,0,0,1,1.42-1.12,1.12,1.12,0,0,1,.27,0v.88a1.47,1.47,0,0,0-.32,0,1.31,1.31,0,0,0-1.25,1.2,2.87,2.87,0,0,0,0,.44v2.73h-.92Z"/><path d="M314.59,130.68c0-.53,0-1,0-1.39h.81l.05.83h0a1.75,1.75,0,0,1,1.61-.94,1.51,1.51,0,0,1,1.45,1h0a2.2,2.2,0,0,1,.57-.66,1.72,1.72,0,0,1,1.13-.36c.68,0,1.69.44,1.69,2.22v3H321v-2.9c0-1-.36-1.58-1.11-1.58a1.19,1.19,0,0,0-1.1.85,1.26,1.26,0,0,0-.08.46v3.17h-.91v-3.07c0-.82-.36-1.41-1.07-1.41a1.26,1.26,0,0,0-1.15.93,1.17,1.17,0,0,0-.08.46v3.09h-.91Z"/><path d="M326.26,134.42l-.07-.65h0a1.93,1.93,0,0,1-1.57.76,1.46,1.46,0,0,1-1.57-1.47c0-1.24,1.1-1.91,3.08-1.9v-.11a1.06,1.06,0,0,0-1.16-1.19,2.51,2.51,0,0,0-1.34.39l-.21-.62a3.26,3.26,0,0,1,1.69-.45c1.56,0,1.94,1.07,1.94,2.09v1.92a7.63,7.63,0,0,0,.09,1.23Zm-.14-2.62c-1,0-2.17.16-2.17,1.16a.83.83,0,0,0,.88.89,1.28,1.28,0,0,0,1.24-.86,1,1,0,0,0,.05-.3Z"/><path d="M328.53,130.68c0-.53,0-1,0-1.39h.82l.05.85h0a1.86,1.86,0,0,1,1.69-1c.71,0,1.81.42,1.81,2.18v3.06H332v-3c0-.82-.31-1.51-1.19-1.51a1.33,1.33,0,0,0-1.25,1,1.46,1.46,0,0,0-.06.44v3.08h-.93Z"/><path d="M338.06,134.23a3.54,3.54,0,0,1-1.47.29,2.43,2.43,0,0,1-2.55-2.61,2.6,2.6,0,0,1,2.75-2.72,3.06,3.06,0,0,1,1.29.26l-.21.72a2.12,2.12,0,0,0-1.08-.24,1.77,1.77,0,0,0-1.81,1.94,1.75,1.75,0,0,0,1.78,1.91,2.71,2.71,0,0,0,1.14-.25Z"/><path d="M339.61,132a1.64,1.64,0,0,0,1.75,1.78,3.35,3.35,0,0,0,1.42-.26l.16.67a4.32,4.32,0,0,1-1.7.31,2.37,2.37,0,0,1-2.52-2.58,2.48,2.48,0,0,1,2.4-2.76,2.17,2.17,0,0,1,2.12,2.41,3.55,3.55,0,0,1,0,.43Zm2.73-.66a1.33,1.33,0,0,0-1.29-1.52,1.54,1.54,0,0,0-1.43,1.52Z"/><path d="M119,140.56a.58.58,0,0,1-1.15,0,.56.56,0,0,1,.58-.58A.55.55,0,0,1,119,140.56Zm-1,6.57V142h.93v5.13Z"/><path d="M120.44,143.39c0-.53,0-1,0-1.39h.81l.05.83h0a1.76,1.76,0,0,1,1.61-1,1.52,1.52,0,0,1,1.45,1h0a2.12,2.12,0,0,1,.57-.67,1.78,1.78,0,0,1,1.13-.36c.68,0,1.69.45,1.69,2.23v3h-.91v-2.91c0-1-.36-1.57-1.11-1.57a1.22,1.22,0,0,0-1.11.84,1.66,1.66,0,0,0-.07.47v3.17h-.91v-3.08c0-.81-.36-1.4-1.07-1.4a1.26,1.26,0,0,0-1.15.93,1.12,1.12,0,0,0-.08.45v3.1h-.91Z"/><path d="M129.27,143.67c0-.65,0-1.18,0-1.67h.84l0,.88h0a2,2,0,0,1,1.82-1,2.32,2.32,0,0,1,2.17,2.61c0,1.84-1.12,2.75-2.33,2.75a1.78,1.78,0,0,1-1.57-.8h0v2.78h-.92Zm.92,1.37a2.18,2.18,0,0,0,.05.38,1.43,1.43,0,0,0,1.39,1.09c1,0,1.56-.8,1.56-2,0-1-.54-1.91-1.52-1.91a1.49,1.49,0,0,0-1.41,1.16,1.59,1.59,0,0,0-.07.38Z"/><path d="M135.3,143.6c0-.6,0-1.12,0-1.6h.81l0,1h.05a1.54,1.54,0,0,1,1.42-1.13.71.71,0,0,1,.26,0v.87a1.51,1.51,0,0,0-.32,0,1.32,1.32,0,0,0-1.25,1.2,2.86,2.86,0,0,0,0,.43v2.74h-.92Z"/><path d="M143.29,144.52a2.5,2.5,0,0,1-2.55,2.72,2.43,2.43,0,0,1-2.45-2.63,2.51,2.51,0,0,1,2.54-2.73A2.42,2.42,0,0,1,143.29,144.52Zm-4.06,0c0,1.13.64,2,1.55,2s1.56-.83,1.56-2c0-.87-.43-2-1.53-2S139.23,143.6,139.23,144.57Z"/><path d="M144.76,142l1,2.88c.17.47.31.89.42,1.31h0c.11-.42.26-.84.43-1.31l1-2.88h1l-2,5.13h-.89l-2-5.13Z"/><path d="M149.9,144.73a1.64,1.64,0,0,0,1.76,1.78,3.35,3.35,0,0,0,1.42-.26l.16.66a4.13,4.13,0,0,1-1.71.32,2.38,2.38,0,0,1-2.52-2.58,2.49,2.49,0,0,1,2.41-2.77,2.18,2.18,0,0,1,2.12,2.42,3.14,3.14,0,0,1,0,.43Zm2.73-.66a1.32,1.32,0,0,0-1.29-1.52,1.55,1.55,0,0,0-1.43,1.52Z"/><path d="M154.69,143.39c0-.53,0-1,0-1.39h.81l0,.83h0a1.76,1.76,0,0,1,1.61-1,1.53,1.53,0,0,1,1.45,1h0a2.12,2.12,0,0,1,.57-.67,1.78,1.78,0,0,1,1.13-.36c.68,0,1.69.45,1.69,2.23v3h-.91v-2.91c0-1-.36-1.57-1.12-1.57a1.22,1.22,0,0,0-1.1.84,1.66,1.66,0,0,0-.07.47v3.17h-.91v-3.08c0-.81-.36-1.4-1.07-1.4a1.28,1.28,0,0,0-1.16.93,1.33,1.33,0,0,0-.07.45v3.1h-.91Z"/><path d="M164,144.73a1.64,1.64,0,0,0,1.76,1.78,3.35,3.35,0,0,0,1.42-.26l.16.66a4.13,4.13,0,0,1-1.71.32,2.38,2.38,0,0,1-2.52-2.58,2.49,2.49,0,0,1,2.41-2.77,2.17,2.17,0,0,1,2.11,2.42,3.55,3.55,0,0,1,0,.43Zm2.73-.66a1.33,1.33,0,0,0-1.29-1.52,1.55,1.55,0,0,0-1.43,1.52Z"/><path d="M168.83,143.39c0-.53,0-1,0-1.39h.82l0,.85h0a1.87,1.87,0,0,1,1.69-1c.71,0,1.81.43,1.81,2.19v3.06h-.93v-3c0-.82-.31-1.51-1.19-1.51a1.33,1.33,0,0,0-1.25,1,1.44,1.44,0,0,0-.06.43v3.09h-.93Z"/><path d="M175.79,140.53V142h1.33v.71h-1.33v2.76c0,.64.18,1,.69,1a2.11,2.11,0,0,0,.54-.06l0,.69a2.17,2.17,0,0,1-.83.13,1.33,1.33,0,0,1-1-.39,1.92,1.92,0,0,1-.36-1.33v-2.8h-.79V142h.79v-1.23Z"/><path d="M180.41,143.67c0-.65,0-1.18,0-1.67h.84l0,.88h0a2,2,0,0,1,1.82-1,2.32,2.32,0,0,1,2.17,2.61c0,1.84-1.12,2.75-2.33,2.75a1.78,1.78,0,0,1-1.57-.8h0v2.78h-.92Zm.92,1.37a2.18,2.18,0,0,0,0,.38,1.43,1.43,0,0,0,1.39,1.09c1,0,1.56-.8,1.56-2,0-1-.54-1.91-1.52-1.91a1.49,1.49,0,0,0-1.41,1.16,1.59,1.59,0,0,0-.07.38Z"/><path d="M186.44,139.61h.93v7.52h-.93Z"/><path d="M191.78,147.13l-.08-.65h0a1.93,1.93,0,0,1-1.57.76,1.46,1.46,0,0,1-1.56-1.47c0-1.24,1.1-1.92,3.08-1.91v-.1a1.06,1.06,0,0,0-1.17-1.19,2.58,2.58,0,0,0-1.33.38l-.21-.61a3.11,3.11,0,0,1,1.68-.46c1.57,0,1.95,1.07,1.95,2.1v1.92a7.7,7.7,0,0,0,.08,1.23Zm-.14-2.62c-1,0-2.17.16-2.17,1.15a.82.82,0,0,0,.88.89,1.28,1.28,0,0,0,1.24-.85,1.11,1.11,0,0,0,0-.3Z"/><path d="M194,143.39c0-.53,0-1,0-1.39h.83l0,.85h0a1.88,1.88,0,0,1,1.69-1c.71,0,1.82.43,1.82,2.19v3.06h-.94v-3c0-.82-.3-1.51-1.18-1.51a1.32,1.32,0,0,0-1.25,1,1.43,1.43,0,0,0-.07.43v3.09H194Z"/><path d="M204.19,139.78a6.91,6.91,0,0,0-1.34,4.33,7.17,7.17,0,0,0,1.34,4.3h-.73a6.84,6.84,0,0,1-1.39-4.3,7,7,0,0,1,1.39-4.33Z"/><path d="M208,147.13l-.07-.65h0a1.89,1.89,0,0,1-1.56.76,1.46,1.46,0,0,1-1.57-1.47c0-1.24,1.1-1.92,3.08-1.91v-.1a1.05,1.05,0,0,0-1.16-1.19,2.59,2.59,0,0,0-1.34.38l-.21-.61a3.13,3.13,0,0,1,1.68-.46c1.57,0,2,1.07,2,2.1v1.92a6.63,6.63,0,0,0,.09,1.23Zm-.14-2.62c-1,0-2.17.16-2.17,1.15a.82.82,0,0,0,.88.89,1.27,1.27,0,0,0,1.24-.85,1.11,1.11,0,0,0,.05-.3Z"/><path d="M213.93,146.94a3.54,3.54,0,0,1-1.47.29,2.43,2.43,0,0,1-2.55-2.61,2.61,2.61,0,0,1,2.75-2.73,3,3,0,0,1,1.29.27l-.21.72a2.12,2.12,0,0,0-1.08-.24,1.93,1.93,0,0,0,0,3.85,2.71,2.71,0,0,0,1.14-.25Z"/><path d="M216.28,140.53V142h1.34v.71h-1.34v2.76c0,.64.18,1,.7,1a2.23,2.23,0,0,0,.54-.06l0,.69a2.12,2.12,0,0,1-.82.13,1.3,1.3,0,0,1-1-.39,1.92,1.92,0,0,1-.36-1.33v-2.8h-.79V142h.79v-1.23Z"/><path d="M219.7,140.56a.58.58,0,0,1-1.15,0,.56.56,0,0,1,.58-.58A.55.55,0,0,1,219.7,140.56Zm-1,6.57V142h.94v5.13Z"/><path d="M225.78,144.52a2.5,2.5,0,0,1-2.55,2.72,2.43,2.43,0,0,1-2.46-2.63,2.51,2.51,0,0,1,2.54-2.73A2.43,2.43,0,0,1,225.78,144.52Zm-4.07,0c0,1.13.65,2,1.56,2s1.56-.83,1.56-2c0-.87-.44-2-1.54-2S221.71,143.6,221.71,144.57Z"/><path d="M227,143.39c0-.53,0-1-.05-1.39h.83l0,.85h0a1.9,1.9,0,0,1,1.7-1c.71,0,1.81.43,1.81,2.19v3.06h-.93v-3c0-.82-.31-1.51-1.19-1.51a1.33,1.33,0,0,0-1.25,1,1.44,1.44,0,0,0-.06.43v3.09H227Z"/><path d="M235.08,143.67c0-.65,0-1.18,0-1.67h.83l0,.88h0a2,2,0,0,1,1.82-1,2.32,2.32,0,0,1,2.17,2.61c0,1.84-1.12,2.75-2.33,2.75a1.79,1.79,0,0,1-1.58-.8h0v2.78h-.92ZM236,145a2.22,2.22,0,0,0,0,.38,1.43,1.43,0,0,0,1.4,1.09c1,0,1.56-.8,1.56-2,0-1-.54-1.91-1.53-1.91a1.5,1.5,0,0,0-1.41,1.16,1.59,1.59,0,0,0-.06.38Z"/><path d="M241.11,139.61H242v7.52h-.93Z"/><path d="M246.44,147.13l-.07-.65h0a1.93,1.93,0,0,1-1.57.76,1.46,1.46,0,0,1-1.57-1.47c0-1.24,1.1-1.92,3.08-1.91v-.1a1.05,1.05,0,0,0-1.16-1.19,2.59,2.59,0,0,0-1.34.38l-.21-.61a3.17,3.17,0,0,1,1.69-.46c1.56,0,1.94,1.07,1.94,2.1v1.92a7.63,7.63,0,0,0,.09,1.23Zm-.14-2.62c-1,0-2.17.16-2.17,1.15a.83.83,0,0,0,.88.89,1.27,1.27,0,0,0,1.24-.85,1.11,1.11,0,0,0,.05-.3Z"/><path d="M248.71,143.39c0-.53,0-1,0-1.39h.82l.06.85h0a1.87,1.87,0,0,1,1.69-1c.71,0,1.81.43,1.81,2.19v3.06h-.93v-3c0-.82-.31-1.51-1.19-1.51a1.33,1.33,0,0,0-1.25,1,1.44,1.44,0,0,0-.06.43v3.09h-.93Z"/><path d="M254,148.41a7.19,7.19,0,0,0,1.33-4.33,7,7,0,0,0-1.33-4.3h.72a6.79,6.79,0,0,1,1.38,4.31,6.93,6.93,0,0,1-1.38,4.32Z"/><path d="M260.88,140.56a.55.55,0,0,1-.6.57.56.56,0,0,1-.56-.57.57.57,0,0,1,.59-.58A.55.55,0,0,1,260.88,140.56Zm-1,6.57V142h.93v5.13Z"/><path d="M262.41,147.13v-4.42h-.72V142h.72v-.24A2.39,2.39,0,0,1,263,140a1.77,1.77,0,0,1,1.25-.48,2.26,2.26,0,0,1,.79.15l-.13.72a1.41,1.41,0,0,0-.59-.12c-.79,0-1,.7-1,1.49V142h1.23v.71h-1.23v4.42Z"/><path d="M272.29,144.52a2.5,2.5,0,0,1-2.55,2.72,2.42,2.42,0,0,1-2.45-2.63,2.51,2.51,0,0,1,2.54-2.73A2.42,2.42,0,0,1,272.29,144.52Zm-4.06,0c0,1.13.64,2,1.55,2s1.56-.83,1.56-2c0-.87-.43-2-1.53-2S268.23,143.6,268.23,144.57Z"/><path d="M273.47,143.39c0-.53,0-1,0-1.39h.82l.06.85h0a1.88,1.88,0,0,1,1.69-1c.71,0,1.81.43,1.81,2.19v3.06h-.93v-3c0-.82-.31-1.51-1.18-1.51a1.32,1.32,0,0,0-1.25,1,1.18,1.18,0,0,0-.07.43v3.09h-.93Z"/><path d="M279.87,144.73a1.64,1.64,0,0,0,1.76,1.78,3.33,3.33,0,0,0,1.41-.26l.16.66a4.08,4.08,0,0,1-1.7.32,2.38,2.38,0,0,1-2.52-2.58,2.49,2.49,0,0,1,2.4-2.77,2.18,2.18,0,0,1,2.12,2.42,3.55,3.55,0,0,1,0,.43Zm2.73-.66a1.33,1.33,0,0,0-1.29-1.52,1.55,1.55,0,0,0-1.43,1.52Z"/><path d="M287.42,144.73a1.64,1.64,0,0,0,1.76,1.78,3.3,3.3,0,0,0,1.41-.26l.16.66a4.08,4.08,0,0,1-1.7.32,2.38,2.38,0,0,1-2.52-2.58,2.49,2.49,0,0,1,2.4-2.77,2.17,2.17,0,0,1,2.12,2.42,3.55,3.55,0,0,1,0,.43Zm2.73-.66a1.33,1.33,0,0,0-1.29-1.52,1.55,1.55,0,0,0-1.43,1.52Z"/><path d="M292.61,142l.73,1.1c.19.29.35.55.52.84h0c.17-.31.34-.57.51-.85l.72-1.09h1l-1.74,2.48,1.8,2.65h-1.06l-.75-1.16c-.21-.3-.37-.58-.56-.89h0c-.17.31-.35.58-.54.89l-.74,1.16h-1l1.82-2.62L291.57,142Z"/><path d="M298.11,140.56a.54.54,0,0,1-.59.57.55.55,0,0,1-.56-.57.56.56,0,0,1,.58-.58A.55.55,0,0,1,298.11,140.56Zm-1,6.57V142H298v5.13Z"/><path d="M299.43,146.17a2.42,2.42,0,0,0,1.23.37c.67,0,1-.34,1-.76s-.26-.69-.95-.94c-.92-.33-1.36-.84-1.36-1.45a1.58,1.58,0,0,1,1.77-1.51,2.53,2.53,0,0,1,1.26.32l-.23.68a2,2,0,0,0-1.05-.3c-.55,0-.86.32-.86.7s.31.62,1,.87c.89.34,1.34.78,1.34,1.55s-.7,1.53-1.91,1.53a2.92,2.92,0,0,1-1.44-.35Z"/><path d="M304.87,140.53V142h1.34v.71h-1.34v2.76c0,.64.18,1,.7,1a2.23,2.23,0,0,0,.54-.06l0,.69a2.12,2.12,0,0,1-.82.13,1.3,1.3,0,0,1-1-.39,1.92,1.92,0,0,1-.36-1.33v-2.8h-.79V142H304v-1.23Z"/><path d="M307.13,146.17a2.41,2.41,0,0,0,1.22.37c.68,0,1-.34,1-.76s-.26-.69-1-.94c-.92-.33-1.36-.84-1.36-1.45a1.58,1.58,0,0,1,1.77-1.51,2.56,2.56,0,0,1,1.26.32l-.23.68a2,2,0,0,0-1-.3c-.55,0-.86.32-.86.7s.31.62,1,.87c.89.34,1.34.78,1.34,1.55s-.7,1.53-1.92,1.53a3,3,0,0,1-1.44-.35Z"/><path d="M310.85,148.43a15.08,15.08,0,0,0,.64-2.53l1-.11a13.43,13.43,0,0,1-1,2.57Zm.46-5.58a.62.62,0,0,1,.62-.67.66.66,0,1,1-.62.67Z"/><path d="M121.69,169.2h-2.77v2.57H122v.77h-4v-7.13h3.86v.77h-2.93v2.25h2.77Z"/><path d="M123.17,168.8c0-.53,0-1,0-1.38H124l0,.82h0a1.78,1.78,0,0,1,1.61-.94,1.51,1.51,0,0,1,1.45,1h0a2.12,2.12,0,0,1,.57-.67,1.79,1.79,0,0,1,1.14-.36c.67,0,1.68.45,1.68,2.22v3h-.91v-2.9c0-1-.36-1.58-1.11-1.58a1.2,1.2,0,0,0-1.1.85,1.36,1.36,0,0,0-.08.47v3.16h-.91v-3.07c0-.81-.36-1.41-1.07-1.41a1.28,1.28,0,0,0-1.15.93,1.39,1.39,0,0,0-.08.46v3.09h-.91Z"/><path d="M132,169.09c0-.66,0-1.19,0-1.67h.84l0,.88h0a2,2,0,0,1,1.82-1,2.33,2.33,0,0,1,2.18,2.61c0,1.84-1.13,2.75-2.33,2.75a1.8,1.8,0,0,1-1.58-.81h0v2.79H132Zm.92,1.37a2.33,2.33,0,0,0,0,.38,1.44,1.44,0,0,0,1.4,1.09c1,0,1.55-.81,1.55-2s-.54-1.91-1.52-1.91A1.49,1.49,0,0,0,133,169.2a1.51,1.51,0,0,0-.06.38Z"/><path d="M138,165H139v7.52H138Z"/><path d="M145.17,169.94a2.5,2.5,0,0,1-2.55,2.72,2.44,2.44,0,0,1-2.46-2.64,2.5,2.5,0,0,1,2.54-2.72A2.43,2.43,0,0,1,145.17,169.94Zm-4.07.05c0,1.12.65,2,1.56,2s1.56-.84,1.56-2c0-.87-.44-2-1.54-2S141.1,169,141.1,170Z"/><path d="M146.61,167.42l1.12,3c.12.33.25.74.33,1h0c.1-.3.2-.69.33-1.07l1-3h1l-1.4,3.65a7.78,7.78,0,0,1-1.75,3.21,2.56,2.56,0,0,1-1.15.6l-.23-.78a2.43,2.43,0,0,0,.81-.46,2.76,2.76,0,0,0,.79-1,.71.71,0,0,0,.07-.23.89.89,0,0,0-.06-.24l-1.9-4.72Z"/><path d="M151.67,170.15a1.64,1.64,0,0,0,1.76,1.78,3.33,3.33,0,0,0,1.42-.27l.16.67a4.13,4.13,0,0,1-1.71.32,2.38,2.38,0,0,1-2.52-2.59,2.49,2.49,0,0,1,2.41-2.76,2.17,2.17,0,0,1,2.11,2.42,3.73,3.73,0,0,1,0,.43Zm2.73-.67a1.32,1.32,0,0,0-1.29-1.51,1.55,1.55,0,0,0-1.43,1.51Z"/><path d="M157,170.15a1.64,1.64,0,0,0,1.76,1.78,3.31,3.31,0,0,0,1.41-.27l.16.67a4.11,4.11,0,0,1-1.7.32,2.38,2.38,0,0,1-2.52-2.59,2.49,2.49,0,0,1,2.4-2.76,2.18,2.18,0,0,1,2.12,2.42,3.73,3.73,0,0,1,0,.43Zm2.73-.67a1.32,1.32,0,0,0-1.29-1.51,1.54,1.54,0,0,0-1.43,1.51Z"/><path d="M165.05,166a.58.58,0,0,1-1.16,0,.58.58,0,0,1,.58-.59A.56.56,0,0,1,165.05,166Zm-1,6.56v-5.12h.93v5.12Z"/><path d="M170.91,165v6.2c0,.45,0,1,.05,1.32h-.84l0-.89h0a1.91,1.91,0,0,1-1.75,1,2.34,2.34,0,0,1-2.19-2.61,2.45,2.45,0,0,1,2.29-2.75,1.71,1.71,0,0,1,1.55.78h0V165ZM170,169.5a1.78,1.78,0,0,0,0-.39,1.38,1.38,0,0,0-1.35-1.08c-1,0-1.53.85-1.53,2s.51,1.9,1.51,1.9a1.41,1.41,0,0,0,1.37-1.11,1.78,1.78,0,0,0,0-.41Z"/><path d="M173,170.15a1.64,1.64,0,0,0,1.76,1.78,3.36,3.36,0,0,0,1.42-.27l.15.67a4,4,0,0,1-1.7.32,2.38,2.38,0,0,1-2.52-2.59,2.49,2.49,0,0,1,2.4-2.76,2.17,2.17,0,0,1,2.12,2.42,3.73,3.73,0,0,1,0,.43Zm2.73-.67a1.32,1.32,0,0,0-1.29-1.51,1.54,1.54,0,0,0-1.43,1.51Z"/><path d="M177.77,168.8c0-.53,0-1-.05-1.38h.83l0,.84h0a1.91,1.91,0,0,1,1.7-1c.71,0,1.81.42,1.81,2.18v3.06h-.93v-2.95c0-.83-.31-1.52-1.19-1.52a1.33,1.33,0,0,0-1.25,1,1.35,1.35,0,0,0-.06.43v3.08h-.93Z"/><path d="M184.72,166v1.47h1.34v.71h-1.34v2.76c0,.64.18,1,.7,1a2,2,0,0,0,.54-.07l0,.7a2.33,2.33,0,0,1-.82.13,1.32,1.32,0,0,1-1-.39,1.94,1.94,0,0,1-.36-1.34v-2.79H183v-.71h.79v-1.23Z"/><path d="M188.14,166a.58.58,0,0,1-1.15,0,.57.57,0,0,1,.58-.59A.56.56,0,0,1,188.14,166Zm-1,6.56v-5.12H188v5.12Z"/><path d="M189.68,172.54v-4.41H189v-.71h.72v-.28a2.05,2.05,0,0,1,2.23-2.23,2.61,2.61,0,0,1,1.31.34L193,166a1.93,1.93,0,0,0-1.08-.3c-1,0-1.27.69-1.27,1.5v.26h3v5.12h-.92v-4.41H190.6v4.41Z"/><path d="M195.64,170.15a1.64,1.64,0,0,0,1.76,1.78,3.33,3.33,0,0,0,1.42-.27l.16.67a4.13,4.13,0,0,1-1.71.32,2.38,2.38,0,0,1-2.52-2.59,2.49,2.49,0,0,1,2.41-2.76,2.17,2.17,0,0,1,2.11,2.42,3.73,3.73,0,0,1,0,.43Zm2.73-.67a1.32,1.32,0,0,0-1.29-1.51,1.55,1.55,0,0,0-1.43,1.51Z"/><path d="M200.3,171.59a2.45,2.45,0,0,0,1.23.37c.68,0,1-.34,1-.76s-.27-.69-1-.94c-.92-.33-1.35-.84-1.35-1.46a1.58,1.58,0,0,1,1.77-1.5,2.59,2.59,0,0,1,1.26.32l-.24.68a2,2,0,0,0-1-.3c-.55,0-.85.32-.85.7s.3.61,1,.87c.89.34,1.35.78,1.35,1.54s-.7,1.54-1.92,1.54a3,3,0,0,1-1.44-.35Z"/><path d="M209.71,172.54l-.08-.64h0a1.93,1.93,0,0,1-1.57.76,1.46,1.46,0,0,1-1.56-1.47c0-1.24,1.1-1.92,3.08-1.91v-.1a1.06,1.06,0,0,0-1.17-1.19,2.58,2.58,0,0,0-1.33.38l-.21-.61a3.11,3.11,0,0,1,1.68-.46c1.57,0,1.95,1.07,1.95,2.1v1.91a7.62,7.62,0,0,0,.08,1.23Zm-.14-2.61c-1,0-2.17.16-2.17,1.15a.83.83,0,0,0,.88.89,1.28,1.28,0,0,0,1.24-.86,1,1,0,0,0,0-.29Z"/><path d="M212,168.8c0-.53,0-1,0-1.38h.83l.05.84h0a1.89,1.89,0,0,1,1.69-1c.71,0,1.81.42,1.81,2.18v3.06h-.93v-2.95c0-.83-.31-1.52-1.18-1.52a1.4,1.4,0,0,0-1.32,1.39v3.08H212Z"/><path d="M218.05,167.42l1.12,3c.12.33.25.74.33,1h0c.1-.3.2-.69.33-1.07l1-3h1l-1.39,3.65a7.88,7.88,0,0,1-1.76,3.21,2.51,2.51,0,0,1-1.15.6l-.23-.78a2.56,2.56,0,0,0,.82-.46,2.86,2.86,0,0,0,.78-1,.71.71,0,0,0,.07-.23.89.89,0,0,0-.06-.24L217,167.42Z"/><path d="M226,166a.58.58,0,0,1-1.15,0,.57.57,0,0,1,.58-.59A.56.56,0,0,1,226,166Zm-1,6.56v-5.12h.93v5.12Z"/><path d="M227.3,171.59a2.42,2.42,0,0,0,1.23.37c.67,0,1-.34,1-.76s-.26-.69-1-.94c-.92-.33-1.36-.84-1.36-1.46a1.58,1.58,0,0,1,1.77-1.5,2.53,2.53,0,0,1,1.26.32l-.23.68a2,2,0,0,0-1-.3c-.55,0-.86.32-.86.7s.31.61,1,.87c.89.34,1.34.78,1.34,1.54s-.7,1.54-1.91,1.54a3,3,0,0,1-1.45-.35Z"/><path d="M231.49,171.59a2.45,2.45,0,0,0,1.23.37c.68,0,1-.34,1-.76s-.27-.69-1-.94c-.92-.33-1.35-.84-1.35-1.46a1.58,1.58,0,0,1,1.77-1.5,2.52,2.52,0,0,1,1.25.32l-.23.68a2,2,0,0,0-1-.3c-.55,0-.85.32-.85.7s.3.61,1,.87c.89.34,1.34.78,1.34,1.54s-.69,1.54-1.91,1.54a3,3,0,0,1-1.44-.35Z"/><path d="M240.1,171.14c0,.53,0,1,0,1.4h-.82l-.06-.83h0a1.92,1.92,0,0,1-1.69.95c-.81,0-1.77-.45-1.77-2.25v-3h.93v2.84c0,1,.3,1.63,1.14,1.63a1.35,1.35,0,0,0,1.23-.85,1.24,1.24,0,0,0,.09-.48v-3.14h.93Z"/><path d="M242.17,170.15a1.64,1.64,0,0,0,1.75,1.78,3.33,3.33,0,0,0,1.42-.27l.16.67a4.11,4.11,0,0,1-1.7.32,2.38,2.38,0,0,1-2.52-2.59,2.49,2.49,0,0,1,2.4-2.76,2.18,2.18,0,0,1,2.12,2.42,3.73,3.73,0,0,1,0,.43Zm2.73-.67a1.33,1.33,0,0,0-1.29-1.51,1.54,1.54,0,0,0-1.43,1.51Z"/><path d="M246.82,171.59a2.48,2.48,0,0,0,1.23.37c.68,0,1-.34,1-.76s-.27-.69-1-.94c-.93-.33-1.36-.84-1.36-1.46a1.58,1.58,0,0,1,1.77-1.5,2.56,2.56,0,0,1,1.26.32l-.23.68a2,2,0,0,0-1-.3c-.55,0-.86.32-.86.7s.31.61,1,.87c.89.34,1.35.78,1.35,1.54s-.7,1.54-1.92,1.54a3,3,0,0,1-1.44-.35Z"/><path d="M256.23,172.54l-.08-.64h0a1.9,1.9,0,0,1-1.57.76,1.46,1.46,0,0,1-1.56-1.47c0-1.24,1.1-1.92,3.08-1.91v-.1A1.06,1.06,0,0,0,254.9,168a2.58,2.58,0,0,0-1.33.38l-.21-.61a3.13,3.13,0,0,1,1.68-.46c1.57,0,2,1.07,2,2.1v1.91a6.57,6.57,0,0,0,.09,1.23Zm-.14-2.61c-1,0-2.17.16-2.17,1.15a.83.83,0,0,0,.88.89,1.27,1.27,0,0,0,1.24-.86,1,1,0,0,0,0-.29Z"/><path d="M261.66,172.54v-4.41h-2.15v4.41h-.92v-4.41h-.72v-.71h.72v-.17a2.43,2.43,0,0,1,.57-1.75,1.74,1.74,0,0,1,1.29-.48,1.65,1.65,0,0,1,.73.18l-.19.69a1.36,1.36,0,0,0-.55-.12c-.73,0-.93.62-.93,1.42v.23h2.15v-.25a2.45,2.45,0,0,1,.6-1.79,1.82,1.82,0,0,1,1.24-.47,2,2,0,0,1,.8.15l-.12.72a1.35,1.35,0,0,0-.6-.12c-.79,0-1,.7-1,1.48v.28h1.24v.71h-1.23v4.41Z"/><path d="M265.05,170.15a1.64,1.64,0,0,0,1.76,1.78,3.36,3.36,0,0,0,1.42-.27l.16.67a4.13,4.13,0,0,1-1.71.32,2.38,2.38,0,0,1-2.52-2.59,2.49,2.49,0,0,1,2.4-2.76,2.17,2.17,0,0,1,2.12,2.42,3.73,3.73,0,0,1,0,.43Zm2.73-.67a1.32,1.32,0,0,0-1.29-1.51,1.54,1.54,0,0,0-1.43,1.51Z"/><path d="M273.49,172.35a3.35,3.35,0,0,1-1.47.3,2.43,2.43,0,0,1-2.55-2.62,2.6,2.6,0,0,1,2.75-2.72,3,3,0,0,1,1.29.27l-.21.72a2.11,2.11,0,0,0-1.08-.25,1.94,1.94,0,0,0,0,3.86,2.55,2.55,0,0,0,1.14-.26Z"/><path d="M275.84,166v1.47h1.34v.71h-1.34v2.76c0,.64.18,1,.7,1a2.14,2.14,0,0,0,.54-.07l0,.7a2.33,2.33,0,0,1-.82.13,1.3,1.3,0,0,1-1-.39,1.94,1.94,0,0,1-.36-1.34v-2.79h-.79v-.71h.79v-1.23Z"/><path d="M279.26,166a.58.58,0,0,1-1.15,0,.57.57,0,0,1,.58-.59A.56.56,0,0,1,279.26,166Zm-1,6.56v-5.12h.94v5.12Z"/><path d="M280.7,168.8c0-.53,0-1,0-1.38h.83l.05.84h0a1.89,1.89,0,0,1,1.69-1c.71,0,1.81.42,1.81,2.18v3.06h-.93v-2.95c0-.83-.3-1.52-1.18-1.52a1.4,1.4,0,0,0-1.32,1.39v3.08h-.93Z"/><path d="M291,167.42c0,.37-.05.78-.05,1.41v3a2.93,2.93,0,0,1-.73,2.34,2.69,2.69,0,0,1-1.86.62,3.29,3.29,0,0,1-1.71-.43l.24-.71a2.91,2.91,0,0,0,1.5.4c.95,0,1.65-.49,1.65-1.78v-.58h0a1.82,1.82,0,0,1-1.63.86,2.29,2.29,0,0,1-2.18-2.5,2.46,2.46,0,0,1,2.31-2.72,1.72,1.72,0,0,1,1.6.89h0l0-.77Zm-1,2a1.36,1.36,0,0,0-1.35-1.41c-.89,0-1.53.75-1.53,1.94,0,1,.51,1.84,1.52,1.84a1.36,1.36,0,0,0,1.29-.95,1.73,1.73,0,0,0,.07-.5Z"/><path d="M294.75,165h.93v3.2h0a1.77,1.77,0,0,1,.67-.66,2,2,0,0,1,.95-.26c.69,0,1.79.42,1.79,2.19v3h-.93V169.6c0-.83-.31-1.53-1.19-1.53a1.35,1.35,0,0,0-1.25.94,1.14,1.14,0,0,0-.06.44v3.09h-.93Z"/><path d="M301.66,166a.58.58,0,0,1-1.15,0,.57.57,0,0,1,.58-.59A.56.56,0,0,1,301.66,166Zm-1,6.56v-5.12h.93v5.12Z"/><path d="M303,171.59a2.48,2.48,0,0,0,1.23.37c.68,0,1-.34,1-.76s-.27-.69-.95-.94c-.93-.33-1.36-.84-1.36-1.46a1.58,1.58,0,0,1,1.77-1.5,2.56,2.56,0,0,1,1.26.32l-.24.68a2,2,0,0,0-1-.3c-.55,0-.86.32-.86.7s.31.61,1,.87c.89.34,1.35.78,1.35,1.54s-.7,1.54-1.92,1.54a3,3,0,0,1-1.44-.35Z"/><path d="M314.18,169.94a2.5,2.5,0,0,1-2.55,2.72,2.44,2.44,0,0,1-2.46-2.64,2.5,2.5,0,0,1,2.54-2.72A2.43,2.43,0,0,1,314.18,169.94Zm-4.07.05c0,1.12.65,2,1.56,2s1.55-.84,1.55-2c0-.87-.43-2-1.53-2S310.11,169,310.11,170Z"/><path d="M315.35,169c0-.61,0-1.13,0-1.6h.82l0,1h0a1.54,1.54,0,0,1,1.42-1.12,1,1,0,0,1,.26,0v.88a1.42,1.42,0,0,0-.31,0,1.3,1.3,0,0,0-1.25,1.2,2.63,2.63,0,0,0,0,.43v2.73h-.93Z"/><path d="M321.06,165H322v3.2h0a1.74,1.74,0,0,1,.66-.66,2.05,2.05,0,0,1,1-.26c.68,0,1.79.42,1.79,2.19v3h-.94V169.6c0-.83-.3-1.53-1.18-1.53a1.34,1.34,0,0,0-1.25.94,1.13,1.13,0,0,0-.07.44v3.09h-.93Z"/><path d="M327.46,170.15a1.64,1.64,0,0,0,1.76,1.78,3.36,3.36,0,0,0,1.42-.27l.16.67a4.13,4.13,0,0,1-1.71.32,2.38,2.38,0,0,1-2.52-2.59,2.49,2.49,0,0,1,2.4-2.76,2.17,2.17,0,0,1,2.12,2.42,3.73,3.73,0,0,1,0,.43Zm2.73-.67A1.32,1.32,0,0,0,328.9,168a1.54,1.54,0,0,0-1.43,1.51Z"/><path d="M332.25,169c0-.61,0-1.13-.05-1.6H333l0,1h0a1.55,1.55,0,0,1,1.42-1.12,1.12,1.12,0,0,1,.27,0v.88a1.51,1.51,0,0,0-.32,0,1.31,1.31,0,0,0-1.25,1.2,2.63,2.63,0,0,0,0,.43v2.73h-.92Z"/><path d="M118,181.8c0-.66,0-1.19,0-1.67h.84l0,.88h0a2,2,0,0,1,1.82-1,2.32,2.32,0,0,1,2.17,2.6c0,1.85-1.12,2.76-2.33,2.76a1.78,1.78,0,0,1-1.57-.81h0v2.79H118Zm.92,1.37a2.32,2.32,0,0,0,.05.38,1.44,1.44,0,0,0,1.39,1.09c1,0,1.56-.81,1.56-2s-.54-1.91-1.52-1.91A1.49,1.49,0,0,0,119,181.9a1.68,1.68,0,0,0-.07.39Z"/><path d="M124.51,182.86a1.64,1.64,0,0,0,1.76,1.78,3.31,3.31,0,0,0,1.41-.27l.16.67a4.11,4.11,0,0,1-1.7.32,2.38,2.38,0,0,1-2.52-2.59A2.49,2.49,0,0,1,126,180a2.17,2.17,0,0,1,2.12,2.41,3.94,3.94,0,0,1,0,.44Zm2.73-.67a1.32,1.32,0,0,0-1.29-1.51,1.54,1.54,0,0,0-1.43,1.51Z"/><path d="M129.29,181.72c0-.6,0-1.12,0-1.59h.82l0,1h0a1.54,1.54,0,0,1,1.42-1.12,1.12,1.12,0,0,1,.27,0v.88a1.58,1.58,0,0,0-.32,0,1.3,1.3,0,0,0-1.25,1.2,2.63,2.63,0,0,0,0,.43v2.73h-.93Z"/><path d="M133.17,185.25v-4.41h-.72v-.71h.72v-.25a2.44,2.44,0,0,1,.59-1.79,1.78,1.78,0,0,1,1.25-.47,2.3,2.3,0,0,1,.8.14l-.13.72a1.47,1.47,0,0,0-.59-.11c-.8,0-1,.7-1,1.48v.28h1.24v.71h-1.24v4.41Z"/><path d="M140.67,182.65a2.51,2.51,0,0,1-2.55,2.72,2.44,2.44,0,0,1-2.46-2.64A2.5,2.5,0,0,1,138.2,180,2.43,2.43,0,0,1,140.67,182.65Zm-4.07,0c0,1.12.65,2,1.56,2s1.55-.84,1.55-2c0-.87-.43-2-1.53-2S136.6,181.72,136.6,182.7Z"/><path d="M141.84,181.72c0-.6,0-1.12,0-1.59h.82l0,1h0a1.54,1.54,0,0,1,1.42-1.12,1,1,0,0,1,.26,0v.88a1.42,1.42,0,0,0-.31,0,1.3,1.3,0,0,0-1.25,1.2,2.55,2.55,0,0,0-.05.43v2.73h-.92Z"/><path d="M145.35,181.51c0-.53,0-1,0-1.38h.81l0,.82h0a1.77,1.77,0,0,1,1.61-.94,1.52,1.52,0,0,1,1.45,1h0a2.12,2.12,0,0,1,.57-.67A1.78,1.78,0,0,1,151,180c.68,0,1.69.44,1.69,2.22v3h-.91v-2.9c0-1-.36-1.58-1.12-1.58a1.2,1.2,0,0,0-1.1.85,1.66,1.66,0,0,0-.07.47v3.16h-.91v-3.07c0-.82-.36-1.41-1.07-1.41a1.29,1.29,0,0,0-1.16.93,1.39,1.39,0,0,0-.07.46v3.09h-.91Z"/><path d="M157,185.25l-.07-.64h0a1.89,1.89,0,0,1-1.56.76,1.46,1.46,0,0,1-1.57-1.47c0-1.24,1.1-1.92,3.08-1.91v-.11a1.05,1.05,0,0,0-1.16-1.18,2.59,2.59,0,0,0-1.34.38l-.21-.61a3.13,3.13,0,0,1,1.68-.46c1.57,0,1.95,1.07,1.95,2.1V184a6.57,6.57,0,0,0,.09,1.23Zm-.14-2.61c-1,0-2.17.15-2.17,1.15a.83.83,0,0,0,.88.89,1.27,1.27,0,0,0,1.24-.86,1,1,0,0,0,0-.3Z"/><path d="M159.29,181.51c0-.53,0-1,0-1.38h.83l.05.84h0a1.91,1.91,0,0,1,1.7-1c.71,0,1.81.42,1.81,2.18v3.06h-.93V182.3c0-.83-.31-1.52-1.19-1.52a1.33,1.33,0,0,0-1.25,1,1.35,1.35,0,0,0-.06.43v3.08h-.93Z"/><path d="M168.82,185.06a3.44,3.44,0,0,1-1.48.3,2.44,2.44,0,0,1-2.55-2.62,2.6,2.6,0,0,1,2.76-2.72,3.26,3.26,0,0,1,1.29.26l-.21.73a2.17,2.17,0,0,0-1.08-.25,1.94,1.94,0,0,0,0,3.86,2.64,2.64,0,0,0,1.15-.26Z"/><path d="M170.36,182.86a1.64,1.64,0,0,0,1.76,1.78,3.33,3.33,0,0,0,1.42-.27l.16.67a4.13,4.13,0,0,1-1.71.32,2.39,2.39,0,0,1-2.52-2.59,2.49,2.49,0,0,1,2.41-2.76,2.17,2.17,0,0,1,2.12,2.41,3.52,3.52,0,0,1,0,.44Zm2.74-.67a1.33,1.33,0,0,0-1.3-1.51,1.55,1.55,0,0,0-1.43,1.51Z"/><path d="M174.56,186.55a14.62,14.62,0,0,0,.63-2.53l1-.1a13.05,13.05,0,0,1-1,2.57ZM175,181a.62.62,0,0,1,.63-.66.6.6,0,0,1,.62.66.61.61,0,0,1-.62.66A.63.63,0,0,1,175,181Z"/><path d="M182.43,185.25l-.08-.64h0a1.93,1.93,0,0,1-1.57.76,1.46,1.46,0,0,1-1.57-1.47c0-1.24,1.11-1.92,3.09-1.91v-.11a1.06,1.06,0,0,0-1.17-1.18,2.58,2.58,0,0,0-1.33.38l-.21-.61a3.11,3.11,0,0,1,1.68-.46c1.57,0,1.95,1.07,1.95,2.1V184a7.62,7.62,0,0,0,.08,1.23Zm-.14-2.61c-1,0-2.17.15-2.17,1.15a.83.83,0,0,0,.88.89,1.26,1.26,0,0,0,1.23-.86.77.77,0,0,0,.06-.3Z"/><path d="M184.69,181.51c0-.53,0-1,0-1.38h.83l.05.84h0a1.89,1.89,0,0,1,1.69-1c.71,0,1.81.42,1.81,2.18v3.06h-.93V182.3c0-.83-.3-1.52-1.18-1.52a1.32,1.32,0,0,0-1.25,1,1.11,1.11,0,0,0-.07.43v3.08h-.93Z"/><path d="M195,177.73v6.2c0,.45,0,1,0,1.32h-.84l0-.89h0a1.91,1.91,0,0,1-1.75,1,2.34,2.34,0,0,1-2.19-2.61,2.45,2.45,0,0,1,2.3-2.75,1.71,1.71,0,0,1,1.54.78h0v-3.06Zm-.94,4.48a1.78,1.78,0,0,0,0-.39,1.37,1.37,0,0,0-1.34-1.08c-1,0-1.54.85-1.54,2s.51,1.9,1.52,1.9A1.41,1.41,0,0,0,194,183.5a1.64,1.64,0,0,0,0-.4Z"/><path d="M124,207.53c-.05-1-.12-2.19-.11-3.08h0c-.24.84-.54,1.73-.9,2.71l-1.26,3.47H121l-1.15-3.4c-.34-1-.63-1.93-.83-2.78h0c0,.89-.07,2.09-.14,3.16l-.19,3.06h-.88l.5-7.14h1.18L120.7,207c.29.88.54,1.67.71,2.41h0c.18-.72.43-1.51.75-2.41l1.27-3.45h1.17l.45,7.14h-.9Z"/><path d="M129.38,210.67l-.08-.65h0a1.87,1.87,0,0,1-1.56.76,1.46,1.46,0,0,1-1.57-1.47c0-1.24,1.1-1.91,3.08-1.9v-.11a1.06,1.06,0,0,0-1.17-1.19,2.5,2.5,0,0,0-1.33.39l-.21-.62a3.22,3.22,0,0,1,1.68-.45c1.57,0,1.95,1.07,1.95,2.09v1.92a6.57,6.57,0,0,0,.09,1.23Zm-.14-2.62c-1,0-2.17.16-2.17,1.16a.83.83,0,0,0,.88.89,1.28,1.28,0,0,0,1.24-.86,1,1,0,0,0,.05-.3Z"/><path d="M131.65,206.93c0-.53,0-1-.05-1.39h.83l0,.85h0a1.89,1.89,0,0,1,1.7-1c.71,0,1.81.42,1.81,2.18v3.06h-.93v-3c0-.82-.31-1.51-1.19-1.51a1.33,1.33,0,0,0-1.25,1,1.46,1.46,0,0,0-.06.44v3.08h-.93Z"/><path d="M140.36,210.67l-.07-.65h0a1.9,1.9,0,0,1-1.57.76,1.46,1.46,0,0,1-1.57-1.47c0-1.24,1.1-1.91,3.08-1.9v-.11a1.06,1.06,0,0,0-1.16-1.19,2.51,2.51,0,0,0-1.34.39l-.21-.62a3.22,3.22,0,0,1,1.68-.45c1.57,0,2,1.07,2,2.09v1.92a6.57,6.57,0,0,0,.09,1.23Zm-.14-2.62c-1,0-2.17.16-2.17,1.16a.83.83,0,0,0,.88.89,1.28,1.28,0,0,0,1.24-.86,1,1,0,0,0,.05-.3Z"/><path d="M147,205.54c0,.37,0,.79,0,1.41v3a3,3,0,0,1-.73,2.34,2.75,2.75,0,0,1-1.86.61,3.36,3.36,0,0,1-1.71-.42l.23-.71a2.92,2.92,0,0,0,1.51.4c.95,0,1.65-.5,1.65-1.79v-.57h0a1.83,1.83,0,0,1-1.63.86,2.29,2.29,0,0,1-2.18-2.5,2.46,2.46,0,0,1,2.31-2.72,1.69,1.69,0,0,1,1.59.89h0l0-.78Zm-1,2a1.45,1.45,0,0,0-.05-.43,1.35,1.35,0,0,0-1.31-1c-.89,0-1.52.75-1.52,1.93,0,1,.51,1.85,1.51,1.85a1.37,1.37,0,0,0,1.3-1,1.61,1.61,0,0,0,.07-.49Z"/><path d="M149.07,208.27a1.63,1.63,0,0,0,1.75,1.78,3.35,3.35,0,0,0,1.42-.26l.16.67a4.32,4.32,0,0,1-1.7.31,2.37,2.37,0,0,1-2.52-2.58,2.48,2.48,0,0,1,2.4-2.76,2.17,2.17,0,0,1,2.12,2.41,3.55,3.55,0,0,1,0,.43Zm2.73-.66a1.33,1.33,0,0,0-1.29-1.52,1.54,1.54,0,0,0-1.43,1.52Z"/><path d="M153.85,207.14c0-.6,0-1.12,0-1.6h.82l0,1h0a1.53,1.53,0,0,1,1.42-1.12,1,1,0,0,1,.26,0v.88a1.37,1.37,0,0,0-.31,0,1.3,1.3,0,0,0-1.25,1.2,2.81,2.81,0,0,0,0,.44v2.73h-.92Z"/><path d="M156.53,211.09l3-7.68h.72l-3,7.68Z"/><path d="M160.82,209.72a2.55,2.55,0,0,0,1.23.37c.68,0,1-.34,1-.77s-.26-.68-.95-.94c-.92-.33-1.35-.84-1.35-1.45a1.57,1.57,0,0,1,1.76-1.5,2.53,2.53,0,0,1,1.26.31l-.23.68a2.06,2.06,0,0,0-1.05-.29c-.55,0-.85.31-.85.69s.3.62,1,.87c.89.34,1.35.79,1.35,1.55s-.7,1.53-1.92,1.53a3,3,0,0,1-1.44-.34Z"/><path d="M169.43,209.27c0,.53,0,1,0,1.4h-.82l-.06-.84h0a1.92,1.92,0,0,1-1.69.95c-.81,0-1.77-.44-1.77-2.24v-3H166v2.84c0,1,.3,1.63,1.15,1.63a1.33,1.33,0,0,0,1.22-.85,1.16,1.16,0,0,0,.09-.47v-3.15h.93Z"/><path d="M171,207.22c0-.66,0-1.19,0-1.68h.84l0,.88h0a2,2,0,0,1,1.82-1,2.31,2.31,0,0,1,2.17,2.6c0,1.84-1.13,2.75-2.33,2.75a1.79,1.79,0,0,1-1.58-.8h0v2.78H171Zm.92,1.36a2.11,2.11,0,0,0,0,.38,1.43,1.43,0,0,0,1.4,1.09c1,0,1.56-.8,1.56-2,0-1-.54-1.9-1.53-1.9a1.49,1.49,0,0,0-1.41,1.15,1.67,1.67,0,0,0-.06.38Z"/><path d="M177.52,208.27a1.64,1.64,0,0,0,1.76,1.78,3.35,3.35,0,0,0,1.42-.26l.16.67a4.34,4.34,0,0,1-1.71.31,2.37,2.37,0,0,1-2.52-2.58,2.48,2.48,0,0,1,2.41-2.76,2.16,2.16,0,0,1,2.11,2.41,3.55,3.55,0,0,1,0,.43Zm2.73-.66a1.33,1.33,0,0,0-1.29-1.52,1.55,1.55,0,0,0-1.43,1.52Z"/><path d="M182.31,207.14c0-.6,0-1.12,0-1.6h.81l0,1h0a1.52,1.52,0,0,1,1.41-1.12,1.06,1.06,0,0,1,.27,0v.88a1.47,1.47,0,0,0-.32,0,1.32,1.32,0,0,0-1.25,1.2,2.87,2.87,0,0,0,0,.44v2.73h-.92Z"/><path d="M186.4,205.54l1,2.88c.17.47.31.89.42,1.32h0c.11-.43.26-.85.43-1.32l1-2.88h1l-2,5.13h-.89l-1.95-5.13Z"/><path d="M192.17,204.1a.55.55,0,0,1-.6.57.56.56,0,0,1-.56-.57.57.57,0,0,1,.59-.58A.55.55,0,0,1,192.17,204.1Zm-1,6.57v-5.13h.93v5.13Z"/><path d="M193.48,209.72a2.55,2.55,0,0,0,1.23.37c.68,0,1-.34,1-.77s-.26-.68-.95-.94c-.92-.33-1.35-.84-1.35-1.45a1.57,1.57,0,0,1,1.76-1.5,2.61,2.61,0,0,1,1.27.31l-.24.68a2.06,2.06,0,0,0-1.05-.29c-.55,0-.85.31-.85.69s.3.62,1,.87c.89.34,1.35.79,1.35,1.55s-.7,1.53-1.92,1.53a3,3,0,0,1-1.44-.34Z"/><path d="M202.44,208.06a2.5,2.5,0,0,1-2.55,2.72,2.43,2.43,0,0,1-2.46-2.63,2.5,2.5,0,0,1,2.54-2.72A2.43,2.43,0,0,1,202.44,208.06Zm-4.07.06c0,1.12.65,2,1.56,2s1.56-.84,1.56-2c0-.86-.44-2-1.54-2S198.37,207.14,198.37,208.12Z"/><path d="M203.62,207.14c0-.6,0-1.12-.05-1.6h.82l0,1h0a1.55,1.55,0,0,1,1.42-1.12,1.12,1.12,0,0,1,.27,0v.88a1.47,1.47,0,0,0-.32,0,1.31,1.31,0,0,0-1.25,1.2,2.87,2.87,0,0,0,0,.44v2.73h-.92Z"/><path d="M209.32,207.14c0-.6,0-1.12,0-1.6h.82l0,1h0a1.54,1.54,0,0,1,1.42-1.12,1,1,0,0,1,.26,0v.88a1.37,1.37,0,0,0-.31,0,1.31,1.31,0,0,0-1.25,1.2,2.87,2.87,0,0,0,0,.44v2.73h-.93Z"/><path d="M213.2,208.27a1.64,1.64,0,0,0,1.76,1.78,3.35,3.35,0,0,0,1.42-.26l.16.67a4.34,4.34,0,0,1-1.71.31,2.37,2.37,0,0,1-2.52-2.58,2.48,2.48,0,0,1,2.41-2.76,2.16,2.16,0,0,1,2.11,2.41,3.55,3.55,0,0,1,0,.43Zm2.73-.66a1.33,1.33,0,0,0-1.29-1.52,1.55,1.55,0,0,0-1.43,1.52Z"/><path d="M218.35,205.54l1,2.88c.17.47.31.89.42,1.32h0c.11-.43.26-.85.43-1.32l1-2.88h1l-2,5.13h-.89l-2-5.13Z"/><path d="M224.12,204.1a.55.55,0,0,1-.59.57.56.56,0,0,1-.57-.57.57.57,0,0,1,.59-.58A.55.55,0,0,1,224.12,204.1Zm-1,6.57v-5.13H224v5.13Z"/><path d="M226.08,208.27a1.63,1.63,0,0,0,1.76,1.78,3.38,3.38,0,0,0,1.42-.26l.15.67a4.28,4.28,0,0,1-1.7.31,2.37,2.37,0,0,1-2.52-2.58,2.48,2.48,0,0,1,2.4-2.76,2.17,2.17,0,0,1,2.12,2.41,3.55,3.55,0,0,1,0,.43Zm2.73-.66a1.33,1.33,0,0,0-1.29-1.52,1.55,1.55,0,0,0-1.43,1.52Z"/><path d="M231.24,205.54l.67,2.61c.15.57.29,1.1.38,1.63h0c.11-.52.28-1.07.45-1.62l.84-2.62h.78l.8,2.57c.19.61.34,1.15.45,1.67h0a16.44,16.44,0,0,1,.4-1.66l.73-2.58h.92l-1.65,5.13h-.85l-.79-2.45c-.18-.57-.32-1.08-.45-1.68h0a16,16,0,0,1-.47,1.69l-.82,2.44h-.85l-1.55-5.13Z"/><path d="M238.47,209.72a2.52,2.52,0,0,0,1.23.37c.67,0,1-.34,1-.77s-.26-.68-.95-.94c-.92-.33-1.36-.84-1.36-1.45a1.58,1.58,0,0,1,1.77-1.5,2.53,2.53,0,0,1,1.26.31l-.23.68a2.06,2.06,0,0,0-1.05-.29c-.55,0-.86.31-.86.69s.31.62,1,.87c.89.34,1.34.79,1.34,1.55s-.7,1.53-1.91,1.53a2.92,2.92,0,0,1-1.44-.34Z"/><path d="M245,203.15H246v7.52H245Z"/><path d="M248.05,208.27a1.64,1.64,0,0,0,1.76,1.78,3.35,3.35,0,0,0,1.42-.26l.16.67a4.34,4.34,0,0,1-1.71.31,2.37,2.37,0,0,1-2.52-2.58,2.48,2.48,0,0,1,2.41-2.76,2.16,2.16,0,0,1,2.11,2.41,3.55,3.55,0,0,1,0,.43Zm2.73-.66a1.33,1.33,0,0,0-1.29-1.52,1.55,1.55,0,0,0-1.43,1.52Z"/><path d="M255.68,210.67l-.08-.65h0a1.9,1.9,0,0,1-1.57.76,1.46,1.46,0,0,1-1.56-1.47c0-1.24,1.1-1.91,3.08-1.9v-.11a1.06,1.06,0,0,0-1.17-1.19,2.5,2.5,0,0,0-1.33.39l-.21-.62a3.19,3.19,0,0,1,1.68-.45c1.57,0,1.95,1.07,1.95,2.09v1.92a7.62,7.62,0,0,0,.08,1.23Zm-.14-2.62c-1,0-2.17.16-2.17,1.16a.83.83,0,0,0,.88.89,1.29,1.29,0,0,0,1.24-.86,1,1,0,0,0,0-.3Z"/><path d="M257.94,207.14c0-.6,0-1.12,0-1.6h.82l0,1h0a1.53,1.53,0,0,1,1.42-1.12,1,1,0,0,1,.26,0v.88a1.37,1.37,0,0,0-.31,0,1.3,1.3,0,0,0-1.25,1.2,2.81,2.81,0,0,0-.05.44v2.73h-.92Z"/><path d="M261.45,206.93c0-.53,0-1,0-1.39h.82l0,.85h0a1.86,1.86,0,0,1,1.69-1c.71,0,1.81.42,1.81,2.18v3.06h-.93v-3c0-.82-.31-1.51-1.19-1.51a1.33,1.33,0,0,0-1.25,1,1.46,1.46,0,0,0-.06.44v3.08h-.93Z"/><path d="M268.36,204.1a.58.58,0,0,1-1.15,0,.56.56,0,0,1,.58-.58A.55.55,0,0,1,268.36,204.1Zm-1,6.57v-5.13h.93v5.13Z"/><path d="M269.8,206.93c0-.53,0-1,0-1.39h.83l.05.85h0a1.89,1.89,0,0,1,1.7-1c.71,0,1.81.42,1.81,2.18v3.06h-.93v-3c0-.82-.31-1.51-1.19-1.51a1.33,1.33,0,0,0-1.25,1,1.46,1.46,0,0,0-.06.44v3.08h-.94Z"/><path d="M280.1,205.54c0,.37,0,.79,0,1.41v3a3,3,0,0,1-.73,2.34,2.76,2.76,0,0,1-1.87.61,3.34,3.34,0,0,1-1.7-.42l.23-.71a2.91,2.91,0,0,0,1.5.4c1,0,1.66-.5,1.66-1.79v-.57h0a1.81,1.81,0,0,1-1.63.86,2.29,2.29,0,0,1-2.18-2.5,2.46,2.46,0,0,1,2.31-2.72,1.69,1.69,0,0,1,1.6.89h0l0-.78Zm-1,2a1.45,1.45,0,0,0-.05-.43,1.33,1.33,0,0,0-1.3-1c-.89,0-1.53.75-1.53,1.93,0,1,.51,1.85,1.52,1.85a1.36,1.36,0,0,0,1.29-1,1.61,1.61,0,0,0,.07-.49Z"/><path d="M286.69,210.67l-.08-.65h0a1.9,1.9,0,0,1-1.57.76,1.45,1.45,0,0,1-1.56-1.47c0-1.24,1.1-1.91,3.08-1.9v-.11a1.06,1.06,0,0,0-1.17-1.19,2.47,2.47,0,0,0-1.33.39l-.21-.62a3.19,3.19,0,0,1,1.68-.45c1.57,0,1.95,1.07,1.95,2.09v1.92a7.62,7.62,0,0,0,.08,1.23Zm-.14-2.62c-1,0-2.17.16-2.17,1.16a.83.83,0,0,0,.88.89,1.29,1.29,0,0,0,1.24-.86,1,1,0,0,0,.05-.3Z"/><path d="M289,206.93c0-.53,0-1,0-1.39h.83l.05.85h0a1.87,1.87,0,0,1,1.69-1c.71,0,1.81.42,1.81,2.18v3.06h-.93v-3c0-.82-.3-1.51-1.18-1.51a1.32,1.32,0,0,0-1.25,1,1.45,1.45,0,0,0-.07.44v3.08H289Z"/><path d="M299.26,203.15v6.19c0,.46,0,1,0,1.33h-.84l0-.89h0a1.9,1.9,0,0,1-1.75,1,2.33,2.33,0,0,1-2.19-2.6,2.45,2.45,0,0,1,2.3-2.75,1.71,1.71,0,0,1,1.54.78h0v-3.06Zm-.94,4.48a1.67,1.67,0,0,0,0-.39,1.36,1.36,0,0,0-1.34-1.08c-1,0-1.54.84-1.54,2s.51,1.89,1.52,1.89a1.4,1.4,0,0,0,1.36-1.11,1.7,1.7,0,0,0,0-.4Z"/><path d="M122.39,215.86v6.19c0,.46,0,1,0,1.33h-.84l0-.89h0a1.89,1.89,0,0,1-1.75,1,2.34,2.34,0,0,1-2.19-2.6,2.46,2.46,0,0,1,2.3-2.76,1.74,1.74,0,0,1,1.55.79h0v-3.06Zm-.93,4.48a1.27,1.27,0,0,0,0-.39,1.35,1.35,0,0,0-1.34-1.08c-1,0-1.54.84-1.54,2s.51,1.9,1.52,1.9a1.39,1.39,0,0,0,1.36-1.11,1.29,1.29,0,0,0,0-.4Z"/><path d="M124.45,221a1.65,1.65,0,0,0,1.76,1.78,3.35,3.35,0,0,0,1.42-.26l.16.66a4.11,4.11,0,0,1-1.7.32,2.38,2.38,0,0,1-2.52-2.58,2.49,2.49,0,0,1,2.4-2.77,2.18,2.18,0,0,1,2.12,2.42,3.55,3.55,0,0,1,0,.43Zm2.74-.66a1.33,1.33,0,0,0-1.3-1.52,1.54,1.54,0,0,0-1.42,1.52Z"/><path d="M129.6,218.25l1,2.88c.17.47.3.89.41,1.31h0c.12-.42.27-.84.44-1.31l1-2.88h1l-2,5.13h-.89l-1.94-5.13Z"/><path d="M134.75,221a1.64,1.64,0,0,0,1.76,1.78,3.38,3.38,0,0,0,1.42-.26l.15.66a4.08,4.08,0,0,1-1.7.32,2.38,2.38,0,0,1-2.52-2.58,2.49,2.49,0,0,1,2.4-2.77,2.17,2.17,0,0,1,2.12,2.42,3.55,3.55,0,0,1,0,.43Zm2.73-.66a1.33,1.33,0,0,0-1.29-1.52,1.55,1.55,0,0,0-1.43,1.52Z"/><path d="M139.53,215.86h.94v7.52h-.94Z"/><path d="M146.67,220.77a2.5,2.5,0,0,1-2.55,2.72,2.43,2.43,0,0,1-2.46-2.63,2.51,2.51,0,0,1,2.54-2.73A2.43,2.43,0,0,1,146.67,220.77Zm-4.06,0c0,1.13.64,2,1.55,2s1.56-.83,1.56-2c0-.87-.44-2-1.54-2S142.61,219.85,142.61,220.82Z"/><path d="M147.85,219.92c0-.65,0-1.18,0-1.67h.83l0,.88h0a2,2,0,0,1,1.82-1,2.32,2.32,0,0,1,2.17,2.61c0,1.84-1.12,2.75-2.33,2.75a1.79,1.79,0,0,1-1.58-.8h0v2.78h-.92Zm.92,1.37a2.22,2.22,0,0,0,0,.38,1.43,1.43,0,0,0,1.4,1.09c1,0,1.56-.8,1.56-2,0-1-.54-1.9-1.53-1.9a1.49,1.49,0,0,0-1.41,1.15,1.59,1.59,0,0,0-.06.38Z"/><path d="M153.87,219.64c0-.53,0-1,0-1.39h.82l0,.83h0a1.77,1.77,0,0,1,1.61-1,1.52,1.52,0,0,1,1.45,1h0a2.24,2.24,0,0,1,.57-.67,1.79,1.79,0,0,1,1.14-.36c.68,0,1.68.45,1.68,2.23v3h-.91v-2.91c0-1-.36-1.57-1.11-1.57a1.21,1.21,0,0,0-1.1.84,1.65,1.65,0,0,0-.08.47v3.17h-.91V220.3c0-.81-.36-1.4-1.07-1.4a1.27,1.27,0,0,0-1.15.93,1.38,1.38,0,0,0-.08.45v3.1h-.91Z"/><path d="M163.23,221a1.64,1.64,0,0,0,1.75,1.78,3.35,3.35,0,0,0,1.42-.26l.16.66a4.11,4.11,0,0,1-1.7.32,2.38,2.38,0,0,1-2.52-2.58,2.49,2.49,0,0,1,2.4-2.77,2.18,2.18,0,0,1,2.12,2.42,3.55,3.55,0,0,1,0,.43Zm2.73-.66a1.33,1.33,0,0,0-1.29-1.52,1.54,1.54,0,0,0-1.43,1.52Z"/><path d="M168,219.64c0-.53,0-1,0-1.39h.83l0,.85h0a1.88,1.88,0,0,1,1.69-1c.71,0,1.81.43,1.81,2.19v3.06h-.93v-3c0-.82-.3-1.51-1.18-1.51a1.32,1.32,0,0,0-1.25,1,1.43,1.43,0,0,0-.07.43v3.09H168Z"/><path d="M175,216.78v1.47h1.33V219H175v2.76c0,.64.18,1,.7,1a2.23,2.23,0,0,0,.54-.06l0,.69a2.12,2.12,0,0,1-.82.13,1.3,1.3,0,0,1-1-.39,1.87,1.87,0,0,1-.36-1.33V219h-.8v-.71h.8V217Z"/><path d="M179.6,219.92c0-.65,0-1.18,0-1.67h.83l0,.88h0a2,2,0,0,1,1.82-1,2.32,2.32,0,0,1,2.17,2.61c0,1.84-1.12,2.75-2.33,2.75a1.79,1.79,0,0,1-1.58-.8h0v2.78h-.92Zm.92,1.37a2.22,2.22,0,0,0,0,.38,1.43,1.43,0,0,0,1.4,1.09c1,0,1.56-.8,1.56-2,0-1-.54-1.9-1.53-1.9a1.49,1.49,0,0,0-1.41,1.15,1.59,1.59,0,0,0-.06.38Z"/><path d="M185.62,215.86h.94v7.52h-.94Z"/><path d="M191,223.38l-.07-.65h0a1.93,1.93,0,0,1-1.57.76,1.46,1.46,0,0,1-1.57-1.47c0-1.24,1.1-1.92,3.08-1.91V220a1.06,1.06,0,0,0-1.16-1.19,2.59,2.59,0,0,0-1.34.38l-.21-.61a3.13,3.13,0,0,1,1.68-.46c1.57,0,1.95,1.07,1.95,2.1v1.92a6.63,6.63,0,0,0,.09,1.23Zm-.14-2.62c-1,0-2.17.16-2.17,1.16a.82.82,0,0,0,.88.88,1.27,1.27,0,0,0,1.24-.85,1,1,0,0,0,0-.3Z"/><path d="M193.23,219.64c0-.53,0-1,0-1.39H194l.05.85h0a1.87,1.87,0,0,1,1.69-1c.71,0,1.81.43,1.81,2.19v3.06h-.93v-3c0-.82-.31-1.51-1.19-1.51a1.33,1.33,0,0,0-1.25,1,1.44,1.44,0,0,0-.06.43v3.09h-.93Z"/><path d="M201.72,218.25l.68,2.61c.15.57.28,1.1.38,1.63h0c.12-.52.29-1.07.46-1.62l.83-2.62h.79l.79,2.56c.19.62.34,1.16.46,1.68h0a14.57,14.57,0,0,1,.39-1.67l.73-2.57h.92l-1.65,5.13h-.85l-.78-2.45c-.18-.57-.33-1.08-.46-1.68h0a13.89,13.89,0,0,1-.46,1.69l-.83,2.44h-.85l-1.54-5.13Z"/><path d="M210.18,216.81a.58.58,0,0,1-1.15,0,.56.56,0,0,1,.58-.58A.55.55,0,0,1,210.18,216.81Zm-1,6.57v-5.13h.94v5.13Z"/><path d="M212.74,216.78v1.47h1.34V219h-1.34v2.76c0,.64.18,1,.7,1a2.11,2.11,0,0,0,.54-.06l.05.69a2.17,2.17,0,0,1-.83.13,1.33,1.33,0,0,1-1-.39,1.92,1.92,0,0,1-.36-1.33V219H211v-.71h.79V217Z"/><path d="M215.13,215.86h.93v3.2h0a1.7,1.7,0,0,1,.67-.66,1.88,1.88,0,0,1,.95-.27c.69,0,1.79.43,1.79,2.2v3h-.93v-2.95c0-.82-.31-1.52-1.19-1.52a1.34,1.34,0,0,0-1.25.93,1.17,1.17,0,0,0-.06.44v3.1h-.93Z"/><path d="M223.77,221a1.64,1.64,0,0,0,1.76,1.78,3.38,3.38,0,0,0,1.42-.26l.15.66a4,4,0,0,1-1.7.32,2.38,2.38,0,0,1-2.52-2.58,2.49,2.49,0,0,1,2.4-2.77,2.17,2.17,0,0,1,2.12,2.42,3.55,3.55,0,0,1,0,.43Zm2.73-.66a1.33,1.33,0,0,0-1.29-1.52,1.55,1.55,0,0,0-1.43,1.52Z"/><path d="M228.56,219.64c0-.53,0-1-.05-1.39h.82l0,.83h0a1.78,1.78,0,0,1,1.61-1,1.52,1.52,0,0,1,1.45,1h0a2.13,2.13,0,0,1,.58-.67,1.74,1.74,0,0,1,1.13-.36c.68,0,1.68.45,1.68,2.23v3H235v-2.91c0-1-.36-1.57-1.11-1.57a1.21,1.21,0,0,0-1.1.84,1.66,1.66,0,0,0-.07.47v3.17h-.92V220.3c0-.81-.36-1.4-1.07-1.4a1.27,1.27,0,0,0-1.15.93,1.37,1.37,0,0,0-.07.45v3.1h-.91Z"/><path d="M237.39,219.92c0-.65,0-1.18,0-1.67h.84l0,.88h0a2,2,0,0,1,1.82-1,2.32,2.32,0,0,1,2.17,2.61c0,1.84-1.12,2.75-2.33,2.75a1.79,1.79,0,0,1-1.58-.8h0v2.78h-.92Zm.92,1.37a2.22,2.22,0,0,0,0,.38,1.43,1.43,0,0,0,1.4,1.09c1,0,1.56-.8,1.56-2,0-1-.54-1.9-1.53-1.9a1.49,1.49,0,0,0-1.41,1.15,1.59,1.59,0,0,0-.06.38Z"/><path d="M243.41,215.86h.93v7.52h-.93Z"/><path d="M250.55,220.77a2.5,2.5,0,0,1-2.55,2.72,2.43,2.43,0,0,1-2.46-2.63,2.51,2.51,0,0,1,2.54-2.73A2.43,2.43,0,0,1,250.55,220.77Zm-4.07,0c0,1.13.65,2,1.56,2s1.56-.83,1.56-2c0-.87-.44-2-1.54-2S246.48,219.85,246.48,220.82Z"/><path d="M252,218.25l1.12,3c.12.34.25.74.33,1.05h0c.1-.31.21-.7.33-1.07l1-3h1l-1.39,3.65a7.88,7.88,0,0,1-1.76,3.21,2.67,2.67,0,0,1-1.15.61l-.23-.79a2.51,2.51,0,0,0,.82-.45,2.82,2.82,0,0,0,.78-1,.75.75,0,0,0,.07-.22.86.86,0,0,0-.06-.25L251,218.25Z"/><path d="M257.05,221a1.65,1.65,0,0,0,1.76,1.78,3.35,3.35,0,0,0,1.42-.26l.16.66a4.13,4.13,0,0,1-1.71.32,2.38,2.38,0,0,1-2.52-2.58,2.5,2.5,0,0,1,2.41-2.77,2.18,2.18,0,0,1,2.12,2.42,2.08,2.08,0,0,1,0,.43Zm2.74-.66a1.33,1.33,0,0,0-1.3-1.52,1.55,1.55,0,0,0-1.43,1.52Z"/><path d="M262.36,221a1.64,1.64,0,0,0,1.76,1.78,3.38,3.38,0,0,0,1.42-.26l.16.66a4.13,4.13,0,0,1-1.71.32,2.38,2.38,0,0,1-2.52-2.58,2.49,2.49,0,0,1,2.4-2.77,2.17,2.17,0,0,1,2.12,2.42,3.55,3.55,0,0,1,0,.43Zm2.73-.66a1.33,1.33,0,0,0-1.29-1.52,1.55,1.55,0,0,0-1.43,1.52Z"/><path d="M272.23,223.38l-.07-.65h0a1.89,1.89,0,0,1-1.56.76A1.46,1.46,0,0,1,269,222c0-1.24,1.1-1.92,3.08-1.91V220a1.06,1.06,0,0,0-1.16-1.19,2.59,2.59,0,0,0-1.34.38l-.21-.61a3.13,3.13,0,0,1,1.68-.46c1.57,0,1.95,1.07,1.95,2.1v1.92a6.63,6.63,0,0,0,.09,1.23Zm-.14-2.62c-1,0-2.17.16-2.17,1.16a.82.82,0,0,0,.88.88A1.27,1.27,0,0,0,272,222a1,1,0,0,0,0-.3Z"/><path d="M274.5,219.64c0-.53,0-1-.05-1.39h.83l.05.85h0a1.9,1.9,0,0,1,1.7-1c.71,0,1.81.43,1.81,2.19v3.06h-.93v-3c0-.82-.31-1.51-1.19-1.51a1.33,1.33,0,0,0-1.25,1,1.44,1.44,0,0,0-.06.43v3.09h-.93Z"/><path d="M284.8,215.86v6.19c0,.46,0,1,0,1.33H284l-.05-.89h0a1.88,1.88,0,0,1-1.74,1,2.34,2.34,0,0,1-2.2-2.6,2.46,2.46,0,0,1,2.3-2.76,1.73,1.73,0,0,1,1.55.79h0v-3.06Zm-.93,4.48a1.67,1.67,0,0,0,0-.39,1.37,1.37,0,0,0-1.35-1.08c-1,0-1.53.84-1.53,2s.5,1.9,1.51,1.9a1.4,1.4,0,0,0,1.37-1.11,1.7,1.7,0,0,0,0-.4Z"/><path d="M122.25,234.69c0,.53,0,1,0,1.4h-.82l-.06-.84h0a1.92,1.92,0,0,1-1.69.95c-.81,0-1.77-.44-1.77-2.24v-3h.93v2.84c0,1,.3,1.63,1.15,1.63a1.36,1.36,0,0,0,1.23-.85,1.46,1.46,0,0,0,.08-.48V231h.93Z"/><path d="M123.8,232.63c0-.65,0-1.18,0-1.67h.83l0,.88h0a2,2,0,0,1,1.82-1,2.32,2.32,0,0,1,2.17,2.61c0,1.84-1.12,2.75-2.33,2.75a1.79,1.79,0,0,1-1.58-.8h0v2.78h-.92Zm.92,1.37a2.22,2.22,0,0,0,0,.38,1.43,1.43,0,0,0,1.4,1.09c1,0,1.56-.8,1.56-2s-.54-1.91-1.53-1.91a1.5,1.5,0,0,0-1.41,1.16,1.59,1.59,0,0,0-.06.38Z"/><path d="M134.25,228.57v6.19c0,.46,0,1,0,1.33h-.83l-.05-.89h0a1.88,1.88,0,0,1-1.74,1,2.34,2.34,0,0,1-2.2-2.6,2.46,2.46,0,0,1,2.3-2.76,1.72,1.72,0,0,1,1.55.79h0v-3.06Zm-.93,4.48a1.81,1.81,0,0,0,0-.4,1.38,1.38,0,0,0-1.35-1.08c-1,0-1.53.85-1.53,2s.5,1.9,1.51,1.9a1.41,1.41,0,0,0,1.37-1.11,1.75,1.75,0,0,0,0-.4Z"/><path d="M138.63,236.09l-.07-.65h0a1.93,1.93,0,0,1-1.57.76,1.46,1.46,0,0,1-1.57-1.47c0-1.24,1.11-1.92,3.09-1.91v-.1a1.06,1.06,0,0,0-1.17-1.19,2.58,2.58,0,0,0-1.33.38l-.21-.61a3.11,3.11,0,0,1,1.68-.46c1.57,0,2,1.07,2,2.1v1.92a7.7,7.7,0,0,0,.08,1.23Zm-.13-2.62c-1,0-2.17.16-2.17,1.15a.82.82,0,0,0,.88.89,1.26,1.26,0,0,0,1.23-.85.84.84,0,0,0,.06-.3Z"/><path d="M142,229.49V231h1.34v.71H142v2.76c0,.64.18,1,.7,1a2.23,2.23,0,0,0,.54-.06l0,.69a2.12,2.12,0,0,1-.82.13,1.3,1.3,0,0,1-1-.39,1.92,1.92,0,0,1-.36-1.33v-2.8h-.79V231h.79v-1.23Z"/><path d="M144.82,233.69a1.64,1.64,0,0,0,1.76,1.78,3.55,3.55,0,0,0,1.42-.26l.16.66a4.13,4.13,0,0,1-1.71.32,2.38,2.38,0,0,1-2.52-2.58,2.49,2.49,0,0,1,2.4-2.77,2.17,2.17,0,0,1,2.12,2.42,3.55,3.55,0,0,1,0,.43Zm2.73-.67a1.32,1.32,0,0,0-1.29-1.51,1.54,1.54,0,0,0-1.43,1.51Z"/><path d="M149.48,235.13a2.45,2.45,0,0,0,1.23.37c.68,0,1-.34,1-.76s-.26-.69-.95-.94c-.92-.33-1.36-.84-1.36-1.45a1.58,1.58,0,0,1,1.77-1.51,2.53,2.53,0,0,1,1.26.32l-.23.68a2,2,0,0,0-1.05-.3c-.55,0-.86.32-.86.7s.31.62,1,.87c.89.34,1.34.78,1.34,1.55s-.7,1.53-1.91,1.53a3,3,0,0,1-1.44-.35Z"/><path d="M157.08,229.52a.58.58,0,0,1-1.15,0,.56.56,0,0,1,.58-.58A.55.55,0,0,1,157.08,229.52Zm-1,6.57V231H157v5.13Z"/><path d="M159.65,229.49V231H161v.71h-1.33v2.76c0,.64.18,1,.69,1a2.11,2.11,0,0,0,.54-.06l.05.69a2.17,2.17,0,0,1-.83.13,1.29,1.29,0,0,1-1-.39,1.87,1.87,0,0,1-.36-1.33v-2.8h-.8V231h.8v-1.23Z"/><path d="M165.31,229.52a.58.58,0,0,1-1.15,0,.56.56,0,0,1,.58-.58A.55.55,0,0,1,165.31,229.52Zm-1,6.57V231h.94v5.13Z"/><path d="M166.85,236.09v-4.42h-.72V231h.72v-.24a2.43,2.43,0,0,1,.59-1.79,1.79,1.79,0,0,1,1.25-.48,2,2,0,0,1,.79.15l-.12.72a1.47,1.47,0,0,0-.6-.12c-.79,0-1,.7-1,1.48V231H169v.71h-1.24v4.42Z"/><path d="M172.09,232.56c0-.6,0-1.12,0-1.6h.81l0,1h.05a1.54,1.54,0,0,1,1.42-1.13.71.71,0,0,1,.26,0v.87a1.45,1.45,0,0,0-.32,0,1.32,1.32,0,0,0-1.25,1.2,2.74,2.74,0,0,0,0,.43v2.74h-.92Z"/><path d="M176,233.69a1.64,1.64,0,0,0,1.75,1.78,3.51,3.51,0,0,0,1.42-.26l.16.66a4.11,4.11,0,0,1-1.7.32,2.38,2.38,0,0,1-2.52-2.58,2.49,2.49,0,0,1,2.4-2.77,2.18,2.18,0,0,1,2.12,2.42,3.55,3.55,0,0,1,0,.43Zm2.73-.67a1.33,1.33,0,0,0-1.29-1.51A1.54,1.54,0,0,0,176,233Z"/><path d="M184.25,235.29h0a1.83,1.83,0,0,1-1.68.91,2.34,2.34,0,0,1-2.17-2.59,2.46,2.46,0,0,1,2.32-2.77,1.69,1.69,0,0,1,1.58.89h0l0-.77h.88c0,.43,0,.88,0,1.41v5.81h-.93Zm0-2.25a1.33,1.33,0,0,0-.05-.4,1.35,1.35,0,0,0-1.33-1.06c-1,0-1.55.82-1.55,2s.49,1.91,1.52,1.91a1.38,1.38,0,0,0,1.33-1,1.27,1.27,0,0,0,.08-.44Z"/><path d="M191,234.69c0,.53,0,1,.05,1.4h-.83l-.05-.84h0a2,2,0,0,1-1.7.95c-.8,0-1.77-.44-1.77-2.24v-3h.93v2.84c0,1,.3,1.63,1.15,1.63a1.36,1.36,0,0,0,1.23-.85,1.46,1.46,0,0,0,.08-.48V231H191Z"/><path d="M193.59,229.52a.55.55,0,0,1-.59.57.56.56,0,0,1-.57-.57.57.57,0,0,1,.59-.58A.55.55,0,0,1,193.59,229.52Zm-1,6.57V231h.93v5.13Z"/><path d="M195,232.56c0-.6,0-1.12,0-1.6h.81l0,1h0a1.53,1.53,0,0,1,1.41-1.13.77.77,0,0,1,.27,0v.87a1.51,1.51,0,0,0-.32,0,1.31,1.31,0,0,0-1.25,1.2,2.74,2.74,0,0,0,0,.43v2.74H195Z"/><path d="M198.9,233.69a1.65,1.65,0,0,0,1.76,1.78,3.51,3.51,0,0,0,1.42-.26l.16.66a4.11,4.11,0,0,1-1.7.32,2.39,2.39,0,0,1-2.53-2.58,2.5,2.5,0,0,1,2.41-2.77,2.18,2.18,0,0,1,2.12,2.42,3.55,3.55,0,0,1,0,.43Zm2.74-.67a1.33,1.33,0,0,0-1.3-1.51,1.53,1.53,0,0,0-1.42,1.51Z"/><path d="M208.12,228.57v6.19c0,.46,0,1,0,1.33h-.84l0-.89h0a1.9,1.9,0,0,1-1.75,1,2.33,2.33,0,0,1-2.19-2.6,2.46,2.46,0,0,1,2.3-2.76,1.69,1.69,0,0,1,1.54.79h0v-3.06Zm-.93,4.48a1.46,1.46,0,0,0-1.39-1.48c-1,0-1.54.85-1.54,2s.51,1.9,1.52,1.9a1.4,1.4,0,0,0,1.36-1.11,1.33,1.33,0,0,0,.05-.4Z"/><path d="M209.34,235.53a.62.62,0,0,1,.63-.66.67.67,0,0,1,0,1.33A.62.62,0,0,1,209.34,235.53Z"/><rect x="103.15" y="89.27" width="7.19" height="7.19" fill="#7c7910"/><rect x="103.15" y="164.66" width="7.19" height="7.19" fill="#7c7910"/><rect x="103.15" y="204" width="7.19" height="7.19" fill="#7c7910"/><polygon points="13 10 21.47 18.48 13 26.94 21.27 26.94 29.75 18.48 21.27 10 13 10" fill="#7c7910"/><text transform="translate(35.11 26.66)" font-size="19.08" fill="#7c7910" font-family="MyriadPro-Regular, Myriad Pro">PERFOR<tspan x="62.52" y="0" letter-spacing="-0.01em">M</tspan><tspan x="77.67" y="0">ANCE </tspan><tspan x="126.42" y="0" letter-spacing="-0.01em">M</tspan><tspan x="141.57" y="0">AN</tspan><tspan x="165.81" y="0" letter-spacing="-0.01em">A</tspan><tspan x="177.2" y="0">GEMENT ANN</tspan><tspan x="286.53" y="0" letter-spacing="-0.03em">U</tspan><tspan x="298.23" y="0" letter-spacing="0em">AL </tspan><tspan x="322.97" y="0" letter-spacing="0em">C</tspan><tspan x="334.09" y="0" letter-spacing="-0.04em">Y</tspan><tspan x="343.73" y="0">CLE</tspan></text><text transform="translate(164.87 73.9)" font-size="19.08" fill="#fff" font-family="MyriadPro-Regular, Myriad Pro"><tspan letter-spacing="-0.01em">A</tspan><tspan x="11.49" y="0" letter-spacing="0em">t mid</tspan><tspan x="53" y="0" letter-spacing="0em">-</tspan><tspan x="58.76" y="0" letter-spacing="-0.01em">y</tspan><tspan x="67.56" y="0">ear</tspan></text></svg>