<svg xmlns="http://www.w3.org/2000/svg" viewBox="0 0 418 173"><g id="e5a3310a-31b3-4293-b6a8-521a0fd90837" data-name="Layer 1"><polygon points="11.71 16.02 20.18 24.51 11.71 32.96 19.98 32.96 28.46 24.51 19.98 16.02 11.71 16.02" fill="#7c7910"/><path d="M35.26,20a19.59,19.59,0,0,1,3.19-.25,5.34,5.34,0,0,1,3.61,1.07,3.48,3.48,0,0,1,1.12,2.69,3.76,3.76,0,0,1-1,2.75,5.32,5.32,0,0,1-3.93,1.42,5.52,5.52,0,0,1-1.34-.12v5.16H35.26Zm1.66,6.21a5.93,5.93,0,0,0,1.38.13c2,0,3.22-1,3.22-2.75s-1.2-2.52-3-2.52a7.49,7.49,0,0,0-1.57.13Z" fill="#7c7910"/><path d="M52.08,26.65h-5v4.64h5.57v1.4H45.42V19.82h6.94v1.39H47.08v4.07h5Z" fill="#7c7910"/><path d="M54.81,20A17.39,17.39,0,0,1,58,19.72a5.32,5.32,0,0,1,3.73,1.05,3.27,3.27,0,0,1,1,2.45A3.37,3.37,0,0,1,60.3,26.5v.06a3.18,3.18,0,0,1,1.89,2.59,20.12,20.12,0,0,0,1,3.54H61.47a16.56,16.56,0,0,1-.86-3.08c-.38-1.77-1.07-2.44-2.58-2.5H56.47v5.58H54.81Zm1.66,5.86h1.7c1.77,0,2.9-1,2.9-2.44,0-1.66-1.21-2.39-3-2.41a6.48,6.48,0,0,0-1.64.16Z" fill="#7c7910"/><path d="M65.07,19.82H72v1.39H66.73v4.28H71.6v1.37H66.73v5.83H65.07Z" fill="#7c7910"/><path d="M85.36,26.12c0,4.43-2.69,6.78-6,6.78s-5.79-2.64-5.79-6.53c0-4.09,2.54-6.76,6-6.76S85.36,22.3,85.36,26.12Zm-10,.21c0,2.75,1.49,5.21,4.1,5.21s4.13-2.42,4.13-5.34c0-2.56-1.34-5.24-4.11-5.24S75.38,23.5,75.38,26.33Z" fill="#7c7910"/><path d="M87.52,20a17.39,17.39,0,0,1,3.18-.27,5.32,5.32,0,0,1,3.73,1.05,3.23,3.23,0,0,1,1,2.45A3.37,3.37,0,0,1,93,26.5v.06a3.18,3.18,0,0,1,1.89,2.59,20.12,20.12,0,0,0,1,3.54H94.18a16.56,16.56,0,0,1-.86-3.08c-.38-1.77-1.07-2.44-2.58-2.5H89.18v5.58H87.52Zm1.66,5.86h1.7c1.77,0,2.9-1,2.9-2.44,0-1.66-1.21-2.39-3-2.41a6.48,6.48,0,0,0-1.64.16Z" fill="#7c7910"/><path d="M108.63,27c-.1-1.8-.21-4-.19-5.56h-.06c-.44,1.51-1,3.11-1.62,4.89l-2.28,6.24h-1.26l-2.08-6.13c-.61-1.81-1.12-3.47-1.49-5h0c0,1.6-.14,3.76-.25,5.69L99,32.69H97.44l.9-12.87h2.12L102.65,26c.54,1.59,1,3,1.3,4.34H104c.32-1.3.78-2.71,1.35-4.34l2.29-6.22h2.12l.8,12.87H109Z" fill="#7c7910"/><path d="M115,28.64l-1.34,4H112l4.37-12.87h2l4.39,12.87H121l-1.37-4Zm4.22-1.3L118,23.64c-.29-.84-.48-1.61-.67-2.35h0c-.19.76-.4,1.55-.65,2.33l-1.26,3.72Z" fill="#7c7910"/><path d="M124.62,32.69V19.82h1.81l4.12,6.51a35.4,35.4,0,0,1,2.31,4.18l0,0c-.15-1.72-.19-3.28-.19-5.29V19.82h1.57V32.69H132.6l-4.09-6.53a38.07,38.07,0,0,1-2.4-4.3l-.06,0c.09,1.62.13,3.17.13,5.31v5.5Z" fill="#7c7910"/><path d="M146.17,32.27a8.41,8.41,0,0,1-3.4.61c-3.63,0-6.36-2.29-6.36-6.51a6.4,6.4,0,0,1,6.72-6.76,6.85,6.85,0,0,1,3.05.57l-.4,1.36a5.94,5.94,0,0,0-2.59-.54c-3,0-5,1.93-5,5.31,0,3.15,1.81,5.17,4.94,5.17a6.74,6.74,0,0,0,2.71-.53Z" fill="#7c7910"/><path d="M154.91,26.65h-5v4.64h5.58v1.4h-7.24V19.82h6.95v1.39H149.9v4.07h5Z" fill="#7c7910"/><path d="M172.52,27c-.09-1.8-.21-4-.19-5.56h-.06c-.44,1.51-1,3.11-1.62,4.89l-2.27,6.24h-1.26L165,26.48c-.61-1.81-1.13-3.47-1.49-5h0c0,1.6-.13,3.76-.25,5.69l-.34,5.52h-1.59l.9-12.87h2.12l2.2,6.22c.53,1.59,1,3,1.29,4.34h.06c.33-1.3.78-2.71,1.36-4.34l2.29-6.22h2.12l.8,12.87h-1.62Z" fill="#7c7910"/><path d="M178.91,28.64l-1.33,4h-1.72l4.37-12.87h2l4.39,12.87h-1.77l-1.38-4Zm4.22-1.3-1.26-3.7c-.29-.84-.48-1.61-.67-2.35h0c-.19.76-.4,1.55-.64,2.33l-1.26,3.72Z" fill="#7c7910"/><path d="M188.51,32.69V19.82h1.81l4.13,6.51a36.9,36.9,0,0,1,2.31,4.18l0,0c-.16-1.72-.2-3.28-.2-5.29V19.82h1.57V32.69h-1.68l-4.08-6.53a39.83,39.83,0,0,1-2.41-4.3l-.06,0c.1,1.62.14,3.17.14,5.31v5.5Z" fill="#7c7910"/><path d="M203.15,28.64l-1.34,4H200.1l4.37-12.87h2l4.39,12.87h-1.77l-1.38-4Zm4.22-1.3-1.26-3.7c-.29-.84-.48-1.61-.67-2.35h0c-.19.76-.4,1.55-.65,2.33l-1.26,3.72Z" fill="#7c7910"/><path d="M222.25,32.11a11.85,11.85,0,0,1-3.95.71,6.64,6.64,0,0,1-4.81-1.7,6.65,6.65,0,0,1-1.79-4.79c0-3.84,2.65-6.64,7-6.64a7.85,7.85,0,0,1,3.2.59l-.4,1.35a6.71,6.71,0,0,0-2.84-.55,4.81,4.81,0,0,0-5.17,5.17c0,3.27,2,5.19,5,5.19a5.41,5.41,0,0,0,2.21-.34V27.26H218V25.93h4.23Z" fill="#7c7910"/><path d="M231.45,26.65h-5v4.64H232v1.4h-7.24V19.82h7v1.39h-5.29v4.07h5Z" fill="#7c7910"/><path d="M245,27c-.09-1.8-.21-4-.19-5.56h-.05c-.44,1.51-1,3.11-1.63,4.89l-2.27,6.24h-1.26l-2.08-6.13c-.61-1.81-1.12-3.47-1.49-5h0c0,1.6-.13,3.76-.24,5.69l-.35,5.52h-1.58l.89-12.87h2.12l2.2,6.22c.53,1.59,1,3,1.3,4.34h.05c.33-1.3.79-2.71,1.36-4.34l2.29-6.22h2.12l.8,12.87h-1.62Z" fill="#7c7910"/><path d="M256.19,26.65h-5v4.64h5.57v1.4h-7.23V19.82h6.94v1.39h-5.28v4.07h5Z" fill="#7c7910"/><path d="M258.91,32.69V19.82h1.82l4.12,6.51a36.9,36.9,0,0,1,2.31,4.18l0,0c-.15-1.72-.19-3.28-.19-5.29V19.82h1.56V32.69h-1.68l-4.08-6.53a39.83,39.83,0,0,1-2.41-4.3l0,0c.09,1.62.13,3.17.13,5.31v5.5Z" fill="#7c7910"/><path d="M273.92,21.23H270V19.82h9.53v1.41h-3.94V32.69h-1.67Z" fill="#7c7910"/><path d="M287.08,28.64l-1.33,4H284l4.37-12.87h2l4.39,12.87H293l-1.37-4Zm4.22-1.3L290,23.64c-.28-.84-.48-1.61-.67-2.35h0c-.2.76-.41,1.55-.65,2.33l-1.26,3.72Z" fill="#7c7910"/><path d="M296.68,32.69V19.82h1.82l4.12,6.51a36.9,36.9,0,0,1,2.31,4.18l0,0c-.16-1.72-.19-3.28-.19-5.29V19.82h1.56V32.69h-1.68l-4.08-6.53a39.83,39.83,0,0,1-2.41-4.3l-.06,0c.1,1.62.14,3.17.14,5.31v5.5Z" fill="#7c7910"/><path d="M309.24,32.69V19.82h1.81l4.13,6.51a36.9,36.9,0,0,1,2.31,4.18l0,0c-.15-1.72-.19-3.28-.19-5.29V19.82h1.57V32.69h-1.68l-4.09-6.53a41.48,41.48,0,0,1-2.4-4.3l-.06,0c.1,1.62.13,3.17.13,5.31v5.5Z" fill="#7c7910"/><path d="M323.46,19.82v7.62c0,2.88,1.28,4.1,3,4.1,1.9,0,3.13-1.26,3.13-4.1V19.82h1.68v7.5c0,3.95-2.09,5.58-4.87,5.58s-4.62-1.51-4.62-5.5V19.82Z" fill="#7c7910"/><path d="M335.58,28.64l-1.34,4h-1.72l4.37-12.87h2l4.39,12.87h-1.78l-1.37-4Zm4.21-1.3-1.25-3.7c-.29-.84-.48-1.61-.67-2.35h0c-.19.76-.4,1.55-.65,2.33l-1.26,3.72Z" fill="#7c7910"/><path d="M345.18,19.82h1.66V31.29h5.49v1.4h-7.15Z" fill="#7c7910"/><path d="M367.22,32.27a8.33,8.33,0,0,1-3.4.61c-3.62,0-6.35-2.29-6.35-6.51a6.4,6.4,0,0,1,6.71-6.76,6.91,6.91,0,0,1,3.06.57l-.4,1.36a6,6,0,0,0-2.6-.54c-3,0-5,1.93-5,5.31,0,3.15,1.82,5.17,4.95,5.17a6.74,6.74,0,0,0,2.71-.53Z" fill="#7c7910"/><path d="M372.22,32.69V27.23l-4.07-7.41H370l1.82,3.55c.49,1,.87,1.76,1.27,2.65h0c.37-.84.8-1.68,1.3-2.65l1.85-3.55h1.89l-4.31,7.39v5.48Z" fill="#7c7910"/><path d="M388,32.27a8.31,8.31,0,0,1-3.39.61c-3.63,0-6.36-2.29-6.36-6.51A6.4,6.4,0,0,1,385,19.61a6.89,6.89,0,0,1,3.05.57l-.4,1.36A6,6,0,0,0,385,21c-3,0-5,1.93-5,5.31,0,3.15,1.81,5.17,4.94,5.17a6.74,6.74,0,0,0,2.71-.53Z" fill="#7c7910"/><path d="M390.06,19.82h1.66V31.29h5.5v1.4h-7.16Z" fill="#7c7910"/><path d="M405.73,26.65h-5v4.64h5.57v1.4h-7.23V19.82H406v1.39h-5.29v4.07h5Z" fill="#7c7910"/></g><g id="e11d14fe-03f7-41b1-91fd-db89b194b005" data-name="Layer 2"><rect x="107.55" y="53.99" width="198.35" height="76.79" rx="5.67" fill="#7c7910" stroke="#7c7910" stroke-miterlimit="10"/><path d="M300.23,158.12h-187a5.68,5.68,0,0,1-5.67-5.67V87H305.9v65.46A5.68,5.68,0,0,1,300.23,158.12Z" fill="#bec766" stroke="#7c7910" stroke-miterlimit="10"/><path d="M137.11,99.77c-.05-1-.11-2.19-.1-3.08h0c-.25.83-.54,1.72-.9,2.71l-1.27,3.46h-.69L133,99.46c-.34-1-.62-1.92-.82-2.77h0c0,.89-.07,2.08-.13,3.15l-.19,3.06h-.88l.5-7.13h1.17l1.22,3.45c.3.88.54,1.66.72,2.4h0c.18-.72.43-1.5.75-2.4l1.27-3.45h1.18l.44,7.13h-.9Z"/><path d="M142.48,102.9l-.07-.64h0a1.93,1.93,0,0,1-1.57.76,1.46,1.46,0,0,1-1.57-1.47c0-1.24,1.1-1.92,3.08-1.91v-.1a1.05,1.05,0,0,0-1.16-1.19,2.62,2.62,0,0,0-1.34.38l-.21-.61a3.17,3.17,0,0,1,1.69-.46c1.56,0,1.94,1.07,1.94,2.1v1.92a7.41,7.41,0,0,0,.09,1.22Zm-.13-2.61c-1,0-2.18.16-2.18,1.15a.83.83,0,0,0,.88.89,1.27,1.27,0,0,0,1.24-.85,1.14,1.14,0,0,0,.06-.3Z"/><path d="M144.75,99.17c0-.53,0-1,0-1.39h.82l.06.85h0a1.87,1.87,0,0,1,1.69-1c.71,0,1.81.43,1.81,2.18v3.06h-.93v-3c0-.83-.31-1.51-1.19-1.51a1.33,1.33,0,0,0-1.25,1,1.4,1.4,0,0,0-.06.43v3.08h-.93Z"/><path d="M153.47,102.9l-.08-.64h0a1.93,1.93,0,0,1-1.57.76,1.45,1.45,0,0,1-1.56-1.47c0-1.24,1.1-1.92,3.08-1.91v-.1a1.06,1.06,0,0,0-1.17-1.19,2.56,2.56,0,0,0-1.33.38l-.21-.61a3.11,3.11,0,0,1,1.68-.46c1.57,0,1.95,1.07,1.95,2.1v1.92a7.49,7.49,0,0,0,.08,1.22Zm-.14-2.61c-1,0-2.17.16-2.17,1.15a.82.82,0,0,0,.88.89,1.26,1.26,0,0,0,1.23-.85.84.84,0,0,0,.06-.3Z"/><path d="M160.15,97.78c0,.37-.05.78-.05,1.41v3a2.93,2.93,0,0,1-.73,2.34,2.67,2.67,0,0,1-1.86.62,3.25,3.25,0,0,1-1.7-.43L156,104a2.82,2.82,0,0,0,1.5.41c1,0,1.65-.5,1.65-1.79V102h0a1.82,1.82,0,0,1-1.63.85,2.29,2.29,0,0,1-2.18-2.5,2.46,2.46,0,0,1,2.31-2.72,1.71,1.71,0,0,1,1.6.89h0l0-.77Zm-1,2a1.38,1.38,0,0,0-.05-.42,1.34,1.34,0,0,0-1.3-1c-.89,0-1.53.76-1.53,1.94,0,1,.51,1.84,1.52,1.84a1.36,1.36,0,0,0,1.29-1,1.73,1.73,0,0,0,.07-.5Z"/><path d="M162.17,100.51a1.64,1.64,0,0,0,1.76,1.78,3.51,3.51,0,0,0,1.42-.26l.16.66a4.13,4.13,0,0,1-1.71.32,2.38,2.38,0,0,1-2.52-2.58,2.49,2.49,0,0,1,2.41-2.77,2.17,2.17,0,0,1,2.11,2.42,3.55,3.55,0,0,1,0,.43Zm2.73-.67a1.32,1.32,0,0,0-1.29-1.51,1.55,1.55,0,0,0-1.43,1.51Z"/><path d="M167,99.38c0-.61,0-1.12-.05-1.6h.82l0,1h0a1.56,1.56,0,0,1,1.42-1.13,1.12,1.12,0,0,1,.27,0v.88a1.51,1.51,0,0,0-.32,0,1.31,1.31,0,0,0-1.25,1.2,2.74,2.74,0,0,0,0,.43v2.73H167Z"/><path d="M176.32,102.71a3.42,3.42,0,0,1-1.47.3,2.44,2.44,0,0,1-2.56-2.61,2.61,2.61,0,0,1,2.76-2.73,3,3,0,0,1,1.29.27l-.21.72a2.11,2.11,0,0,0-1.08-.25,1.94,1.94,0,0,0,0,3.86,2.71,2.71,0,0,0,1.14-.25Z"/><path d="M182,100.3a2.5,2.5,0,0,1-2.55,2.72,2.43,2.43,0,0,1-2.45-2.64,2.5,2.5,0,0,1,2.54-2.72A2.42,2.42,0,0,1,182,100.3Zm-4.06,0c0,1.13.64,2,1.55,2s1.56-.83,1.56-2c0-.87-.43-2-1.53-2S177.92,99.38,177.92,100.35Z"/><path d="M183.16,99.17c0-.53,0-1,0-1.39h.82l.06.85h0a1.87,1.87,0,0,1,1.69-1c.71,0,1.81.43,1.81,2.18v3.06h-.93v-3c0-.83-.31-1.51-1.19-1.51a1.3,1.3,0,0,0-1.24,1,1.14,1.14,0,0,0-.07.43v3.08h-.93Z"/><path d="M193.46,95.39v6.19c0,.46,0,1,0,1.32h-.84l0-.88h0a1.9,1.9,0,0,1-1.75,1,2.33,2.33,0,0,1-2.19-2.6,2.46,2.46,0,0,1,2.3-2.76,1.69,1.69,0,0,1,1.54.79h0V95.39Zm-.93,4.48a1.81,1.81,0,0,0,0-.4,1.38,1.38,0,0,0-1.34-1.08c-1,0-1.54.85-1.54,2s.51,1.9,1.51,1.9a1.4,1.4,0,0,0,1.37-1.11,1.75,1.75,0,0,0,0-.4Z"/><path d="M199.3,101.51c0,.53,0,1,0,1.39h-.82l-.06-.83h0a1.92,1.92,0,0,1-1.69,1c-.81,0-1.77-.44-1.77-2.24v-3h.93v2.84c0,1,.3,1.63,1.14,1.63a1.35,1.35,0,0,0,1.23-.85,1.24,1.24,0,0,0,.09-.48V97.78h.93Z"/><path d="M204.5,102.71a3.35,3.35,0,0,1-1.47.3,2.43,2.43,0,0,1-2.55-2.61,2.61,2.61,0,0,1,2.75-2.73,3,3,0,0,1,1.29.27l-.21.72a2.11,2.11,0,0,0-1.08-.25,1.94,1.94,0,0,0,0,3.86,2.71,2.71,0,0,0,1.14-.25Z"/><path d="M206.85,96.31v1.47h1.33v.71h-1.33v2.76c0,.64.18,1,.7,1a2.23,2.23,0,0,0,.54-.06l0,.69a2.12,2.12,0,0,1-.82.13,1.3,1.3,0,0,1-1-.39,1.89,1.89,0,0,1-.36-1.34V98.49h-.79v-.71h.79V96.55Z"/><path d="M209.1,102a2.48,2.48,0,0,0,1.23.37c.68,0,1-.34,1-.76s-.27-.69-1-.94c-.93-.33-1.36-.84-1.36-1.45a1.58,1.58,0,0,1,1.77-1.51,2.56,2.56,0,0,1,1.26.32l-.23.68a2,2,0,0,0-1-.3c-.55,0-.86.32-.86.7s.31.62,1,.87c.89.34,1.35.78,1.35,1.55s-.7,1.53-1.92,1.53a3,3,0,0,1-1.44-.35Z"/><path d="M215.77,102.9V98.49h-.72v-.71h.72v-.24a2.43,2.43,0,0,1,.59-1.79,1.77,1.77,0,0,1,1.25-.48,2,2,0,0,1,.79.15l-.12.72a1.32,1.32,0,0,0-.6-.12c-.79,0-1,.7-1,1.48v.28h1.24v.71h-1.24v4.41Z"/><path d="M223.26,100.3a2.5,2.5,0,0,1-2.55,2.72,2.44,2.44,0,0,1-2.45-2.64,2.5,2.5,0,0,1,2.54-2.72A2.42,2.42,0,0,1,223.26,100.3Zm-4.06,0c0,1.13.64,2,1.55,2s1.56-.83,1.56-2c0-.87-.43-2-1.53-2S219.2,99.38,219.2,100.35Z"/><path d="M224.44,99.38c0-.61,0-1.12,0-1.6h.81l0,1h0a1.54,1.54,0,0,1,1.42-1.13,1,1,0,0,1,.26,0v.88a1.45,1.45,0,0,0-.32,0,1.32,1.32,0,0,0-1.25,1.2,2.74,2.74,0,0,0,0,.43v2.73h-.92Z"/><path d="M228,99.17c0-.53,0-1,0-1.39h.82l0,.82h0a1.79,1.79,0,0,1,1.61-.94,1.52,1.52,0,0,1,1.45,1h0a1.9,1.9,0,0,1,.57-.67,1.74,1.74,0,0,1,1.13-.36c.68,0,1.68.45,1.68,2.23v3h-.91V100c0-1-.36-1.57-1.11-1.57a1.21,1.21,0,0,0-1.1.84,1.66,1.66,0,0,0-.07.47v3.16h-.92V99.83c0-.81-.36-1.4-1.07-1.4a1.27,1.27,0,0,0-1.15.93,1.29,1.29,0,0,0-.07.45v3.09H228Z"/><path d="M239.62,102.9l-.08-.64h0a1.93,1.93,0,0,1-1.57.76,1.46,1.46,0,0,1-1.56-1.47c0-1.24,1.1-1.92,3.08-1.91v-.1a1.06,1.06,0,0,0-1.17-1.19,2.58,2.58,0,0,0-1.33.38l-.21-.61a3.11,3.11,0,0,1,1.68-.46c1.57,0,1.95,1.07,1.95,2.1v1.92a7.49,7.49,0,0,0,.08,1.22Zm-.14-2.61c-1,0-2.17.16-2.17,1.15a.82.82,0,0,0,.88.89,1.28,1.28,0,0,0,1.24-.85,1.11,1.11,0,0,0,0-.3Z"/><path d="M241.88,95.39h.93v7.51h-.93Z"/><path d="M247,97.78l1.12,3c.11.34.24.74.33,1h0c.09-.31.2-.7.33-1.07l1-3h1l-1.4,3.65a7.77,7.77,0,0,1-1.76,3.21,2.49,2.49,0,0,1-1.14.6l-.24-.78a2.41,2.41,0,0,0,.82-.45,2.91,2.91,0,0,0,.78-1,.59.59,0,0,0,.08-.22.68.68,0,0,0-.07-.25L246,97.78Z"/><path d="M252,100.51a1.64,1.64,0,0,0,1.76,1.78,3.55,3.55,0,0,0,1.42-.26l.15.66a4.08,4.08,0,0,1-1.7.32,2.38,2.38,0,0,1-2.52-2.58,2.49,2.49,0,0,1,2.4-2.77,2.17,2.17,0,0,1,2.12,2.42,3.55,3.55,0,0,1,0,.43Zm2.73-.67a1.32,1.32,0,0,0-1.29-1.51A1.54,1.54,0,0,0,252,99.84Z"/><path d="M259.65,102.9l-.07-.64h0A1.93,1.93,0,0,1,258,103a1.46,1.46,0,0,1-1.57-1.47c0-1.24,1.1-1.92,3.08-1.91v-.1a1.05,1.05,0,0,0-1.16-1.19,2.56,2.56,0,0,0-1.33.38l-.22-.61a3.17,3.17,0,0,1,1.69-.46c1.56,0,1.95,1.07,1.95,2.1v1.92a7.49,7.49,0,0,0,.08,1.22Zm-.13-2.61c-1,0-2.18.16-2.18,1.15a.83.83,0,0,0,.88.89,1.27,1.27,0,0,0,1.24-.85,1.14,1.14,0,0,0,.06-.3Z"/><path d="M261.92,99.38c0-.61,0-1.12,0-1.6h.81l0,1h0a1.54,1.54,0,0,1,1.42-1.13,1,1,0,0,1,.26,0v.88a1.45,1.45,0,0,0-.32,0,1.32,1.32,0,0,0-1.25,1.2,2.74,2.74,0,0,0,0,.43v2.73h-.92Z"/><path d="M267.49,99.7v.68h-2.62V99.7Z"/><path d="M269.29,100.51a1.64,1.64,0,0,0,1.76,1.78,3.55,3.55,0,0,0,1.42-.26l.16.66a4.13,4.13,0,0,1-1.71.32,2.38,2.38,0,0,1-2.52-2.58,2.49,2.49,0,0,1,2.4-2.77,2.17,2.17,0,0,1,2.12,2.42,3.55,3.55,0,0,1,0,.43Zm2.73-.67a1.32,1.32,0,0,0-1.29-1.51,1.55,1.55,0,0,0-1.43,1.51Z"/><path d="M274.08,99.17c0-.53,0-1-.05-1.39h.83l.05.85h0a1.9,1.9,0,0,1,1.7-1c.71,0,1.81.43,1.81,2.18v3.06h-.93v-3c0-.83-.31-1.51-1.19-1.51a1.33,1.33,0,0,0-1.25,1,1.4,1.4,0,0,0-.06.43v3.08h-.93Z"/><path d="M284.38,95.39v6.19c0,.46,0,1,0,1.32h-.83l0-.88h0a1.88,1.88,0,0,1-1.74,1,2.34,2.34,0,0,1-2.2-2.6,2.46,2.46,0,0,1,2.3-2.76,1.7,1.7,0,0,1,1.55.79h0V95.39Zm-.93,4.48a1.81,1.81,0,0,0,0-.4,1.38,1.38,0,0,0-1.35-1.08c-1,0-1.53.85-1.53,2s.51,1.9,1.51,1.9a1.4,1.4,0,0,0,1.37-1.11,1.75,1.75,0,0,0,0-.4Z"/><path d="M133.9,115.61l-.07-.64h0a1.93,1.93,0,0,1-1.57.76,1.46,1.46,0,0,1-1.57-1.47c0-1.24,1.11-1.92,3.09-1.91v-.1a1.06,1.06,0,0,0-1.17-1.19,2.56,2.56,0,0,0-1.33.38l-.22-.61a3.17,3.17,0,0,1,1.69-.46c1.57,0,1.95,1.07,1.95,2.1v1.91a7.62,7.62,0,0,0,.08,1.23Zm-.13-2.61c-1,0-2.17.16-2.17,1.15a.82.82,0,0,0,.88.89,1.26,1.26,0,0,0,1.23-.86.75.75,0,0,0,.06-.29Z"/><path d="M136,114.66a2.48,2.48,0,0,0,1.23.37c.68,0,1-.34,1-.76s-.27-.69-1-.94c-.92-.33-1.35-.84-1.35-1.46a1.58,1.58,0,0,1,1.77-1.5,2.56,2.56,0,0,1,1.26.32l-.24.68a2,2,0,0,0-1-.3c-.55,0-.86.32-.86.7s.31.61,1,.87c.89.34,1.35.78,1.35,1.54s-.7,1.54-1.92,1.54a3,3,0,0,1-1.44-.35Z"/><path d="M140.24,114.66a2.42,2.42,0,0,0,1.23.37c.67,0,1-.34,1-.76s-.26-.69-1-.94c-.92-.33-1.36-.84-1.36-1.46a1.58,1.58,0,0,1,1.77-1.5,2.53,2.53,0,0,1,1.26.32l-.23.68a2,2,0,0,0-1-.3c-.55,0-.86.32-.86.7s.31.61,1,.87c.89.34,1.34.78,1.34,1.54s-.7,1.54-1.92,1.54a3,3,0,0,1-1.44-.35Z"/><path d="M145.08,113.22a1.64,1.64,0,0,0,1.75,1.78,3.33,3.33,0,0,0,1.42-.27l.16.67a4.11,4.11,0,0,1-1.7.32,2.38,2.38,0,0,1-2.52-2.58,2.49,2.49,0,0,1,2.4-2.77,2.18,2.18,0,0,1,2.12,2.42,3.73,3.73,0,0,1,0,.43Zm2.73-.67a1.33,1.33,0,0,0-1.29-1.51,1.54,1.54,0,0,0-1.43,1.51Z"/><path d="M149.74,114.66A2.41,2.41,0,0,0,151,115c.68,0,1-.34,1-.76s-.26-.69-1-.94c-.92-.33-1.36-.84-1.36-1.46a1.58,1.58,0,0,1,1.77-1.5,2.56,2.56,0,0,1,1.26.32l-.23.68a2,2,0,0,0-1-.3c-.55,0-.86.32-.86.7s.31.61,1,.87c.88.34,1.34.78,1.34,1.54s-.7,1.54-1.92,1.54a3,3,0,0,1-1.44-.35Z"/><path d="M153.93,114.66a2.42,2.42,0,0,0,1.23.37c.68,0,1-.34,1-.76s-.26-.69-1-.94c-.92-.33-1.35-.84-1.35-1.46a1.57,1.57,0,0,1,1.76-1.5,2.53,2.53,0,0,1,1.26.32l-.23.68a2,2,0,0,0-1-.3c-.55,0-.86.32-.86.7s.31.61,1,.87c.89.34,1.34.78,1.34,1.54s-.7,1.54-1.91,1.54a3,3,0,0,1-1.44-.35Z"/><path d="M158.25,111.87c0-.52,0-1,0-1.38H159l0,.82h0a1.77,1.77,0,0,1,1.61-.94,1.51,1.51,0,0,1,1.45,1h0a2.12,2.12,0,0,1,.57-.67,1.78,1.78,0,0,1,1.13-.36c.68,0,1.69.45,1.69,2.23v3h-.91v-2.9c0-1-.36-1.58-1.12-1.58a1.21,1.21,0,0,0-1.1.85,1.66,1.66,0,0,0-.07.47v3.16h-.91v-3.07c0-.81-.36-1.41-1.07-1.41a1.29,1.29,0,0,0-1.16.93,1.39,1.39,0,0,0-.07.46v3.09h-.91Z"/><path d="M167.6,113.22a1.64,1.64,0,0,0,1.76,1.78,3.33,3.33,0,0,0,1.42-.27l.16.67a4.13,4.13,0,0,1-1.71.32,2.38,2.38,0,0,1-2.52-2.58,2.49,2.49,0,0,1,2.41-2.77,2.17,2.17,0,0,1,2.11,2.42,3.73,3.73,0,0,1,0,.43Zm2.73-.67A1.32,1.32,0,0,0,169,111a1.55,1.55,0,0,0-1.43,1.51Z"/><path d="M172.39,111.87c0-.52,0-1,0-1.38h.82l.05.84h0a1.88,1.88,0,0,1,1.69-1c.71,0,1.81.42,1.81,2.18v3.06h-.93v-3c0-.83-.31-1.52-1.19-1.52a1.33,1.33,0,0,0-1.25,1,1.35,1.35,0,0,0-.06.43v3.08h-.93Z"/><path d="M179.35,109v1.47h1.33v.71h-1.33V114c0,.64.18,1,.7,1a2.14,2.14,0,0,0,.54-.07l0,.7a2.17,2.17,0,0,1-.83.13,1.29,1.29,0,0,1-1-.39,1.89,1.89,0,0,1-.36-1.34V111.2h-.8v-.71h.8v-1.23Z"/><path d="M186.81,115.61l-.07-.64h0a1.93,1.93,0,0,1-1.57.76,1.46,1.46,0,0,1-1.57-1.47c0-1.24,1.1-1.92,3.08-1.91v-.1a1.05,1.05,0,0,0-1.16-1.19,2.59,2.59,0,0,0-1.34.38l-.21-.61a3.17,3.17,0,0,1,1.69-.46c1.56,0,1.94,1.07,1.94,2.1v1.91a7.54,7.54,0,0,0,.09,1.23Zm-.14-2.61c-1,0-2.17.16-2.17,1.15a.83.83,0,0,0,.88.89,1.27,1.27,0,0,0,1.24-.86,1,1,0,0,0,0-.29Z"/><path d="M189.08,111.87c0-.52,0-1,0-1.38h.82l0,.84h0a1.88,1.88,0,0,1,1.69-1c.71,0,1.81.42,1.81,2.18v3.06h-.93v-3c0-.83-.31-1.52-1.19-1.52a1.33,1.33,0,0,0-1.25,1,1.35,1.35,0,0,0-.06.43v3.08h-.93Z"/><path d="M199.38,108.09v6.2c0,.45,0,1,.05,1.32h-.84l0-.89h0a1.87,1.87,0,0,1-1.74,1,2.34,2.34,0,0,1-2.19-2.61,2.44,2.44,0,0,1,2.29-2.75,1.71,1.71,0,0,1,1.55.78h0v-3.06Zm-.93,4.48a1.78,1.78,0,0,0,0-.39,1.38,1.38,0,0,0-1.35-1.08c-1,0-1.53.85-1.53,2S196,115,197,115a1.41,1.41,0,0,0,1.37-1.11,1.78,1.78,0,0,0,0-.41Z"/><path d="M203.17,112.09c0-.61,0-1.13,0-1.6H204l0,1h0a1.54,1.54,0,0,1,1.42-1.12,1,1,0,0,1,.26,0v.88a1.42,1.42,0,0,0-.31,0,1.3,1.3,0,0,0-1.25,1.2,2.63,2.63,0,0,0,0,.43v2.73h-.93Z"/><path d="M209.42,115.61l-.07-.64h0a1.93,1.93,0,0,1-1.57.76,1.46,1.46,0,0,1-1.57-1.47c0-1.24,1.1-1.92,3.08-1.91v-.1a1.05,1.05,0,0,0-1.16-1.19,2.59,2.59,0,0,0-1.34.38l-.21-.61a3.17,3.17,0,0,1,1.69-.46c1.56,0,1.94,1.07,1.94,2.1v1.91a7.54,7.54,0,0,0,.09,1.23Zm-.14-2.61c-1,0-2.17.16-2.17,1.15a.83.83,0,0,0,.88.89,1.27,1.27,0,0,0,1.24-.86,1,1,0,0,0,.05-.29Z"/><path d="M212.77,109v1.47h1.33v.71h-1.33V114c0,.64.18,1,.7,1a2.14,2.14,0,0,0,.54-.07l0,.7a2.17,2.17,0,0,1-.83.13,1.29,1.29,0,0,1-1-.39,1.89,1.89,0,0,1-.36-1.34V111.2h-.8v-.71h.8v-1.23Z"/><path d="M215.61,113.22a1.64,1.64,0,0,0,1.75,1.78,3.33,3.33,0,0,0,1.42-.27l.16.67a4.11,4.11,0,0,1-1.7.32,2.38,2.38,0,0,1-2.52-2.58,2.49,2.49,0,0,1,2.4-2.77,2.18,2.18,0,0,1,2.12,2.42,3.73,3.73,0,0,1,0,.43Zm2.73-.67a1.33,1.33,0,0,0-1.29-1.51,1.54,1.54,0,0,0-1.43,1.51Z"/><path d="M220.27,114.66a2.41,2.41,0,0,0,1.22.37c.68,0,1-.34,1-.76s-.26-.69-1-.94c-.92-.33-1.36-.84-1.36-1.46a1.58,1.58,0,0,1,1.77-1.5,2.56,2.56,0,0,1,1.26.32l-.23.68a2,2,0,0,0-1-.3c-.55,0-.86.32-.86.7s.31.61,1,.87c.89.34,1.35.78,1.35,1.54s-.7,1.54-1.92,1.54a3,3,0,0,1-1.44-.35Z"/><path d="M131.59,125.93a1.64,1.64,0,0,0,1.75,1.78,3.33,3.33,0,0,0,1.42-.27l.16.67a4.11,4.11,0,0,1-1.7.32,2.38,2.38,0,0,1-2.52-2.59,2.49,2.49,0,0,1,2.4-2.76,2.17,2.17,0,0,1,2.12,2.41,3.94,3.94,0,0,1,0,.44Zm2.73-.67a1.33,1.33,0,0,0-1.29-1.51,1.53,1.53,0,0,0-1.43,1.51Z"/><path d="M136.37,124.58c0-.53,0-1,0-1.38h.82l0,.82h0a1.76,1.76,0,0,1,1.61-.94,1.51,1.51,0,0,1,1.45,1h0a2.12,2.12,0,0,1,.57-.67,1.79,1.79,0,0,1,1.14-.36c.67,0,1.68.44,1.68,2.22v3h-.91v-2.9c0-1-.36-1.58-1.11-1.58a1.19,1.19,0,0,0-1.1.85,1.3,1.3,0,0,0-.08.46v3.17h-.91v-3.07c0-.82-.36-1.41-1.07-1.41a1.28,1.28,0,0,0-1.15.93,1.17,1.17,0,0,0-.08.46v3.09h-.91Z"/><path d="M145.2,124.87c0-.66,0-1.19,0-1.67H146l0,.87h0a2,2,0,0,1,1.82-1,2.32,2.32,0,0,1,2.17,2.6c0,1.85-1.12,2.76-2.33,2.76a1.78,1.78,0,0,1-1.57-.81h0v2.79h-.93Zm.93,1.36a2.34,2.34,0,0,0,0,.39,1.44,1.44,0,0,0,1.4,1.09c1,0,1.55-.81,1.55-2s-.54-1.91-1.52-1.91a1.49,1.49,0,0,0-1.41,1.15,1.67,1.67,0,0,0-.06.39Z"/><path d="M151.23,120.8h.93v7.52h-.93Z"/><path d="M158.37,125.72a2.51,2.51,0,0,1-2.56,2.72,2.44,2.44,0,0,1-2.45-2.64,2.5,2.5,0,0,1,2.54-2.72A2.43,2.43,0,0,1,158.37,125.72Zm-4.07,0c0,1.12.65,2,1.56,2s1.55-.84,1.55-2c0-.87-.43-2-1.53-2S154.3,124.79,154.3,125.77Z"/><path d="M159.81,123.2l1.12,3c.12.34.24.75.33,1h0c.09-.3.2-.7.33-1.07l1-3h1l-1.4,3.65a7.77,7.77,0,0,1-1.76,3.21,2.49,2.49,0,0,1-1.14.6l-.23-.78a2.61,2.61,0,0,0,.81-.46,2.83,2.83,0,0,0,.79-1,.61.61,0,0,0,.07-.22.81.81,0,0,0-.06-.24l-1.9-4.72Z"/><path d="M164.87,125.93a1.64,1.64,0,0,0,1.76,1.78,3.33,3.33,0,0,0,1.42-.27l.16.67a4.13,4.13,0,0,1-1.71.32,2.38,2.38,0,0,1-2.52-2.59,2.49,2.49,0,0,1,2.41-2.76,2.16,2.16,0,0,1,2.11,2.41,3.94,3.94,0,0,1,0,.44Zm2.73-.67a1.32,1.32,0,0,0-1.29-1.51,1.54,1.54,0,0,0-1.43,1.51Z"/><path d="M170.18,125.93a1.64,1.64,0,0,0,1.75,1.78,3.33,3.33,0,0,0,1.42-.27l.16.67a4.11,4.11,0,0,1-1.7.32,2.38,2.38,0,0,1-2.52-2.59,2.49,2.49,0,0,1,2.4-2.76,2.17,2.17,0,0,1,2.12,2.41,3.94,3.94,0,0,1,0,.44Zm2.73-.67a1.33,1.33,0,0,0-1.29-1.51,1.53,1.53,0,0,0-1.43,1.51Z"/><path d="M175.65,121.07l-.18,2.54h-.57l-.17-2.54Z"/><path d="M176.83,127.37a2.42,2.42,0,0,0,1.23.37c.67,0,1-.34,1-.76s-.26-.69-1-1c-.92-.32-1.36-.83-1.36-1.45a1.58,1.58,0,0,1,1.77-1.5,2.56,2.56,0,0,1,1.26.32l-.23.67a2.06,2.06,0,0,0-1-.29c-.55,0-.86.32-.86.7s.31.61,1,.87c.89.33,1.34.78,1.34,1.54s-.7,1.54-1.92,1.54a3,3,0,0,1-1.44-.35Z"/><path d="M183.39,124.87c0-.66,0-1.19,0-1.67h.84l0,.87h0a2,2,0,0,1,1.82-1,2.32,2.32,0,0,1,2.17,2.6c0,1.85-1.12,2.76-2.33,2.76a1.77,1.77,0,0,1-1.57-.81h0v2.79h-.92Zm.92,1.36a2.3,2.3,0,0,0,.05.39,1.44,1.44,0,0,0,1.39,1.09c1,0,1.56-.81,1.56-2s-.54-1.91-1.52-1.91a1.49,1.49,0,0,0-1.41,1.15,1.68,1.68,0,0,0-.07.39Z"/><path d="M189.94,125.93a1.64,1.64,0,0,0,1.75,1.78,3.33,3.33,0,0,0,1.42-.27l.16.67a4.11,4.11,0,0,1-1.7.32,2.38,2.38,0,0,1-2.52-2.59,2.49,2.49,0,0,1,2.4-2.76,2.17,2.17,0,0,1,2.12,2.41,3.94,3.94,0,0,1,0,.44Zm2.73-.67a1.32,1.32,0,0,0-1.29-1.51,1.54,1.54,0,0,0-1.43,1.51Z"/><path d="M194.72,124.79c0-.6,0-1.12,0-1.59h.82l0,1h0a1.53,1.53,0,0,1,1.42-1.12,1,1,0,0,1,.26,0V124a1.42,1.42,0,0,0-.31,0,1.3,1.3,0,0,0-1.25,1.19,2.87,2.87,0,0,0,0,.44v2.73h-.93Z"/><path d="M198.6,128.32V123.9h-.72v-.7h.72V123a2.44,2.44,0,0,1,.59-1.79,1.78,1.78,0,0,1,1.25-.47,2.3,2.3,0,0,1,.8.14l-.13.72a1.47,1.47,0,0,0-.59-.11c-.8,0-1,.7-1,1.48v.28h1.24v.7h-1.24v4.42Z"/><path d="M206.1,125.72a2.51,2.51,0,0,1-2.55,2.72,2.44,2.44,0,0,1-2.46-2.64,2.5,2.5,0,0,1,2.54-2.72A2.43,2.43,0,0,1,206.1,125.72Zm-4.07,0c0,1.12.65,2,1.56,2s1.55-.84,1.55-2c0-.87-.43-2-1.53-2S202,124.79,202,125.77Z"/><path d="M207.27,124.79c0-.6,0-1.12,0-1.59h.82l0,1h0a1.53,1.53,0,0,1,1.42-1.12,1,1,0,0,1,.26,0V124a1.42,1.42,0,0,0-.31,0,1.3,1.3,0,0,0-1.25,1.19,2.81,2.81,0,0,0-.05.44v2.73h-.92Z"/><path d="M210.78,124.58c0-.53,0-1,0-1.38h.81l0,.82h0a1.75,1.75,0,0,1,1.61-.94,1.51,1.51,0,0,1,1.45,1h0a2.12,2.12,0,0,1,.57-.67,1.78,1.78,0,0,1,1.13-.36c.68,0,1.69.44,1.69,2.22v3h-.91v-2.9c0-1-.36-1.58-1.12-1.58a1.2,1.2,0,0,0-1.1.85,1.59,1.59,0,0,0-.07.46v3.17H214v-3.07c0-.82-.36-1.41-1.07-1.41a1.29,1.29,0,0,0-1.16.93,1.39,1.39,0,0,0-.07.46v3.09h-.91Z"/><path d="M222.45,128.32l-.07-.64h0a1.89,1.89,0,0,1-1.56.76,1.46,1.46,0,0,1-1.57-1.47c0-1.24,1.1-1.92,3.08-1.91V125a1.05,1.05,0,0,0-1.16-1.18,2.59,2.59,0,0,0-1.34.38l-.21-.62a3.22,3.22,0,0,1,1.68-.45c1.57,0,2,1.07,2,2.1v1.91a6.57,6.57,0,0,0,.09,1.23Zm-.14-2.61c-1,0-2.17.15-2.17,1.15a.83.83,0,0,0,.88.89,1.27,1.27,0,0,0,1.24-.86,1,1,0,0,0,.05-.3Z"/><path d="M224.72,124.58c0-.53,0-1-.05-1.38h.83l.05.84h0a1.91,1.91,0,0,1,1.7-1c.71,0,1.81.42,1.81,2.18v3.06h-.93v-2.95c0-.83-.31-1.52-1.19-1.52a1.33,1.33,0,0,0-1.25,1,1.35,1.35,0,0,0-.06.43v3.08h-.93Z"/><path d="M234.25,128.13a3.42,3.42,0,0,1-1.47.3,2.44,2.44,0,0,1-2.56-2.62,2.6,2.6,0,0,1,2.76-2.72,3.26,3.26,0,0,1,1.29.26l-.21.72a2.26,2.26,0,0,0-1.08-.24,1.94,1.94,0,0,0,0,3.86,2.62,2.62,0,0,0,1.14-.26Z"/><path d="M235.79,125.93a1.65,1.65,0,0,0,1.76,1.78,3.33,3.33,0,0,0,1.42-.27l.16.67a4.13,4.13,0,0,1-1.71.32,2.39,2.39,0,0,1-2.52-2.59,2.49,2.49,0,0,1,2.41-2.76,2.17,2.17,0,0,1,2.12,2.41,2.27,2.27,0,0,1,0,.44Zm2.74-.67a1.33,1.33,0,0,0-1.3-1.51,1.54,1.54,0,0,0-1.43,1.51Z"/><path d="M240.23,127.77a.63.63,0,0,1,.64-.67.67.67,0,0,1,0,1.34A.63.63,0,0,1,240.23,127.77Z"/><path d="M158.69,61.23a16.34,16.34,0,0,1,3-.27,5.3,5.3,0,0,1,3.53.94,2.7,2.7,0,0,1,1.07,2.27A3,3,0,0,1,164.15,67v0a3.32,3.32,0,0,1,2.65,3.23,3.5,3.5,0,0,1-1.08,2.58c-.9.82-2.35,1.2-4.45,1.2a20.65,20.65,0,0,1-2.58-.15Zm1.66,5.27h1.51c1.76,0,2.79-.92,2.79-2.16,0-1.51-1.15-2.1-2.83-2.1a6.86,6.86,0,0,0-1.47.12Zm0,6.16a8.54,8.54,0,0,0,1.4.08c1.71,0,3.3-.63,3.3-2.5s-1.51-2.48-3.32-2.48h-1.38Z" fill="#fff"/><path d="M169.66,64.69l2,5.46c.21.61.44,1.33.59,1.88h0c.17-.55.36-1.26.59-1.92l1.83-5.42h1.78L174,71.27c-1.21,3.17-2,4.79-3.17,5.79a4.5,4.5,0,0,1-2.06,1.08l-.42-1.41a4.41,4.41,0,0,0,1.47-.82A5,5,0,0,0,171.23,74a1.12,1.12,0,0,0,.13-.4,1.3,1.3,0,0,0-.11-.44l-3.42-8.51Z" fill="#fff"/><path d="M182.7,64.69l2,5.46c.21.61.44,1.33.59,1.88h0c.17-.55.37-1.26.59-1.92l1.84-5.42h1.77L187,71.27c-1.2,3.17-2,4.79-3.17,5.79a4.5,4.5,0,0,1-2.06,1.08l-.42-1.41a4.32,4.32,0,0,0,1.47-.82A5,5,0,0,0,184.26,74a1.19,1.19,0,0,0,.14-.4,1.38,1.38,0,0,0-.12-.44l-3.41-8.51Z" fill="#fff"/><path d="M191.82,69.61A3,3,0,0,0,195,72.82a6,6,0,0,0,2.56-.48l.28,1.2a7.42,7.42,0,0,1-3.07.57,4.29,4.29,0,0,1-4.54-4.65c0-2.79,1.64-5,4.33-5,3,0,3.82,2.65,3.82,4.35a6,6,0,0,1-.06.78Zm4.93-1.2c0-1.07-.44-2.73-2.33-2.73a2.78,2.78,0,0,0-2.58,2.73Z" fill="#fff"/><path d="M205.56,73.92l-.13-1.16h-.06a3.45,3.45,0,0,1-2.82,1.37,2.63,2.63,0,0,1-2.83-2.65c0-2.23,2-3.45,5.56-3.43v-.2a1.9,1.9,0,0,0-2.1-2.13,4.62,4.62,0,0,0-2.41.68l-.38-1.1a5.68,5.68,0,0,1,3-.82c2.83,0,3.52,1.92,3.52,3.78v3.45a13.47,13.47,0,0,0,.15,2.21Zm-.25-4.71c-1.83,0-3.91.29-3.91,2.08a1.49,1.49,0,0,0,1.59,1.6,2.3,2.3,0,0,0,2.23-1.54,1.7,1.7,0,0,0,.09-.54Z" fill="#fff"/><path d="M209.65,67.57c0-1.09,0-2-.08-2.88H211l.06,1.81h.07a2.78,2.78,0,0,1,2.56-2,1.77,1.77,0,0,1,.48,0v1.59a2.31,2.31,0,0,0-2.83,2.1,5.79,5.79,0,0,0-.07.78v4.92h-1.66Z" fill="#fff"/><path d="M219.69,68.14v1.24H215V68.14Z" fill="#fff"/><path d="M222.93,69.61a3,3,0,0,0,3.17,3.21,6,6,0,0,0,2.56-.48l.28,1.2a7.42,7.42,0,0,1-3.07.57,4.28,4.28,0,0,1-4.54-4.65c0-2.79,1.64-5,4.33-5,3,0,3.82,2.65,3.82,4.35a6,6,0,0,1-.06.78Zm4.92-1.2c0-1.07-.43-2.73-2.32-2.73A2.78,2.78,0,0,0,223,68.41Z" fill="#fff"/><path d="M231.56,67.19c0-1,0-1.74-.08-2.5H233l.09,1.52h0a3.4,3.4,0,0,1,3.06-1.73c1.27,0,3.26.76,3.26,3.93v5.51h-1.68V68.6c0-1.49-.55-2.73-2.14-2.73a2.39,2.39,0,0,0-2.25,1.72,2.3,2.3,0,0,0-.11.78v5.55h-1.68Z" fill="#fff"/><path d="M250.13,60.37V71.54c0,.82,0,1.75.07,2.38h-1.5l-.08-1.6h0a3.42,3.42,0,0,1-3.15,1.81c-2.23,0-4-1.89-4-4.69,0-3.08,1.89-5,4.14-5a3.09,3.09,0,0,1,2.79,1.41h0V60.37Zm-1.68,8.08a2.87,2.87,0,0,0-.08-.71A2.47,2.47,0,0,0,246,65.79c-1.74,0-2.77,1.53-2.77,3.57,0,1.87.91,3.42,2.73,3.42a2.54,2.54,0,0,0,2.46-2,2.69,2.69,0,0,0,.08-.72Z" fill="#fff"/></g></svg>