<svg xmlns="http://www.w3.org/2000/svg" viewBox="0 0 398 177"><defs><style>.aba17d89-787f-4b7d-a6b8-1849786381a0,.ef71d2b5-f104-498a-99b0-3f7c393de3b7{fill:#7c7910;}.aba17d89-787f-4b7d-a6b8-1849786381a0,.b9ce64d1-0417-4ba9-a50b-1ef2281eeeba{stroke:#7c7910;stroke-miterlimit:10;}.b9ce64d1-0417-4ba9-a50b-1ef2281eeeba{fill:#bec766;}.edb26147-7dad-47c4-bf62-2b272bb66be5{fill:#fff;}</style></defs><g id="b74385f6-cc23-4503-9b0a-05631e315d73" data-name="Layer 1"><polygon class="ef71d2b5-f104-498a-99b0-3f7c393de3b7" points="9.71 15.02 18.18 23.51 9.71 31.96 17.98 31.96 26.46 23.51 17.98 15.02 9.71 15.02"/><path class="ef71d2b5-f104-498a-99b0-3f7c393de3b7" d="M42.25,31.27a8.31,8.31,0,0,1-3.39.61c-3.63,0-6.36-2.29-6.36-6.51a6.4,6.4,0,0,1,6.72-6.76,6.89,6.89,0,0,1,3.05.57l-.4,1.36A6,6,0,0,0,39.28,20c-3,0-5,1.93-5,5.31,0,3.15,1.81,5.17,4.94,5.17A6.74,6.74,0,0,0,41.91,30Z"/><path class="ef71d2b5-f104-498a-99b0-3f7c393de3b7" d="M47.25,31.69V26.23l-4.06-7.41h1.89l1.81,3.55c.5,1,.88,1.76,1.28,2.65h0c.36-.84.8-1.68,1.29-2.65l1.86-3.55h1.89l-4.32,7.39v5.48Z"/><path class="ef71d2b5-f104-498a-99b0-3f7c393de3b7" d="M63,31.27a8.37,8.37,0,0,1-3.4.61c-3.63,0-6.36-2.29-6.36-6.51A6.4,6.4,0,0,1,60,18.61a6.91,6.91,0,0,1,3.06.57l-.4,1.36A6,6,0,0,0,60,20c-3,0-5,1.93-5,5.31,0,3.15,1.81,5.17,4.94,5.17A6.7,6.7,0,0,0,62.67,30Z"/><path class="ef71d2b5-f104-498a-99b0-3f7c393de3b7" d="M65.1,18.82h1.66V30.29h5.49v1.4H65.1Z"/><path class="ef71d2b5-f104-498a-99b0-3f7c393de3b7" d="M80.77,25.65h-5v4.64h5.58v1.4H74.1V18.82h7v1.39H75.76v4.07h5Z"/><path class="ef71d2b5-f104-498a-99b0-3f7c393de3b7" d="M89.62,27.64l-1.34,4.05H86.56l4.38-12.87h2l4.39,12.87H95.56l-1.38-4.05Zm4.22-1.3-1.26-3.7c-.29-.84-.48-1.61-.67-2.35h0c-.19.76-.4,1.55-.65,2.33L90,26.34Z"/><path class="ef71d2b5-f104-498a-99b0-3f7c393de3b7" d="M99.22,31.69V18.82H101l4.12,6.51a35.4,35.4,0,0,1,2.31,4.18l0,0c-.15-1.72-.19-3.28-.19-5.29V18.82h1.57V31.69H107.2l-4.09-6.53a39.7,39.7,0,0,1-2.4-4.3l-.06,0c.1,1.62.13,3.17.13,5.31v5.5Z"/><path class="ef71d2b5-f104-498a-99b0-3f7c393de3b7" d="M111.78,31.69V18.82h1.81l4.12,6.51A35.4,35.4,0,0,1,120,29.51l0,0c-.15-1.72-.19-3.28-.19-5.29V18.82h1.56V31.69h-1.68l-4.08-6.53a39.83,39.83,0,0,1-2.41-4.3l-.05,0c.09,1.62.13,3.17.13,5.31v5.5Z"/><path class="ef71d2b5-f104-498a-99b0-3f7c393de3b7" d="M126,18.82v7.62c0,2.88,1.28,4.1,3,4.1,1.91,0,3.13-1.26,3.13-4.1V18.82h1.68v7.5c0,3.95-2.08,5.58-4.87,5.58-2.63,0-4.62-1.51-4.62-5.5V18.82Z"/><path class="ef71d2b5-f104-498a-99b0-3f7c393de3b7" d="M143.34,25.65h-5v4.64h5.58v1.4h-7.24V18.82h6.95v1.39h-5.29v4.07h5Z"/><path class="ef71d2b5-f104-498a-99b0-3f7c393de3b7" d="M146.07,18.82h1.66V30.29h5.5v1.4h-7.16Z"/><path class="ef71d2b5-f104-498a-99b0-3f7c393de3b7" d="M159.12,19a24.28,24.28,0,0,1,3.53-.27,7.39,7.39,0,0,1,5.22,1.61A5.94,5.94,0,0,1,169.68,25a6.81,6.81,0,0,1-1.85,5c-1.2,1.2-3.19,1.85-5.69,1.85a28.37,28.37,0,0,1-3-.15Zm1.66,11.38a11.38,11.38,0,0,0,1.68.09c3.55,0,5.48-2,5.48-5.46,0-3-1.7-5-5.21-5a9.9,9.9,0,0,0-1.95.17Z"/><path class="ef71d2b5-f104-498a-99b0-3f7c393de3b7" d="M178.5,25.65h-5v4.64h5.58v1.4h-7.24V18.82h6.95v1.39h-5.29v4.07h5Z"/><path class="ef71d2b5-f104-498a-99b0-3f7c393de3b7" d="M195.06,31.11a11.85,11.85,0,0,1-3.95.71,6.62,6.62,0,0,1-4.81-1.7,6.61,6.61,0,0,1-1.79-4.79c0-3.84,2.65-6.64,7-6.64a7.91,7.91,0,0,1,3.21.59l-.4,1.35a6.79,6.79,0,0,0-2.85-.55,4.81,4.81,0,0,0-5.17,5.17c0,3.27,2,5.19,5,5.19a5.47,5.47,0,0,0,2.22-.34V26.26h-2.62V24.93h4.24Z"/><path class="ef71d2b5-f104-498a-99b0-3f7c393de3b7" d="M204.26,25.65h-5v4.64h5.57v1.4H197.6V18.82h7v1.39h-5.29v4.07h5Z"/><path class="ef71d2b5-f104-498a-99b0-3f7c393de3b7" d="M206.76,29.66a5.85,5.85,0,0,0,3,.84c1.69,0,2.69-.9,2.69-2.19s-.69-1.89-2.43-2.56c-2.1-.75-3.39-1.83-3.39-3.65,0-2,1.66-3.49,4.16-3.49a5.89,5.89,0,0,1,2.84.63l-.46,1.36a5.09,5.09,0,0,0-2.44-.62c-1.76,0-2.42,1.05-2.42,1.93,0,1.2.78,1.8,2.55,2.48,2.18.84,3.29,1.89,3.29,3.78s-1.47,3.71-4.51,3.71a6.73,6.73,0,0,1-3.28-.82Z"/><path class="ef71d2b5-f104-498a-99b0-3f7c393de3b7" d="M218.84,20.23h-3.91V18.82h9.52v1.41h-3.93V31.69h-1.68Z"/><path class="ef71d2b5-f104-498a-99b0-3f7c393de3b7" d="M227.54,18.82V31.69h-1.66V18.82Z"/><path class="ef71d2b5-f104-498a-99b0-3f7c393de3b7" d="M241.44,25.12c0,4.43-2.69,6.78-6,6.78s-5.78-2.64-5.78-6.53c0-4.09,2.54-6.76,6-6.76S241.44,21.3,241.44,25.12Zm-10,.21c0,2.75,1.49,5.21,4.11,5.21s4.12-2.42,4.12-5.34c0-2.56-1.34-5.24-4.1-5.24S231.45,22.5,231.45,25.33Z"/><path class="ef71d2b5-f104-498a-99b0-3f7c393de3b7" d="M243.59,31.69V18.82h1.82l4.12,6.51a36.9,36.9,0,0,1,2.31,4.18l0,0c-.16-1.72-.2-3.28-.2-5.29V18.82h1.57V31.69h-1.68l-4.08-6.53a39.83,39.83,0,0,1-2.41-4.3l-.06,0c.1,1.62.14,3.17.14,5.31v5.5Z"/><path class="ef71d2b5-f104-498a-99b0-3f7c393de3b7" d="M260.2,19a24.06,24.06,0,0,1,3.53-.27,7.38,7.38,0,0,1,5.21,1.61A5.94,5.94,0,0,1,270.75,25a6.81,6.81,0,0,1-1.85,5c-1.2,1.2-3.19,1.85-5.69,1.85a28.17,28.17,0,0,1-3-.15Zm1.66,11.38a11.38,11.38,0,0,0,1.68.09c3.55,0,5.47-2,5.47-5.46,0-3-1.69-5-5.21-5a9.7,9.7,0,0,0-1.94.17Z"/><path class="ef71d2b5-f104-498a-99b0-3f7c393de3b7" d="M274.57,18.82v7.62c0,2.88,1.27,4.1,3,4.1,1.91,0,3.13-1.26,3.13-4.1V18.82h1.68v7.5c0,3.95-2.08,5.58-4.87,5.58-2.63,0-4.61-1.51-4.61-5.5V18.82Z"/><path class="ef71d2b5-f104-498a-99b0-3f7c393de3b7" d="M289.3,19a17.43,17.43,0,0,1,3.19-.27,5.29,5.29,0,0,1,3.72,1.05,3.23,3.23,0,0,1,1,2.45,3.38,3.38,0,0,1-2.42,3.28v.06a3.21,3.21,0,0,1,1.89,2.59,20.42,20.42,0,0,0,1,3.54H296a16.56,16.56,0,0,1-.86-3.08c-.38-1.77-1.07-2.44-2.58-2.5H291v5.58H289.3ZM291,24.85h1.7c1.77,0,2.9-1,2.9-2.44,0-1.66-1.2-2.39-3-2.41a6.55,6.55,0,0,0-1.64.16Z"/><path class="ef71d2b5-f104-498a-99b0-3f7c393de3b7" d="M306.23,25.65h-5v4.64h5.57v1.4h-7.23V18.82h6.94v1.39h-5.28v4.07h5Z"/><path class="ef71d2b5-f104-498a-99b0-3f7c393de3b7" d="M309,31.69V18.82h1.81l4.12,6.51a35.4,35.4,0,0,1,2.31,4.18l0,0c-.15-1.72-.19-3.28-.19-5.29V18.82h1.56V31.69h-1.68l-4.08-6.53a39.83,39.83,0,0,1-2.41-4.3l-.05,0c.09,1.62.13,3.17.13,5.31v5.5Z"/><path class="ef71d2b5-f104-498a-99b0-3f7c393de3b7" d="M321.51,19a24.28,24.28,0,0,1,3.53-.27,7.39,7.39,0,0,1,5.22,1.61A5.94,5.94,0,0,1,332.07,25a6.81,6.81,0,0,1-1.85,5,8,8,0,0,1-5.69,1.85,28.37,28.37,0,0,1-3-.15Zm1.66,11.38a11.46,11.46,0,0,0,1.68.09c3.55,0,5.48-2,5.48-5.46,0-3-1.7-5-5.21-5a9.9,9.9,0,0,0-1.95.17Z"/><path class="ef71d2b5-f104-498a-99b0-3f7c393de3b7" d="M340.88,25.65h-5v4.64h5.58v1.4h-7.24V18.82h6.95v1.39h-5.29v4.07h5Z"/><path class="ef71d2b5-f104-498a-99b0-3f7c393de3b7" d="M354.46,26c-.1-1.8-.21-4-.2-5.56h-.05c-.44,1.51-1,3.11-1.63,4.89l-2.27,6.24h-1.26L347,25.48c-.61-1.81-1.12-3.47-1.49-5h0c0,1.6-.14,3.76-.25,5.69l-.35,5.52h-1.58l.9-12.87h2.12L348.48,25c.53,1.59,1,3,1.3,4.34h.06c.32-1.3.78-2.71,1.35-4.34l2.29-6.22h2.12l.8,12.87h-1.62Z"/><path class="ef71d2b5-f104-498a-99b0-3f7c393de3b7" d="M365.62,25.65h-5v4.64h5.57v1.4H359V18.82h7v1.39h-5.29v4.07h5Z"/><path class="ef71d2b5-f104-498a-99b0-3f7c393de3b7" d="M368.35,31.69V18.82h1.81l4.12,6.51a35.4,35.4,0,0,1,2.31,4.18l0,0c-.15-1.72-.19-3.28-.19-5.29V18.82H378V31.69h-1.68l-4.08-6.53a39.83,39.83,0,0,1-2.41-4.3l-.05,0c.09,1.62.13,3.17.13,5.31v5.5Z"/><path class="ef71d2b5-f104-498a-99b0-3f7c393de3b7" d="M383.35,20.23h-3.92V18.82H389v1.41H385V31.69h-1.68Z"/></g><g id="ab510b14-b987-45d0-8372-88613755b09a" data-name="Layer 2"><rect class="aba17d89-787f-4b7d-a6b8-1849786381a0" x="105.55" y="52.99" width="198.35" height="76.79" rx="5.67"/><path class="b9ce64d1-0417-4ba9-a50b-1ef2281eeeba" d="M298.23,157.12h-187a5.68,5.68,0,0,1-5.67-5.67V86H303.9v65.46A5.68,5.68,0,0,1,298.23,157.12Z"/><path d="M129.1,94.77H130v6.36h3v.77h-4Z"/><path d="M134.43,99.51a1.65,1.65,0,0,0,1.76,1.78,3.51,3.51,0,0,0,1.42-.26l.16.66a4.13,4.13,0,0,1-1.71.32,2.38,2.38,0,0,1-2.52-2.58A2.5,2.5,0,0,1,136,96.66a2.18,2.18,0,0,1,2.12,2.42,2.08,2.08,0,0,1,0,.43Zm2.74-.67a1.33,1.33,0,0,0-1.3-1.51,1.55,1.55,0,0,0-1.43,1.51Z"/><path d="M145.88,96.78c0,.37,0,.78,0,1.41v3a2.93,2.93,0,0,1-.73,2.34,2.72,2.72,0,0,1-1.87.62,3.25,3.25,0,0,1-1.7-.43l.23-.71a2.83,2.83,0,0,0,1.51.41c.95,0,1.65-.5,1.65-1.79V101h0a1.85,1.85,0,0,1-1.63.85,2.29,2.29,0,0,1-2.18-2.5,2.46,2.46,0,0,1,2.3-2.72,1.71,1.71,0,0,1,1.6.89h0l0-.77Zm-1,2a1.12,1.12,0,0,0-.06-.42,1.33,1.33,0,0,0-1.3-1c-.89,0-1.52.76-1.52,1.94,0,1,.51,1.84,1.51,1.84a1.36,1.36,0,0,0,1.29-1,1.45,1.45,0,0,0,.08-.5Z"/><path d="M147.9,99.51a1.65,1.65,0,0,0,1.76,1.78,3.51,3.51,0,0,0,1.42-.26l.16.66a4.11,4.11,0,0,1-1.7.32A2.38,2.38,0,0,1,147,99.43a2.49,2.49,0,0,1,2.4-2.77,2.18,2.18,0,0,1,2.12,2.42,3.55,3.55,0,0,1,0,.43Zm2.74-.67a1.33,1.33,0,0,0-1.29-1.51,1.54,1.54,0,0,0-1.43,1.51Z"/><path d="M152.56,101a2.48,2.48,0,0,0,1.23.37c.68,0,1-.34,1-.76s-.27-.69-.95-.94c-.93-.33-1.36-.84-1.36-1.45a1.58,1.58,0,0,1,1.77-1.51,2.56,2.56,0,0,1,1.26.32l-.24.68a2,2,0,0,0-1-.3c-.55,0-.86.32-.86.7s.31.62,1,.87c.89.34,1.35.78,1.35,1.55S155,102,153.77,102a3,3,0,0,1-1.44-.35Z"/><path d="M158,95.31v1.47h1.33v.71H158v2.76c0,.64.18,1,.7,1a2.23,2.23,0,0,0,.54-.06l0,.69a2.17,2.17,0,0,1-.83.13,1.29,1.29,0,0,1-1-.39,1.89,1.89,0,0,1-.36-1.34V97.49h-.8v-.71h.8V95.55Z"/><path d="M161.43,95.34a.55.55,0,0,1-.6.57.56.56,0,0,1-.56-.57.57.57,0,0,1,.59-.58A.55.55,0,0,1,161.43,95.34Zm-1,6.56V96.78h.93v5.12Z"/><path d="M167.51,99.3A2.51,2.51,0,0,1,165,102a2.44,2.44,0,0,1-2.45-2.64A2.5,2.5,0,0,1,165,96.66,2.43,2.43,0,0,1,167.51,99.3Zm-4.07,0c0,1.13.65,2,1.56,2s1.55-.83,1.55-2c0-.87-.43-2-1.53-2S163.44,98.38,163.44,99.35Z"/><path d="M168.68,98.17c0-.53,0-1,0-1.39h.83l.05.85h0a1.88,1.88,0,0,1,1.69-1c.71,0,1.82.43,1.82,2.18v3.06h-.94V99c0-.83-.3-1.51-1.18-1.51a1.32,1.32,0,0,0-1.25,1,1.38,1.38,0,0,0-.07.43v3.08h-.93Z"/><path d="M174.56,98.17c0-.53,0-1,0-1.39h.82l.06.85h0a1.88,1.88,0,0,1,1.69-1c.71,0,1.81.43,1.81,2.18v3.06H178V99c0-.83-.31-1.51-1.18-1.51a1.32,1.32,0,0,0-1.25,1,1.14,1.14,0,0,0-.07.43v3.08h-.93Z"/><path d="M183.28,101.9l-.08-.64h0a1.91,1.91,0,0,1-1.57.76,1.46,1.46,0,0,1-1.56-1.47c0-1.24,1.1-1.92,3.08-1.91v-.1A1.06,1.06,0,0,0,182,97.35a2.58,2.58,0,0,0-1.33.38l-.21-.61a3.11,3.11,0,0,1,1.68-.46c1.57,0,1.95,1.07,1.95,2.1v1.92a7.49,7.49,0,0,0,.08,1.22Zm-.14-2.61c-1,0-2.17.16-2.17,1.15a.82.82,0,0,0,.88.89,1.28,1.28,0,0,0,1.24-.85,1.11,1.11,0,0,0,0-.3Z"/><path d="M186.58,95.34a.58.58,0,0,1-1.15,0,.56.56,0,0,1,.58-.58A.55.55,0,0,1,186.58,95.34Zm-1,6.56V96.78h.94v5.12Z"/><path d="M188,98.38c0-.61,0-1.12,0-1.6h.81l0,1h0a1.54,1.54,0,0,1,1.42-1.13,1,1,0,0,1,.26,0v.88a1.45,1.45,0,0,0-.32,0,1.32,1.32,0,0,0-1.25,1.2,2.74,2.74,0,0,0,0,.43v2.73H188Z"/><path d="M191.9,99.51a1.64,1.64,0,0,0,1.76,1.78,3.46,3.46,0,0,0,1.41-.26l.16.66a4.08,4.08,0,0,1-1.7.32A2.38,2.38,0,0,1,191,99.43a2.49,2.49,0,0,1,2.4-2.77,2.17,2.17,0,0,1,2.12,2.42,3.55,3.55,0,0,1,0,.43Zm2.73-.67a1.32,1.32,0,0,0-1.29-1.51,1.54,1.54,0,0,0-1.43,1.51Z"/><path d="M199.45,99.51a1.64,1.64,0,0,0,1.76,1.78,3.55,3.55,0,0,0,1.42-.26l.15.66a4,4,0,0,1-1.7.32,2.38,2.38,0,0,1-2.52-2.58,2.49,2.49,0,0,1,2.4-2.77,2.17,2.17,0,0,1,2.12,2.42,3.55,3.55,0,0,1,0,.43Zm2.73-.67a1.32,1.32,0,0,0-1.29-1.51,1.54,1.54,0,0,0-1.43,1.51Z"/><path d="M207.4,101.9V97.49h-2.15v4.41h-.92V97.49h-.72v-.71h.72v-.17a2.45,2.45,0,0,1,.57-1.75,1.78,1.78,0,0,1,1.29-.47,1.61,1.61,0,0,1,.74.18l-.2.68a1.36,1.36,0,0,0-.55-.12c-.73,0-.93.62-.93,1.43v.22h2.15v-.24a2.4,2.4,0,0,1,.61-1.79,1.74,1.74,0,0,1,1.23-.48,2,2,0,0,1,.8.15l-.12.72a1.35,1.35,0,0,0-.6-.12c-.79,0-1,.7-1,1.48v.28h1.24v.71h-1.23v4.41Z"/><path d="M210.79,99.51a1.64,1.64,0,0,0,1.76,1.78A3.51,3.51,0,0,0,214,101l.16.66a4.13,4.13,0,0,1-1.71.32,2.38,2.38,0,0,1-2.52-2.58,2.49,2.49,0,0,1,2.41-2.77,2.17,2.17,0,0,1,2.11,2.42,3.55,3.55,0,0,1,0,.43Zm2.73-.67a1.32,1.32,0,0,0-1.29-1.51,1.55,1.55,0,0,0-1.43,1.51Z"/><path d="M219.23,101.71a3.35,3.35,0,0,1-1.47.3,2.43,2.43,0,0,1-2.55-2.61A2.61,2.61,0,0,1,218,96.67a3,3,0,0,1,1.29.27l-.21.72a2.11,2.11,0,0,0-1.08-.25,1.78,1.78,0,0,0-1.81,1.94,1.76,1.76,0,0,0,1.78,1.92,2.71,2.71,0,0,0,1.14-.25Z"/><path d="M221.58,95.31v1.47h1.34v.71h-1.34v2.76c0,.64.18,1,.7,1a2.23,2.23,0,0,0,.54-.06l0,.69a2.12,2.12,0,0,1-.82.13,1.3,1.3,0,0,1-1-.39,1.94,1.94,0,0,1-.36-1.34V97.49h-.79v-.71h.79V95.55Z"/><path d="M228.25,100.51c0,.53,0,1,.05,1.39h-.83l-.05-.83h0a2,2,0,0,1-1.7,1c-.8,0-1.77-.44-1.77-2.24v-3h.93v2.84c0,1,.3,1.63,1.15,1.63a1.36,1.36,0,0,0,1.23-.85,1.46,1.46,0,0,0,.08-.48V96.78h.93Z"/><path d="M230.32,99.51a1.64,1.64,0,0,0,1.76,1.78,3.55,3.55,0,0,0,1.42-.26l.15.66a4.08,4.08,0,0,1-1.7.32,2.38,2.38,0,0,1-2.52-2.58,2.49,2.49,0,0,1,2.4-2.77A2.17,2.17,0,0,1,234,99.08a3.55,3.55,0,0,1,0,.43Zm2.73-.67a1.32,1.32,0,0,0-1.29-1.51,1.54,1.54,0,0,0-1.43,1.51Z"/><path d="M241.64,100.51c0,.53,0,1,0,1.39h-.82l-.06-.83h0a1.92,1.92,0,0,1-1.69,1c-.81,0-1.77-.44-1.77-2.24v-3h.93v2.84c0,1,.3,1.63,1.14,1.63a1.35,1.35,0,0,0,1.23-.85,1.24,1.24,0,0,0,.09-.48V96.78h.93Z"/><path d="M243.19,98.17c0-.53,0-1-.05-1.39H244l.05.85h0a1.9,1.9,0,0,1,1.7-1c.71,0,1.81.43,1.81,2.18v3.06h-.93V99c0-.83-.31-1.51-1.19-1.51a1.33,1.33,0,0,0-1.25,1,1.4,1.4,0,0,0-.06.43v3.08h-.93Z"/><path d="M249.58,99.51a1.64,1.64,0,0,0,1.76,1.78,3.51,3.51,0,0,0,1.42-.26l.16.66a4.13,4.13,0,0,1-1.71.32,2.38,2.38,0,0,1-2.52-2.58,2.49,2.49,0,0,1,2.41-2.77,2.17,2.17,0,0,1,2.11,2.42,3.55,3.55,0,0,1,0,.43Zm2.73-.67A1.32,1.32,0,0,0,251,97.33a1.55,1.55,0,0,0-1.43,1.51Z"/><path d="M257.13,99.51a1.64,1.64,0,0,0,1.76,1.78,3.51,3.51,0,0,0,1.42-.26l.16.66a4.13,4.13,0,0,1-1.71.32,2.38,2.38,0,0,1-2.52-2.58,2.49,2.49,0,0,1,2.41-2.77,2.17,2.17,0,0,1,2.11,2.42,3.55,3.55,0,0,1,0,.43Zm2.74-.67a1.33,1.33,0,0,0-1.3-1.51,1.55,1.55,0,0,0-1.43,1.51Zm.22-4.27-1.3,1.51h-.66l.93-1.51Z"/><path d="M262.28,96.78l1,2.88c.17.47.3.89.41,1.31h0c.12-.42.27-.84.43-1.31l1-2.88h1l-2,5.12h-.89l-2-5.12Z"/><path d="M269.81,101.9l-.07-.64h0a1.89,1.89,0,0,1-1.56.76,1.46,1.46,0,0,1-1.57-1.47c0-1.24,1.1-1.92,3.08-1.91v-.1a1.06,1.06,0,0,0-1.16-1.19,2.59,2.59,0,0,0-1.34.38l-.21-.61a3.13,3.13,0,0,1,1.68-.46c1.57,0,1.95,1.07,1.95,2.1v1.92a6.46,6.46,0,0,0,.09,1.22Zm-.14-2.61c-1,0-2.17.16-2.17,1.15a.82.82,0,0,0,.88.89,1.27,1.27,0,0,0,1.24-.85,1.11,1.11,0,0,0,.05-.3Z"/><path d="M272.08,94.39H273v7.51h-.93Z"/><path d="M278.86,100.51c0,.53,0,1,.05,1.39h-.83l-.05-.83h0a2,2,0,0,1-1.7,1c-.8,0-1.77-.44-1.77-2.24v-3h.93v2.84c0,1,.3,1.63,1.15,1.63a1.36,1.36,0,0,0,1.23-.85,1.46,1.46,0,0,0,.08-.48V96.78h.93Z"/><path d="M283.25,101.9l-.08-.64h0a1.9,1.9,0,0,1-1.57.76,1.46,1.46,0,0,1-1.56-1.47c0-1.24,1.1-1.92,3.08-1.91v-.1a1.06,1.06,0,0,0-1.17-1.19,2.58,2.58,0,0,0-1.33.38l-.21-.61a3.13,3.13,0,0,1,1.68-.46c1.57,0,1.95,1.07,1.95,2.1v1.92a7.49,7.49,0,0,0,.08,1.22Zm-.14-2.61c-1,0-2.17.16-2.17,1.15a.82.82,0,0,0,.88.89,1.27,1.27,0,0,0,1.24-.85,1.11,1.11,0,0,0,.05-.3Z"/><path d="M286.59,95.31v1.47h1.34v.71h-1.34v2.76c0,.64.18,1,.7,1a2.11,2.11,0,0,0,.54-.06l.05.69a2.17,2.17,0,0,1-.83.13,1.33,1.33,0,0,1-1-.39,1.94,1.94,0,0,1-.36-1.34V97.49h-.79v-.71h.79V95.55Z"/><path d="M290,95.34a.58.58,0,0,1-1.15,0,.56.56,0,0,1,.58-.58A.55.55,0,0,1,290,95.34Zm-1,6.56V96.78h.93v5.12Z"/><path d="M296.09,99.3a2.5,2.5,0,0,1-2.55,2.72,2.44,2.44,0,0,1-2.46-2.64,2.51,2.51,0,0,1,2.55-2.72A2.42,2.42,0,0,1,296.09,99.3Zm-4.06,0c0,1.13.64,2,1.55,2s1.56-.83,1.56-2c0-.87-.43-2-1.54-2S292,98.38,292,99.35Z"/><path d="M297.27,98.17c0-.53,0-1,0-1.39h.82l.06.85h0a1.87,1.87,0,0,1,1.69-1c.71,0,1.81.43,1.81,2.18v3.06h-.93V99c0-.83-.31-1.51-1.19-1.51a1.33,1.33,0,0,0-1.25,1,1.4,1.4,0,0,0-.06.43v3.08h-.93Z"/><path d="M129.16,114.61V110.2h-.72v-.71h.72v-.25a2.44,2.44,0,0,1,.59-1.79A1.83,1.83,0,0,1,131,107a2.07,2.07,0,0,1,.8.15l-.13.72a1.3,1.3,0,0,0-.59-.12c-.8,0-1,.7-1,1.48v.28h1.24v.71h-1.24v4.41Z"/><path d="M136.66,112a2.5,2.5,0,0,1-2.55,2.72,2.44,2.44,0,0,1-2.46-2.64,2.5,2.5,0,0,1,2.54-2.72A2.43,2.43,0,0,1,136.66,112Zm-4.07,0c0,1.12.65,2,1.56,2s1.56-.84,1.56-2c0-.87-.44-2-1.54-2S132.59,111.09,132.59,112.06Z"/><path d="M137.84,111.09c0-.61,0-1.13-.05-1.6h.82l0,1h0a1.56,1.56,0,0,1,1.42-1.12,1.12,1.12,0,0,1,.27,0v.88a1.51,1.51,0,0,0-.32,0,1.31,1.31,0,0,0-1.25,1.2,2.63,2.63,0,0,0,0,.43v2.73h-.92Z"/><path d="M141.34,110.87c0-.52,0-1,0-1.38h.81l0,.82h0a1.77,1.77,0,0,1,1.61-.94,1.51,1.51,0,0,1,1.45,1h0a2.12,2.12,0,0,1,.57-.67,1.78,1.78,0,0,1,1.13-.36c.68,0,1.69.45,1.69,2.23v3h-.91v-2.9c0-1-.36-1.58-1.11-1.58a1.21,1.21,0,0,0-1.11.85,1.66,1.66,0,0,0-.07.47v3.16h-.91v-3.07c0-.81-.36-1.41-1.07-1.41a1.27,1.27,0,0,0-1.15.93,1.17,1.17,0,0,0-.08.46v3.09h-.91Z"/><path d="M150.69,112.22a1.64,1.64,0,0,0,1.76,1.78,3.33,3.33,0,0,0,1.42-.27l.16.67a4.13,4.13,0,0,1-1.71.32,2.38,2.38,0,0,1-2.52-2.58,2.49,2.49,0,0,1,2.41-2.77,2.17,2.17,0,0,1,2.11,2.42,3.73,3.73,0,0,1,0,.43Zm2.73-.67a1.32,1.32,0,0,0-1.29-1.51,1.55,1.55,0,0,0-1.43,1.51Z"/><path d="M155.48,107.09h.93v7.52h-.93Z"/><path d="M158,107.09h.93v7.52H158Z"/><path d="M161,112.22a1.64,1.64,0,0,0,1.75,1.78,3.33,3.33,0,0,0,1.42-.27l.16.67a4.11,4.11,0,0,1-1.7.32,2.38,2.38,0,0,1-2.52-2.58,2.49,2.49,0,0,1,2.4-2.77,2.18,2.18,0,0,1,2.12,2.42,3.73,3.73,0,0,1,0,.43Zm2.73-.67a1.33,1.33,0,0,0-1.29-1.51,1.54,1.54,0,0,0-1.43,1.51Z"/><path d="M172.45,107.09v6.2c0,.45,0,1,.05,1.32h-.84l0-.89h0a1.89,1.89,0,0,1-1.75,1,2.34,2.34,0,0,1-2.19-2.61,2.45,2.45,0,0,1,2.29-2.75,1.71,1.71,0,0,1,1.55.78h0v-3.06Zm-.93,4.48a1.78,1.78,0,0,0,0-.39,1.38,1.38,0,0,0-1.34-1.08c-1,0-1.54.85-1.54,2s.51,1.9,1.51,1.9a1.41,1.41,0,0,0,1.37-1.11,1.78,1.78,0,0,0,0-.41Z"/><path d="M174.52,112.22a1.64,1.64,0,0,0,1.76,1.78,3.36,3.36,0,0,0,1.42-.27l.15.67a4,4,0,0,1-1.7.32,2.38,2.38,0,0,1-2.52-2.58,2.49,2.49,0,0,1,2.4-2.77,2.17,2.17,0,0,1,2.12,2.42,3.73,3.73,0,0,1,0,.43Zm2.73-.67A1.32,1.32,0,0,0,176,110a1.54,1.54,0,0,0-1.43,1.51Z"/><path d="M181.65,114.61V110.2h-.72v-.71h.72v-.28a2.05,2.05,0,0,1,2.23-2.23,2.54,2.54,0,0,1,1.3.34l-.26.71a2,2,0,0,0-1.08-.3c-1,0-1.27.69-1.27,1.5v.26h3v5.12h-.92V110.2h-2.05v4.41Z"/><path d="M187.09,110.87c0-.52,0-1,0-1.38h.82l.06.84h0a1.88,1.88,0,0,1,1.69-1c.71,0,1.81.42,1.81,2.18v3.06h-.93v-3c0-.83-.31-1.52-1.19-1.52a1.31,1.31,0,0,0-1.24,1,1.11,1.11,0,0,0-.07.43v3.08h-.93Z"/><path d="M199.64,107.09v6.2c0,.45,0,1,0,1.32h-.83l0-.89h0a1.88,1.88,0,0,1-1.75,1,2.34,2.34,0,0,1-2.19-2.61,2.45,2.45,0,0,1,2.3-2.75,1.74,1.74,0,0,1,1.55.78h0v-3.06Zm-.93,4.48a1.78,1.78,0,0,0,0-.39,1.38,1.38,0,0,0-1.35-1.08c-1,0-1.54.85-1.54,2s.51,1.9,1.52,1.9a1.42,1.42,0,0,0,1.37-1.11,1.78,1.78,0,0,0,0-.41Z"/><path d="M201.87,107.36l-.18,2.54h-.57l-.17-2.54Z"/><path d="M203.61,112.22a1.64,1.64,0,0,0,1.76,1.78,3.33,3.33,0,0,0,1.42-.27l.16.67a4.13,4.13,0,0,1-1.71.32,2.38,2.38,0,0,1-2.52-2.58,2.49,2.49,0,0,1,2.41-2.77,2.17,2.17,0,0,1,2.11,2.42,3.73,3.73,0,0,1,0,.43Zm2.73-.67a1.32,1.32,0,0,0-1.29-1.51,1.55,1.55,0,0,0-1.43,1.51Z"/><path d="M208.8,109.49l.73,1.1c.19.28.35.55.52.84h0c.17-.31.34-.58.51-.85l.72-1.09h1L210.57,112l1.8,2.64h-1.06l-.75-1.15c-.2-.3-.37-.58-.55-.89h0c-.17.31-.35.58-.54.89l-.75,1.15h-1L209.5,112l-1.74-2.51Z"/><path d="M213.63,112.22a1.64,1.64,0,0,0,1.76,1.78,3.36,3.36,0,0,0,1.42-.27l.16.67a4.13,4.13,0,0,1-1.71.32,2.38,2.38,0,0,1-2.52-2.58,2.49,2.49,0,0,1,2.4-2.77,2.17,2.17,0,0,1,2.12,2.42,3.73,3.73,0,0,1,0,.43Zm2.73-.67a1.32,1.32,0,0,0-1.29-1.51,1.54,1.54,0,0,0-1.43,1.51Z"/><path d="M218.42,111.09c0-.61,0-1.13,0-1.6h.82l0,1h0a1.56,1.56,0,0,1,1.42-1.12,1.12,1.12,0,0,1,.27,0v.88a1.51,1.51,0,0,0-.32,0,1.31,1.31,0,0,0-1.25,1.2,2.63,2.63,0,0,0,0,.43v2.73h-.92Z"/><path d="M225.43,114.42a3.44,3.44,0,0,1-1.48.3,2.44,2.44,0,0,1-2.55-2.62,2.6,2.6,0,0,1,2.76-2.72,3.07,3.07,0,0,1,1.29.27l-.21.72a2.17,2.17,0,0,0-1.08-.25,1.93,1.93,0,0,0,0,3.86,2.64,2.64,0,0,0,1.15-.26Z"/><path d="M227.55,108.05a.55.55,0,0,1-.59.57.56.56,0,0,1-.56-.57.57.57,0,0,1,.58-.59A.56.56,0,0,1,227.55,108.05Zm-1,6.56v-5.12h.93v5.12Z"/><path d="M232.65,114.42a3.35,3.35,0,0,1-1.47.3,2.43,2.43,0,0,1-2.55-2.62,2.6,2.6,0,0,1,2.75-2.72,3,3,0,0,1,1.29.27l-.21.72a2.11,2.11,0,0,0-1.08-.25,1.94,1.94,0,0,0,0,3.86,2.55,2.55,0,0,0,1.14-.26Z"/><path d="M234.2,112.22A1.64,1.64,0,0,0,236,114a3.33,3.33,0,0,0,1.42-.27l.16.67a4.11,4.11,0,0,1-1.7.32,2.38,2.38,0,0,1-2.52-2.58,2.49,2.49,0,0,1,2.4-2.77,2.18,2.18,0,0,1,2.12,2.42,3.73,3.73,0,0,1,0,.43Zm2.73-.67a1.33,1.33,0,0,0-1.29-1.51,1.54,1.54,0,0,0-1.43,1.51Z"/><path d="M241.75,112.22A1.64,1.64,0,0,0,243.5,114a3.33,3.33,0,0,0,1.42-.27l.16.67a4.11,4.11,0,0,1-1.7.32,2.38,2.38,0,0,1-2.52-2.58,2.49,2.49,0,0,1,2.4-2.77,2.18,2.18,0,0,1,2.12,2.42,3.73,3.73,0,0,1,0,.43Zm2.73-.67a1.33,1.33,0,0,0-1.29-1.51,1.54,1.54,0,0,0-1.43,1.51Z"/><path d="M247.66,108v1.47H249v.71h-1.33V113c0,.64.17,1,.69,1a2,2,0,0,0,.54-.07l.05.7a2.17,2.17,0,0,1-.83.13,1.33,1.33,0,0,1-1-.39,1.94,1.94,0,0,1-.36-1.34V110.2H246v-.71h.79v-1.23Z"/><path d="M255.12,114.61l-.07-.64h0a1.89,1.89,0,0,1-1.56.76,1.46,1.46,0,0,1-1.57-1.47c0-1.24,1.1-1.92,3.08-1.91v-.1a1.05,1.05,0,0,0-1.16-1.19,2.59,2.59,0,0,0-1.34.38l-.21-.61a3.13,3.13,0,0,1,1.68-.46c1.57,0,1.95,1.07,1.95,2.1v1.91a6.57,6.57,0,0,0,.09,1.23ZM255,112c-1,0-2.17.16-2.17,1.15a.82.82,0,0,0,.88.89,1.27,1.27,0,0,0,1.24-.86,1,1,0,0,0,0-.29Z"/><path d="M261,114.42a3.35,3.35,0,0,1-1.47.3A2.43,2.43,0,0,1,257,112.1a2.6,2.6,0,0,1,2.75-2.72,3,3,0,0,1,1.29.27l-.21.72a2.11,2.11,0,0,0-1.08-.25,1.94,1.94,0,0,0,0,3.86,2.55,2.55,0,0,0,1.14-.26Z"/><path d="M265.72,114.42a3.35,3.35,0,0,1-1.47.3,2.43,2.43,0,0,1-2.55-2.62,2.6,2.6,0,0,1,2.75-2.72,3,3,0,0,1,1.29.27l-.21.72a2.11,2.11,0,0,0-1.08-.25,1.78,1.78,0,0,0-1.81,1.94,1.76,1.76,0,0,0,1.78,1.92,2.55,2.55,0,0,0,1.14-.26Z"/><path d="M271.39,112a2.51,2.51,0,0,1-2.56,2.72,2.44,2.44,0,0,1-2.45-2.64,2.5,2.5,0,0,1,2.54-2.72A2.43,2.43,0,0,1,271.39,112Zm-4.07,0c0,1.12.65,2,1.56,2s1.55-.84,1.55-2c0-.87-.43-2-1.53-2S267.32,111.09,267.32,112.06Z"/><path d="M272.56,111.09c0-.61,0-1.13,0-1.6h.82l0,1h0a1.54,1.54,0,0,1,1.42-1.12,1,1,0,0,1,.26,0v.88a1.42,1.42,0,0,0-.31,0,1.3,1.3,0,0,0-1.25,1.2,2.55,2.55,0,0,0,0,.43v2.73h-.92Z"/><path d="M280.35,107.09v6.2c0,.45,0,1,0,1.32h-.84l0-.89h0a1.89,1.89,0,0,1-1.75,1,2.34,2.34,0,0,1-2.19-2.61,2.45,2.45,0,0,1,2.3-2.75,1.71,1.71,0,0,1,1.54.78h0v-3.06Zm-.93,4.48a1.81,1.81,0,0,0-.05-.39A1.36,1.36,0,0,0,278,110.1c-1,0-1.54.85-1.54,2S277,114,278,114a1.41,1.41,0,0,0,1.36-1.11,1.77,1.77,0,0,0,.05-.41Z"/><path d="M282.41,112.22a1.64,1.64,0,0,0,1.76,1.78,3.33,3.33,0,0,0,1.42-.27l.16.67a4.13,4.13,0,0,1-1.71.32,2.38,2.38,0,0,1-2.52-2.58,2.49,2.49,0,0,1,2.41-2.77,2.17,2.17,0,0,1,2.11,2.42,3.73,3.73,0,0,1,0,.43Zm2.73-.67a1.32,1.32,0,0,0-1.29-1.51,1.55,1.55,0,0,0-1.43,1.51Z"/><path d="M133.35,125.92c0,.53,0,1,.05,1.4h-.83l0-.84h0a1.94,1.94,0,0,1-1.7,1c-.8,0-1.77-.45-1.77-2.25v-3H130V125c0,1,.29,1.63,1.14,1.63a1.35,1.35,0,0,0,1.23-.84,1.46,1.46,0,0,0,.08-.48V122.2h.93Z"/><path d="M134.9,123.58c0-.53,0-1,0-1.38h.82l.06.84h0a1.88,1.88,0,0,1,1.69-1c.71,0,1.81.42,1.81,2.18v3.06h-.93v-2.95c0-.83-.31-1.52-1.18-1.52a1.32,1.32,0,0,0-1.25,1,1.11,1.11,0,0,0-.07.43v3.08h-.93Z"/><path d="M141.3,124.93a1.64,1.64,0,0,0,1.76,1.78,3.31,3.31,0,0,0,1.41-.27l.16.67a4.08,4.08,0,0,1-1.7.32,2.38,2.38,0,0,1-2.52-2.59,2.49,2.49,0,0,1,2.4-2.76,2.17,2.17,0,0,1,2.12,2.41,3.94,3.94,0,0,1,0,.44Zm2.73-.67a1.32,1.32,0,0,0-1.29-1.51,1.54,1.54,0,0,0-1.43,1.51Z"/><path d="M152,127.13a3.35,3.35,0,0,1-1.47.3,2.43,2.43,0,0,1-2.55-2.62,2.6,2.6,0,0,1,2.75-2.72,3.22,3.22,0,0,1,1.29.26l-.21.72a2.23,2.23,0,0,0-1.08-.24,1.94,1.94,0,0,0,0,3.86,2.55,2.55,0,0,0,1.14-.26Z"/><path d="M157.65,124.72a2.5,2.5,0,0,1-2.55,2.72,2.44,2.44,0,0,1-2.46-2.64,2.5,2.5,0,0,1,2.54-2.72A2.43,2.43,0,0,1,157.65,124.72Zm-4.07,0c0,1.12.65,2,1.56,2s1.55-.84,1.55-2c0-.87-.43-2-1.53-2S153.58,123.79,153.58,124.77Z"/><path d="M160,120.72v1.48h1.33v.7H160v2.77c0,.63.18,1,.7,1a2.23,2.23,0,0,0,.54-.06l0,.7a2.39,2.39,0,0,1-.83.13,1.27,1.27,0,0,1-1-.4,1.86,1.86,0,0,1-.36-1.33v-2.8h-.8v-.7h.8V121Z"/><path d="M162.78,124.93a1.65,1.65,0,0,0,1.76,1.78,3.33,3.33,0,0,0,1.42-.27l.16.67a4.11,4.11,0,0,1-1.7.32,2.38,2.38,0,0,1-2.52-2.59,2.49,2.49,0,0,1,2.4-2.76,2.17,2.17,0,0,1,2.12,2.41,3.94,3.94,0,0,1,0,.44Zm2.74-.67a1.33,1.33,0,0,0-1.29-1.51,1.53,1.53,0,0,0-1.43,1.51Z"/><path d="M172.65,127.32l-.07-.64h0a1.93,1.93,0,0,1-1.57.76,1.46,1.46,0,0,1-1.57-1.47c0-1.24,1.11-1.92,3.09-1.91V124a1.06,1.06,0,0,0-1.17-1.18,2.56,2.56,0,0,0-1.33.38l-.22-.62a3.26,3.26,0,0,1,1.69-.45c1.57,0,1.95,1.07,1.95,2.1v1.91a7.62,7.62,0,0,0,.08,1.23Zm-.13-2.61c-1,0-2.17.15-2.17,1.15a.83.83,0,0,0,.88.89,1.26,1.26,0,0,0,1.23-.86.77.77,0,0,0,.06-.3Z"/><path d="M179.21,125.92c0,.53,0,1,0,1.4h-.82l-.06-.84h0a1.91,1.91,0,0,1-1.69,1c-.81,0-1.77-.45-1.77-2.25v-3h.93V125c0,1,.3,1.63,1.14,1.63a1.34,1.34,0,0,0,1.23-.84,1.24,1.24,0,0,0,.09-.48V122.2h.93Z"/><path d="M183,123.79c0-.6,0-1.12,0-1.59h.81l0,1h0a1.53,1.53,0,0,1,1.42-1.12,1,1,0,0,1,.26,0V123a1.45,1.45,0,0,0-.32,0,1.32,1.32,0,0,0-1.25,1.19,2.87,2.87,0,0,0,0,.44v2.73H183Z"/><path d="M186.88,124.93a1.64,1.64,0,0,0,1.76,1.78,3.31,3.31,0,0,0,1.41-.27l.16.67a4.08,4.08,0,0,1-1.7.32,2.38,2.38,0,0,1-2.52-2.59,2.49,2.49,0,0,1,2.4-2.76,2.17,2.17,0,0,1,2.12,2.41,3.94,3.94,0,0,1,0,.44Zm2.73-.67a1.32,1.32,0,0,0-1.29-1.51,1.54,1.54,0,0,0-1.43,1.51Z"/><path d="M191.66,123.58c0-.53,0-1,0-1.38h.83l.05.84h0a1.91,1.91,0,0,1,1.7-1c.71,0,1.81.42,1.81,2.18v3.06h-.93v-2.95c0-.83-.31-1.52-1.19-1.52a1.33,1.33,0,0,0-1.25,1,1.35,1.35,0,0,0-.06.43v3.08h-.94Z"/><path d="M202,119.8V126c0,.45,0,1,0,1.32h-.84l0-.89h0a1.91,1.91,0,0,1-1.75,1,2.34,2.34,0,0,1-2.19-2.61,2.45,2.45,0,0,1,2.3-2.75,1.74,1.74,0,0,1,1.55.78h0V119.8Zm-.93,4.48a1.46,1.46,0,0,0-1.39-1.47c-1,0-1.54.85-1.54,2s.51,1.9,1.52,1.9a1.41,1.41,0,0,0,1.36-1.12,1.25,1.25,0,0,0,0-.4Z"/><path d="M204,124.93a1.65,1.65,0,0,0,1.76,1.78,3.33,3.33,0,0,0,1.42-.27l.16.67a4.13,4.13,0,0,1-1.71.32,2.39,2.39,0,0,1-2.52-2.59,2.49,2.49,0,0,1,2.41-2.76,2.17,2.17,0,0,1,2.12,2.41,2.27,2.27,0,0,1,0,.44Zm2.74-.67a1.33,1.33,0,0,0-1.3-1.51,1.54,1.54,0,0,0-1.43,1.51Z"/><path d="M208.82,123.58c0-.53,0-1,0-1.38h.81l0,.82h0a1.75,1.75,0,0,1,1.61-.94,1.51,1.51,0,0,1,1.45,1h0a2.12,2.12,0,0,1,.57-.67,1.78,1.78,0,0,1,1.13-.36c.68,0,1.69.44,1.69,2.22v3h-.91v-2.9c0-1-.36-1.58-1.11-1.58a1.21,1.21,0,0,0-1.11.85,1.59,1.59,0,0,0-.07.46v3.17H212v-3.07c0-.82-.36-1.41-1.07-1.41a1.27,1.27,0,0,0-1.15.93,1.17,1.17,0,0,0-.08.46v3.09h-.91Z"/><path d="M218.17,124.93a1.64,1.64,0,0,0,1.76,1.78,3.33,3.33,0,0,0,1.42-.27l.16.67a4.13,4.13,0,0,1-1.71.32,2.38,2.38,0,0,1-2.52-2.59,2.49,2.49,0,0,1,2.41-2.76,2.16,2.16,0,0,1,2.11,2.41,3.94,3.94,0,0,1,0,.44Zm2.73-.67a1.32,1.32,0,0,0-1.29-1.51,1.54,1.54,0,0,0-1.43,1.51Z"/><path d="M223,123.58c0-.53,0-1,0-1.38h.82l0,.84h0a1.88,1.88,0,0,1,1.69-1c.71,0,1.81.42,1.81,2.18v3.06h-.93v-2.95c0-.83-.31-1.52-1.19-1.52a1.33,1.33,0,0,0-1.25,1,1.35,1.35,0,0,0-.06.43v3.08H223Z"/><path d="M229.92,120.72v1.48h1.33v.7h-1.33v2.77c0,.63.18,1,.7,1a2.23,2.23,0,0,0,.54-.06l0,.7a2.39,2.39,0,0,1-.83.13,1.27,1.27,0,0,1-1-.4,1.86,1.86,0,0,1-.37-1.33v-2.8h-.79v-.7H229V121Z"/><path d="M239,119.8V126c0,.45,0,1,0,1.32h-.83l-.05-.89h0a1.89,1.89,0,0,1-1.74,1,2.34,2.34,0,0,1-2.2-2.61,2.45,2.45,0,0,1,2.3-2.75,1.74,1.74,0,0,1,1.55.78h0V119.8Zm-.93,4.48a1.78,1.78,0,0,0,0-.39,1.38,1.38,0,0,0-1.35-1.08c-1,0-1.53.85-1.53,2s.5,1.9,1.51,1.9a1.42,1.42,0,0,0,1.37-1.12,1.64,1.64,0,0,0,0-.4Z"/><path d="M241,124.93a1.64,1.64,0,0,0,1.75,1.78,3.33,3.33,0,0,0,1.42-.27l.16.67a4.11,4.11,0,0,1-1.7.32,2.38,2.38,0,0,1-2.52-2.59,2.49,2.49,0,0,1,2.4-2.76,2.17,2.17,0,0,1,2.12,2.41,3.94,3.94,0,0,1,0,.44Zm2.73-.67a1.33,1.33,0,0,0-1.29-1.51,1.53,1.53,0,0,0-1.43,1.51Z"/><path d="M248.07,119.8H249v7.52h-.93Z"/><path d="M251.25,120.07l-.18,2.54h-.57l-.17-2.54Z"/><path d="M253,124.93a1.64,1.64,0,0,0,1.76,1.78,3.33,3.33,0,0,0,1.42-.27l.16.67a4.13,4.13,0,0,1-1.71.32,2.38,2.38,0,0,1-2.52-2.59,2.49,2.49,0,0,1,2.41-2.76,2.16,2.16,0,0,1,2.11,2.41,3.94,3.94,0,0,1,0,.44Zm2.73-.67a1.32,1.32,0,0,0-1.29-1.51,1.54,1.54,0,0,0-1.43,1.51Z"/><path d="M257.78,123.58c0-.53,0-1,0-1.38h.81l0,.82h0a1.75,1.75,0,0,1,1.61-.94,1.52,1.52,0,0,1,1.45,1h0a2.12,2.12,0,0,1,.57-.67,1.78,1.78,0,0,1,1.13-.36c.68,0,1.69.44,1.69,2.22v3h-.91v-2.9c0-1-.36-1.58-1.12-1.58a1.2,1.2,0,0,0-1.1.85,1.59,1.59,0,0,0-.07.46v3.17H261v-3.07c0-.82-.36-1.41-1.07-1.41a1.29,1.29,0,0,0-1.16.93,1.39,1.39,0,0,0-.07.46v3.09h-.91Z"/><path d="M266.61,123.87c0-.66,0-1.19,0-1.67h.84l0,.87h0a2,2,0,0,1,1.82-1,2.32,2.32,0,0,1,2.17,2.6c0,1.85-1.12,2.76-2.33,2.76a1.8,1.8,0,0,1-1.58-.81h0v2.79h-.92Zm.92,1.36a2.34,2.34,0,0,0,0,.39,1.45,1.45,0,0,0,1.4,1.09c1,0,1.56-.81,1.56-2s-.54-1.91-1.53-1.91a1.49,1.49,0,0,0-1.4,1.15,1.28,1.28,0,0,0-.07.39Z"/><path d="M272.64,119.8h.93v7.52h-.93Z"/><path d="M279.77,124.72a2.5,2.5,0,0,1-2.55,2.72,2.44,2.44,0,0,1-2.46-2.64,2.5,2.5,0,0,1,2.55-2.72A2.42,2.42,0,0,1,279.77,124.72Zm-4.06,0c0,1.12.64,2,1.55,2s1.56-.84,1.56-2c0-.87-.43-2-1.53-2S275.71,123.79,275.71,124.77Z"/><path d="M281.21,122.2l1.13,3c.11.34.24.75.33,1h0c.09-.3.2-.7.32-1.07l1-3h1l-1.4,3.65a7.77,7.77,0,0,1-1.76,3.21,2.49,2.49,0,0,1-1.14.6l-.24-.78a2.65,2.65,0,0,0,.82-.46,2.82,2.82,0,0,0,.78-1,.49.49,0,0,0,.08-.22.64.64,0,0,0-.07-.24l-1.89-4.72Z"/><path d="M286.28,124.93a1.64,1.64,0,0,0,1.75,1.78,3.33,3.33,0,0,0,1.42-.27l.16.67a4.11,4.11,0,0,1-1.7.32,2.38,2.38,0,0,1-2.52-2.59,2.49,2.49,0,0,1,2.4-2.76,2.17,2.17,0,0,1,2.12,2.41,3.94,3.94,0,0,1,0,.44Zm2.73-.67a1.33,1.33,0,0,0-1.29-1.51,1.53,1.53,0,0,0-1.43,1.51Zm.22-4.28-1.29,1.52h-.67l.93-1.52Z"/><path d="M290.71,126.77a.63.63,0,0,1,.64-.67.67.67,0,0,1,0,1.34A.63.63,0,0,1,290.71,126.77Z"/><path class="edb26147-7dad-47c4-bf62-2b272bb66be5" d="M137.79,72.92l-.13-1.16h-.06a3.43,3.43,0,0,1-2.82,1.37A2.63,2.63,0,0,1,132,70.48c0-2.23,2-3.45,5.56-3.43v-.2a1.9,1.9,0,0,0-2.1-2.13,4.62,4.62,0,0,0-2.41.68l-.38-1.1a5.72,5.72,0,0,1,3-.82c2.82,0,3.51,1.92,3.51,3.78v3.45a13.47,13.47,0,0,0,.15,2.21ZM135,59.7l1.66,2.73h-1.18L133.1,59.7Zm2.6,8.51c-1.84,0-3.92.29-3.92,2.08a1.49,1.49,0,0,0,1.59,1.6,2.3,2.3,0,0,0,2.23-1.54,1.71,1.71,0,0,0,.1-.54Z"/><path class="edb26147-7dad-47c4-bf62-2b272bb66be5" d="M145.92,59.37h1.68V72.92h-1.68Z"/><path class="edb26147-7dad-47c4-bf62-2b272bb66be5" d="M155.54,72.92l-.13-1.16h-.06a3.45,3.45,0,0,1-2.82,1.37,2.63,2.63,0,0,1-2.83-2.65c0-2.23,2-3.45,5.56-3.43v-.2a1.9,1.9,0,0,0-2.1-2.13,4.62,4.62,0,0,0-2.41.68l-.38-1.1a5.69,5.69,0,0,1,3-.82c2.82,0,3.51,1.92,3.51,3.78v3.45a13.47,13.47,0,0,0,.15,2.21Zm-.25-4.71c-1.83,0-3.91.29-3.91,2.08a1.49,1.49,0,0,0,1.59,1.6,2.3,2.3,0,0,0,2.23-1.54,1.7,1.7,0,0,0,.09-.54Z"/><path class="edb26147-7dad-47c4-bf62-2b272bb66be5" d="M163.84,72.92V65h-1.29V63.69h1.29v-.5a3.71,3.71,0,0,1,4-4,4.67,4.67,0,0,1,2.35.61l-.48,1.28a3.56,3.56,0,0,0-1.94-.53c-1.78,0-2.3,1.24-2.3,2.71v.46h5.37v9.23h-1.66V65H165.5v8Z"/><path class="edb26147-7dad-47c4-bf62-2b272bb66be5" d="M173.65,66.19c0-1,0-1.74-.07-2.5h1.49l.09,1.52h0a3.39,3.39,0,0,1,3.05-1.73c1.28,0,3.27.76,3.27,3.93v5.51h-1.68V67.6c0-1.49-.56-2.73-2.14-2.73a2.37,2.37,0,0,0-2.25,1.72,2.28,2.28,0,0,0-.12.78v5.55h-1.68Z"/><path class="edb26147-7dad-47c4-bf62-2b272bb66be5" d="M196.27,59.37V70.54c0,.82,0,1.75.08,2.38h-1.51l-.08-1.6h0a3.41,3.41,0,0,1-3.15,1.81c-2.23,0-3.95-1.89-3.95-4.69,0-3.08,1.89-5,4.14-5a3.07,3.07,0,0,1,2.79,1.41h0V59.37Zm-1.68,8.08a2.87,2.87,0,0,0-.08-.71,2.46,2.46,0,0,0-2.42-1.95c-1.74,0-2.77,1.53-2.77,3.57,0,1.87.92,3.42,2.73,3.42a2.52,2.52,0,0,0,2.46-2,2.69,2.69,0,0,0,.08-.72Z"/><path class="edb26147-7dad-47c4-bf62-2b272bb66be5" d="M200,68.61a3,3,0,0,0,3.17,3.21,6,6,0,0,0,2.56-.48l.28,1.2a7.42,7.42,0,0,1-3.07.57,4.28,4.28,0,0,1-4.54-4.65c0-2.79,1.64-5,4.33-5,3,0,3.82,2.65,3.82,4.35a6,6,0,0,1-.06.78Zm4.93-1.2c0-1.07-.44-2.73-2.33-2.73A2.78,2.78,0,0,0,200,67.41Z"/><path class="edb26147-7dad-47c4-bf62-2b272bb66be5" d="M212.66,59.37h1.68V72.92h-1.68Z"/><path class="edb26147-7dad-47c4-bf62-2b272bb66be5" d="M218.41,59.85l-.33,4.58h-1l-.3-4.58Z"/><path class="edb26147-7dad-47c4-bf62-2b272bb66be5" d="M221.54,68.61a3,3,0,0,0,3.17,3.21,6,6,0,0,0,2.55-.48l.29,1.2a7.42,7.42,0,0,1-3.07.57,4.29,4.29,0,0,1-4.55-4.65c0-2.79,1.64-5,4.34-5,3,0,3.81,2.65,3.81,4.35,0,.34,0,.61-.05.78Zm4.92-1.2c0-1.07-.44-2.73-2.33-2.73a2.79,2.79,0,0,0-2.58,2.73Z"/><path class="edb26147-7dad-47c4-bf62-2b272bb66be5" d="M230.89,63.69l1.32,2c.34.52.62,1,.93,1.51h.06c.3-.55.61-1,.91-1.53l1.3-2h1.82l-3.15,4.46,3.24,4.77h-1.91l-1.35-2.08c-.37-.53-.67-1-1-1.6h0c-.31.55-.63,1.05-1,1.6l-1.33,2.08h-1.86l3.29-4.71L229,63.69Z"/><path class="edb26147-7dad-47c4-bf62-2b272bb66be5" d="M239.59,68.61a3,3,0,0,0,3.17,3.21,6,6,0,0,0,2.56-.48l.28,1.2a7.42,7.42,0,0,1-3.07.57A4.29,4.29,0,0,1,238,68.46c0-2.79,1.64-5,4.33-5,3,0,3.82,2.65,3.82,4.35a6,6,0,0,1-.06.78Zm4.93-1.2c0-1.07-.44-2.73-2.33-2.73a2.78,2.78,0,0,0-2.58,2.73Z"/><path class="edb26147-7dad-47c4-bf62-2b272bb66be5" d="M248.22,66.57c0-1.09,0-2-.08-2.88h1.47l.06,1.81h.07a2.78,2.78,0,0,1,2.56-2,1.77,1.77,0,0,1,.48.05v1.59a2.31,2.31,0,0,0-2.83,2.1,5.79,5.79,0,0,0-.07.78v4.92h-1.66Z"/><path class="edb26147-7dad-47c4-bf62-2b272bb66be5" d="M260.85,72.58a6.18,6.18,0,0,1-2.65.53,4.38,4.38,0,0,1-4.6-4.71,4.7,4.7,0,0,1,5-4.91,5.62,5.62,0,0,1,2.33.48l-.38,1.3a3.88,3.88,0,0,0-1.95-.44,3.48,3.48,0,0,0-.06,7,4.8,4.8,0,0,0,2.07-.46Z"/><path class="edb26147-7dad-47c4-bf62-2b272bb66be5" d="M264.69,61.09a1,1,0,0,1-2.08,0A1,1,0,0,1,263.66,60,1,1,0,0,1,264.69,61.09Zm-1.87,11.83V63.69h1.68v9.23Z"/><path class="edb26147-7dad-47c4-bf62-2b272bb66be5" d="M273.87,72.58a6.19,6.19,0,0,1-2.66.53,4.39,4.39,0,0,1-4.6-4.71,4.7,4.7,0,0,1,5-4.91,5.62,5.62,0,0,1,2.33.48l-.39,1.3a3.87,3.87,0,0,0-1.94-.44,3.48,3.48,0,0,0-.06,7,4.79,4.79,0,0,0,2.06-.46Z"/><path class="edb26147-7dad-47c4-bf62-2b272bb66be5" d="M276.65,68.61a3,3,0,0,0,3.17,3.21,6,6,0,0,0,2.56-.48l.29,1.2a7.51,7.51,0,0,1-3.08.57,4.29,4.29,0,0,1-4.54-4.65c0-2.79,1.64-5,4.33-5,3,0,3.82,2.65,3.82,4.35a6,6,0,0,1-.06.78Zm4.93-1.2c0-1.07-.44-2.73-2.33-2.73a2.79,2.79,0,0,0-2.58,2.73Z"/></g></svg>