<?xml version="1.0" encoding="utf-8"?>
<!-- Generator: Adobe Illustrator 16.0.3, SVG Export Plug-In . SVG Version: 6.00 Build 0)  -->
<!DOCTYPE svg PUBLIC "-//W3C//DTD SVG 1.1//EN" "http://www.w3.org/Graphics/SVG/1.1/DTD/svg11.dtd">
<svg version="1.1" id="happy_face" xmlns="http://www.w3.org/2000/svg" xmlns:xlink="http://www.w3.org/1999/xlink" x="0px" y="0px"
	 width="612px" height="792px" viewBox="0 0 612 792" enable-background="new 0 0 612 792" xml:space="preserve">
<path fill="#7C7910" d="M306,90C136.68,90,0,226.68,0,396c0,169.32,136.68,306,306,306c169.32,0,306-136.68,306-306
	C612,226.68,475.32,90,306,90z M397.8,277.68c22.44,0,40.8,18.36,40.8,40.8s-18.359,40.8-40.8,40.8c-22.439,0-40.8-18.36-40.8-40.8
	S375.36,277.68,397.8,277.68z M197.88,277.68c22.44,0,40.8,18.36,40.8,40.8s-18.36,40.8-40.8,40.8s-40.8-18.36-40.8-40.8
	S175.44,277.68,197.88,277.68z M520.2,449.04c-2.04,4.08-44.88,112.2-220.32,116.28c-2.04,0-4.08,0-6.12,0
	c-148.92,0-199.92-110.16-201.96-116.28c-4.08-10.2,0-20.4,10.2-24.48s20.4,0,24.48,10.2c2.04,4.08,44.88,95.88,171.36,93.84
	c150.96-4.08,185.641-91.8,185.641-91.8c4.079-10.2,14.279-14.28,24.479-10.2C518.16,428.64,524.28,438.84,520.2,449.04z"/>
</svg>
