<?xml version="1.0" encoding="utf-8"?>
<!-- Generator: Adobe Illustrator 16.0.3, SVG Export Plug-In . SVG Version: 6.00 Build 0)  -->
<!DOCTYPE svg PUBLIC "-//W3C//DTD SVG 1.1//EN" "http://www.w3.org/Graphics/SVG/1.1/DTD/svg11.dtd">
<svg version="1.1" id="Layer_1" xmlns="http://www.w3.org/2000/svg" xmlns:xlink="http://www.w3.org/1999/xlink" x="0px" y="0px"
	 width="612px" height="792px" viewBox="0 0 612 792" enable-background="new 0 0 612 792" xml:space="preserve">
<g id="circle">
	<circle fill="#7C7910" cx="306" cy="396" r="306"/>
</g>
<g id="lightbulb">
	<g>
		<g>
			<g>
				<path fill="#FFFFFF" d="M290.088,475.56c-9.792-74.663-44.064-134.64-63.648-143.208c-6.12-2.448-9.792-1.224-12.24,1.224
					c-7.344,4.896-7.344,17.136,0,29.376c11.016,18.36,34.272,31.824,62.424,18.36c19.584-9.792,24.48-35.496,20.808-55.08
					c-2.448-13.464-9.792-20.808-19.584-20.808c-6.12,0-13.464,4.896-13.464,17.136c0,18.36,15.912,52.632,42.84,52.632
					c26.929,0,42.841-34.272,42.841-52.632c0-13.464-7.345-17.136-13.465-17.136c-9.792,0-17.136,7.344-19.584,20.808
					c-4.896,19.584,1.225,45.288,20.809,55.08c26.928,13.464,51.408,0,62.424-18.36c7.344-12.24,7.344-23.256,0-29.376
					c-2.448-1.224-6.12-3.672-12.24-1.224c-19.584,8.568-55.08,68.544-63.647,143.208l0,0c0,3.673,2.447,7.345,6.12,8.568
					c3.672,0,7.344-2.448,8.567-6.12l0,0c9.792-80.784,47.736-128.52,55.08-130.968c0,0-1.224,0-2.448-1.224l0,0
					c1.225,2.448-1.224,9.792-9.792,17.136c-6.12,4.896-18.359,13.464-36.72,4.896c-12.24-6.12-15.912-24.48-12.24-37.944
					c1.225-7.344,3.672-9.792,4.896-9.792c0,0-1.225,0-1.225-1.224c1.225,2.448,0,13.464-6.119,24.48
					c-2.448,4.896-11.017,17.136-22.032,17.136c-11.016,0-18.36-12.24-22.032-17.136c-6.12-12.24-7.344-22.032-6.12-24.48
					l-1.224,1.224c1.224,0,3.672,2.448,4.896,9.792c3.672,13.464-1.224,31.824-12.24,37.944c-17.136,8.568-30.6,1.224-36.72-4.896
					c-8.568-7.344-9.792-15.912-9.792-17.136l0,0c-3.672,1.224-4.896,1.224-4.896,1.224c7.344,2.448,45.288,50.184,55.08,130.968
					l0,0c0,3.672,3.672,7.344,8.568,6.12C287.64,484.128,291.312,480.456,290.088,475.56L290.088,475.56z"/>
			</g>
		</g>
		<path fill="#FFFFFF" d="M457.776,332.352c0-83.232-67.32-151.776-151.776-151.776c-83.232,0-151.776,67.32-151.776,151.776
			c0,37.944,14.688,73.44,37.944,99.144l0,0l1.224,1.224l1.224,1.225c14.688,15.912,33.048,28.151,41.616,48.96
			c1.224,1.224,1.224,2.447,2.448,3.672c2.448,4.896,4.896,8.567,8.568,12.24v52.632c0,33.048,26.928,59.976,59.976,59.976
			c33.049,0,59.977-26.928,59.977-59.976v-52.632c3.672-3.673,6.12-8.568,8.567-12.24c1.225-1.225,1.225-2.448,2.448-3.672
			c8.568-20.809,26.929-33.049,41.616-48.96l1.224-1.225l1.225-1.224l0,0C443.088,404.568,457.776,370.296,457.776,332.352z
			 M400.248,411.912L400.248,411.912c-14.688,17.136-33.048,33.048-42.84,55.08l0,0c0,0,0,1.224-1.225,1.224H254.592
			c0-1.224,0-1.224-1.224-2.448l0,0c-9.792-22.031-28.152-37.943-42.84-55.08l0,0c-18.36-22.032-29.376-48.959-29.376-79.56
			c0-68.544,55.08-123.624,123.624-123.624c68.544,0,123.625,55.08,123.625,123.624C429.624,362.952,418.608,389.88,400.248,411.912
			z"/>
	</g>
</g>
</svg>
