<?xml version="1.0" encoding="utf-8"?>
<!-- Generator: Adobe Illustrator 16.0.3, SVG Export Plug-In . SVG Version: 6.00 Build 0)  -->
<!DOCTYPE svg PUBLIC "-//W3C//DTD SVG 1.1//EN" "http://www.w3.org/Graphics/SVG/1.1/DTD/svg11.dtd">
<svg version="1.1" id="Layer_1" xmlns="http://www.w3.org/2000/svg" xmlns:xlink="http://www.w3.org/1999/xlink" x="0px" y="0px"
	 width="612px" height="792px" viewBox="0 0 612 792" enable-background="new 0 0 612 792" xml:space="preserve">
<g id="circle">
	<circle fill="#7C7910" cx="301.104" cy="397.224" r="306"/>
</g>
<g id="clock">
	<g>
		<path fill="#FFFFFF" d="M301.104,216.072c9.792,0,19.583,1.224,29.376,2.448c0-1.224,0-1.224,0-2.448
			c0-14.688-12.24-26.928-26.929-26.928c-14.688,0-26.928,12.24-26.928,26.928v1.224
			C283.968,217.296,292.536,216.072,301.104,216.072z M301.104,240.552c-93.024,0-168.912,75.888-168.912,168.912
			c0,34.272,11.016,67.32,28.152,94.248c-9.792,7.344-15.912,19.584-15.912,34.272c0,23.256,19.584,42.84,42.84,42.84
			c15.912,0,29.376-8.568,36.72-20.809c23.256,12.24,50.184,18.36,77.112,18.36s53.856-7.344,77.112-18.36
			c7.344,12.24,20.809,20.809,36.72,20.809c23.257,0,42.841-19.584,42.841-42.84c0-13.465-6.12-25.704-15.912-34.272
			c18.359-26.928,28.151-58.752,28.151-94.248C470.016,315.216,395.352,240.552,301.104,240.552z M301.104,549
			c-77.112,0-140.76-62.424-140.76-140.76c0-77.112,62.424-140.76,140.76-140.76c77.112,0,140.76,62.424,140.76,140.76
			C441.864,486.576,378.216,549,301.104,549z M361.08,443.736l-39.168-30.601c0-1.224,0-2.448,0-3.672
			c0-4.896-1.225-9.792-4.896-13.464l36.721-82.008c2.447-4.896,0-11.016-4.896-13.464c-4.896-2.448-11.016,0-13.464,4.896l0,0
			l-36.72,82.008c-11.016,1.224-20.808,9.792-20.808,22.032s9.792,22.032,22.032,22.032c2.448,0,6.12-1.225,8.568-1.225
			l39.168,30.601c4.896,3.672,11.016,2.448,14.688-1.224C367.2,454.752,365.976,447.408,361.08,443.736z"/>
		<path fill="#FFFFFF" d="M127.296,317.664C127.296,318.888,128.52,318.888,127.296,317.664
			c24.48-45.288,67.32-80.784,118.728-95.472c0-1.224-1.224-1.224-1.224-2.448c-13.464-15.912-40.392-17.136-67.32-3.672l0,0
			c-7.344-9.792-23.256-9.792-35.496,0c-11.016,9.792-14.688,24.479-6.12,34.271l0,0
			C118.728,274.824,113.832,301.752,127.296,317.664z"/>
		<path fill="#FFFFFF" d="M473.688,318.888C474.912,318.888,474.912,318.888,473.688,318.888
			c14.688-17.136,9.793-44.064-7.344-67.32l0,0c7.344-9.792,4.896-24.48-6.12-34.272c-11.016-9.792-26.928-9.792-35.496,0l0,0
			c-26.928-13.464-53.855-12.24-67.319,3.672c0,1.224-1.225,1.224-1.225,2.448C407.592,236.88,450.432,272.376,473.688,318.888z"/>
		<path fill="#FFFFFF" d="M208.08,398.448h-25.704c-6.12,0-11.016,4.896-11.016,11.016s4.896,11.017,11.016,11.017h25.704
			c6.12,0,11.016-4.896,11.016-11.017S214.2,398.448,208.08,398.448z"/>
		<path fill="#FFFFFF" d="M383.112,409.464c0,6.12,4.896,11.017,11.016,11.017h25.704c6.12,0,11.016-4.896,11.016-11.017
			s-4.896-11.016-11.016-11.016h-25.704C388.008,398.448,383.112,403.344,383.112,409.464z"/>
		<path fill="#FFFFFF" d="M301.104,491.472c-6.12,0-11.016,4.896-11.016,11.017v25.704c0,6.119,4.896,11.016,11.016,11.016
			c6.12,0,11.016-4.896,11.016-11.016v-25.704C312.12,496.368,307.224,491.472,301.104,491.472z"/>
		<path fill="#FFFFFF" d="M301.104,327.456c6.12,0,11.016-4.896,11.016-11.016v-25.704c0-6.12-4.896-11.016-11.016-11.016
			c-6.12,0-11.016,4.896-11.016,11.016v25.704C291.312,322.56,294.984,327.456,301.104,327.456z"/>
	</g>
</g>
</svg>
