<?xml version="1.0" encoding="utf-8"?>
<!-- Generator: Adobe Illustrator 16.0.3, SVG Export Plug-In . SVG Version: 6.00 Build 0)  -->
<!DOCTYPE svg PUBLIC "-//W3C//DTD SVG 1.1//EN" "http://www.w3.org/Graphics/SVG/1.1/DTD/svg11.dtd">
<svg version="1.1" id="scroll" xmlns="http://www.w3.org/2000/svg" xmlns:xlink="http://www.w3.org/1999/xlink" x="0px" y="0px"
	 width="612px" height="792px" viewBox="0 0 612 792" enable-background="new 0 0 612 792" xml:space="preserve">
<g>
	<g>
		<path fill="#7C7910" d="M555.696,170.784c-40.393-40.392-86.904-57.528-99.145-45.288c-11.016,11.016,4.896,41.616,41.616,78.336
			c31.824,31.824,75.888,51.408,85.68,44.064c-17.136,0-52.632-24.48-74.664-50.184c-22.031-26.928-28.151-40.392-22.031-47.736
			c4.896-4.896,26.928-1.224,59.976,30.6c41.616,41.616,52.632,75.888,39.168,89.352c-3.672,3.672-7.344,6.12-9.792,8.568
			c-23.256-8.568-53.855-26.928-85.68-58.752c-48.96-48.96-64.872-93.024-62.424-116.28c-2.448,4.896-6.12,11.016-8.568,15.912
			c-2.448,3.672-4.896,7.344-6.12,11.016c-33.048,55.08-77.111,111.384-128.52,166.464c-4.896-4.896-9.792-7.344-12.24-7.344
			l-69.768,69.768c-3.672,3.672-3.672,11.016-1.224,19.584C139.536,432.72,75.888,481.68,12.24,518.4
			C-2.448,533.088,25.704,585.72,74.664,634.68s101.592,77.112,116.28,62.424c17.136-33.048,40.392-67.319,66.096-101.592
			l8.568-11.016l2.448,64.872l39.167-37.944l40.393,35.496l-4.896-118.728L379.44,579.6l12.239-62.424l62.424,7.344l-58.752-73.439
			c73.44-67.32,151.776-133.416,183.601-153c3.672-2.448,7.344-4.896,11.016-7.344c4.896-3.672,11.017-6.12,15.912-9.792l0,0l0,0
			C621.792,268.704,600.984,216.072,555.696,170.784z M372.096,458.424l17.137,19.584l-24.48,6.12l9.792,23.256l-25.704-2.448
			l2.448,25.704l-23.256-9.792l-6.12,24.48l-19.584-17.136l-13.464,22.031L275.4,528.192l-19.584,17.136l-6.12-24.48l-23.256,9.792
			l2.448-25.704l-22.032,1.225l9.792-23.256l-24.48-6.12l17.136-19.584l-22.032-12.24l22.032-13.464l-17.136-19.584l24.48-6.12
			l-9.792-23.256l25.704,2.448l-2.448-25.704l23.256,9.792l6.12-24.48l19.584,17.136l13.464-22.032L306,361.728l19.584-17.136
			l6.12,24.48l23.256-9.792l-2.448,25.704l25.704-2.448l-13.464,25.704l24.48,6.12l-17.137,18.359l22.032,13.464L372.096,458.424z"
			/>
		<circle fill="#7C7910" cx="290.088" cy="444.96" r="44.064"/>
	</g>
</g>
</svg>
