<?xml version="1.0" encoding="utf-8"?>
<!-- Generator: Adobe Illustrator 16.0.3, SVG Export Plug-In . SVG Version: 6.00 Build 0)  -->
<!DOCTYPE svg PUBLIC "-//W3C//DTD SVG 1.1//EN" "http://www.w3.org/Graphics/SVG/1.1/DTD/svg11.dtd">
<svg version="1.1" id="Layer_1" xmlns="http://www.w3.org/2000/svg" xmlns:xlink="http://www.w3.org/1999/xlink" x="0px" y="0px"
	 width="612px" height="792px" viewBox="0 0 612 792" enable-background="new 0 0 612 792" xml:space="preserve">
<path fill="#A32828" d="M306,90C136.68,90,0,226.68,0,396c0,169.32,136.68,306,306,306c169.32,0,306-136.68,306-306
	C612,226.68,475.32,90,306,90z M397.8,277.68c22.44,0,40.8,18.36,40.8,40.8s-18.359,40.8-40.8,40.8c-22.439,0-40.8-18.36-40.8-40.8
	S375.36,277.68,397.8,277.68z M197.88,277.68c22.44,0,40.8,18.36,40.8,40.8s-18.36,40.8-40.8,40.8s-40.8-18.36-40.8-40.8
	S175.44,277.68,197.88,277.68z M442.68,542.88c-2.04,8.16-10.199,14.28-18.359,14.28c-2.04,0-4.08,0-6.12,0l-252.96-75.48
	c-10.2-2.04-16.32-14.279-12.24-24.479c2.04-10.2,14.28-16.32,24.48-12.24L428.4,518.4C438.6,522.48,444.72,532.68,442.68,542.88z"
	/>
</svg>
