<?xml version="1.0" encoding="utf-8"?>
<!-- Generator: Adobe Illustrator 16.0.3, SVG Export Plug-In . SVG Version: 6.00 Build 0)  -->
<!DOCTYPE svg PUBLIC "-//W3C//DTD SVG 1.1//EN" "http://www.w3.org/Graphics/SVG/1.1/DTD/svg11.dtd">
<svg version="1.1" id="menu_x5F_icons" xmlns="http://www.w3.org/2000/svg" xmlns:xlink="http://www.w3.org/1999/xlink" x="0px"
	 y="0px" width="387.885px" height="54.383px" viewBox="0 0 387.885 54.383" enable-background="new 0 0 387.885 54.383"
	 xml:space="preserve">
<g id="Home">
	<g>
		<g>
			<defs>
				<rect id="SVGID_1_" x="3.625" y="2.782" width="62.934" height="48.005"/>
			</defs>
			<clipPath id="SVGID_2_">
				<use xlink:href="#SVGID_1_"  overflow="visible"/>
			</clipPath>
			<g clip-path="url(#SVGID_2_)">
				<defs>
					<path id="SVGID_3_" d="M4.527,29.729c-1.067-0.985-1.209-2.522-0.31-3.349l24.81-22.784c1.222-1.09,3.195-1.085,4.794,0.012
						l29.154,19.904c1.397,0.958,3.584,5.205,3.584,5.205c-0.765,1.394-3.669,7.493-5.196,6.409l-0.156-0.11
						c-0.843-0.597-1.853-0.075-1.692,0.875l1.819,11.917c0.261,1.541-0.769,2.788-2.309,2.795l-39.267,0.184
						c-1.754,0.008-6.948-3.716-7.265-5.472l0.993-11.67c-0.139-0.774-1.116-1.196-1.627-0.702c-1.051,1.02-2.888,0.891-4.169-0.292
						L4.527,29.729z"/>
				</defs>
				<clipPath id="SVGID_4_">
					<use xlink:href="#SVGID_3_"  overflow="visible"/>
				</clipPath>
				
					<linearGradient id="SVGID_5_" gradientUnits="userSpaceOnUse" x1="-111.5718" y1="418.0176" x2="-110.5722" y2="418.0176" gradientTransform="matrix(62.8054 0 -10.9895 -62.8054 11604.5273 26280.3359)">
					<stop  offset="0" style="stop-color:#545254"/>
					<stop  offset="0.135" style="stop-color:#5E5C5E"/>
					<stop  offset="0.3666" style="stop-color:#797879"/>
					<stop  offset="0.6668" style="stop-color:#A5A4A5"/>
					<stop  offset="1" style="stop-color:#DEDEDD"/>
				</linearGradient>
				<polygon clip-path="url(#SVGID_4_)" fill="url(#SVGID_5_)" points="-5.131,2.506 66.559,2.506 75.009,50.795 3.318,50.795 				
					"/>
			</g>
		</g>
	</g>
	<path fill="#FFFFFF" d="M0.847,27.198c-0.895-0.985-0.768-2.522,0.276-3.348L29.92,1.064c1.413-1.09,3.384-1.085,4.792,0.012
		l28.099,21.895c1.117,0.871,1.345,2.471,0.514,3.619l-2.618,3.618c-0.921,1.272-2.722,1.513-3.943,0.522l-0.774-0.625
		c-0.568-0.461-1.415-0.06-1.419,0.672L54.49,45.275c-0.008,1.543-1.256,2.789-2.797,2.797l-39.3,0.183
		c-1.755,0.009-3.185-1.407-3.195-3.163L9.121,31.114c-0.004-0.775-0.907-1.197-1.504-0.702c-1.23,1.02-3.045,0.89-4.118-0.293
		L0.847,27.198z"/>
	<g id="background-fill">
		<path d="M49.692,24.618L34.388,13.145c-1.443-1.082-3.434-1.058-4.851,0.058l-15.424,12.15
			c-0.958,0.755-1.518,1.907-1.518,3.127v12.369c0,2.199,1.783,3.981,3.981,3.981h30.728c2.199,0,3.981-1.782,3.981-3.981V27.803
			C51.285,26.55,50.695,25.37,49.692,24.618"/>
		<path d="M59.115,28.115c-0.424,0-0.852-0.135-1.214-0.412L33.668,9.15c-0.908-0.695-2.171-0.687-3.07,0.019
			L7.708,27.16C6.84,27.844,5.583,27.691,4.9,26.822c-0.682-0.868-0.532-2.125,0.337-2.808l22.889-17.99
			c2.336-1.837,5.614-1.858,7.973-0.051l24.233,18.553c0.877,0.671,1.044,1.926,0.372,2.803
			C60.311,27.845,59.716,28.115,59.115,28.115"/>
		<path fill="#FFFFFF" d="M44.648,37.017h-9.834c-0.707,0-1.281-0.574-1.281-1.281v-5.456c0-0.707,0.574-1.281,1.281-1.281h9.834
			c0.708,0,1.281,0.574,1.281,1.281v5.456C45.929,36.442,45.356,37.017,44.648,37.017"/>
		<path d="M39.494,40.83c-0.552,0-1-0.448-1-1V27.381c0-0.553,0.448-1,1-1c0.552,0,1,0.447,1,1V39.83
			C40.494,40.382,40.046,40.83,39.494,40.83"/>
		<path d="M46.819,34.148H32.801c-0.489,0-0.885-0.396-0.885-0.887c0-0.488,0.396-0.885,0.885-0.885h14.018
			c0.489,0,0.886,0.396,0.886,0.885C47.705,33.752,47.308,34.148,46.819,34.148"/>
	</g>
	<path fill="none" stroke="#676766" stroke-width="0.5" stroke-miterlimit="10" d="M0.847,27.198
		c-0.895-0.985-0.768-2.522,0.276-3.348L29.92,1.064c1.413-1.09,3.384-1.085,4.792,0.012l28.099,21.895
		c1.117,0.871,1.345,2.471,0.514,3.619l-2.618,3.618c-0.921,1.272-2.722,1.513-3.943,0.522l-0.774-0.625
		c-0.568-0.461-1.415-0.06-1.419,0.672L54.49,45.275c-0.008,1.543-1.256,2.789-2.797,2.797l-39.3,0.183
		c-1.755,0.009-3.185-1.407-3.195-3.163L9.121,31.114c-0.004-0.775-0.907-1.197-1.504-0.702c-1.23,1.02-3.045,0.89-4.118-0.293
		L0.847,27.198z"/>
	<defs>
		<filter id="Adobe_OpacityMaskFilter" filterUnits="userSpaceOnUse" x="12.342" y="3.358" width="56.641" height="56.667">
			<feColorMatrix  type="matrix" values="1 0 0 0 0  0 1 0 0 0  0 0 1 0 0  0 0 0 1 0"/>
		</filter>
	</defs>
	<mask maskUnits="userSpaceOnUse" x="12.342" y="3.358" width="56.641" height="56.667" id="SVGID_6_">
		<g filter="url(#Adobe_OpacityMaskFilter)">
			<g>
				<defs>
					<rect id="SVGID_7_" x="28.009" y="15.958" width="25.306" height="31.256"/>
				</defs>
				<clipPath id="SVGID_8_">
					<use xlink:href="#SVGID_7_"  overflow="visible"/>
				</clipPath>
				<rect x="28.009" y="15.958" clip-path="url(#SVGID_8_)" width="25.307" height="31.467"/>
				<g enable-background="new    ">
					<g>
						<defs>
							<rect id="SVGID_9_" x="28.009" y="15.958" width="25.306" height="31.467"/>
						</defs>
						<clipPath id="SVGID_10_" clip-path="url(#SVGID_8_)">
							<use xlink:href="#SVGID_9_"  overflow="visible"/>
						</clipPath>
						<g>
							<defs>
								<rect id="SVGID_11_" x="29.434" y="32.97" width="38.546" height="21.116"/>
							</defs>
							<clipPath id="SVGID_12_" clip-path="url(#SVGID_10_)">
								<use xlink:href="#SVGID_11_"  overflow="visible"/>
							</clipPath>
							
								<linearGradient id="SVGID_13_" gradientUnits="userSpaceOnUse" x1="-117.8149" y1="433.0938" x2="-116.8149" y2="433.0938" gradientTransform="matrix(-16.7594 -12.4019 -12.4019 16.7594 3457.1772 -8667.249)">
								<stop  offset="0" style="stop-color:#FFFFFF"/>
								<stop  offset="0.0915" style="stop-color:#F5F5F5"/>
								<stop  offset="0.2485" style="stop-color:#DAD9DA"/>
								<stop  offset="0.4521" style="stop-color:#AEACAD"/>
								<stop  offset="0.6945" style="stop-color:#716E70"/>
								<stop  offset="0.9669" style="stop-color:#242022"/>
								<stop  offset="1" style="stop-color:#1A1618"/>
							</linearGradient>
							<polygon clip-path="url(#SVGID_12_)" fill="url(#SVGID_13_)" points="54.341,72.518 19.337,46.614 43.073,14.539 
								78.078,40.441 							"/>
						</g>
					</g>
				</g>
			</g>
		</g>
	</mask>
	<g mask="url(#SVGID_6_)">
		<g>
			<!--<defs>
				<rect id="SVGID_14_" x="28.009" y="15.958" width="25.306" height="31.256"/>
			</defs>-->
			<clipPath id="SVGID_15_">
				<use xlink:href="#SVGID_14_"  overflow="visible"/>
			</clipPath>
			<g clip-path="url(#SVGID_15_)">
				<defs>
					<path id="SVGID_16_" d="M47.408,47.174l-12.779,0.041c-3.641,0-6.62-2.979-6.62-6.619v-0.084c0-3.641,2.979-6.62,6.62-6.62
						l18.603-17.933l0.083,24.762C53.279,44.754,52.998,47.426,47.408,47.174"/>
				</defs>
				<clipPath id="SVGID_17_">
					<use xlink:href="#SVGID_16_"  overflow="visible"/>
				</clipPath>
				
					<linearGradient id="SVGID_18_" gradientUnits="userSpaceOnUse" x1="-117.8545" y1="431.1201" x2="-116.8545" y2="431.1201" gradientTransform="matrix(-17.5845 -16.0436 -16.0436 17.5845 4899.3813 -9427.0098)">
					<stop  offset="0" style="stop-color:#8C8D8F"/>
					<stop  offset="0.1578" style="stop-color:#8C8D8F"/>
					<stop  offset="0.8172" style="stop-color:#FFFFFF"/>
					<stop  offset="1" style="stop-color:#FFFFFF"/>
				</linearGradient>
				<polygon clip-path="url(#SVGID_17_)" fill="url(#SVGID_18_)" points="41.819,60.025 12.342,33.131 39.505,3.358 68.983,30.253 
									"/>
			</g>
		</g>
	</g>
	<path fill="#FFFFFF" d="M27.608,46.02h-5.487c-0.932,0-1.687-0.756-1.687-1.688V30.686c0-0.932,0.755-1.688,1.687-1.688h5.487
		c0.932,0,1.687,0.756,1.687,1.688v13.646C29.295,45.264,28.541,46.02,27.608,46.02"/>
</g>
<g id="Toolbox">
	<g>
		<g>
			<defs>
				<rect id="SVGID_19_" x="119.513" y="0.601" width="60.36" height="50.254"/>
			</defs>
			<clipPath id="SVGID_20_">
				<use xlink:href="#SVGID_19_"  overflow="visible"/>
			</clipPath>
			<g clip-path="url(#SVGID_20_)">
				<defs>
					<path id="SVGID_21_" d="M172.084,8.675l-11.167-0.529c-1.517-6.752-9.794-7.546-9.794-7.546l-4.985,4.302
						c0,0-6.724,6.922-6.453,10.02l0.126,1.443l-14.105-0.011c-1.633,0-2.844,1.309-2.703,2.924l0.258,2.951
						c0.353,3.736,1.332,4.899,3.453,5.708l-7.201,16.879l7.015,6.038h50.792c1.632,0,2.682-3.147,2.54-4.765l-1.611-18.42
						c1.521-1.133,1.635-2.677,1.393-5.44l-0.258-2.951C178.851,14.534,172.084,8.675,172.084,8.675"/>
				</defs>
				<clipPath id="SVGID_22_">
					<use xlink:href="#SVGID_21_"  overflow="visible"/>
				</clipPath>
				
					<linearGradient id="SVGID_23_" gradientUnits="userSpaceOnUse" x1="-109.4814" y1="417.0752" x2="-108.4814" y2="417.0752" gradientTransform="matrix(48.7408 16.9706 12.8363 -47.2561 114.3091 21586.8047)">
					<stop  offset="0" style="stop-color:#545254"/>
					<stop  offset="0.135" style="stop-color:#5E5C5E"/>
					<stop  offset="0.3666" style="stop-color:#797879"/>
					<stop  offset="0.6668" style="stop-color:#A5A4A5"/>
					<stop  offset="1" style="stop-color:#DEDEDD"/>
				</linearGradient>
				<polygon clip-path="url(#SVGID_22_)" fill="url(#SVGID_23_)" points="124.74,-18.641 192.473,4.943 174.775,70.096 
					107.042,46.512 				"/>
			</g>
		</g>
	</g>
	<path fill="#FFFFFF" d="M122.529,48.723c-4.192,0-6.386-5.334-6.386-8.192V24.363c-2.566-1.977-2.934-4.994-2.953-7.691v-2.954
		c0-3.502,2.866-6.351,6.389-6.351l10.895,0.009c0.928-4.102,4.631-7.058,8.883-7.058h11.983c4.252,0,7.956,2.956,8.884,7.058
		l9.816-0.009c3.521,0,6.385,2.849,6.385,6.351v2.952c0,1.873,0,4.694-1.869,6.92v16.94c0,2.858-2.193,8.192-6.384,8.192H122.529z"
		/>
	<path fill="#676766" d="M151.34,0.568c4.284,0,7.868,3.037,8.682,7.058l10.018-0.01c3.383,0,6.135,2.738,6.135,6.102v2.951
		c0,1.922,0,4.662-1.869,6.828v17.032c0,2.772-2.107,7.943-6.135,7.943h-45.642c-4.029,0-6.136-5.171-6.136-7.943V24.238
		c-2.516-1.87-2.934-4.704-2.953-7.569v-2.951c0-3.364,2.752-6.102,6.139-6.102l11.097,0.01c0.813-4.021,4.397-7.058,8.681-7.058
		H151.34 M151.34,0.068h-11.983c-4.301,0-8.055,2.944-9.081,7.057L119.58,7.117c-3.661,0-6.639,2.962-6.639,6.602v2.951
		c0.018,2.728,0.39,5.773,2.953,7.815v16.045c0,2.946,2.279,8.443,6.636,8.443h45.642c4.356,0,6.635-5.497,6.635-8.443V23.681
		c1.87-2.284,1.869-5.12,1.869-7.011v-2.951c0-3.64-2.976-6.602-6.635-6.602l-9.619,0.009C159.396,3.013,155.642,0.068,151.34,0.068
		"/>
	<path fill="#FFFFFF" d="M122.529,46.295c-2.417,0-3.959-3.786-3.959-5.766V23.028c-2.141-1.065-2.929-2.818-2.953-6.351v-2.959
		c0-2.164,1.776-3.924,3.959-3.924l13.104,0.011V9.362c0-3.648,2.995-6.616,6.677-6.616h11.983c3.682,0,6.678,2.968,6.678,6.616
		v0.443l12.021-0.011c2.184,0,3.959,1.76,3.959,3.924v2.952c0,2.448-0.145,4.464-1.87,5.931v17.928c0,1.979-1.541,5.766-3.957,5.766
		H122.529z"/>
	<path fill="#FFFFFF" d="M151.34,3.746c3.131,0,5.678,2.519,5.678,5.617v1.443l13.022-0.012c1.632,0,2.958,1.31,2.958,2.925v2.951
		c0,2.762-0.249,4.307-1.87,5.44v18.419c0,1.619-1.324,4.766-2.957,4.766h-45.642c-1.634,0-2.959-3.146-2.959-4.766V22.378
		c-2.05-0.809-2.927-1.972-2.953-5.708v-2.951c0-1.615,1.326-2.925,2.959-2.925l14.104,0.012V9.363c0-3.098,2.548-5.617,5.677-5.617
		H151.34 M151.34,1.746h-11.983c-4.044,0-7.368,3.118-7.657,7.059l-12.122-0.011c-2.736,0-4.961,2.209-4.961,4.925v2.951
		c0.025,3.659,0.85,5.688,2.953,6.953v16.907c0,2.297,1.75,6.766,4.959,6.766h45.642c3.208,0,4.957-4.469,4.957-6.766V23.042
		c1.714-1.693,1.87-3.901,1.87-6.372v-2.951c0-2.716-2.224-4.925-4.958-4.925l-11.042,0.01
		C158.709,4.864,155.385,1.746,151.34,1.746"/>
	<path fill="#3F3F3E" d="M168.626,12.26h-13.267v-1.693c0-2.673-2.198-4.847-4.9-4.847h-10.342c-2.7,0-4.899,2.174-4.899,4.847
		v1.693h-14.029c-1.41,0-2.554,1.13-2.554,2.524v2.1c0,3.259,1.077,4.31,4.371,4.31h44.215c3.294,0,3.958-1.051,3.958-4.31v-2.1
		C171.179,13.39,170.034,12.26,168.626,12.26 M138.776,12.26v-1.693c0-0.732,0.603-1.328,1.341-1.328h10.342
		c0.741,0,1.343,0.596,1.343,1.328v1.693H138.776z"/>
	<path fill="#3F3F3E" d="M123.041,24.23v14.043c0,1.396,1.143,4.111,2.553,4.111h39.391c1.408,0,2.552-2.716,2.552-4.111V24.165
		L123.041,24.23z"/>
	<defs>
		<filter id="Adobe_OpacityMaskFilter_1_" filterUnits="userSpaceOnUse" x="125.142" y="-3.886" width="65.593" height="65.865">
			<feColorMatrix  type="matrix" values="1 0 0 0 0  0 1 0 0 0  0 0 1 0 0  0 0 0 1 0"/>
		</filter>
	</defs>
	<mask maskUnits="userSpaceOnUse" x="125.142" y="-3.886" width="65.593" height="65.865" id="SVGID_24_">
		<g filter="url(#Adobe_OpacityMaskFilter_1_)">
			<rect x="142.946" y="10.529" width="29.984" height="37.034"/>
			<g enable-background="new    ">
				<g>
					<defs>
						<rect id="SVGID_25_" x="142.946" y="10.529" width="29.984" height="37.033"/>
					</defs>
					<clipPath id="SVGID_26_">
						<use xlink:href="#SVGID_25_"  overflow="visible"/>
					</clipPath>
					<g>
						<defs>
							<rect id="SVGID_27_" x="144.634" y="30.684" width="45.671" height="25.021"/>
						</defs>
						<clipPath id="SVGID_28_" clip-path="url(#SVGID_26_)">
							<use xlink:href="#SVGID_27_"  overflow="visible"/>
						</clipPath>
						
							<linearGradient id="SVGID_29_" gradientUnits="userSpaceOnUse" x1="-116.6914" y1="431.4111" x2="-115.6914" y2="431.4111" gradientTransform="matrix(-19.8572 -14.6944 -14.6944 19.8572 4203.563 -10227.8301)">
							<stop  offset="0" style="stop-color:#FFFFFF"/>
							<stop  offset="0.0915" style="stop-color:#F5F5F5"/>
							<stop  offset="0.2485" style="stop-color:#DAD9DA"/>
							<stop  offset="0.4521" style="stop-color:#AEACAD"/>
							<stop  offset="0.6945" style="stop-color:#716E70"/>
							<stop  offset="0.9669" style="stop-color:#242022"/>
							<stop  offset="1" style="stop-color:#1A1618"/>
						</linearGradient>
						<polygon clip-path="url(#SVGID_28_)" fill="url(#SVGID_29_)" points="174.145,77.543 132.67,46.852 160.794,8.846 
							202.269,39.537 						"/>
					</g>
				</g>
			</g>
		</g>
	</mask>
	<g mask="url(#SVGID_24_)">
		<g>
			<defs>
				<rect id="SVGID_30_" x="142.946" y="10.529" width="29.984" height="37.033"/>
			</defs>
			<clipPath id="SVGID_31_">
				<use xlink:href="#SVGID_30_"  overflow="visible"/>
			</clipPath>
			<g clip-path="url(#SVGID_31_)">
				<defs>
					<path id="SVGID_32_" d="M165.93,47.514l-15.141,0.049c-4.314,0-7.843-3.529-7.843-7.843v-0.099
						c0-4.314,3.529-7.845,7.843-7.845l22.042-21.247l0.099,29.34C172.93,44.183,170.244,47.514,165.93,47.514"/>
				</defs>
				<clipPath id="SVGID_33_">
					<use xlink:href="#SVGID_32_"  overflow="visible"/>
				</clipPath>
				
					<linearGradient id="SVGID_34_" gradientUnits="userSpaceOnUse" x1="-120.3037" y1="411.1016" x2="-119.3037" y2="411.1016" gradientTransform="matrix(14.25 -10.75 -10.75 -14.25 6288.4458 4596.3652)">
					<stop  offset="0" style="stop-color:#8C8D8F"/>
					<stop  offset="0.4181" style="stop-color:#8C8D8F"/>
					<stop  offset="0.8172" style="stop-color:#FFFFFF"/>
					<stop  offset="1" style="stop-color:#FFFFFF"/>
				</linearGradient>
				<polygon clip-path="url(#SVGID_33_)" fill="url(#SVGID_34_)" points="125.142,23.961 162.055,-3.886 190.735,34.131 
					153.821,61.979 				"/>
			</g>
		</g>
	</g>
	<line fill="none" stroke="#FFFFFF" stroke-miterlimit="10" x1="122.046" y1="22.278" x2="169.703" y2="22.278"/>
	<rect x="123.039" y="18.555" fill="#3F3F3E" width="44.48" height="5.908"/>
	<path fill="#FFFFFF" d="M156.777,35.708c-1.365-0.692-1.913-2.364-1.223-3.729c0.694-1.365,2.384-1.902,3.729-1.225
		c0.464,0.236,0.848,0.592,1.116,1.029l3.349-2.037c-0.647-1.064-1.58-1.923-2.696-2.488c-2.671-1.36-5.865-0.695-7.856,1.394
		l-9.166-3.493c0.303-3.656-1.779-7.232-5.374-8.602c-1.841-0.702-3.877-0.738-5.738-0.102l1.27,3.708
		c0.994-0.34,2.085-0.32,3.072,0.056c2.335,0.891,3.511,3.514,2.621,5.849c-0.89,2.336-3.514,3.512-5.849,2.622
		c-0.791-0.303-1.477-0.813-1.988-1.481l-3.114,2.377c0.951,1.25,2.234,2.205,3.706,2.767c3.845,1.466,8.102-0.08,10.19-3.457
		l8.626,3.287c-0.444,2.795,0.899,5.68,3.556,7.022c0.208,0.106,0.42,0.199,0.638,0.282c1.229,0.468,2.58,0.566,3.87,0.273
		l-0.87-3.822C158.2,36.037,157.526,36.071,156.777,35.708"/>
</g>
<g id="Help">
	<g>
		<g>
			<defs>
				<rect id="SVGID_35_" x="232.495" y="3.962" width="58.263" height="50.42"/>
			</defs>
			<clipPath id="SVGID_36_">
				<use xlink:href="#SVGID_35_"  overflow="visible"/>
			</clipPath>
			<g clip-path="url(#SVGID_36_)">
				<defs>
					<path id="SVGID_37_" d="M232.51,9.845l0.765,31.135c0.22,2.215,4.578,6.772,6.796,7.133c1.938,0.315,4.492,0.819,7.379,1.613
						c4.496,1.237,8.367,2.954,10.285,3.872c0.892,0.427,1.852,0.648,2.807,0.663l8.255,0.12c0.586,0.01,1.146-0.125,1.644-0.394
						c1.254-0.678,4.291-2.123,9.904-3.737c3.222-0.927,5.611-1.508,7.305-1.873c1.977-0.424,3.264-2.19,3.094-4.248l-2.455-29.983
						c-0.205-2.486-3.841-10.601-6.25-10.166c-2.624,0.473-5.184,3.586-8.696,4.605c-7.238,2.099-9.823,4.093-9.823,4.093
						l-5.886-0.105c0,0-6.438-2.688-12.971-4.303c-3.239-0.801-6.347-1.349-8.655-1.699C233.976,6.264,232.31,7.817,232.51,9.845"/>
				</defs>
				<clipPath id="SVGID_38_">
					<use xlink:href="#SVGID_37_"  overflow="visible"/>
				</clipPath>
				
					<linearGradient id="SVGID_39_" gradientUnits="userSpaceOnUse" x1="-111.2515" y1="417.6094" x2="-110.2515" y2="417.6094" gradientTransform="matrix(57.3604 0 -5.0184 -57.3604 8709.3477 23983.2148)">
					<stop  offset="0" style="stop-color:#545254"/>
					<stop  offset="0.135" style="stop-color:#5E5C5E"/>
					<stop  offset="0.3666" style="stop-color:#797879"/>
					<stop  offset="0.6668" style="stop-color:#A5A4A5"/>
					<stop  offset="1" style="stop-color:#DEDEDD"/>
				</linearGradient>
				<polygon clip-path="url(#SVGID_38_)" fill="url(#SVGID_39_)" points="227.862,3.544 290.913,3.544 295.361,54.391 
					232.31,54.391 				"/>
			</g>
		</g>
	</g>
	<path fill="#FFFFFF" d="M231.535,6.678l0.384,33.828c0.026,2.216,1.644,4.081,3.829,4.441c1.91,0.313,4.42,0.818,7.236,1.611
		c4.389,1.237,8.11,2.954,9.948,3.872c0.854,0.427,1.794,0.649,2.748,0.664l8.243,0.121c0.586,0.008,1.158-0.126,1.68-0.396
		c1.313-0.678,4.477-2.123,10.23-3.736c3.303-0.926,5.743-1.51,7.468-1.873c2.015-0.426,3.455-2.191,3.466-4.249l0.169-33.822
		c0.012-2.486-2.228-4.371-4.675-3.936c-2.667,0.473-6.184,1.195-9.785,2.214c-7.423,2.099-10.182,4.093-10.182,4.093l-5.877-0.105
		c0,0-6.202-2.688-12.594-4.303c-3.17-0.8-6.229-1.349-8.507-1.699C233.314,3.097,231.511,4.65,231.535,6.678"/>
	<path fill="none" stroke="#676766" stroke-width="0.5" stroke-miterlimit="10" d="M231.535,6.678l0.384,33.828
		c0.026,2.216,1.644,4.081,3.829,4.441c1.91,0.313,4.42,0.818,7.236,1.611c4.389,1.237,8.11,2.954,9.948,3.872
		c0.854,0.427,1.794,0.649,2.748,0.664l8.243,0.121c0.586,0.008,1.158-0.126,1.68-0.396c1.313-0.678,4.477-2.123,10.23-3.736
		c3.303-0.926,5.743-1.51,7.468-1.873c2.015-0.426,3.455-2.191,3.466-4.249l0.169-33.822c0.012-2.486-2.228-4.371-4.675-3.936
		c-2.667,0.473-6.184,1.195-9.785,2.214c-7.423,2.099-10.182,4.093-10.182,4.093l-5.877-0.105c0,0-6.202-2.688-12.594-4.303
		c-3.17-0.8-6.229-1.349-8.507-1.699C233.314,3.097,231.511,4.65,231.535,6.678z"/>
	<path fill="#3F3F3E" d="M235.65,14.755l0.182,25.288c0.008,1.17,0.974,2.09,2.142,2.061c1.504-0.039,3.834,0.122,7.084,0.939
		c2.92,0.734,5.242,1.666,6.901,2.461c1.385,0.664,2.984-0.336,2.98-1.873l-0.066-24.886c-0.003-0.642-0.3-1.243-0.807-1.637
		c-1.243-0.968-3.962-2.718-8.38-3.74c-3.652-0.844-6.431-0.846-8.131-0.696C236.473,12.767,235.642,13.668,235.65,14.755"/>
	<path fill="#3F3F3E" d="M283.197,14.755l-0.181,25.288c-0.008,1.17-0.974,2.09-2.142,2.061c-1.505-0.039-3.834,0.122-7.084,0.939
		c-2.921,0.734-5.242,1.666-6.901,2.461c-1.385,0.664-2.985-0.336-2.981-1.873l0.067-24.886c0.002-0.642,0.299-1.243,0.806-1.637
		c1.243-0.968,3.962-2.718,8.38-3.74c3.652-0.844,6.432-0.846,8.132-0.696C282.375,12.767,283.206,13.668,283.197,14.755"/>
	<path fill="#3F3F3E" d="M260.61,46.178h-2.428c-1.301,0-2.355-1.053-2.355-2.354V20.13c0-1.301,1.055-2.354,2.355-2.354h2.428
		c1.3,0,2.354,1.053,2.354,2.354v23.694C262.963,45.125,261.91,46.178,260.61,46.178"/>
	<path fill="#3F3F3E" d="M261.875,16.91h-4.565c-0.229,0-0.457-0.063-0.654-0.183c-0.044-0.027-4.551-2.74-10.268-4.518
		c-5.608-1.744-9.637-1.446-9.677-1.443c-0.7,0.056-1.3-0.46-1.357-1.152c-0.057-0.692,0.456-1.3,1.148-1.358
		c0.182-0.015,4.521-0.353,10.634,1.548c5.215,1.622,9.369,3.922,10.517,4.587h3.843c1.125-0.731,4.949-3.094,10.036-4.887
		c6.123-2.159,10.24-1.421,10.413-1.388c0.684,0.129,1.133,0.788,1.003,1.471c-0.128,0.683-0.784,1.133-1.471,1.004
		c-0.031-0.005-3.673-0.628-9.107,1.288c-5.635,1.987-9.74,4.782-9.781,4.81C262.378,16.833,262.13,16.91,261.875,16.91"/>
	<path fill="#FFFFFF" d="M275.174,30.452h-2.974v-3.569h0.925c0.652,0,1.147-0.133,1.487-0.398c0.34-0.265,0.509-0.645,0.509-1.141
		c0-0.516-0.22-0.927-0.662-1.235c-0.145-0.102-0.322-0.16-0.499-0.174c-0.498-0.039-0.879,0.067-1.142,0.316
		c-0.228,0.216-0.355,0.532-0.385,0.947h-2.955v-0.035c0-1.123,0.4-2.021,1.201-2.692c0.801-0.671,1.875-1.007,3.224-1.007
		c1.222,0,2.205,0.355,2.95,1.063c0.746,0.709,1.12,1.639,1.12,2.791c0,0.963-0.259,1.747-0.773,2.351
		c-0.516,0.604-1.188,0.919-2.019,0.942L275.174,30.452z M271.83,33.32c0-0.489,0.17-0.904,0.51-1.244s0.754-0.51,1.244-0.51
		c0.496,0,0.909,0.168,1.241,0.506c0.331,0.337,0.497,0.753,0.497,1.248c0,0.496-0.168,0.912-0.502,1.25
		c-0.339,0.342-0.76,0.511-1.26,0.505c-0.431-0.005-0.858-0.175-1.173-0.468C272.015,34.26,271.83,33.831,271.83,33.32"/>
	<defs>
		<filter id="Adobe_OpacityMaskFilter_2_" filterUnits="userSpaceOnUse" x="234.683" y="-6.775" width="71.344" height="71.393">
			<feColorMatrix  type="matrix" values="1 0 0 0 0  0 1 0 0 0  0 0 1 0 0  0 0 0 1 0"/>
		</filter>
	</defs>
	<mask maskUnits="userSpaceOnUse" x="234.683" y="-6.775" width="71.344" height="71.393" id="SVGID_40_">
		<g filter="url(#Adobe_OpacityMaskFilter_2_)">
			<rect x="255.362" y="8.154" width="29.984" height="41.533"/>
			<g enable-background="new    ">
				<g>
					<defs>
						<rect id="SVGID_41_" x="255.362" y="8.154" width="29.984" height="41.533"/>
					</defs>
					<clipPath id="SVGID_42_">
						<use xlink:href="#SVGID_41_"  overflow="visible"/>
					</clipPath>
					<g>
						<defs>
							<rect id="SVGID_43_" x="257.049" y="28.309" width="45.672" height="25.021"/>
						</defs>
						<clipPath id="SVGID_44_" clip-path="url(#SVGID_42_)">
							<use xlink:href="#SVGID_43_"  overflow="visible"/>
						</clipPath>
						
							<linearGradient id="SVGID_45_" gradientUnits="userSpaceOnUse" x1="-116.6909" y1="431.4111" x2="-115.6912" y2="431.4111" gradientTransform="matrix(-19.8572 -14.6944 -14.6944 19.8572 4315.9692 -10230.2051)">
							<stop  offset="0" style="stop-color:#FFFFFF"/>
							<stop  offset="0.0915" style="stop-color:#F5F5F5"/>
							<stop  offset="0.2485" style="stop-color:#DAD9DA"/>
							<stop  offset="0.4521" style="stop-color:#AEACAD"/>
							<stop  offset="0.6945" style="stop-color:#716E70"/>
							<stop  offset="0.9669" style="stop-color:#242022"/>
							<stop  offset="1" style="stop-color:#1A1618"/>
						</linearGradient>
						<polygon clip-path="url(#SVGID_44_)" fill="url(#SVGID_45_)" points="286.561,75.168 245.085,44.477 273.209,6.47 
							314.685,37.162 						"/>
					</g>
				</g>
			</g>
		</g>
	</mask>
	<g mask="url(#SVGID_40_)">
		<g>
			<defs>
				<rect id="SVGID_46_" x="255.362" y="8.154" width="29.985" height="41.533"/>
			</defs>
			<clipPath id="SVGID_47_">
				<use xlink:href="#SVGID_46_"  overflow="visible"/>
			</clipPath>
			<g clip-path="url(#SVGID_47_)">
				<defs>
					<path id="SVGID_48_" d="M279.637,44.438l-15.25,5.25c-4.314,0-9.025-8.029-9.025-12.343v-0.099c0-4.314,3.53-7.845,7.845-7.845
						l22.041-21.247l0.1,29.34C285.347,41.808,284.012,43.188,279.637,44.438"/>
				</defs>
				<clipPath id="SVGID_49_">
					<use xlink:href="#SVGID_48_"  overflow="visible"/>
				</clipPath>
				
					<linearGradient id="SVGID_50_" gradientUnits="userSpaceOnUse" x1="-116.9351" y1="430.0371" x2="-115.9351" y2="430.0371" gradientTransform="matrix(-20.1415 -18.3765 -18.3765 20.1415 5833.0044 -10767.5908)">
					<stop  offset="0" style="stop-color:#8C8D8F"/>
					<stop  offset="0.1578" style="stop-color:#8C8D8F"/>
					<stop  offset="0.8172" style="stop-color:#FFFFFF"/>
					<stop  offset="1" style="stop-color:#FFFFFF"/>
				</linearGradient>
				<polygon clip-path="url(#SVGID_49_)" fill="url(#SVGID_50_)" points="271.726,64.617 234.683,30.82 268.984,-6.775 
					306.027,27.021 				"/>
			</g>
		</g>
	</g>
</g>
<g id="Exit">
	<g>
		<g>
			<defs>
				<rect id="SVGID_51_" x="345.055" y="12.479" width="42.83" height="40.468"/>
			</defs>
			<clipPath id="SVGID_52_">
				<use xlink:href="#SVGID_51_"  overflow="visible"/>
			</clipPath>
			<g clip-path="url(#SVGID_52_)">
				<defs>
					<path id="SVGID_53_" d="M383.054,12.479l-3.882,1.355c-1.531-1.305-3.646-1.306-4.723-0.003l-8.237,9.965
						c-1.077,1.303-3.191,1.301-4.723-0.003l-11.713-9.982c-1.53-1.305-3.645-1.307-4.722-0.004l2.665,0.172
						c-1.077,1.302-3.197,0.528-1.666,1.833l12.57,12c1.53,1.305-0.797,6.128-1.874,7.432l-10.646,7.818
						c-1.077,1.303,1.699,5.563,3.23,6.868l2.362,2.014c1.531,1.306,3.646,1.306,4.723,0.003l8.238-9.965
						c1.076-1.303,3.19-1.301,4.722,0.004l11.712,9.981c1.532,1.305,3.646,1.307,4.723,0.004l1.662-2.011
						c1.077-1.304-0.146-5.906-1.677-7.211l-10.858-7.492c-1.53-1.305-1.898-3.42-0.821-4.721l11.267-9.892
						C386.464,19.344,384.585,13.784,383.054,12.479"/>
				</defs>
				<clipPath id="SVGID_54_">
					<use xlink:href="#SVGID_53_"  overflow="visible"/>
				</clipPath>
				
					<linearGradient id="SVGID_55_" gradientUnits="userSpaceOnUse" x1="-111.9741" y1="416.209" x2="-110.9737" y2="416.209" gradientTransform="matrix(44.2608 0 -7.7446 -44.2608 8523.3203 18454.6016)">
					<stop  offset="0" style="stop-color:#545254"/>
					<stop  offset="0.135" style="stop-color:#5E5C5E"/>
					<stop  offset="0.3666" style="stop-color:#797879"/>
					<stop  offset="0.6668" style="stop-color:#A5A4A5"/>
					<stop  offset="1" style="stop-color:#DEDEDD"/>
				</linearGradient>
				<polygon clip-path="url(#SVGID_54_)" fill="url(#SVGID_55_)" points="337.385,12.479 388.554,12.479 395.692,53.274 
					344.523,53.274 				"/>
			</g>
		</g>
	</g>
	<path fill="#FFFFFF" d="M383.267,12.474l-2.011-2.014c-1.304-1.305-3.416-1.307-4.722-0.004l-9.981,9.966
		c-1.306,1.303-3.419,1.301-4.722-0.004l-9.966-9.981c-1.303-1.305-3.417-1.307-4.722-0.004l-2.014,2.011
		c-1.305,1.302-1.307,3.416-0.003,4.721l9.965,9.981c1.303,1.305,1.301,3.418-0.003,4.721l-9.982,9.967
		c-1.305,1.303-1.306,3.417-0.004,4.721l2.011,2.014c1.303,1.306,3.417,1.308,4.723,0.004l9.98-9.965
		c1.305-1.303,3.419-1.302,4.722,0.004l9.966,9.981c1.303,1.306,3.417,1.306,4.722,0.004l2.014-2.011
		c1.306-1.303,1.307-3.417,0.004-4.723l-9.966-9.98c-1.303-1.305-1.301-3.419,0.004-4.723l9.981-9.965
		C384.568,15.893,384.57,13.779,383.267,12.474"/>
	<path fill="none" stroke="#676766" stroke-width="0.698" stroke-miterlimit="10" d="M383.267,12.474l-2.011-2.014
		c-1.304-1.305-3.416-1.307-4.722-0.004l-9.981,9.966c-1.306,1.303-3.419,1.301-4.722-0.004l-9.966-9.981
		c-1.303-1.305-3.417-1.307-4.722-0.004l-2.014,2.011c-1.305,1.302-1.307,3.416-0.003,4.721l9.965,9.981
		c1.303,1.305,1.301,3.418-0.003,4.721l-9.982,9.967c-1.305,1.303-1.306,3.417-0.004,4.721l2.011,2.014
		c1.303,1.306,3.417,1.308,4.723,0.004l9.98-9.965c1.305-1.303,3.419-1.302,4.722,0.004l9.966,9.981
		c1.303,1.306,3.417,1.306,4.722,0.004l2.014-2.011c1.306-1.303,1.307-3.417,0.004-4.723l-9.966-9.98
		c-1.303-1.305-1.301-3.419,0.004-4.723l9.981-9.965C384.568,15.893,384.57,13.779,383.267,12.474z"/>
	<path fill="#3F3F3E" d="M367.957,28.75l11.812-11.811c0.605-0.606,0.753-1.583,0.252-2.278c-0.64-0.887-1.884-0.961-2.623-0.221
		l-11.839,11.839c-0.626,0.626-1.642,0.626-2.268,0l-11.771-11.773c-0.607-0.607-1.584-0.755-2.281-0.254
		c-0.887,0.638-0.961,1.884-0.221,2.623l11.755,11.755c0.672,0.672,0.672,1.762,0,2.435l-11.667,11.666
		c-0.649,0.649-0.781,1.718-0.187,2.418c0.347,0.407,0.831,0.61,1.315,0.61c0.44,0,0.882-0.168,1.218-0.504l11.916-11.916
		c0.583-0.584,1.529-0.584,2.113,0l11.916,11.916c0.336,0.336,0.776,0.504,1.218,0.504c0.484,0,0.969-0.203,1.315-0.61
		c0.595-0.7,0.463-1.769-0.187-2.418l-11.787-11.787C367.351,30.338,367.351,29.356,367.957,28.75"/>
	<defs>
		<filter id="Adobe_OpacityMaskFilter_3_" filterUnits="userSpaceOnUse" x="350.246" y="15.91" width="44.386" height="44.389">
			<feColorMatrix  type="matrix" values="1 0 0 0 0  0 1 0 0 0  0 0 1 0 0  0 0 0 1 0"/>
		</filter>
	</defs>
	<mask maskUnits="userSpaceOnUse" x="350.246" y="15.91" width="44.386" height="44.389" id="SVGID_56_">
		<g filter="url(#Adobe_OpacityMaskFilter_3_)">
			<g>
				<defs>
					<rect id="SVGID_57_" x="363.909" y="26.813" width="18.645" height="21.542"/>
				</defs>
				<clipPath id="SVGID_58_">
					<use xlink:href="#SVGID_57_"  overflow="visible"/>
				</clipPath>
				<rect x="361.49" y="26.813" clip-path="url(#SVGID_58_)" width="21.897" height="22.583"/>
				<g enable-background="new    ">
					<g>
						<defs>
							<rect id="SVGID_59_" x="361.49" y="26.813" width="21.897" height="22.583"/>
						</defs>
						<clipPath id="SVGID_60_" clip-path="url(#SVGID_58_)">
							<use xlink:href="#SVGID_59_"  overflow="visible"/>
						</clipPath>
						<g>
							<defs>
								<rect id="SVGID_61_" x="353.8" y="32.559" width="45.672" height="25.021"/>
							</defs>
							<clipPath id="SVGID_62_" clip-path="url(#SVGID_60_)">
								<use xlink:href="#SVGID_61_"  overflow="visible"/>
							</clipPath>
							
								<linearGradient id="SVGID_63_" gradientUnits="userSpaceOnUse" x1="-116.6914" y1="431.4111" x2="-115.6914" y2="431.4111" gradientTransform="matrix(-19.8572 -14.6944 -14.6944 19.8572 4412.7192 -10225.9551)">
								<stop  offset="0" style="stop-color:#FFFFFF"/>
								<stop  offset="0.0915" style="stop-color:#F5F5F5"/>
								<stop  offset="0.2485" style="stop-color:#DAD9DA"/>
								<stop  offset="0.4521" style="stop-color:#AEACAD"/>
								<stop  offset="0.6945" style="stop-color:#716E70"/>
								<stop  offset="0.9669" style="stop-color:#242022"/>
								<stop  offset="1" style="stop-color:#1A1618"/>
							</linearGradient>
							<polygon clip-path="url(#SVGID_62_)" fill="url(#SVGID_63_)" points="383.312,79.418 341.836,48.727 369.96,10.72 
								411.436,41.412 							"/>
						</g>
					</g>
				</g>
			</g>
		</g>
	</mask>
	<g mask="url(#SVGID_56_)">
		<g>
			<defs>
				<rect id="SVGID_64_" x="363.909" y="26.813" width="18.645" height="21.542"/>
			</defs>
			<clipPath id="SVGID_65_">
				<use xlink:href="#SVGID_64_"  overflow="visible"/>
			</clipPath>
			<g clip-path="url(#SVGID_65_)">
				<defs>
					<path id="SVGID_66_" d="M377.554,48.146l-11.75-11.75c-4.314,0,0.083-9.583,0.083-9.583l16.5,15.5
						C383.387,44.729,379.637,49.396,377.554,48.146"/>
				</defs>
				<clipPath id="SVGID_67_">
					<use xlink:href="#SVGID_66_"  overflow="visible"/>
				</clipPath>
				
					<linearGradient id="SVGID_68_" gradientUnits="userSpaceOnUse" x1="-117.4409" y1="430.5596" x2="-116.4413" y2="430.5596" gradientTransform="matrix(-18.6486 -17.0144 -17.0144 18.6486 5518.1392 -9980.2168)">
					<stop  offset="0" style="stop-color:#8C8D8F"/>
					<stop  offset="0.1578" style="stop-color:#8C8D8F"/>
					<stop  offset="0.8172" style="stop-color:#FFFFFF"/>
					<stop  offset="1" style="stop-color:#FFFFFF"/>
				</linearGradient>
				<polygon clip-path="url(#SVGID_67_)" fill="url(#SVGID_68_)" points="373.44,60.299 350.246,39.137 371.438,15.91 
					394.631,37.071 				"/>
			</g>
		</g>
	</g>
</g>
</svg>
