<?xml version="1.0" encoding="utf-8"?>
<!-- Generator: Adobe Illustrator 16.0.3, SVG Export Plug-In . SVG Version: 6.00 Build 0)  -->
<!DOCTYPE svg PUBLIC "-//W3C//DTD SVG 1.1//EN" "http://www.w3.org/Graphics/SVG/1.1/DTD/svg11.dtd">
<svg version="1.1" id="Layer_1" xmlns="http://www.w3.org/2000/svg" xmlns:xlink="http://www.w3.org/1999/xlink" x="0px" y="0px"
	 width="612px" height="792px" viewBox="0 0 612 792" enable-background="new 0 0 612 792" xml:space="preserve">
<g id="circle">
	<circle fill="#7C7910" cx="306" cy="396" r="306"/>
</g>
<g id="target">
	<g>
		<g>
			<path fill="#FFFFFF" d="M432.072,398.448c-1.225,68.544-56.305,123.624-124.849,123.624
				c-69.768,0-126.072-56.305-126.072-126.072c0-68.544,55.08-124.848,123.624-126.072l6.12-29.376l1.225-3.672
				c-2.448,0-3.672,0-6.12,0c-88.128,0-159.12,72.216-159.12,160.344c0,88.128,72.216,159.12,160.344,159.12
				c88.128,0,159.12-72.216,159.12-160.344c0-1.224,0-3.672,0-4.896L432.072,398.448z"/>
		</g>
		<g>
			<polygon fill="#FFFFFF" points="339.048,246.672 306,396 455.328,362.952 406.368,336.024 456.552,285.84 416.16,245.448 
				365.976,295.632 			"/>
		</g>
		<path fill="#FFFFFF" d="M358.632,414.36c-7.344,22.031-28.151,36.72-52.632,36.72c-30.6,0-56.304-24.48-56.304-55.08
			c0-24.48,15.912-45.288,36.72-52.632l8.568-37.944c-46.512,4.896-82.008,44.064-82.008,91.8c0,50.185,41.616,91.801,91.8,91.801
			c47.736,0,85.68-35.496,90.576-82.009L358.632,414.36z"/>
	</g>
</g>
</svg>
