<?xml version="1.0" encoding="utf-8"?>
<!-- Generator: Adobe Illustrator 18.1.1, SVG Export Plug-In . SVG Version: 6.00 Build 0)  -->
<svg version="1.1" xmlns="http://www.w3.org/2000/svg" xmlns:xlink="http://www.w3.org/1999/xlink" x="0px" y="0px"
	 viewBox="0 0 50 50" enable-background="new 0 0 50 50" xml:space="preserve">
<g id="circle">
	<path fill="#7D8181" d="M37.6,21.6L35.1,25c0.2,0.9,0.2,1.8,0.2,2.7c0,8.3-6.7,15-15,15c-8.3,0-15-6.7-15-15
		c0-8.3,6.7-14.9,15-14.9c2.8,0,5.5,0.8,7.7,2.1l2.3-2.6c-2.9-2-6.5-3.1-10.3-3.1C10,9.3,1.7,17.5,1.7,27.7
		C1.7,38,10,46.3,20.2,46.3c10.2,0,18.5-8.3,18.5-18.5C38.7,25.4,38.4,23.6,37.6,21.6z"/>
</g>
<g id="Check">
	<g>
		<polygon fill="#363935" points="19.2,40.1 48.8,1.8 19.1,29 9.6,22.6 		"/>
	</g>
</g>
</svg>
