<?xml version="1.0" encoding="utf-8"?>
<!-- Generator: Adobe Illustrator 16.0.3, SVG Export Plug-In . SVG Version: 6.00 Build 0)  -->
<!DOCTYPE svg PUBLIC "-//W3C//DTD SVG 1.1//EN" "http://www.w3.org/Graphics/SVG/1.1/DTD/svg11.dtd">
<svg version="1.1" id="Layer_1" xmlns="http://www.w3.org/2000/svg" xmlns:xlink="http://www.w3.org/1999/xlink" x="0px" y="0px"
	 width="612px" height="792px" viewBox="0 0 612 792" enable-background="new 0 0 612 792" xml:space="preserve">
<g id="circle_and_people">
	<path fill="#7D8181" d="M525.096,422.928l-17.136,23.868c1.224,6.12,1.836,12.24,1.836,18.36
		c0,56.916-46.512,103.428-103.428,103.428s-103.428-45.9-103.428-103.428c0-56.916,46.512-102.816,103.428-102.816
		c19.584,0,37.943,5.508,53.244,14.688l15.912-17.748c-20.196-13.464-44.677-21.42-70.992-21.42
		c-70.38,0-127.296,56.916-127.296,127.296c0,70.38,56.917,127.908,127.296,127.908s127.296-56.916,127.296-127.908
		C532.44,449.244,530.604,437.004,525.096,422.928z"/>
	<path fill="#7D8181" d="M184.212,254.628c1.224,3.672,7.344,11.016,13.464,15.3c2.448,1.836,7.344,2.448,9.18,2.448l0,0
		c1.836,0,6.732-0.612,9.792-2.448c6.12-4.284,12.24-11.628,14.076-14.688c0-0.612,0.612-0.612,0.612-1.224
		c1.224-4.284,4.896-14.688,4.896-27.54c0-20.196-14.076-29.376-28.152-29.988c-14.688,0-28.764,9.18-28.764,29.376
		c0,12.852,3.06,23.256,4.284,27.54C183.6,254.016,184.212,254.016,184.212,254.628z M206.856,326.232
		c2.448-2.448,6.12-9.792,7.344-12.24l-4.284-23.868c-1.836,1.224-4.284,1.224-6.12,0l-4.284,23.256
		C200.736,317.052,204.408,323.784,206.856,326.232z M210.528,287.676c0.612-1.836,1.836-6.732,1.836-7.956
		c0-4.284-10.404-4.284-10.404,0c0,1.224,1.224,6.732,1.836,7.956C205.02,289.512,209.304,289.512,210.528,287.676z M360.468,298.08
		c-30.6-3.06-62.424-9.18-93.636-15.912c-13.464-3.06-25.704-6.12-36.72-8.568c0,13.464-12.24,48.348-22.644,58.752
		c-10.404-10.404-22.032-45.9-22.032-59.364c0,0-24.48,6.732-35.496,10.404c-1.836,0.612-4.284,1.836-5.508,3.672
		c-1.836,3.06-2.448,6.732-3.06,15.3c-4.284,49.572,3.672,109.548,3.672,115.668c0,3.672,4.896,6.731,13.464,8.567l-2.448-96.696
		c1.836,18.972,20.808,260.1,20.808,260.1h26.928c0,0,1.836-130.355,1.836-131.58h2.448c0,1.836,0,132.192,0,132.192h26.928
		c0,0,22.644-240.516,24.48-259.488c1.224-6.732,6.732-12.852,15.3-12.852c29.988,0.612,70.992,1.836,84.456-0.612
		C365.364,317.052,369.036,299.304,360.468,298.08z"/>
	<g>
		<path fill="#7D8181" d="M41.004,259.524c1.224,3.672,7.344,10.404,13.464,14.688c2.448,1.836,7.344,2.448,9.18,2.448l0,0
			c1.836,0,6.732-0.612,9.18-2.448c6.12-4.284,12.24-11.016,13.464-14.688c0-0.612,0.612-0.612,0.612-1.224
			c1.224-4.284,4.896-14.688,4.896-26.928c0-19.584-13.464-28.764-27.54-29.376c-14.076,0-27.54,9.18-27.54,28.764
			c0,12.24,3.06,22.644,4.284,26.928C41.004,258.912,41.004,258.912,41.004,259.524z"/>
		<path fill="#7D8181" d="M119.952,306.648c-0.612-8.568-1.224-12.24-3.06-15.3c-0.612-1.836-3.06-4.284-4.896-4.896l0,0
			c0,0-15.3-5.508-26.316-8.568c0,12.852,2.448,37.332-22.032,37.944c-23.868,0-21.42-25.704-21.42-38.556
			c0,0-14.076,6.12-24.48,9.792c-1.836,0.612-4.284,1.836-4.896,3.672c-1.836,3.06-2.448,6.732-3.06,15.3
			c-4.284,48.348,3.672,107.1,3.672,113.22c0,3.672,4.896,6.732,12.852,8.568l-3.06-94.86c0.612,4.284,12.24,33.048,12.24,33.048
			L13.464,514.116h23.868l9.792,74.052h12.852c0,0,1.224-73.44,1.224-74.664h3.672c0,1.836,0,74.664,0,74.664l12.24-0.612
			l11.016-73.439h26.928L94.248,366.624l11.016-33.66c-0.612,30.6-0.612,96.084-0.612,96.084c7.956-1.836,12.852-4.896,12.852-8.567
			C116.28,413.748,124.236,354.996,119.952,306.648z"/>
	</g>
	<circle fill="#7D8181" cx="63.648" cy="306.036" r="4.284"/>
	<circle fill="#7D8181" cx="54.468" cy="302.976" r="3.06"/>
	<circle fill="#7D8181" cx="48.348" cy="296.856" r="3.06"/>
	<circle fill="#7D8181" cx="45.288" cy="288.9" r="1.836"/>
	<circle fill="#7D8181" cx="82.008" cy="288.288" r="1.836"/>
	<circle fill="#7D8181" cx="73.44" cy="302.364" r="3.06"/>
	<circle fill="#7D8181" cx="79.56" cy="295.632" r="3.06"/>
	<circle fill="#7D8181" cx="81.396" cy="279.108" r="1.836"/>
	<circle fill="#7D8181" cx="45.9" cy="279.108" r="1.836"/>
	<circle fill="#7D8181" cx="62.424" cy="203.832" r="14.076"/>
</g>
<g id="check">
	<g>
		<polygon fill="#7C7910" points="398.412,550.836 602.208,287.064 397.8,474.336 332.316,430.271 		"/>
	</g>
</g>
</svg>
