<?xml version="1.0" encoding="UTF-8" standalone="no"?>
<!-- Generator: Adobe Illustrator 16.0.3, SVG Export Plug-In . SVG Version: 6.00 Build 0)  -->

<svg
   xmlns:dc="http://purl.org/dc/elements/1.1/"
   xmlns:cc="http://creativecommons.org/ns#"
   xmlns:rdf="http://www.w3.org/1999/02/22-rdf-syntax-ns#"
   xmlns:svg="http://www.w3.org/2000/svg"
   xmlns="http://www.w3.org/2000/svg"
   xmlns:sodipodi="http://sodipodi.sourceforge.net/DTD/sodipodi-0.dtd"
   xmlns:inkscape="http://www.inkscape.org/namespaces/inkscape"
   version="1.1"
   id="Layer_1"
   x="0px"
   y="0px"
   width="1024px"
   height="768px"
   viewBox="0 0 1024 768"
   enable-background="new 0 0 1024 768"
   xml:space="preserve"
   inkscape:version="0.91 r13725"
   sodipodi:docname="ribbon_objectives.svg"><metadata
     id="metadata65"><rdf:RDF><cc:Work
         rdf:about=""><dc:format>image/svg+xml</dc:format><dc:type
           rdf:resource="http://purl.org/dc/dcmitype/StillImage" /><dc:title></dc:title></cc:Work></rdf:RDF></metadata><defs
     id="defs63" /><sodipodi:namedview
     pagecolor="#ffffff"
     bordercolor="#666666"
     borderopacity="1"
     objecttolerance="10"
     gridtolerance="10"
     guidetolerance="10"
     inkscape:pageopacity="0"
     inkscape:pageshadow="2"
     inkscape:window-width="1290"
     inkscape:window-height="709"
     id="namedview61"
     showgrid="false"
     inkscape:zoom="0.30729167"
     inkscape:cx="512"
     inkscape:cy="384"
     inkscape:window-x="1746"
     inkscape:window-y="174"
     inkscape:window-maximized="0"
     inkscape:current-layer="Layer_1" /><g
     id="line"><path
       fill="#C6C6C6"
       d="M350.72,672.96c-11.52,0-21.12-60.479-21.12-72V179.52c0.96-35.52,11.52-89.28,23.04-89.28L350.72,672.96z"
       id="path4" /><linearGradient
       id="SVGID_1_"
       gradientUnits="userSpaceOnUse"
       x1="-3.1357"
       y1="696.6768"
       x2="-3.1357"
       y2="776.6768"
       gradientTransform="matrix(9.6 0 0 -9.6 383.7 7456.1001)"><stop
         offset="0"
         style="stop-color:#FFFFFF"
         id="stop7" /><stop
         offset="0.0566"
         style="stop-color:#D6D6D6"
         id="stop9" /><stop
         offset="0.1522"
         style="stop-color:#959595"
         id="stop11" /><stop
         offset="0.2435"
         style="stop-color:#606060"
         id="stop13" /><stop
         offset="0.328"
         style="stop-color:#373737"
         id="stop15" /><stop
         offset="0.4043"
         style="stop-color:#191919"
         id="stop17" /><stop
         offset="0.4695"
         style="stop-color:#060606"
         id="stop19" /><stop
         offset="0.5161"
         style="stop-color:#000000"
         id="stop21" /><stop
         offset="0.5622"
         style="stop-color:#050505"
         id="stop23" /><stop
         offset="0.6185"
         style="stop-color:#141414"
         id="stop25" /><stop
         offset="0.68"
         style="stop-color:#2D2D2D"
         id="stop27" /><stop
         offset="0.7454"
         style="stop-color:#4F4F4F"
         id="stop29" /><stop
         offset="0.8137"
         style="stop-color:#7C7C7C"
         id="stop31" /><stop
         offset="0.8846"
         style="stop-color:#B2B2B2"
         id="stop33" /><stop
         offset="0.9562"
         style="stop-color:#F1F1F1"
         id="stop35" /><stop
         offset="0.9708"
         style="stop-color:#FFFFFF"
         id="stop37" /></linearGradient><rect
       x="348.8"
       fill="url(#SVGID_1_)"
       width="9.6"
       height="768"
       id="rect39" /></g><g
     id="underside"><polygon
       points="291.2,500.16 348.8,444.48 348.8,554.88  "
       id="polygon42" /></g><g
     id="ribbon"><polygon
       fill="#454A4B"
       points="655.04,500.16 291.2,500.16 291.2,221.76 655.04,221.76 752,362.88  "
       id="polygon45" /></g><g
     id="g47"><path
       fill-rule="evenodd"
       clip-rule="evenodd"
       fill="#323333"
       d="M554.539,457.682c-0.008,9.368-21.749,17.016-48.805,17.171   c-27.527,0.157-50.136-7.652-50.047-17.287c0.089-9.436,21.587-16.996,48.774-17.15   C531.98,440.258,554.561,448.041,554.539,457.682z"
       id="path49" /><g
       id="g51"><path
         fill-rule="evenodd"
         clip-rule="evenodd"
         fill="#FFFFFF"
         d="M505.172,247.066c44.753,0.229,81.663,34.638,85.556,79.376    c1.211,13.902-2.563,26.338-8.638,38.336c-11.468,22.648-27.358,42.157-44.337,60.777c-9.34,10.244-19.351,19.878-29.005,29.837    c-2.197,2.265-3.967,3.382-6.836,0.576c-26.509-25.918-52.066-52.628-70.668-85.082c-7.042-12.286-12.5-25.16-12.332-39.758    c0.483-41.75,34.255-78.797,75.778-83.053C498.183,247.717,501.678,247.401,505.172,247.066z M439.208,332.865    c0.002,36.62,29.248,65.987,65.779,66.054c36.376,0.068,65.956-29.484,66.03-65.972c0.072-36.706-29.52-66.344-66.222-66.324    C468.439,266.641,439.205,296.169,439.208,332.865z"
         id="path53" /><path
         fill-rule="evenodd"
         clip-rule="evenodd"
         fill="#454A4B"
         d="M439.208,332.865c-0.003-36.696,29.231-66.224,65.588-66.242    c36.702-0.02,66.294,29.618,66.222,66.324c-0.074,36.487-29.654,66.04-66.03,65.972    C468.456,398.853,439.21,369.485,439.208,332.865z M544.93,332.774c0.012-22.131-17.637-39.979-39.607-40.057    c-22.375-0.077-40.214,17.695-40.199,40.052c0.014,22.165,17.51,39.849,39.643,40.071    C526.924,373.063,544.918,355.112,544.93,332.774z"
         id="path55" /><path
         fill-rule="evenodd"
         clip-rule="evenodd"
         fill="#FFFFFF"
         d="M544.93,332.774c-0.012,22.338-18.006,40.289-40.163,40.066    c-22.133-0.223-39.629-17.906-39.643-40.071c-0.016-22.356,17.824-40.129,40.199-40.052    C527.293,292.795,544.941,310.643,544.93,332.774z M522.063,332.942c0.007-9.64-7.765-17.424-17.239-17.266    c-9.359,0.155-16.761,7.716-16.791,17.151c-0.03,9.634,7.753,17.444,17.229,17.286    C514.577,349.958,522.061,342.312,522.063,332.942z"
         id="path57" /><path
         fill-rule="evenodd"
         clip-rule="evenodd"
         fill="#454A4B"
         d="M522.063,332.942c-0.003,9.37-7.486,17.017-16.801,17.172    c-9.476,0.158-17.259-7.652-17.229-17.286c0.03-9.436,7.432-16.997,16.791-17.151C514.299,315.518,522.07,323.302,522.063,332.942    z"
         id="path59" /></g></g></svg>