<?xml version="1.0" encoding="utf-8"?>
<!-- Generator: Adobe Illustrator 18.1.1, SVG Export Plug-In . SVG Version: 6.00 Build 0)  -->
<svg version="1.1" xmlns="http://www.w3.org/2000/svg" xmlns:xlink="http://www.w3.org/1999/xlink" x="0px" y="0px"
	 viewBox="0 0 50 80" enable-background="new 0 0 50 80" xml:space="preserve">
<g id="line">
	<path fill="#C6C6C6" d="M8.2,70.1C7,70.1,6,63.8,6,62.6V18.7c0.1-3.7,1.2-9.3,2.4-9.3L8.2,70.1z"/>
	<linearGradient id="SVGID_1_" gradientUnits="userSpaceOnUse" x1="8.5" y1="80" x2="8.5" y2="-2.273737e-011">
		<stop  offset="0" style="stop-color:#FFFFFF"/>
		<stop  offset="5.657667e-002" style="stop-color:#D6D6D6"/>
		<stop  offset="0.1522" style="stop-color:#959595"/>
		<stop  offset="0.2435" style="stop-color:#606060"/>
		<stop  offset="0.328" style="stop-color:#373737"/>
		<stop  offset="0.4043" style="stop-color:#191919"/>
		<stop  offset="0.4695" style="stop-color:#060606"/>
		<stop  offset="0.5161" style="stop-color:#000000"/>
		<stop  offset="0.5622" style="stop-color:#050505"/>
		<stop  offset="0.6185" style="stop-color:#141414"/>
		<stop  offset="0.68" style="stop-color:#2D2D2D"/>
		<stop  offset="0.7454" style="stop-color:#4F4F4F"/>
		<stop  offset="0.8137" style="stop-color:#7C7C7C"/>
		<stop  offset="0.8846" style="stop-color:#B2B2B2"/>
		<stop  offset="0.9562" style="stop-color:#F1F1F1"/>
		<stop  offset="0.9708" style="stop-color:#FFFFFF"/>
	</linearGradient>
	<rect x="8" fill="url(#SVGID_1_)" width="1" height="80"/>
</g>
<g id="underside">
	<polygon points="2,52.1 8,46.3 8,57.8 	"/>
</g>
<g id="ribbon">
	<polygon fill="#454A4B" points="39.9,52.1 2,52.1 2,23.1 39.9,23.1 50,37.8 	"/>
</g>
<g id="checkmark">
	<path fill="#FFFFFF" d="M30.3,36.1L29,38c0.1,0.5,0.1,1,0.1,1.5c0,4.5-3.6,8.1-8.1,8.1c-4.5,0-8.1-3.6-8.1-8.1
		c0-4.5,3.6-8.1,8.1-8.1c1.5,0,3,0.4,4.2,1.2l1.2-1.4c-1.6-1.1-3.5-1.7-5.5-1.7c-5.5,0-10,4.5-10,10c0,5.5,4.5,10,10,10
		c5.5,0,10-4.5,10-10C30.9,38.2,30.7,37.2,30.3,36.1z"/>
	<g>
		<polygon fill="#FFFFFF" points="20.3,46.1 36.3,25.4 20.3,40.1 15.2,36.7 		"/>
	</g>
</g>
</svg>
