<?xml version="1.0" encoding="utf-8"?>
<!-- Generator: Adobe Illustrator 18.1.1, SVG Export Plug-In . SVG Version: 6.00 Build 0)  -->
<svg version="1.1" xmlns="http://www.w3.org/2000/svg" xmlns:xlink="http://www.w3.org/1999/xlink" x="0px" y="0px"
	 viewBox="0 0 500 500" enable-background="new 0 0 500 500" xml:space="preserve">
<g id="keyline">
	<path fill="#C6C6C6" d="M59.6,171.2c0-7.2,37.7-13.2,44.9-13.2h262.9c22.2,0.6,55.7,7.2,55.7,14.4L59.6,171.2z"/>
</g>
<g id="ribbon_1_">
	<g id="underside">
		<polygon points="167.5,134.1 202.2,170 133.3,170 		"/>
	</g>
	<g id="ribbon">
		<polygon fill="#7c7910" points="167.5,308.4 167.5,134.1 341.1,134.1 341.1,308.4 		"/>
	</g>
</g>
<g id="check">
	<g id="checkmark">
		<path fill="#FFFFFF" d="M297.7,209.2l-7.8,11.4c0.6,3,0.6,6,0.6,9c0,26.9-21.5,48.5-48.5,48.5s-48.5-21.5-48.5-48.5
			S215,181,242,181c9,0,17.9,2.4,25.1,7.2l7.2-8.4c-9.6-6.6-21-10.2-33-10.2c-33,0-59.9,26.9-59.9,59.9s26.9,59.9,59.9,59.9
			s59.9-26.9,59.9-59.9C301.3,221.8,300.1,215.8,297.7,209.2z"/>
		<g>
			<polygon fill="#FFFFFF" points="237.8,269.1 333.6,145.1 237.8,233.1 207.2,212.8 			"/>
		</g>
	</g>
</g>
</svg>
